<?xml version="1.0" encoding="UTF-8" standalone="no"?>
<!-- Created with Inkscape (http://www.inkscape.org/) -->

<svg
   version="1.0"
   width="96"
   height="96"
   id="svg2408"
   sodipodi:docname="brave.svg"
   inkscape:version="1.2.2 (b0a8486541, 2022-12-01)"
   xmlns:inkscape="http://www.inkscape.org/namespaces/inkscape"
   xmlns:sodipodi="http://sodipodi.sourceforge.net/DTD/sodipodi-0.dtd"
   xmlns:xlink="http://www.w3.org/1999/xlink"
   xmlns="http://www.w3.org/2000/svg"
   xmlns:svg="http://www.w3.org/2000/svg"
   xmlns:rdf="http://www.w3.org/1999/02/22-rdf-syntax-ns#"
   xmlns:cc="http://creativecommons.org/ns#"
   xmlns:dc="http://purl.org/dc/elements/1.1/">
  <sodipodi:namedview
     id="namedview24059"
     pagecolor="#ffffff"
     bordercolor="#000000"
     borderopacity="0.25"
     inkscape:showpageshadow="2"
     inkscape:pageopacity="0.0"
     inkscape:pagecheckerboard="0"
     inkscape:deskcolor="#d1d1d1"
     showgrid="false"
     inkscape:zoom="4.0000001"
     inkscape:cx="81.499998"
     inkscape:cy="35.624999"
     inkscape:current-layer="svg2408"
     inkscape:window-width="2550"
     inkscape:window-height="1407"
     inkscape:window-x="1463"
     inkscape:window-y="1440"
     inkscape:window-maximized="0" />
  <defs
     id="defs2410">
    <linearGradient
       id="linearGradient10">
      <stop
         id="stop9"
         style="stop-color:#ffffff;stop-opacity:0;"
         offset="0" />
      <stop
         id="stop10"
         style="stop-color:#ffffff;stop-opacity:1;"
         offset="1" />
    </linearGradient>
    <linearGradient
       id="linearGradient6"
       inkscape:collect="always">
      <stop
         style="stop-color:#ffffff;stop-opacity:1;"
         offset="0.09541158"
         id="stop7" />
      <stop
         style="stop-color:#ffffff;stop-opacity:0;"
         offset="1"
         id="stop8" />
    </linearGradient>
    <linearGradient
       id="linearGradient5"
       inkscape:collect="always">
      <stop
         style="stop-color:#ffffff;stop-opacity:1;"
         offset="0.3468233"
         id="stop5" />
      <stop
         style="stop-color:#ffffff;stop-opacity:0;"
         offset="1"
         id="stop6" />
    </linearGradient>
    <linearGradient
       id="linearGradient1"
       inkscape:collect="always">
      <stop
         style="stop-color:#fffff7;stop-opacity:1;"
         offset="0.14835851"
         id="stop1" />
      <stop
         style="stop-color:#fffff7;stop-opacity:0;"
         offset="1"
         id="stop2" />
    </linearGradient>
    <linearGradient
       id="linearGradient3729">
      <stop
         id="stop3731"
         style="stop-color:#1c59ad;stop-opacity:1"
         offset="0" />
      <stop
         id="stop3733"
         style="stop-color:#377ad6;stop-opacity:1"
         offset="1" />
    </linearGradient>
    <linearGradient
       x1="45.447727"
       y1="92.539597"
       x2="45.447727"
       y2="7.0165396"
       id="ButtonShadow"
       gradientUnits="userSpaceOnUse"
       gradientTransform="scale(1.0058652,0.994169)">
      <stop
         id="stop3750"
         style="stop-color:#000000;stop-opacity:1"
         offset="0" />
      <stop
         id="stop3752"
         style="stop-color:#000000;stop-opacity:0.58823532"
         offset="1" />
    </linearGradient>
    <linearGradient
       id="linearGradient3737">
      <stop
         id="stop3739"
         style="stop-color:#ffffff;stop-opacity:1"
         offset="0" />
      <stop
         id="stop3741"
         style="stop-color:#ffffff;stop-opacity:0"
         offset="1" />
    </linearGradient>
    <linearGradient
       id="linearGradient3700">
      <stop
         id="stop3702"
         style="stop-color:#fe4700;stop-opacity:1;"
         offset="0" />
      <stop
         id="stop3704"
         style="stop-color:#ff8500;stop-opacity:1;"
         offset="1" />
    </linearGradient>
    <linearGradient
       x1="48"
       y1="90"
       x2="48"
       y2="5.9877172"
       id="linearGradient3706"
       xlink:href="#linearGradient3700"
       gradientUnits="userSpaceOnUse" />
    <filter
       color-interpolation-filters="sRGB"
       id="filter3174"
       x="-0.047720931"
       y="-0.048282354"
       width="1.0954419"
       height="1.0965647">
      <feGaussianBlur
         stdDeviation="1.71"
         id="feGaussianBlur3176" />
    </filter>
    <linearGradient
       x1="36.357143"
       y1="6"
       x2="36.357143"
       y2="63.893143"
       id="linearGradient3188"
       xlink:href="#linearGradient3737"
       gradientUnits="userSpaceOnUse" />
    <linearGradient
       x1="45.447727"
       y1="92.539597"
       x2="45.447727"
       y2="7.0165396"
       id="ButtonShadow-0"
       gradientUnits="userSpaceOnUse"
       gradientTransform="matrix(1.0058652,0,0,0.994169,100,0)">
      <stop
         id="stop3750-8"
         style="stop-color:#000000;stop-opacity:1"
         offset="0" />
      <stop
         id="stop3752-5"
         style="stop-color:#000000;stop-opacity:0.58823532"
         offset="1" />
    </linearGradient>
    <linearGradient
       x1="32.251034"
       y1="6.1317081"
       x2="32.251034"
       y2="90.238609"
       id="linearGradient3780"
       xlink:href="#ButtonShadow-0"
       gradientUnits="userSpaceOnUse"
       gradientTransform="matrix(1.0238095,0,0,1.0119048,-1.1428571,-98.071429)" />
    <linearGradient
       x1="32.251034"
       y1="6.1317081"
       x2="32.251034"
       y2="90.238609"
       id="linearGradient3772"
       xlink:href="#ButtonShadow-0"
       gradientUnits="userSpaceOnUse"
       gradientTransform="matrix(1.0238095,0,0,1.0119048,-1.1428571,-98.071429)" />
    <linearGradient
       x1="32.251034"
       y1="6.1317081"
       x2="32.251034"
       y2="90.238609"
       id="linearGradient3725"
       xlink:href="#ButtonShadow-0"
       gradientUnits="userSpaceOnUse"
       gradientTransform="matrix(1.0238095,0,0,1.0119048,-1.1428571,-98.071429)" />
    <linearGradient
       x1="32.251034"
       y1="6.1317081"
       x2="32.251034"
       y2="90.238609"
       id="linearGradient3721"
       xlink:href="#ButtonShadow-0"
       gradientUnits="userSpaceOnUse"
       gradientTransform="translate(0,-97)" />
    <linearGradient
       x1="32.251034"
       y1="6.1317081"
       x2="32.251034"
       y2="90.238609"
       id="linearGradient3760"
       xlink:href="#ButtonShadow-0"
       gradientUnits="userSpaceOnUse"
       gradientTransform="matrix(1.0238095,0,0,1.0119048,-1.1428571,-98.071429)" />
    <linearGradient
       id="linearGradient3737-0">
      <stop
         id="stop3739-6"
         style="stop-color:#ffffff;stop-opacity:1"
         offset="0" />
      <stop
         id="stop3741-0"
         style="stop-color:#ffffff;stop-opacity:0"
         offset="1" />
    </linearGradient>
    <radialGradient
       cx="48"
       cy="90.171875"
       r="42"
       fx="48"
       fy="90.171875"
       id="radialGradient2903"
       xlink:href="#linearGradient3737-0"
       gradientUnits="userSpaceOnUse"
       gradientTransform="matrix(1.1573129,0,0,0.99590774,-7.551021,0.1971319)" />
    <clipPath
       id="clipPath3782">
      <path
         d="m -98,6 c -3.324,0 -6,2.676 -6,6 l 0,72 c 0,3.324 2.676,6 6,6 l 72,0 c 3.324,0 6,-2.676 6,-6 l 0,-72 c 0,-3.324 -2.676,-6 -6,-6 l -72,0 z m 59.0625,12 C -38.336494,17.9909 -38,18.03125 -38,18.03125 l 0,12.0625 C -50.051065,30.305506 -53,42.0625 -53,42.0625 l 9.0625,0 0,12.0625 -14.09375,0 C -66.507844,80.276885 -86,77.9375 -86,77.9375 l 0,-12.0625 c 0,0 12.376145,2.298313 18.6875,-20.75 6.908061,-25.227422 24.167961,-27.061294 28.375,-27.125 z"
         inkscape:connector-curvature="0"
         id="path3784"
         style="fill:#ff00ff;fill-opacity:1;fill-rule:nonzero;stroke:none" />
    </clipPath>
    <filter
       x="-0.18283333"
       y="-0.14622227"
       width="1.3656667"
       height="1.2924143"
       color-interpolation-filters="sRGB"
       id="filter3786">
      <feGaussianBlur
         id="feGaussianBlur3788"
         stdDeviation="3.24" />
    </filter>
    <linearGradient
       x1="46.906918"
       y1="75.471306"
       x2="46.906918"
       y2="36.246487"
       id="linearGradient3745"
       xlink:href="#linearGradient3729"
       gradientUnits="userSpaceOnUse"
       gradientTransform="translate(-2)" />
    <linearGradient
       id="linearGradient3737-9">
      <stop
         id="stop3739-2"
         style="stop-color:#ffffff;stop-opacity:1"
         offset="0" />
      <stop
         id="stop3741-1"
         style="stop-color:#ffffff;stop-opacity:0"
         offset="1" />
    </linearGradient>
    <clipPath
       id="clipPath3613">
      <rect
         width="84"
         height="84"
         rx="6"
         ry="6"
         x="6"
         y="6"
         id="rect3615"
         style="fill:#ffffff;fill-opacity:1;fill-rule:nonzero;stroke:none" />
    </clipPath>
    <filter
       x="-0.19578789"
       y="-0.19578789"
       width="1.3915758"
       height="1.3915758"
       color-interpolation-filters="sRGB"
       id="filter3794">
      <feGaussianBlur
         id="feGaussianBlur3796"
         stdDeviation="5.28" />
    </filter>
    <linearGradient
       x1="48"
       y1="20.220806"
       x2="48"
       y2="138.66119"
       id="linearGradient4186"
       xlink:href="#linearGradient3737-9"
       gradientUnits="userSpaceOnUse" />
    <linearGradient
       id="linearGradient2660">
      <stop
         style="stop-color:#edeeec;stop-opacity:1;"
         offset="0"
         id="stop2662" />
      <stop
         style="stop-color:#babdb6;stop-opacity:1;"
         offset="1"
         id="stop2664" />
    </linearGradient>
    <linearGradient
       id="linearGradient15653">
      <stop
         style="stop-color:#f0f1ee;stop-opacity:1;"
         offset="0"
         id="stop15655" />
      <stop
         style="stop-color:#d5d9d1;stop-opacity:1;"
         offset="1"
         id="stop15657" />
    </linearGradient>
    <radialGradient
       inkscape:collect="always"
       xlink:href="#linearGradient1"
       id="radialGradient2"
       cx="47.938946"
       cy="50.441078"
       fx="47.938946"
       fy="50.441078"
       r="32"
       gradientTransform="matrix(0.54265649,0,0,5.6233775,21.924568,-233.20815)"
       gradientUnits="userSpaceOnUse" />
    <radialGradient
       inkscape:collect="always"
       xlink:href="#linearGradient5"
       id="radialGradient6"
       cx="47.939457"
       cy="50.438477"
       fx="47.939457"
       fy="50.438477"
       r="31.582424"
       gradientTransform="matrix(0.50950784,0,0,5.7997461,23.513928,-242.62221)"
       gradientUnits="userSpaceOnUse" />
    <linearGradient
       inkscape:collect="always"
       xlink:href="#linearGradient6"
       id="linearGradient8"
       x1="48.067963"
       y1="21.084757"
       x2="48.067963"
       y2="66.427979"
       gradientUnits="userSpaceOnUse"
       gradientTransform="translate(0,-0.61871844)" />
    <linearGradient
       x1="53.218033"
       y1="71.017761"
       x2="56"
       y2="16"
       id="linearGradient3918"
       xlink:href="#linearGradient10"
       gradientUnits="userSpaceOnUse"
       gradientTransform="translate(0.03125006,-0.03125006)" />
    <filter
       inkscape:collect="always"
       style="color-interpolation-filters:sRGB"
       id="filter10"
       x="-0.25050569"
       y="-0.52299932"
       width="1.5010114"
       height="2.0459986">
      <feGaussianBlur
         inkscape:collect="always"
         stdDeviation="6.1443447"
         id="feGaussianBlur10" />
    </filter>
  </defs>
  <metadata
     id="metadata2413">
    <rdf:RDF>
      <cc:Work
         rdf:about="">
        <dc:format>image/svg+xml</dc:format>
        <dc:type
           rdf:resource="http://purl.org/dc/dcmitype/StillImage" />
      </cc:Work>
    </rdf:RDF>
  </metadata>
  <g
     id="layer7"
     style="display:inline">
    <path
       d="m 12,-95.03125 c -5.5110903,0 -10.03125,4.52016 -10.03125,10.03125 l 0,71 c 0,5.5110902 4.5201598,10.03125 10.03125,10.03125 l 72,0 c 5.51109,0 10.03125,-4.5201597 10.03125,-10.03125 l 0,-71 c 0,-5.51109 -4.52016,-10.03125 -10.03125,-10.03125 l -72,0 z"
       transform="scale(1,-1)"
       id="path3786"
       style="opacity:0.07999998;fill:url(#linearGradient3760);fill-opacity:1;fill-rule:nonzero;stroke:none;display:inline" />
    <path
       d="m 12,-94.03125 c -4.971633,0 -9.03125,4.059617 -9.03125,9.03125 l 0,71 c 0,4.9716329 4.0596171,9.03125 9.03125,9.03125 l 72,0 c 4.971633,0 9.03125,-4.059617 9.03125,-9.03125 l 0,-71 c 0,-4.971633 -4.059617,-9.03125 -9.03125,-9.03125 l -72,0 z"
       transform="scale(1,-1)"
       id="path3778"
       style="opacity:0.1;fill:url(#linearGradient3780);fill-opacity:1;fill-rule:nonzero;stroke:none;display:inline" />
    <path
       d="m 12,-93 c -4.4091333,0 -8,3.590867 -8,8 l 0,71 c 0,4.4091333 3.5908667,8 8,8 l 72,0 c 4.409133,0 8,-3.5908667 8,-8 l 0,-71 c 0,-4.409133 -3.590867,-8 -8,-8 l -72,0 z"
       transform="scale(1,-1)"
       id="path3770"
       style="opacity:0.2;fill:url(#linearGradient3772);fill-opacity:1;fill-rule:nonzero;stroke:none;display:inline" />
    <rect
       width="86"
       height="85"
       rx="7"
       ry="7"
       x="5"
       y="-92"
       transform="scale(1,-1)"
       id="rect3723"
       style="opacity:0.3;fill:url(#linearGradient3725);fill-opacity:1;fill-rule:nonzero;stroke:none;display:inline" />
    <rect
       width="84"
       height="84"
       rx="6"
       ry="6"
       x="6"
       y="-91"
       transform="scale(1,-1)"
       id="rect3716"
       style="opacity:0.45;fill:url(#linearGradient3721);fill-opacity:1;fill-rule:nonzero;stroke:none;display:inline" />
  </g>
  <g
     id="layer1">
    <rect
       width="84"
       height="84"
       rx="6"
       ry="6"
       x="6"
       y="6"
       id="rect2419"
       style="fill:url(#linearGradient3706);fill-opacity:1;fill-rule:nonzero;stroke:none" />
    <ellipse
       style="opacity:0.40509277;fill:#c61700;fill-opacity:1;stroke-width:1.02171;filter:url(#filter10)"
       id="path10"
       cx="48.967148"
       cy="73.494911"
       rx="29.433319"
       ry="14.097941" />
    <path
       d="m 12.03125,5.9687499 c -3.3239999,0 -5.9999999,2.676 -5.9999999,6.0000001 v 30.0625 c 12.2124919,4.668486 26.5851259,7.375 41.9999999,7.375 15.414874,0 29.787508,-2.706514 42,-7.375 v -30.0625 c 0,-3.3240001 -2.676,-6.0000001 -6,-6.0000001 z"
       inkscape:connector-curvature="0"
       id="path3907"
       style="color:#000000;display:inline;overflow:visible;visibility:visible;opacity:0.35;fill:url(#linearGradient3918);fill-opacity:1;fill-rule:nonzero;stroke:none;stroke-width:1;marker:none;enable-background:accumulate" />
    <path
       d="M 12,6 C 8.676,6 6,8.676 6,12 l 0,2 0,68 0,2 c 0,0.334721 0.04135,0.6507 0.09375,0.96875 0.0487,0.295596 0.09704,0.596915 0.1875,0.875 0.00988,0.03038 0.020892,0.0636 0.03125,0.09375 0.098865,0.287771 0.2348802,0.547452 0.375,0.8125 0.1445918,0.273507 0.3156161,0.535615 0.5,0.78125 0.1843839,0.245635 0.3737765,0.473472 0.59375,0.6875 0.439947,0.428056 0.94291,0.814526 1.5,1.09375 0.278545,0.139612 0.5734731,0.246947 0.875,0.34375 -0.2562018,-0.100222 -0.4867109,-0.236272 -0.71875,-0.375 -0.00741,-0.0044 -0.023866,0.0045 -0.03125,0 -0.031933,-0.0193 -0.062293,-0.04251 -0.09375,-0.0625 -0.120395,-0.0767 -0.2310226,-0.163513 -0.34375,-0.25 -0.1061728,-0.0808 -0.2132809,-0.161112 -0.3125,-0.25 C 8.4783201,88.557317 8.3087904,88.373362 8.15625,88.1875 8.0486711,88.057245 7.9378561,87.922215 7.84375,87.78125 7.818661,87.74287 7.805304,87.69538 7.78125,87.65625 7.716487,87.553218 7.6510225,87.451733 7.59375,87.34375 7.4927417,87.149044 7.3880752,86.928049 7.3125,86.71875 7.30454,86.69694 7.288911,86.6782 7.28125,86.65625 7.2494249,86.5643 7.2454455,86.469419 7.21875,86.375 7.1884177,86.268382 7.1483606,86.171969 7.125,86.0625 7.0521214,85.720988 7,85.364295 7,85 L 7,83 7,15 7,13 C 7,10.218152 9.2181517,8 12,8 l 2,0 68,0 2,0 c 2.781848,0 5,2.218152 5,5 l 0,2 0,68 0,2 c 0,0.364295 -0.05212,0.720988 -0.125,1.0625 -0.04415,0.206893 -0.08838,0.397658 -0.15625,0.59375 -0.0077,0.02195 -0.0233,0.04069 -0.03125,0.0625 -0.06274,0.173739 -0.138383,0.367449 -0.21875,0.53125 -0.04158,0.0828 -0.07904,0.169954 -0.125,0.25 -0.0546,0.09721 -0.126774,0.18835 -0.1875,0.28125 -0.09411,0.140965 -0.204921,0.275995 -0.3125,0.40625 -0.143174,0.17445 -0.303141,0.346998 -0.46875,0.5 -0.01117,0.0102 -0.01998,0.02115 -0.03125,0.03125 -0.138386,0.125556 -0.285091,0.234436 -0.4375,0.34375 -0.102571,0.07315 -0.204318,0.153364 -0.3125,0.21875 -0.0074,0.0045 -0.02384,-0.0044 -0.03125,0 -0.232039,0.138728 -0.462548,0.274778 -0.71875,0.375 0.301527,-0.0968 0.596455,-0.204138 0.875,-0.34375 0.55709,-0.279224 1.060053,-0.665694 1.5,-1.09375 0.219973,-0.214028 0.409366,-0.441865 0.59375,-0.6875 0.184384,-0.245635 0.355408,-0.507743 0.5,-0.78125 0.14012,-0.265048 0.276135,-0.524729 0.375,-0.8125 0.01041,-0.03078 0.02133,-0.06274 0.03125,-0.09375 0.09046,-0.278085 0.1388,-0.579404 0.1875,-0.875 C 89.95865,84.6507 90,84.334721 90,84 l 0,-2 0,-68 0,-2 C 90,8.676 87.324,6 84,6 L 12,6 z"
       inkscape:connector-curvature="0"
       id="rect3728"
       style="opacity:0.5;fill:url(#linearGradient3188);fill-opacity:1;fill-rule:nonzero;stroke:none" />
    <path
       d="M 12,90 C 8.676,90 6,87.324 6,84 V 82 14 12 c 0,-0.334721 0.04135,-0.6507 0.09375,-0.96875 0.0487,-0.295596 0.09704,-0.596915 0.1875,-0.875 C 6.29113,10.12587 6.302142,10.09265 6.3125,10.0625 6.411365,9.774729 6.5473802,9.515048 6.6875,9.25 6.8320918,8.976493 7.0031161,8.714385 7.1875,8.46875 7.3718839,8.223115 7.5612765,7.995278 7.78125,7.78125 8.221197,7.353194 8.72416,6.966724 9.28125,6.6875 9.559795,6.547888 9.8547231,6.440553 10.15625,6.34375 9.9000482,6.443972 9.6695391,6.580022 9.4375,6.71875 c -0.00741,0.0044 -0.023866,-0.0045 -0.03125,0 -0.031933,0.0193 -0.062293,0.04251 -0.09375,0.0625 -0.120395,0.0767 -0.2310226,0.163513 -0.34375,0.25 -0.1061728,0.0808 -0.2132809,0.161112 -0.3125,0.25 C 8.4783201,7.442683 8.3087904,7.626638 8.15625,7.8125 8.0486711,7.942755 7.9378561,8.077785 7.84375,8.21875 7.818661,8.25713 7.805304,8.30462 7.78125,8.34375 7.716487,8.446782 7.6510225,8.548267 7.59375,8.65625 7.4927417,8.850956 7.3880752,9.071951 7.3125,9.28125 7.30454,9.30306 7.288911,9.3218 7.28125,9.34375 7.2494249,9.4357 7.2454455,9.530581 7.21875,9.625 7.1884177,9.731618 7.1483606,9.828031 7.125,9.9375 7.0521214,10.279012 7,10.635705 7,11 v 2 68 2 c 0,2.781848 2.2181517,5 5,5 h 2 68 2 c 2.781848,0 5,-2.218152 5,-5 V 81 13 11 C 89,10.635705 88.94788,10.279012 88.875,9.9375 88.83085,9.730607 88.78662,9.539842 88.71875,9.34375 88.71105,9.3218 88.69545,9.30306 88.6875,9.28125 88.62476,9.107511 88.549117,8.913801 88.46875,8.75 88.42717,8.6672 88.38971,8.580046 88.34375,8.5 88.28915,8.40279 88.216976,8.31165 88.15625,8.21875 88.06214,8.077785 87.951329,7.942755 87.84375,7.8125 87.700576,7.63805 87.540609,7.465502 87.375,7.3125 87.36383,7.3023 87.35502,7.29135 87.34375,7.28125 87.205364,7.155694 87.058659,7.046814 86.90625,6.9375 86.803679,6.86435 86.701932,6.784136 86.59375,6.71875 c -0.0074,-0.0045 -0.02384,0.0044 -0.03125,0 -0.232039,-0.138728 -0.462548,-0.274778 -0.71875,-0.375 0.301527,0.0968 0.596455,0.204138 0.875,0.34375 0.55709,0.279224 1.060053,0.665694 1.5,1.09375 0.219973,0.214028 0.409366,0.441865 0.59375,0.6875 0.184384,0.245635 0.355408,0.507743 0.5,0.78125 0.14012,0.265048 0.276135,0.524729 0.375,0.8125 0.01041,0.03078 0.02133,0.06274 0.03125,0.09375 0.09046,0.278085 0.1388,0.579404 0.1875,0.875 C 89.95865,11.3493 90,11.665279 90,12 v 2 68 2 c 0,3.324 -2.676,6 -6,6 z"
       inkscape:connector-curvature="0"
       id="path3615"
       style="display:inline;opacity:0.3;fill:url(#radialGradient2903);fill-opacity:1;fill-rule:nonzero;stroke:none" />
  </g>
  <path
     id="path2"
     style="display:inline;opacity:0.4;fill:#000000;fill-opacity:1;stroke-width:0.379545"
     d="m 47.943359,20.826172 c -3.595501,1.006084 -7.179717,2.078621 -10.78125,3.046915 -3.439184,-0.536676 -6.905208,-1.453037 -10.347652,-1.560539 -3.737276,4.304513 -7.62521,8.891747 -10.397017,13.884376 -2.160564,3.573739 2.372142,5.927274 4.292406,8.273715 2.599199,2.686799 6.082046,5.777984 8.116327,8.910817 -0.403024,3.126241 -3.149316,5.607924 -1.030622,8.679433 1.451783,2.563539 4.070317,5.45479 7.54463,3.504889 4.124971,-2.002464 8.687809,-5.400101 11.309406,-9.24526 -2.297576,-3.252179 -6.495087,-4.437304 -8.678878,-7.777501 -0.0092,-3.436496 1.620705,-6.488629 2.473847,-9.841215 -1.713531,-2.972342 -5.847534,-3.27176 -8.686565,-4.798671 -1.165978,-1.017275 -5.896523,-0.238114 -5.103679,-1.922813 3.875699,-0.648768 7.530506,-0.814658 11.80404,0.298467 3.136824,0.765138 6.566464,1.674639 4.77043,5.361536 -0.385103,3.158356 -2.370621,6.361087 -1.793462,9.496804 3.855254,1.489252 9.195787,1.533382 13.045845,-7.61e-4 0.581018,-3.135902 -1.440123,-6.340764 -1.823952,-9.500286 -1.99686,-4.13011 2.165905,-4.749213 5.639833,-5.668778 3.564619,-0.928474 7.599533,-0.793893 11.243985,0.03645 -0.508303,2.098051 -5.497205,1.360368 -7.527256,2.720675 -2.472061,1.326431 -7.461401,1.991307 -6.038119,5.968447 0.663333,3.106816 3.99889,7.189732 0.285385,9.709794 -1.945904,2.388162 -5.366382,3.485823 -7.080801,5.904193 3.27364,4.431494 8.961667,8.461383 14.136182,10.09548 2.958558,-1.209026 5.907721,-4.302739 5.518523,-7.719578 -0.108858,-2.710907 -3.991362,-3.379977 -0.260194,-7.006989 3.479599,-3.803709 8.075035,-8.061294 11.361376,-12.032486 1.011307,-3.077401 -2.184497,-5.752743 -3.732929,-8.1489 -2.240221,-3.047103 -4.417747,-6.15638 -6.898494,-9.013922 -2.755083,-0.414944 -5.558456,0.619615 -8.318735,0.973459 -1.302221,0.258578 -2.617273,0.624192 -3.87519,-0.01622 -3.056086,-0.869533 -6.111762,-1.740502 -9.16742,-2.611537 z m 0.109375,43.125 c -4.031393,0.569868 -8.700005,2.275597 -12.339539,3.962318 -0.961593,0.400153 -1.460649,1.035309 -1.039465,1.444736 0.85224,0.828449 10.608506,9.092266 13.367287,10.674973 4.006905,-2.898823 9.027321,-7.527607 13.019274,-10.460599 3.099345,-1.999977 -4.655338,-1.68229 -5.928962,-2.953136 -2.307936,-0.971717 -4.546808,-2.413217 -7.078595,-2.668292 z"
     transform="matrix(1,0,0,1.0287165,0,-0.51108696)"
     sodipodi:nodetypes="scccccccccccccccccccccccccccccccssccscccc" />
  <path
     id="path8"
     style="display:inline;opacity:0.2;fill:#000000;fill-opacity:1;stroke-width:0.379545"
     d="m 47.943359,20.826172 c -3.595501,1.006084 -7.179717,2.078621 -10.78125,3.046915 -3.439184,-0.536676 -6.905208,-1.453037 -10.347652,-1.560539 -3.737276,4.304513 -7.62521,8.891747 -10.397017,13.884376 -2.160564,3.573739 2.372142,7.087207 4.292406,9.433648 2.599199,2.686799 6.082046,5.777984 8.116327,8.910817 -0.403024,3.126241 -3.149316,4.447991 -1.030622,7.5195 1.451783,2.563539 2.694623,5.670338 7.54463,4.407059 4.124971,-2.002464 8.809343,-5.528982 11.43094,-9.374141 0.524937,-1.904403 -6.616621,-5.210593 -8.800412,-8.55079 -0.0092,-3.436496 2.040549,-6.467149 2.473847,-9.841215 -1.713531,-2.972342 -5.847534,-3.27176 -8.686565,-4.798671 -1.165978,-1.017275 -5.896523,0.707017 -5.103679,-0.977682 5.877758,-0.854762 18.773922,-0.154985 16.57447,4.714872 -0.385103,3.158356 -2.417496,7.090151 -1.840337,10.225868 3.855254,1.489252 9.320787,1.533382 13.170845,-7.61e-4 0.581018,-3.135902 -1.518248,-7.069828 -1.902077,-10.22935 -3.404744,-5.73257 12.504615,-5.867738 16.883818,-4.902 -0.508303,2.098051 -5.497205,0.63004 -7.527256,1.990347 -2.472061,1.326431 -7.758276,1.991307 -6.334994,5.968447 1.100833,3.015683 4.295765,7.189732 0.58226,9.709794 -1.945904,2.388162 -7.561473,5.159772 -7.202335,6.462679 3.27364,4.431494 9.083201,8.590265 14.257716,10.224362 2.958558,-1.209026 6.21708,-4.990107 5.827882,-8.406946 -0.108858,-2.710907 -3.338392,-3.28439 -0.569553,-5.975937 3.479599,-3.803709 8.075035,-8.018334 11.361376,-11.989526 1.011307,-3.077401 -2.184497,-6.826755 -3.732929,-9.222912 -2.240221,-3.047103 -4.417747,-6.15638 -6.898494,-9.013922 -2.755083,-0.414944 -5.558456,0.619615 -8.318735,0.973459 -1.302221,0.258578 -2.617273,0.624192 -3.87519,-0.01622 -3.056086,-0.869533 -6.111762,-1.740502 -9.16742,-2.611537 z m 0.109375,43.125 c -4.031393,0.569868 -8.700005,2.275597 -12.339539,3.962318 -0.961593,0.400153 -2.145658,1.228631 -1.039465,2.303946 2.663553,2.589203 4.411872,3.510797 6.143925,5.1945 2.417929,1.786511 4.656248,4.007725 7.223362,5.480473 4.006905,-2.898823 9.027321,-7.527607 13.019274,-10.460599 4.365818,-2.81722 -4.655338,-2.5415 -5.928962,-3.812346 -2.307936,-0.971717 -4.546808,-2.413217 -7.078595,-2.668292 z"
     transform="matrix(1,0,0,1.0287165,0,-0.51108696)"
     sodipodi:nodetypes="scccccccccccccccccccccccccccccssccsccccc" />
  <path
     id="path1"
     d="m 46.361566,79.261999 c -0.73574,-0.574061 -3.1146,-2.462007 -5.28635,-4.195437 -2.17175,-1.73343 -4.52002,-3.589771 -5.21839,-4.125202 -1.62185,-1.243453 -1.53629,-1.327465 4.30611,-4.228347 6.00044,-2.97935 7.31057,-3.36406 9.39373,-2.758398 2.24255,0.652001 11.671,5.261248 11.671,5.705551 0,0.200069 -1.40906,1.425285 -3.13124,2.7227 -1.72219,1.297421 -4.15602,3.23421 -5.40851,4.30398 -2.8743,2.454974 -4.39491,3.618901 -4.72789,3.618901 -0.14341,0 -0.86272,-0.469687 -1.59846,-1.043748 z m -16.5121,-14.232923 c -1.86196,-1.709656 -3.13824,-3.996568 -3.15203,-5.647982 -0.005,-0.549208 0.41865,-2.132961 0.94053,-3.519453 0.52187,-1.386491 0.94886,-2.830354 0.94886,-3.208585 0,-0.393588 -2.52183,-3.087598 -5.896721,-6.299303 -3.24319,-3.086385 -6.13926,-6.080644 -6.4357,-6.653907 -0.78007,-1.508494 -0.16832,-3.302835 2.45186,-7.19156 2.79075,-4.141889 7.528591,-10.269364 8.107841,-10.485907 0.24437,-0.09136 2.6825,0.234315 5.41805,0.723716 l 4.97374,0.88982 5.36885,-1.529751 5.36886,-1.529751 5.35027,1.524455 5.35026,1.524456 5.11665,-0.906769 c 4.18146,-0.741036 5.22311,-0.818414 5.69913,-0.423354 0.8255,0.685106 7.7554,9.987933 9.19882,12.348674 0.79027,1.292491 1.22717,2.524081 1.26919,3.577706 0.064,1.60529 0.0584,1.612178 -6.28617,7.707408 -3.49263,3.355375 -6.34824,6.317384 -6.3458,6.582241 0.002,0.264858 0.43141,1.703692 0.95329,3.19741 1.13935,3.261081 1.18063,4.436724 0.22176,6.31626 -1.0111,1.981914 -3.95293,4.61724 -5.15426,4.61724 -0.53033,0 -2.70703,-0.874573 -4.8371,-1.943496 -2.85706,-1.433738 -4.5476,-2.594897 -6.44537,-4.427032 -1.41487,-1.365943 -2.57249,-2.768284 -2.57249,-3.116308 0,-0.348024 1.87874,-2.383022 4.17499,-4.522217 2.56892,-2.393224 4.17499,-4.175439 4.17499,-4.632892 0,-0.408897 -0.59778,-2.291305 -1.32841,-4.18313 -1.55727,-4.0323 -1.65334,-5.352983 -0.47443,-6.522311 0.46969,-0.465869 3.71443,-1.952562 7.21054,-3.303764 3.49612,-1.351201 6.35693,-2.574361 6.35737,-2.718133 0.001,-0.404156 -3.23153,-0.794429 -6.61703,-0.798831 -2.57328,-0.0033 -3.59721,0.201593 -6.43134,1.287217 -1.90954,0.731455 -3.57669,1.620266 -3.84575,2.050285 -0.39617,0.633169 -0.25023,1.786959 0.8797,6.955398 1.53362,7.014847 1.64138,6.581822 -1.82337,7.32655 -2.58432,0.555487 -4.89322,0.551262 -7.59774,-0.0139 -3.45563,-0.722125 -3.35017,-0.297596 -1.81652,-7.312648 1.12781,-5.158683 1.27543,-6.323424 0.88157,-6.955398 -0.27911,-0.447853 -2.01154,-1.339528 -4.22529,-2.174749 -3.3907,-1.279268 -4.00818,-1.396869 -6.40902,-1.220624 -4.46981,0.328126 -6.27214,0.605662 -6.06889,0.934532 0.10688,0.172927 3.09612,1.451905 6.64276,2.842172 6.63637,2.601427 7.58225,3.238393 7.59063,5.111632 0.002,0.527613 -0.618,2.608341 -1.37859,4.623841 -0.87687,2.323638 -1.29948,3.990203 -1.15495,4.554535 0.12537,0.489496 2.0267,2.479436 4.22518,4.42209 2.3561,2.081933 3.99724,3.819614 3.99724,4.232385 0,0.385159 -1.28317,1.898625 -2.85148,3.363258 -3.01858,2.819018 -8.94861,6.141541 -10.9614,6.141541 -0.65531,0 -1.6191,-0.562653 -2.76308,-1.613065 z"
     style="display:inline;fill:#cacaca;fill-opacity:1;stroke-width:0.379545" />
  <path
     id="path5725"
     style="display:inline;fill:url(#linearGradient8);stroke-width:0.379545"
     d="m 47.943359,20.562923 -5.208984,1.484375 -5.369141,1.53125 a 0.58379181,0.58379181 0 0 1 -0.263672,0.01366 l -4.972656,-0.890626 c -1.360338,-0.24337 -2.64712,-0.446371 -3.617187,-0.576171 -0.485034,-0.0649 -0.892597,-0.110732 -1.181641,-0.134765 -0.135153,-0.01124 -0.237704,-0.01612 -0.310547,-0.01758 -0.04595,0.04069 -0.106456,0.09813 -0.185547,0.179687 -0.175095,0.180564 -0.413639,0.446302 -0.693359,0.775392 -0.55944,0.658179 -1.288779,1.569901 -2.087891,2.603515 -1.598223,2.06723 -3.476939,4.628955 -4.861328,6.683593 -1.298631,1.927357 -2.082748,3.32338 -2.433594,4.351563 -0.350845,1.028183 -0.304332,1.631139 0.01367,2.246094 -0.0088,-0.01694 0.238775,0.32697 0.59375,0.726562 0.354976,0.399595 0.842399,0.92034 1.421875,1.519532 1.158953,1.198384 2.688538,2.713942 4.304688,4.251953 1.693886,1.611982 3.174408,3.094019 4.238281,4.230469 0.531936,0.568224 0.95886,1.050268 1.263672,1.427735 0.152406,0.188732 0.274238,0.348363 0.369141,0.496092 0.0949,0.147731 0.207031,0.207512 0.207031,0.568361 -1e-6,0.407953 -0.126266,0.792406 -0.302735,1.390625 -0.176468,0.598217 -0.415586,1.31659 -0.68164,2.023437 -0.253508,0.673501 -0.48522,1.402423 -0.650391,2.019531 -0.165171,0.617108 -0.25499,1.169952 -0.253906,1.289063 a 0.58379181,0.58379181 0 0 1 0,0.002 c 0.01132,1.355117 1.194081,3.598531 2.962891,5.222656 1.100117,1.010138 2.04809,1.458985 2.36914,1.458985 0.342552,0 1.066274,-0.178882 1.919922,-0.521485 0.853649,-0.342603 1.860028,-0.836 2.898438,-1.417968 2.076818,-1.163936 4.290563,-2.687443 5.74414,-4.044921 0.768895,-0.718066 1.469552,-1.452594 1.966797,-2.039064 0.248623,-0.293235 0.448008,-0.550415 0.572266,-0.738281 0.09885,-0.149448 0.09642,-0.183647 0.101562,-0.126953 -0.03126,-0.05363 -0.0764,-0.126283 -0.15039,-0.22461 -0.168739,-0.224239 -0.436013,-0.535058 -0.779297,-0.898437 -0.686568,-0.726757 -1.677621,-1.672921 -2.845703,-2.705079 -1.110791,-0.981534 -2.145099,-1.973852 -2.925782,-2.791015 -0.390341,-0.40858 -0.716228,-0.771935 -0.96289,-1.078126 -0.246663,-0.306189 -0.419904,-0.471967 -0.515625,-0.845702 -0.140406,-0.54823 -0.01003,-1.095774 0.195312,-1.90625 0.205342,-0.810476 0.534723,-1.823984 0.978516,-3 0.375384,-0.994737 0.717846,-2.008494 0.96289,-2.830078 0.122523,-0.410792 0.221437,-0.773564 0.28711,-1.056641 0.06567,-0.283076 0.09186,-0.511275 0.0918,-0.527343 -0.0019,-0.419376 -0.05172,-0.69589 -0.1875,-0.951171 -0.135779,-0.255284 -0.378444,-0.523088 -0.863282,-0.849611 -0.969675,-0.653043 -2.856082,-1.471286 -6.167968,-2.769531 -1.778053,-0.696989 -3.415017,-1.364348 -4.626953,-1.882812 -0.605968,-0.259233 -1.106221,-0.480823 -1.46875,-0.652344 -0.181265,-0.08576 -0.326245,-0.158434 -0.44336,-0.222656 -0.05856,-0.03212 -0.109385,-0.06229 -0.162109,-0.09765 -0.05272,-0.03536 -0.100279,-0.02149 -0.22461,-0.222656 -0.06824,-0.110416 -0.121917,-0.287606 -0.0957,-0.457031 0.02621,-0.169425 0.113817,-0.296978 0.191407,-0.376953 0.15518,-0.15995 0.28709,-0.206473 0.43164,-0.259766 0.2891,-0.106585 0.653002,-0.179274 1.16211,-0.257813 1.018215,-0.157075 2.590809,-0.30813 4.832031,-0.472656 2.42704,-0.178167 3.256695,-0.02749 6.658203,1.255859 1.124052,0.424092 2.125476,0.86378 2.898437,1.261719 0.386481,0.19897 0.714888,0.38695 0.980469,0.566407 0.265582,0.179456 0.46951,0.317636 0.636719,0.585937 0.299507,0.480578 0.347477,1.102885 0.212891,2.16211 -0.134587,1.059225 -0.456767,2.643504 -1.021485,5.226563 -0.383973,1.756328 -0.678525,3.045092 -0.845703,3.978515 -0.167178,0.933424 -0.185993,1.510197 -0.121094,1.771484 0.0649,0.261286 0.105267,0.296098 0.462891,0.431641 0.357624,0.135543 0.994602,0.250841 1.869141,0.433594 2.639947,0.551669 4.841545,0.55598 7.355468,0.01562 0.876957,-0.188496 1.517286,-0.309425 1.876953,-0.447265 0.359668,-0.137841 0.401622,-0.173952 0.466797,-0.435547 0.06518,-0.261595 0.04605,-0.838604 -0.121093,-1.771484 -0.167147,-0.932882 -0.461728,-2.220243 -0.845704,-3.976562 -0.565786,-2.587977 -0.887835,-4.172221 -1.021484,-5.230469 -0.133649,-1.058249 -0.08088,-1.681278 0.21875,-2.160157 0.163051,-0.260593 0.355492,-0.393698 0.607422,-0.568359 0.25193,-0.174661 0.561467,-0.357657 0.919922,-0.548828 0.71691,-0.382343 1.627941,-0.794272 2.603515,-1.167969 2.855018,-1.093624 4.034225,-1.329512 6.638672,-1.326173 1.714939,0.0022 3.385943,0.101494 4.648438,0.253907 0.631247,0.07622 1.158086,0.163786 1.560547,0.269531 0.20123,0.05287 0.369313,0.106174 0.533203,0.191407 0.08195,0.04262 0.164623,0.09203 0.255859,0.185547 0.09124,0.09352 0.203669,0.264515 0.203125,0.484375 -7.53e-4,0.246162 -0.09936,0.334665 -0.146484,0.390625 -0.04713,0.05595 -0.07949,0.08196 -0.109375,0.105467 -0.05977,0.04702 -0.108838,0.0751 -0.164063,0.107422 -0.110449,0.06464 -0.243195,0.133303 -0.412109,0.214845 -0.337827,0.163085 -0.809786,0.374877 -1.390625,0.623048 -1.161679,0.49634 -2.754507,1.140729 -4.507813,1.818358 -1.737478,0.671513 -3.414556,1.378105 -4.707031,1.970702 -0.646237,0.2963 -1.196843,0.563732 -1.605469,0.781251 -0.408625,0.21752 -0.708031,0.432554 -0.697265,0.421875 -0.505967,0.501855 -0.679052,0.874844 -0.617188,1.730469 0.06186,0.855626 0.452259,2.166139 1.22461,4.166015 0.369433,0.956576 0.705408,1.908957 0.951172,2.68164 0.122881,0.386345 0.223043,0.72761 0.294921,1.007814 0.07188,0.280204 0.123047,0.460227 0.123047,0.705078 0,0.456103 -0.185641,0.618155 -0.398437,0.917969 -0.212796,0.299814 -0.506306,0.651324 -0.876953,1.062499 -0.741294,0.822352 -1.793017,1.875584 -3.085938,3.080079 -1.138657,1.060776 -2.17502,2.097515 -2.917969,2.902344 -0.371474,0.402414 -0.670558,0.747216 -0.865234,0.998046 -0.08038,0.103563 -0.130199,0.176802 -0.169922,0.238282 0.0081,0.0028 -5.11e-4,-0.03213 0.07227,0.08008 0.111081,0.171256 0.289674,0.41067 0.513672,0.681639 0.447995,0.541944 1.080444,1.221597 1.773437,1.890626 1.86187,1.797478 3.474213,2.907736 6.300781,4.326172 1.050863,0.52735 2.117064,1.00693 2.97461,1.351564 0.428773,0.172316 0.805352,0.312409 1.095703,0.404297 0.290351,0.09189 0.531739,0.124999 0.503906,0.124999 0.08692,0 0.452227,-0.107686 0.869141,-0.359375 0.416913,-0.25169 0.905991,-0.622511 1.390625,-1.056641 0.969268,-0.868261 1.926002,-2.002707 2.375,-2.882812 0.455541,-0.892933 0.642195,-1.523283 0.613281,-2.353515 -0.02891,-0.830235 -0.302059,-1.891971 -0.865234,-3.503907 -0.263751,-0.754904 -0.503511,-1.495107 -0.679688,-2.085938 -0.08809,-0.295414 -0.160789,-0.552509 -0.21289,-0.761719 -0.0521,-0.209209 -0.09209,-0.319179 -0.09375,-0.539062 -0.0019,-0.277573 0.07289,-0.309703 0.113281,-0.378906 0.04059,-0.06952 0.08248,-0.130156 0.132812,-0.197265 0.100668,-0.13422 0.231994,-0.290549 0.398438,-0.480469 0.332888,-0.379843 0.802003,-0.883964 1.380859,-1.484376 1.157713,-1.200822 2.74912,-2.784723 4.5,-4.466796 3.172239,-3.047571 4.764456,-4.584266 5.498047,-5.484376 0.733591,-0.900109 0.639398,-0.977247 0.607422,-1.779296 -0.03632,-0.910591 -0.429319,-2.061303 -1.183594,-3.294923 -0.682849,-1.116811 -2.788943,-4.058936 -4.800781,-6.759765 -1.005919,-1.350415 -1.993614,-2.64888 -2.777344,-3.648437 -0.391864,-0.499779 -0.73325,-0.923465 -0.998047,-1.240235 -0.264796,-0.316771 -0.490236,-0.550158 -0.498047,-0.55664 -0.06278,-0.0521 -0.250113,-0.141072 -1.042968,-0.08203 -0.792856,0.05904 -2.093685,0.26118 -4.179688,0.63086 l -5.117187,0.90625 a 0.58379181,0.58379181 0 0 1 -0.261719,-0.01367 L 53.13282,22.043442 Z m 0.109375,43.113281 c -1.328879,-0.0067 -3.139865,0.71153 -7.630859,2.941406 -2.920185,1.449936 -4.436805,2.269324 -4.802734,2.628906 -0.04626,0.04546 -0.03193,0.03223 -0.04297,0.04883 0.04964,0.06436 0.260795,0.276238 0.636719,0.564454 0.71382,0.547275 3.053232,2.396168 5.226562,4.130859 2.170898,1.73275 4.553973,3.623947 5.28125,4.191405 0.35604,0.277801 0.710824,0.533493 0.982422,0.710938 0.113962,0.07447 0.199926,0.12458 0.273437,0.166016 0.04422,-0.02383 0.08082,-0.04335 0.148438,-0.08594 0.207615,-0.130773 0.508191,-0.343836 0.890625,-0.636719 0.764869,-0.585765 1.859791,-1.486843 3.292969,-2.710936 1.271752,-1.086223 3.701361,-3.021668 5.435547,-4.328125 0.851737,-0.641662 1.628411,-1.265391 2.18164,-1.746094 0.201743,-0.175296 0.332012,-0.30206 0.464844,-0.429689 -0.238807,-0.150188 -0.54581,-0.332059 -0.951172,-0.554686 C 58.534012,68.069556 57.289446,67.43315 55.976561,66.791438 53.350793,65.508014 50.372356,64.1812 49.39453,63.896907 48.904804,63.754522 48.495194,63.678419 48.052734,63.676204 Z" />
  <path
     id="path5"
     style="display:none;fill:url(#radialGradient6);stroke-width:0.378403"
     d="m 47.943359,20.664025 -5.251953,1.487104 -5.36914,1.52205 a 0.42504463,0.42249074 0 0 1 -0.191407,0.0098 l -4.972656,-0.885274 c -1.362361,-0.242266 -2.651687,-0.443257 -3.625,-0.572709 -0.486656,-0.06473 -0.895887,-0.111636 -1.189453,-0.135897 -0.146783,-0.01212 -0.265179,-0.01848 -0.34375,-0.01941 -0.07857,-9.35e-4 -0.154024,0.03179 -0.03711,-0.01165 0.07326,-0.02723 0.02428,-0.01306 -0.02734,0.03106 -0.05162,0.04413 -0.127165,0.115852 -0.216797,0.207728 -0.179264,0.183752 -0.418173,0.449834 -0.699219,0.778497 -0.562092,0.657329 -1.293634,1.565002 -2.09375,2.593697 -1.60023,2.057388 -3.479811,4.606441 -4.867187,6.653142 -1.301748,1.920372 -2.09151,3.312674 -2.451172,4.360361 -0.359662,1.047687 -0.314154,1.707937 0.02344,2.356847 0.01377,0.02648 0.257845,0.355305 0.615235,0.755201 0.357389,0.399893 0.845288,0.919588 1.425781,1.516224 1.160987,1.193274 2.692916,2.700118 4.310547,4.230289 1.692135,1.600639 3.169754,3.072956 4.230469,4.199225 0.530357,0.563134 0.957264,1.039498 1.257812,1.409449 0.150274,0.184975 0.267784,0.340827 0.357422,0.479523 0.08964,0.138697 0.183594,0.20508 0.183594,0.479524 -10e-7,0.346353 -0.121735,0.74747 -0.296875,1.337617 -0.17514,0.590147 -0.413072,1.30265 -0.677735,2.001573 -0.255528,0.674791 -0.489564,1.401961 -0.65625,2.020986 -0.166685,0.619025 -0.259281,1.163604 -0.257812,1.324028 0.01199,1.42706 1.219532,3.670274 3.013672,5.307759 1.112045,1.014954 2.064619,1.490987 2.476562,1.490987 0.386236,0 1.11604,-0.183992 1.978516,-0.528058 0.862476,-0.344065 1.874869,-0.838073 2.917969,-1.419157 2.086198,-1.162165 4.30471,-2.680528 5.773437,-4.043913 0.773045,-0.717602 1.477892,-1.449262 1.980469,-2.038459 0.251288,-0.294599 0.452185,-0.554242 0.582031,-0.749376 C 45.975549,56.617564 46,56.427271 46,56.566143 c 0,0.08876 0.01043,0.05029 -0.02344,-0.01165 -0.03386,-0.06194 -0.09623,-0.158336 -0.183593,-0.273735 -0.174723,-0.230797 -0.445226,-0.542797 -0.791016,-0.906629 -0.691579,-0.727663 -1.684676,-1.670194 -2.855469,-2.698532 -1.107649,-0.972877 -2.139415,-1.956532 -2.916015,-2.764538 -0.388301,-0.404003 -0.712899,-0.763121 -0.955078,-1.061941 -0.24218,-0.298818 -0.40616,-0.476888 -0.484375,-0.780438 -0.121877,-0.473022 -0.0097,-1.0204 0.193359,-1.817141 0.203082,-0.79674 0.532274,-1.79939 0.974609,-2.964502 0.37672,-0.992277 0.720432,-2.00173 0.966797,-2.82278 0.123183,-0.410525 0.222279,-0.773864 0.289063,-1.059998 0.06678,-0.286135 0.09588,-0.513781 0.0957,-0.561062 -0.0019,-0.430082 -0.05361,-0.736161 -0.205078,-1.01923 -0.151468,-0.283069 -0.417964,-0.567399 -0.916016,-0.900804 -0.996104,-0.666813 -2.883666,-1.47731 -6.197266,-2.768422 -1.776766,-0.6923 -3.415234,-1.357073 -4.625,-1.8715 -0.604882,-0.257213 -1.101632,-0.477508 -1.460937,-0.646482 -0.179652,-0.08449 -0.323388,-0.15436 -0.435547,-0.215494 -0.05608,-0.03056 -0.104219,-0.05851 -0.150391,-0.0893 -0.04617,-0.03079 -0.0854,-0.02622 -0.177734,-0.174725 -0.05314,-0.08547 -0.0922,-0.21944 -0.07227,-0.34751 0.01994,-0.128068 0.08671,-0.226018 0.148438,-0.289267 0.123464,-0.126494 0.237274,-0.168396 0.371094,-0.217435 0.267639,-0.09807 0.626435,-0.173091 1.130859,-0.250439 1.008849,-0.154696 2.580809,-0.304462 4.820313,-0.467876 2.419916,-0.176577 3.191274,-0.03593 6.589843,1.238607 1.119381,0.419792 2.117446,0.854711 2.882813,1.246372 0.382684,0.195831 0.707204,0.380253 0.964844,0.553297 0.257639,0.173043 0.449128,0.311391 0.589843,0.535824 0.271614,0.433201 0.32251,1.005333 0.189453,2.046223 -0.133056,1.04089 -0.453081,2.613095 -1.017578,5.179628 -0.383821,1.745082 -0.679283,3.027928 -0.847656,3.962376 -0.168373,0.934448 -0.195468,1.521398 -0.119141,1.826848 0.07633,0.305449 0.177237,0.393359 0.560547,0.537765 0.383311,0.144406 1.022884,0.2577 1.894532,0.438753 2.657506,0.552002 4.886856,0.554789 7.419921,0.01359 0.874029,-0.186739 1.515277,-0.303698 1.900391,-0.450402 0.385114,-0.146705 0.487814,-0.23589 0.564453,-0.541649 0.07664,-0.305756 0.0492,-0.892924 -0.11914,-1.826846 -0.168345,-0.933922 -0.463837,-2.215373 -0.847657,-3.960435 -0.565563,-2.571411 -0.885463,-4.143697 -1.017578,-5.183511 -0.132115,-1.039813 -0.07671,-1.610206 0.195313,-2.04234 0.137004,-0.217649 0.318175,-0.351922 0.5625,-0.520293 0.244325,-0.168372 0.549623,-0.347806 0.904297,-0.535823 0.709348,-0.376037 1.61602,-0.783889 2.585937,-1.153187 2.849338,-1.084891 3.986059,-1.311805 6.582031,-1.308496 1.708905,0.0022 3.374912,0.101905 4.628907,0.252381 0.626997,0.07523 1.149284,0.162231 1.539062,0.264029 0.194889,0.0509 0.354867,0.101642 0.5,0.176667 0.07257,0.03752 0.143722,0.07892 0.216797,0.153369 0.07308,0.07445 0.158616,0.206806 0.158203,0.372747 -5.52e-4,0.179362 -0.07356,0.24505 -0.109375,0.287325 -0.03582,0.04228 -0.06121,0.06221 -0.08594,0.08153 -0.04945,0.03867 -0.09471,0.065 -0.146485,0.09512 -0.103555,0.06024 -0.233507,0.127649 -0.40039,0.207728 -0.333767,0.160158 -0.805204,0.369285 -1.384766,0.615421 -1.159125,0.492273 -2.752027,1.132484 -4.503906,1.805493 -1.740355,0.668583 -3.41855,1.371966 -4.714844,1.962744 -0.648147,0.29539 -1.200278,0.561911 -1.613281,0.780439 -0.413004,0.218529 -0.710283,0.422767 -0.734375,0.446519 -0.52867,0.521223 -0.728376,0.960173 -0.664063,1.844321 0.06431,0.884146 0.460316,2.195318 1.234375,4.187576 0.368314,0.947947 0.702746,1.891666 0.947266,2.655821 0.12226,0.382078 0.222249,0.718024 0.292969,0.992051 0.07072,0.274027 0.11914,0.457185 0.11914,0.662013 0,0.360994 -0.164283,0.53158 -0.371094,0.821209 -0.20681,0.289628 -0.495144,0.636589 -0.863281,1.042525 -0.736273,0.811874 -1.787504,1.854796 -3.078125,3.049923 -1.141231,1.056788 -2.179035,2.090532 -2.925781,2.894612 -0.373373,0.402042 -0.673637,0.746371 -0.873047,1.001757 -0.09971,0.127694 -0.175352,0.234174 -0.216797,0.302858 -0.04144,0.06869 -0.02344,0.135231 -0.02344,-0.01165 0,-0.148062 0.01832,0.03123 0.134765,0.20967 0.116442,0.178443 0.296898,0.416794 0.523438,0.689194 0.453081,0.544798 1.088236,1.224076 1.785156,1.892855 1.871632,1.796042 3.506937,2.915248 6.341797,4.329298 1.054716,0.526103 2.121693,1.004652 2.984375,1.349266 0.431341,0.172306 0.813187,0.310638 1.109375,0.403809 0.296188,0.09316 0.534993,0.132015 0.550781,0.132015 0.14495,0 0.522397,-0.121276 0.951172,-0.378573 0.428775,-0.257294 0.923616,-0.633007 1.414063,-1.069704 0.980893,-0.873395 1.94578,-2.005364 2.410156,-2.910143 0.462038,-0.900227 0.66078,-1.563056 0.630859,-2.41703 -0.02992,-0.853974 -0.308104,-1.922166 -0.873047,-3.529447 -0.262986,-0.748194 -0.502477,-1.481422 -0.677734,-2.065638 -0.08763,-0.292109 -0.159767,-0.54708 -0.210938,-0.751318 -0.05117,-0.204238 -0.0885,-0.319969 -0.08984,-0.496995 -0.0019,-0.208018 0.05636,-0.236696 0.0918,-0.297033 0.03543,-0.06033 0.07489,-0.116725 0.123046,-0.18055 0.09632,-0.127647 0.225671,-0.282725 0.390625,-0.469816 0.32991,-0.374181 0.799125,-0.873889 1.376954,-1.469632 1.155657,-1.191485 2.744502,-2.763353 4.49414,-4.434134 3.172251,-3.029271 4.763817,-4.554799 5.511719,-5.466953 0.747902,-0.912153 0.676514,-1.076049 0.644531,-1.87344 -0.03787,-0.94378 -0.444921,-2.108719 -1.208984,-3.35084 -0.693417,-1.12728 -2.795573,-4.044616 -4.808594,-6.730796 -1.006511,-1.343091 -1.99431,-2.635252 -2.779297,-3.630399 -0.392493,-0.497573 -0.735382,-0.92163 -1.001953,-1.238606 -0.266571,-0.316978 -0.483832,-0.544871 -0.517578,-0.572711 -0.11043,-0.0911 -0.349995,-0.176161 -1.15625,-0.116483 -0.806255,0.05968 -2.108025,0.261325 -4.195313,0.629011 l -5.117187,0.900805 a 0.42504463,0.42249074 0 0 1 -0.191406,-0.0098 L 53.175772,22.14719 Z m 0.109375,42.860058 c -1.383182,-0.0068 -3.207639,0.721531 -7.701172,2.939263 -2.920461,1.441361 -4.428146,2.236291 -4.84375,2.642231 -0.1039,0.101485 -0.127154,0.161762 -0.128906,0.168901 -0.0018,0.0071 -0.01081,-0.0135 0.01563,0.033 0.05288,0.093 0.318487,0.338021 0.720703,0.644543 0.70962,0.540785 3.053662,2.382111 5.226563,4.106038 2.171129,1.722522 4.551671,3.600389 5.28125,4.166222 0.359257,0.278625 0.715583,0.534802 0.992187,0.714431 0.138303,0.08982 0.258397,0.160503 0.339844,0.203846 0.01028,0.0054 0.0125,0.0051 0.02148,0.0098 0.05351,-0.02544 0.130972,-0.06849 0.232422,-0.132015 0.214836,-0.134508 0.519706,-0.349834 0.904297,-0.642599 0.769182,-0.58553 1.864571,-1.480876 3.298828,-2.698532 1.266515,-1.075248 3.696811,-3.000129 5.427735,-4.296294 0.85428,-0.639712 1.632226,-1.2621 2.189453,-1.74337 0.266824,-0.230451 0.47599,-0.422673 0.621094,-0.568826 -0.02587,-0.01739 -0.03287,-0.02558 -0.0625,-0.04465 -0.246117,-0.158433 -0.617697,-0.375035 -1.072266,-0.623186 -0.909138,-0.496303 -2.15425,-1.128023 -3.46875,-1.766664 -2.628999,-1.277282 -5.592542,-2.592989 -6.609375,-2.886847 -0.498174,-0.143969 -0.924068,-0.222907 -1.384766,-0.2252 z" />
  <path
     id="path6"
     d="m 46.361566,79.261999 c -0.73574,-0.574061 -3.1146,-2.462007 -5.28635,-4.195437 -2.17175,-1.73343 -4.52002,-3.589771 -5.21839,-4.125202 -1.62185,-1.243453 -1.53629,-1.327465 4.30611,-4.228347 6.00044,-2.97935 7.31057,-3.36406 9.39373,-2.758398 2.24255,0.652001 11.671,5.261248 11.671,5.705551 0,0.200069 -1.40906,1.425285 -3.13124,2.7227 -1.72219,1.297421 -4.15602,3.23421 -5.40851,4.30398 -2.8743,2.454974 -4.39491,3.618901 -4.72789,3.618901 -0.14341,0 -0.86272,-0.469687 -1.59846,-1.043748 z m -16.5121,-14.232923 c -1.86196,-1.709656 -3.13824,-3.996568 -3.15203,-5.647982 -0.005,-0.549208 0.41865,-2.132961 0.94053,-3.519453 0.52187,-1.386491 0.94886,-2.830354 0.94886,-3.208585 0,-0.393588 -2.52183,-3.087598 -5.896721,-6.299303 -3.24319,-3.086385 -6.13926,-6.080644 -6.4357,-6.653907 -0.78007,-1.508494 -0.16832,-3.302835 2.45186,-7.19156 2.79075,-4.141889 7.528591,-10.269364 8.107841,-10.485907 0.24437,-0.09136 2.6825,0.234315 5.41805,0.723716 l 4.97374,0.88982 5.36885,-1.529751 5.36886,-1.529751 5.35027,1.524455 5.35026,1.524456 5.11665,-0.906769 c 4.18146,-0.741036 5.22311,-0.818414 5.69913,-0.423354 0.8255,0.685106 7.7554,9.987933 9.19882,12.348674 0.79027,1.292491 1.22717,2.524081 1.26919,3.577706 0.064,1.60529 0.0584,1.612178 -6.28617,7.707408 -3.49263,3.355375 -6.34824,6.317384 -6.3458,6.582241 0.002,0.264858 0.43141,1.703692 0.95329,3.19741 1.13935,3.261081 1.18063,4.436724 0.22176,6.31626 -1.0111,1.981914 -3.95293,4.61724 -5.15426,4.61724 -0.53033,0 -2.70703,-0.874573 -4.8371,-1.943496 -2.85706,-1.433738 -4.5476,-2.594897 -6.44537,-4.427032 -1.41487,-1.365943 -2.57249,-2.768284 -2.57249,-3.116308 0,-0.348024 1.87874,-2.383022 4.17499,-4.522217 2.56892,-2.393224 4.17499,-4.175439 4.17499,-4.632892 0,-0.408897 -0.59778,-2.291305 -1.32841,-4.18313 -1.55727,-4.0323 -1.65334,-5.352983 -0.47443,-6.522311 0.46969,-0.465869 3.71443,-1.952562 7.21054,-3.303764 3.49612,-1.351201 6.35693,-2.574361 6.35737,-2.718133 0.001,-0.404156 -3.23153,-0.794429 -6.61703,-0.798831 -2.57328,-0.0033 -3.59721,0.201593 -6.43134,1.287217 -1.90954,0.731455 -3.57669,1.620266 -3.84575,2.050285 -0.39617,0.633169 -0.25023,1.786959 0.8797,6.955398 1.53362,7.014847 1.64138,6.581822 -1.82337,7.32655 -2.58432,0.555487 -4.89322,0.551262 -7.59774,-0.0139 -3.45563,-0.722125 -3.35017,-0.297596 -1.81652,-7.312648 1.12781,-5.158683 1.27543,-6.323424 0.88157,-6.955398 -0.27911,-0.447853 -2.01154,-1.339528 -4.22529,-2.174749 -3.3907,-1.279268 -4.00818,-1.396869 -6.40902,-1.220624 -4.46981,0.328126 -6.27214,0.605662 -6.06889,0.934532 0.10688,0.172927 3.09612,1.451905 6.64276,2.842172 6.63637,2.601427 7.58225,3.238393 7.59063,5.111632 0.002,0.527613 -0.618,2.608341 -1.37859,4.623841 -0.87687,2.323638 -1.29948,3.990203 -1.15495,4.554535 0.12537,0.489496 2.0267,2.479436 4.22518,4.42209 2.3561,2.081933 3.99724,3.819614 3.99724,4.232385 0,0.385159 -1.28317,1.898625 -2.85148,3.363258 -3.01858,2.819018 -8.94861,6.141541 -10.9614,6.141541 -0.65531,0 -1.6191,-0.562653 -2.76308,-1.613065 z"
     style="display:inline;fill:url(#radialGradient2);stroke-width:0.379545;opacity:0.77958818" />
  <ellipse
     style="opacity:0.238706;fill:#875e2a"
     id="path1287"
     cx="-39.151222"
     cy="8.0184803"
     rx="0.92625958"
     ry="0.83968931" />
  <path
     id="path6-3"
     style="display:inline;fill:#ffffff;fill-opacity:1;stroke-width:0.379545"
     d="m 47.943363,20.506653 -5.367187,1.53125 -5.369141,1.529296 -4.974609,-0.890624 c -2.735548,-0.489401 -5.173599,-0.814017 -5.417969,-0.722657 -0.579249,0.216543 -5.316675,6.34249 -8.107422,10.484375 -2.056457,3.052079 -2.860034,4.808113 -2.740234,6.154297 0.08999,-1.285777 0.922016,-2.965564 2.740234,-5.664063 2.790747,-4.141884 7.528173,-10.269785 8.107422,-10.486328 0.24437,-0.09136 2.682421,0.233256 5.417969,0.722657 l 4.974609,0.890625 5.369141,-1.529297 5.367187,-1.529297 5.351563,1.523438 5.349609,1.52539 5.117188,-0.908203 c 4.181455,-0.741035 5.223199,-0.816935 5.699218,-0.421875 0.8255,0.685105 7.755801,9.986917 9.199219,12.347656 0.79027,1.29249 1.225559,2.524501 1.267578,3.578125 0.0016,0.03912 5.67e-4,0.06814 0.002,0.105469 0.01052,-0.181619 0.0069,-0.37116 -0.002,-0.59375 -0.04202,-1.053624 -0.477308,-2.285635 -1.267578,-3.578125 -1.443418,-2.360739 -8.373719,-11.664504 -9.199219,-12.349609 -0.476019,-0.39506 -1.517763,-0.317208 -5.699218,0.423828 l -5.117188,0.90625 -5.349609,-1.523438 z m 22.070313,10.540683 c -0.89399,0.445429 -4.060488,1.819267 -6.792969,2.875332 -3.496107,1.351201 -6.741248,2.836866 -7.210938,3.302734 -0.597643,0.592787 -0.865146,1.228284 -0.783203,2.232422 0.03415,-0.72732 0.29099,-1.255927 0.783203,-1.74414 0.46969,-0.465869 3.714831,-1.951534 7.210938,-3.302735 2.007155,-0.960587 5.720786,-2.385399 6.792969,-3.363613 z m -44.005859,-0.0078 c 0.316607,0 -0.08665,0.0321 -0.02692,0.128743 0.10688,0.172927 3.618959,2.053591 7.165595,3.443856 6.225301,2.44029 7.428588,3.164001 7.5625,4.789063 0.0046,-0.0449 0.02747,-0.13293 0.02734,-0.166016 -0.0084,-1.873237 -0.95348,-2.509904 -7.589844,-5.111328 -2.968326,-1.163571 -8.065962,-3.084318 -7.138671,-3.084318 z m 17.386718,3.857755 c -0.05183,0.954249 -0.371388,2.612786 -1.068359,5.800782 -0.679818,3.109547 -1.076956,4.753679 -1.009766,5.6875 0.0622,-0.991477 0.435907,-2.574339 1.009766,-5.199219 0.834624,-3.81763 1.129551,-5.443292 1.068359,-6.289063 z m 9.09961,0 c -0.06246,0.843664 0.232211,2.464419 1.068359,6.289063 0.573845,2.624794 0.947644,4.206123 1.009765,5.197266 0.06749,-0.933902 -0.329961,-2.576091 -1.009765,-5.685547 -0.697842,-3.192015 -1.017065,-4.848274 -1.068359,-5.800782 z m 5.259765,13.214844 c -0.277826,0.640306 -1.799462,2.291963 -4.117187,4.451172 -2.296248,2.139193 -4.173828,4.175414 -4.173828,4.523438 0,0.05704 0.04137,0.150876 0.09961,0.259765 0.41049,-0.666238 2.083017,-2.437958 4.074219,-4.292968 2.568917,-2.393222 4.175781,-4.17536 4.175781,-4.632813 0,-0.05629 -0.03715,-0.200262 -0.05859,-0.308594 z m -19.558594,0.226563 c -0.02525,0.24042 -0.02537,0.434873 0.0078,0.564453 0.12537,0.489496 2.026131,2.479223 4.224609,4.421875 2.039335,1.802028 3.54074,3.341898 3.908203,3.992187 0.05349,-0.103338 0.08984,-0.192711 0.08984,-0.25 0,-0.41277 -1.641949,-2.148537 -3.998047,-4.230468 -2.198478,-1.942652 -4.099239,-3.934333 -4.224609,-4.423828 -0.0051,-0.02001 -0.0041,-0.05146 -0.0078,-0.07422 z m 29.171875,4.472656 c -0.02531,0.0419 -0.07048,0.101221 -0.07031,0.119141 0.002,0.264857 0.431245,1.703549 0.953125,3.197265 0.544048,1.557191 0.830806,2.633098 0.884765,3.542969 0.04061,-1.015071 -0.240174,-2.186283 -0.884765,-4.03125 -0.401588,-1.149418 -0.743349,-2.253616 -0.882813,-2.828125 z m -38.83789,0.132813 c -0.123134,0.603577 -0.469608,1.729108 -0.890625,2.847656 -0.52188,1.38649 -0.946406,2.970324 -0.941407,3.519531 7.24e-4,0.0867 0.01976,0.181462 0.02734,0.271485 0.06522,-0.663042 0.440742,-2.043299 0.914063,-3.300782 0.521869,-1.386489 0.949219,-2.830754 0.949219,-3.208984 0,-0.02515 -0.03844,-0.08545 -0.05859,-0.128906 z m 19.52539,10.697265 c -1.528576,-0.0077 -3.390299,0.767443 -7.890625,3.001953 -4.396731,2.183075 -5.532818,2.771809 -5.134765,3.458985 0.316156,-0.561975 1.76445,-1.295313 5.134765,-2.96875 6.000434,-2.979347 7.309421,-3.365427 9.392579,-2.759766 2.054443,0.597311 10.118992,4.507172 11.460937,5.501953 0.129474,-0.137326 0.210937,-0.24027 0.210937,-0.285156 1e-6,-0.444303 -9.429327,-5.053078 -11.671874,-5.705078 -0.52079,-0.151415 -0.992428,-0.241588 -1.501954,-0.244141 z"
     sodipodi:nodetypes="cccccscsscccccccsscccsscccccsscsccsssccssscscsccscscssscssssscscsscssscscssscsccssccscsscssc" />
</svg>
