<?xml version="1.0" encoding="UTF-8" standalone="no"?>
<!-- Created with Inkscape (http://www.inkscape.org/) -->

<svg
   version="1.0"
   width="96"
   height="96"
   id="svg2408"
   sodipodi:docname="discord.svg"
   inkscape:version="1.2.2 (b0a8486541, 2022-12-01)"
   xml:space="preserve"
   xmlns:inkscape="http://www.inkscape.org/namespaces/inkscape"
   xmlns:sodipodi="http://sodipodi.sourceforge.net/DTD/sodipodi-0.dtd"
   xmlns:xlink="http://www.w3.org/1999/xlink"
   xmlns="http://www.w3.org/2000/svg"
   xmlns:svg="http://www.w3.org/2000/svg"
   xmlns:rdf="http://www.w3.org/1999/02/22-rdf-syntax-ns#"
   xmlns:cc="http://creativecommons.org/ns#"
   xmlns:dc="http://purl.org/dc/elements/1.1/"><sodipodi:namedview
     id="namedview15843"
     pagecolor="#ffffff"
     bordercolor="#000000"
     borderopacity="0.25"
     inkscape:showpageshadow="2"
     inkscape:pageopacity="0.0"
     inkscape:pagecheckerboard="0"
     inkscape:deskcolor="#d1d1d1"
     showgrid="false"
     inkscape:zoom="5.6568543"
     inkscape:cx="0.44194173"
     inkscape:cy="62.490561"
     inkscape:current-layer="svg2408" /><defs
     id="defs2410"><linearGradient
       id="linearGradient5100"><stop
         id="stop5094"
         style="stop-color:#98e0f2;stop-opacity:0;"
         offset="0" /><stop
         id="stop5096"
         style="stop-color:#ffffff;stop-opacity:0.29019609;"
         offset="0.30000001" /><stop
         id="stop5098"
         style="stop-color:#ffffff;stop-opacity:0.29019609;"
         offset="1" /></linearGradient><linearGradient
       id="linearGradient5092"><stop
         id="stop5086"
         style="stop-color:#98e0f2;stop-opacity:0;"
         offset="0" /><stop
         id="stop5088"
         style="stop-color:#ffffff;stop-opacity:0.29019609;"
         offset="0.30000001" /><stop
         id="stop5090"
         style="stop-color:#ffffff;stop-opacity:0.29019609;"
         offset="1" /></linearGradient><linearGradient
       id="linearGradient5084"><stop
         id="stop5078"
         style="stop-color:#98e0f2;stop-opacity:0;"
         offset="0" /><stop
         id="stop5080"
         style="stop-color:#ffffff;stop-opacity:0.29019609;"
         offset="0.30000001" /><stop
         id="stop5082"
         style="stop-color:#ffffff;stop-opacity:0.29019609;"
         offset="1" /></linearGradient><linearGradient
       id="linearGradient5076"><stop
         id="stop5070"
         style="stop-color:#98e0f2;stop-opacity:0;"
         offset="0" /><stop
         id="stop5072"
         style="stop-color:#ffffff;stop-opacity:0.29019609;"
         offset="0.30000001" /><stop
         id="stop5074"
         style="stop-color:#ffffff;stop-opacity:0.29019609;"
         offset="1" /></linearGradient><linearGradient
       id="linearGradient5068"><stop
         id="stop5062"
         style="stop-color:#98e0f2;stop-opacity:0;"
         offset="0" /><stop
         id="stop5064"
         style="stop-color:#ffffff;stop-opacity:0.29019609;"
         offset="0.30000001" /><stop
         id="stop5066"
         style="stop-color:#ffffff;stop-opacity:0.29019609;"
         offset="1" /></linearGradient><linearGradient
       id="linearGradient5060"><stop
         id="stop5054"
         style="stop-color:#b198f2;stop-opacity:0;"
         offset="0" /><stop
         id="stop5056"
         style="stop-color:#ffffff;stop-opacity:0.29019609;"
         offset="0.30000001" /><stop
         id="stop5058"
         style="stop-color:#ffffff;stop-opacity:0.29019609;"
         offset="1" /></linearGradient><linearGradient
       inkscape:collect="always"
       id="linearGradient48486"><stop
         style="stop-color:#ffffff;stop-opacity:1;"
         offset="0"
         id="stop48482" /><stop
         style="stop-color:#e5e5e5;stop-opacity:1;"
         offset="1"
         id="stop48484" /></linearGradient><linearGradient
       id="linearGradient47754"><stop
         id="stop47750"
         style="stop-color:#e6e6e6;stop-opacity:1;"
         offset="0" /><stop
         id="stop47752"
         style="stop-color:#f5f5f5;stop-opacity:1"
         offset="1" /></linearGradient><linearGradient
       id="linearGradient4085"><stop
         id="stop4087"
         style="stop-color:#782121;stop-opacity:1"
         offset="0" /><stop
         id="stop4089"
         style="stop-color:#782121;stop-opacity:0"
         offset="1" /></linearGradient><linearGradient
       id="linearGradient3694"><stop
         id="stop3696"
         style="stop-color:#e6e6e6;stop-opacity:1"
         offset="0" /><stop
         id="stop3698"
         style="stop-color:#f5f5f5;stop-opacity:1"
         offset="1" /></linearGradient><linearGradient
       id="linearGradient3688"><stop
         id="stop3690"
         style="stop-color:#444fce;stop-opacity:1;"
         offset="0" /><stop
         id="stop3692"
         style="stop-color:#5c84d6;stop-opacity:1;"
         offset="1" /></linearGradient><linearGradient
       x1="45.447727"
       y1="92.539597"
       x2="45.447727"
       y2="7.0165396"
       id="ButtonShadow"
       gradientUnits="userSpaceOnUse"
       gradientTransform="scale(1.0058652,0.994169)"><stop
         id="stop3750"
         style="stop-color:#000000;stop-opacity:1"
         offset="0" /><stop
         id="stop3752"
         style="stop-color:#000000;stop-opacity:0.58823532"
         offset="1" /></linearGradient><linearGradient
       id="linearGradient3737"><stop
         id="stop3739"
         style="stop-color:#ffffff;stop-opacity:1"
         offset="0" /><stop
         id="stop3741"
         style="stop-color:#ffffff;stop-opacity:0"
         offset="1" /></linearGradient><filter
       color-interpolation-filters="sRGB"
       id="filter3174"
       x="-0.047720931"
       y="-0.048282354"
       width="1.0954419"
       height="1.0965647"><feGaussianBlur
         id="feGaussianBlur3176"
         stdDeviation="1.71" /></filter><linearGradient
       x1="36.357143"
       y1="6"
       x2="36.357143"
       y2="63.893143"
       id="linearGradient3188"
       xlink:href="#linearGradient3737"
       gradientUnits="userSpaceOnUse" /><filter
       x="-0.19578789"
       y="-0.19578789"
       width="1.3915758"
       height="1.3915758"
       color-interpolation-filters="sRGB"
       id="filter3794"><feGaussianBlur
         id="feGaussianBlur3796"
         stdDeviation="5.28" /></filter><linearGradient
       x1="48"
       y1="20.220806"
       x2="48"
       y2="138.66119"
       id="linearGradient3613"
       xlink:href="#linearGradient3737"
       gradientUnits="userSpaceOnUse" /><radialGradient
       cx="48"
       cy="90.171875"
       r="42"
       fx="48"
       fy="90.171875"
       id="radialGradient3619"
       xlink:href="#linearGradient3737"
       gradientUnits="userSpaceOnUse"
       gradientTransform="matrix(1.1573129,0,0,0.99590774,-7.5510206,0.19713193)" /><clipPath
       id="clipPath3613"><rect
         width="84"
         height="84"
         rx="6"
         ry="6"
         x="6"
         y="6"
         id="rect3615"
         style="fill:#ffffff;fill-opacity:1;fill-rule:nonzero;stroke:none" /></clipPath><linearGradient
       x1="48"
       y1="90"
       x2="48"
       y2="5.9877172"
       id="linearGradient3617"
       xlink:href="#linearGradient3688"
       gradientUnits="userSpaceOnUse" /><linearGradient
       x1="45.447727"
       y1="92.539597"
       x2="45.447727"
       y2="7.0165396"
       id="ButtonShadow-0"
       gradientUnits="userSpaceOnUse"
       gradientTransform="matrix(1.0058652,0,0,0.994169,100,0)"><stop
         id="stop3750-8"
         style="stop-color:#000000;stop-opacity:1"
         offset="0" /><stop
         id="stop3752-5"
         style="stop-color:#000000;stop-opacity:0.58823532"
         offset="1" /></linearGradient><linearGradient
       x1="32.251034"
       y1="6.1317081"
       x2="32.251034"
       y2="90.238609"
       id="linearGradient3780"
       xlink:href="#ButtonShadow-0"
       gradientUnits="userSpaceOnUse"
       gradientTransform="matrix(1.0238095,0,0,1.0119048,-1.1428571,-98.071429)" /><linearGradient
       x1="32.251034"
       y1="6.1317081"
       x2="32.251034"
       y2="90.238609"
       id="linearGradient3772"
       xlink:href="#ButtonShadow-0"
       gradientUnits="userSpaceOnUse"
       gradientTransform="matrix(1.0238095,0,0,1.0119048,-1.1428571,-98.071429)" /><linearGradient
       x1="32.251034"
       y1="6.1317081"
       x2="32.251034"
       y2="90.238609"
       id="linearGradient3725"
       xlink:href="#ButtonShadow-0"
       gradientUnits="userSpaceOnUse"
       gradientTransform="matrix(1.0238095,0,0,1.0119048,-1.1428571,-98.071429)" /><linearGradient
       x1="32.251034"
       y1="6.1317081"
       x2="32.251034"
       y2="90.238609"
       id="linearGradient3721"
       xlink:href="#ButtonShadow-0"
       gradientUnits="userSpaceOnUse"
       gradientTransform="translate(0,-97)" /><linearGradient
       x1="32.251034"
       y1="6.1317081"
       x2="32.251034"
       y2="90.238609"
       id="linearGradient3026"
       xlink:href="#ButtonShadow-0"
       gradientUnits="userSpaceOnUse"
       gradientTransform="matrix(1.0238095,0,0,1.0119048,-1.1428571,-98.071429)" /><linearGradient
       x1="-73.494293"
       y1="72.699486"
       x2="-50.243786"
       y2="159.47563"
       id="linearGradient4018"
       xlink:href="#linearGradient3694"
       gradientUnits="userSpaceOnUse"
       gradientTransform="matrix(0.59136097,-0.15844727,-0.15844727,-0.59136097,103.35407,108.29989)" /><linearGradient
       x1="-73.494293"
       y1="72.699486"
       x2="-50.243786"
       y2="159.47563"
       id="linearGradient4071"
       xlink:href="#linearGradient47754"
       gradientUnits="userSpaceOnUse"
       gradientTransform="matrix(0.59136097,-0.15844727,-0.15844727,-0.59136097,103.35407,109.29989)" /><linearGradient
       x1="58"
       y1="19"
       x2="58"
       y2="120"
       id="linearGradient4091"
       xlink:href="#linearGradient4085"
       gradientUnits="userSpaceOnUse" /><linearGradient
       inkscape:collect="always"
       xlink:href="#linearGradient48486"
       id="linearGradient48488"
       x1="106.53261"
       y1="114.87142"
       x2="106.53261"
       y2="99.088799"
       gradientUnits="userSpaceOnUse"
       gradientTransform="matrix(2.3587972,0,0,2.3766727,-218.77249,-214.99835)" /><linearGradient
       id="linearGradient5293"><stop
         id="stop5295"
         style="stop-color:#ffffff;stop-opacity:0;"
         offset="0" /><stop
         id="stop5297"
         style="stop-color:#ffffff;stop-opacity:1;"
         offset="1" /></linearGradient><linearGradient
       x1="11.46875"
       y1="16.421875"
       x2="8"
       y2="0"
       id="linearGradient5780"
       xlink:href="#linearGradient4239"
       gradientUnits="userSpaceOnUse" /><linearGradient
       id="linearGradient4239"><stop
         id="stop5734"
         style="stop-color:#98e0f2;stop-opacity:0;"
         offset="0" /><stop
         id="stop5736"
         style="stop-color:#ffffff;stop-opacity:0.29019609;"
         offset="0.30000001" /><stop
         id="stop4243"
         style="stop-color:#ffffff;stop-opacity:0.29019609;"
         offset="1" /></linearGradient><linearGradient
       x1="32"
       y1="16"
       x2="39"
       y2="6"
       id="linearGradient5782"
       xlink:href="#linearGradient5100"
       gradientUnits="userSpaceOnUse" /><linearGradient
       x1="42"
       y1="23"
       x2="70"
       y2="1"
       id="linearGradient5784"
       xlink:href="#linearGradient5076"
       gradientUnits="userSpaceOnUse" /><linearGradient
       x1="44"
       y1="36"
       x2="96"
       y2="24"
       id="linearGradient5770"
       xlink:href="#linearGradient5060"
       gradientUnits="userSpaceOnUse" /><linearGradient
       x1="42"
       y1="45"
       x2="96"
       y2="48"
       id="linearGradient5774"
       xlink:href="#linearGradient5068"
       gradientUnits="userSpaceOnUse" /><linearGradient
       x1="36"
       y1="51"
       x2="82"
       y2="76"
       id="linearGradient5776"
       xlink:href="#linearGradient5084"
       gradientUnits="userSpaceOnUse" /><linearGradient
       x1="32"
       y1="56"
       x2="48"
       y2="72"
       id="linearGradient5778"
       xlink:href="#linearGradient5092"
       gradientUnits="userSpaceOnUse" /><radialGradient
       cx="24"
       cy="34.75"
       r="42"
       fx="24"
       fy="34.75"
       id="radialGradient5730"
       xlink:href="#linearGradient4285"
       gradientUnits="userSpaceOnUse"
       gradientTransform="matrix(0.5,0,0,0.52380952,12,17.797619)" /><linearGradient
       id="linearGradient4285"><stop
         id="stop4287"
         style="stop-color:#ffffff;stop-opacity:1"
         offset="0" /><stop
         id="stop5732"
         style="stop-color:#ffffff;stop-opacity:0.70866144"
         offset="0.5" /><stop
         id="stop4289"
         style="stop-color:#ffffff;stop-opacity:0"
         offset="1" /></linearGradient><clipPath
       id="clipPath3613-7"><rect
         width="84"
         height="84"
         rx="6"
         ry="6"
         x="6"
         y="6"
         id="rect3615-5"
         style="fill:#ffffff;fill-opacity:1;fill-rule:nonzero;stroke:none" /></clipPath><filter
       x="-0.19849745"
       y="-0.19849745"
       width="1.3969949"
       height="1.3969949"
       color-interpolation-filters="sRGB"
       id="filter4055"><feGaussianBlur
         id="feGaussianBlur4057"
         stdDeviation="5.3379019" /></filter><linearGradient
       x1="48"
       y1="90"
       x2="48"
       y2="5.9877172"
       id="linearGradient3948"
       xlink:href="#ButtonColor"
       gradientUnits="userSpaceOnUse" /><linearGradient
       x1="10.31979"
       y1="21"
       x2="10.31979"
       y2="0.99929649"
       id="ButtonColor"
       gradientUnits="userSpaceOnUse"><stop
         id="stop3189"
         style="stop-color:#4754cf;stop-opacity:1;"
         offset="0" /><stop
         id="stop3191"
         style="stop-color:#94ade4;stop-opacity:1;"
         offset="1" /></linearGradient><linearGradient
       x1="48"
       y1="90"
       x2="48"
       y2="5.9877172"
       id="linearGradient3151"
       xlink:href="#linearGradient3700"
       gradientUnits="userSpaceOnUse"
       gradientTransform="translate(-110)" /><linearGradient
       id="linearGradient3700"><stop
         id="stop3702"
         style="stop-color:#2276c5;stop-opacity:1"
         offset="0" /><stop
         id="stop3704"
         style="stop-color:#68baf4;stop-opacity:1"
         offset="1" /></linearGradient><linearGradient
       x1="36.357143"
       y1="6"
       x2="36.357143"
       y2="63.893143"
       id="linearGradient3153"
       xlink:href="#linearGradient3737"
       gradientUnits="userSpaceOnUse"
       gradientTransform="translate(-110)" /><radialGradient
       cx="48"
       cy="90.171875"
       r="42"
       fx="48"
       fy="90.171875"
       id="radialGradient3155"
       xlink:href="#linearGradient3737"
       gradientUnits="userSpaceOnUse"
       gradientTransform="matrix(1.1573129,0,0,0.99590774,-117.55102,0.19713193)" /><linearGradient
       x1="44"
       y1="6"
       x2="44"
       y2="64.215118"
       id="linearGradient3967"
       xlink:href="#linearGradient3737"
       gradientUnits="userSpaceOnUse" /><radialGradient
       cx="48"
       cy="72"
       r="42"
       fx="48"
       fy="72"
       id="radialGradient3982"
       xlink:href="#linearGradient3737"
       gradientUnits="userSpaceOnUse"
       gradientTransform="matrix(1.1428571,0,0,0.95238095,-6.8571426,3.428571)" /><linearGradient
       x1="48"
       y1="90.868095"
       x2="48"
       y2="5.9877172"
       id="linearGradient4031"
       xlink:href="#ButtonShadow"
       gradientUnits="userSpaceOnUse"
       gradientTransform="translate(-1,1)" /><linearGradient
       x1="48"
       y1="90"
       x2="48"
       y2="5.9877172"
       id="linearGradient3989"
       xlink:href="#ButtonShadow"
       gradientUnits="userSpaceOnUse"
       gradientTransform="translate(0,1)" /><linearGradient
       inkscape:collect="always"
       xlink:href="#ButtonShadow"
       id="linearGradient511"
       gradientUnits="userSpaceOnUse"
       gradientTransform="translate(-1,1)"
       x1="48"
       y1="90.868095"
       x2="48"
       y2="5.9877172" /><linearGradient
       inkscape:collect="always"
       xlink:href="#ButtonShadow"
       id="linearGradient513"
       gradientUnits="userSpaceOnUse"
       gradientTransform="translate(-1,1)"
       x1="48"
       y1="90.868095"
       x2="48"
       y2="5.9877172" /><linearGradient
       inkscape:collect="always"
       xlink:href="#ButtonShadow"
       id="linearGradient515"
       gradientUnits="userSpaceOnUse"
       gradientTransform="translate(-1,1)"
       x1="48"
       y1="90.868095"
       x2="48"
       y2="5.9877172" /><linearGradient
       inkscape:collect="always"
       xlink:href="#linearGradient3737"
       id="linearGradient517"
       gradientUnits="userSpaceOnUse"
       x1="48"
       y1="20.220806"
       x2="48"
       y2="138.66119" /></defs><metadata
     id="metadata2413"><rdf:RDF><cc:Work
         rdf:about=""><dc:format>image/svg+xml</dc:format><dc:type
           rdf:resource="http://purl.org/dc/dcmitype/StillImage" /></cc:Work></rdf:RDF></metadata><g
     id="g687"
     style="display:inline"
     transform="matrix(3.125,0,0,3.125,-162.86218,-282.33181)"><g
       id="layer3-9"
       transform="matrix(0.32,0,0,0.32,52.115898,90.346179)"><path
         d="m 12,4.03125 c -6.0701637,-0.1617408 -10.6911509,5.6895113 -9.96875,11.5 7.16e-5,0.04167 -7.01e-5,0.08333 0,0.125 0.030431,18.086218 -0.077787,36.153437 0.03125,54.25 a 0.93232674,0.93232674 0 0 0 0,0.0625 c 0.4297709,5.831518 6.2168912,9.674679 11.71875,9 0.0418,-0.0051 0.08323,0.0056 0.125,0 h 5.3125 c -0.679778,4.428501 -1.596836,8.895227 -2.0625,13.40625 a 0.93232674,0.93232674 0 0 0 0.03125,0.28125 c 0.279995,1.294203 1.371731,2.108795 2.46875,2.25 1.023884,0.131791 2.065552,-0.225148 2.84375,-1 V 93.9375 L 45.34375,78.96875 c 13.185056,-0.02898 26.362788,0.07707 39.5625,-0.03125 a 0.93232674,0.93232674 0 0 0 0.0625,0 c 5.831518,-0.429771 9.674679,-6.216892 9,-11.71875 -0.0051,-0.0418 0.0056,-0.08323 0,-0.125 -0.03043,-18.00176 0.07779,-35.987855 -0.03125,-54 a 0.93232674,0.93232674 0 0 0 0,-0.0625 c -0.429771,-5.8315178 -6.216892,-9.6746792 -11.71875,-9 h -0.125 -70.0625 z"
         id="path4029"
         style="opacity:0.08;fill:url(#linearGradient511);fill-opacity:1;fill-rule:nonzero;stroke:none" /><path
         d="M 12,4.96875 C 6.498217,4.8031106 2.2406967,10.230306 2.96875,15.520213 c 0.031153,18.132768 -0.06237,36.268711 0.046873,54.39949 0.3891125,5.279828 5.7301904,8.791471 10.757959,8.111547 2.17964,0 4.359279,0 6.538918,0 -0.693629,4.811167 -1.723208,9.637038 -2.21875,14.4375 0.399566,1.846889 2.79006,1.976363 3.910163,0.694482 C 29.700525,88.119238 37.397138,83.075244 45.09375,78.03125 58.368678,78.00033 71.646761,78.0933 84.919703,77.98438 90.199531,77.595267 93.711174,72.254189 93.03125,67.226421 93.000098,49.178106 93.093619,31.12662 92.984377,13.080297 92.595264,7.8004692 87.254186,4.2888256 82.226418,4.96875 c -23.408806,0 -46.817612,0 -70.226418,0 z"
         inkscape:connector-curvature="0"
         id="path4015"
         style="opacity:0.1;fill:url(#linearGradient513);fill-opacity:1;fill-rule:nonzero;stroke:none" /><path
         d="M 12,6 C 7.5921478,6 4,9.5921478 4,14 v 55 c 0,4.407852 3.5921478,8 8,8 h 9.5 l -2.40625,14.90625 a 0.98733463,0.98733463 0 0 0 1.5,0.96875 L 44.8125,77 H 84 c 4.407852,0 8,-3.592148 8,-8 V 14 C 92,9.5921478 88.407852,6 84,6 Z"
         id="path4007"
         style="opacity:0.15;fill:url(#linearGradient515);fill-opacity:1;fill-rule:nonzero;stroke:none" /><path
         d="M 12,7 C 8.122,7 5,10.122 5,14 v 55 c 0,3.878 3.122,7 7,7 H 22.65625 L 20.0625,92.0625 44.5625,76 H 84 c 3.878,0 7,-3.122 7,-7 V 14 C 91,10.122 87.878,7 84,7 Z"
         inkscape:connector-curvature="0"
         id="rect3991"
         style="opacity:0.3;fill:url(#linearGradient4031);fill-opacity:1;fill-rule:nonzero;stroke:none" /><path
         d="M 12,7 C 8.676,7 6,9.676 6,13 v 56 c 0,3.324 2.676,6 6,6 H 24 L 21,91 44,75 h 40 c 3.324,0 6,-2.676 6,-6 V 13 C 90,9.676 87.324,7 84,7 Z"
         inkscape:connector-curvature="0"
         id="path3984"
         style="opacity:0.45;fill:url(#linearGradient3989);fill-opacity:1;fill-rule:nonzero;stroke:none" /></g><g
       id="layer1-1"
       transform="matrix(0.32,0,0,0.32,52.115898,90.346179)"><path
         d="M 12,6 C 8.676,6 6,8.676 6,12 v 56 c 0,3.324 2.676,6 6,6 H 24 L 21,90 44,74 h 40 c 3.324,0 6,-2.676 6,-6 V 12 C 90,8.676 87.324,6 84,6 Z"
         inkscape:connector-curvature="0"
         id="rect2419-2"
         style="fill:url(#linearGradient3948);fill-opacity:1;fill-rule:nonzero;stroke:none" /><path
         d="M 12,6 C 8.676,6 6,8.676 6,12 v 56 c 0,2.9085 2.0422266,5.317352 4.78125,5.875 C 8.5791143,73.33731 6.96875,71.37778 6.96875,69 V 13 C 6.96875,10.202611 9.2026115,7.96875 12,7.96875 h 72 c 2.797388,0 5.03125,2.233861 5.03125,5.03125 v 56 c 0,2.37778 -1.610365,4.33731 -3.8125,4.875 C 87.957773,73.317352 90,70.9085 90,68 V 12 C 90,8.676 87.324,6 84,6 Z M 24,74.03125 21,90 43.96875,74.03125 A 0.98129583,0.98129583 0 0 0 43.4375,74.1875 l -21.03125,14.625 2.5625,-13.625 A 0.98129583,0.98129583 0 0 0 24,74.03125 Z"
         inkscape:connector-curvature="0"
         id="path3953"
         style="opacity:0.3;fill:url(#linearGradient3967);fill-opacity:1;fill-rule:nonzero;stroke:none" /><path
         d="M 12,6 C 8.676,6 6,8.676 6,12 v 56 c 0,3.324 2.676,6 6,6 H 24 L 21,90 44,74 h 40 c 3.324,0 6,-2.676 6,-6 V 12 C 90,8.676 87.324,6 84,6 Z m 0,2 h 72 c 2.251468,0 4,1.748532 4,4 v 56 c 0,2.251468 -1.748532,4 -4,4 H 44 a 1.9985725,1.9985725 0 0 0 -1.15625,0.375 L 23.875,85.5625 25.96875,74.375 A 1.9985725,1.9985725 0 0 0 24,72 H 12 C 9.7485321,72 8,70.251468 8,68 V 12 C 8,9.748532 9.7485321,8 12,8 Z"
         inkscape:connector-curvature="0"
         id="path3969"
         style="opacity:0.15;fill:url(#radialGradient3982);fill-opacity:1;fill-rule:nonzero;stroke:none" /></g><g
       id="layer5-7"
       style="display:inline"
       transform="matrix(0.32,0,0,0.32,52.115898,90.346179)"><rect
         width="66"
         height="66"
         rx="12"
         ry="12"
         x="15"
         y="15"
         transform="matrix(1,0,0,0.74384496,0,3.8423256)"
         clip-path="url(#clipPath3613-7)"
         id="rect3171-0"
         style="display:none;opacity:0.1;fill:url(#linearGradient517);fill-opacity:1;fill-rule:nonzero;stroke:#ffffff;stroke-width:0.579734;stroke-linecap:round;stroke-linejoin:miter;stroke-miterlimit:4;stroke-dasharray:none;stroke-dashoffset:0;stroke-opacity:1;filter:url(#filter4055)" /></g><g
       id="layer4-9"
       transform="matrix(0.32,0,0,0.32,52.115898,90.346179)"><path
         d="m 12,6 c -0.176665,0 -0.35855,0.016436 -0.53125,0.03125 2.210212,8.870024 5.0625,20.427766 5.0625,20.8125 L 19.21875,6 Z"
         inkscape:connector-curvature="0"
         id="path5768"
         style="opacity:0.3;fill:url(#linearGradient5780);fill-opacity:1;stroke:none" /><path
         d="M 31.09375,6 21.625,36.3125 41.9375,6 Z"
         inkscape:connector-curvature="0"
         id="path5766"
         style="opacity:0.4;fill:url(#linearGradient5782);fill-opacity:1;stroke:none" /><path
         d="M 56.84375,6 28,36.875 74.9375,6 Z"
         inkscape:connector-curvature="0"
         id="path5764"
         style="opacity:0.2;fill:url(#linearGradient5784);fill-opacity:1;stroke:none" /><path
         d="M 90,15.09375 30.53125,39.4375 90,30.25 Z"
         inkscape:connector-curvature="0"
         id="path5762"
         style="opacity:0.2;fill:url(#linearGradient5770);fill-opacity:1;stroke:none" /><path
         d="M 31.6875,43.8125 90,55.40625 V 43.9375 Z"
         inkscape:connector-curvature="0"
         id="path5760"
         style="opacity:0.2;fill:url(#linearGradient5774);fill-opacity:1;stroke:none"
         inkscape:label="path5760" /><path
         d="M 27.84375,46.65625 69.125,74 H 84 c 2.621112,0 4.835344,-1.666493 5.65625,-4 z"
         inkscape:connector-curvature="0"
         id="path5758"
         style="opacity:0.2;fill:url(#linearGradient5776);fill-opacity:1;stroke:none" /><path
         d="M 28,50.3125 43.84375,74.09375 44,74 h 7.125 z"
         inkscape:connector-curvature="0"
         id="path4224"
         style="opacity:0.2;fill:url(#linearGradient5778);fill-opacity:1;stroke:none" /><path
         d="M 12,6 C 8.676,6 6,8.676 6,12 v 56 c 0,3.324 2.676,6 6,6 H 24 L 21,90 44,74 H 64 V 6 Z"
         inkscape:connector-curvature="0"
         id="path3984-5"
         style="display:none;opacity:0.2;fill:url(#radialGradient5730);fill-opacity:1;fill-rule:nonzero;stroke:none"
         sodipodi:nodetypes="sssscccccs" /></g></g><g
     id="g396"
     transform="translate(2.8284271)"><path
       id="path45264"
       style="display:inline;fill:url(#linearGradient48488);fill-opacity:1;stroke-width:0.192032"
       d="m 26.613281,20.224609 c -3.547715,0.618466 -6.941079,1.710546 -10.111328,3.208985 -6.39438,9.735963 -8.1284254,19.228557 -7.2617186,28.58789 4.2410896,3.191125 8.3498516,5.131869 12.3906246,6.400391 0.997674,-1.383505 1.889739,-2.854331 2.65625,-4.404297 -1.459902,-0.558945 -2.858482,-1.248083 -4.179687,-2.048828 0.350516,-0.261648 0.692217,-0.536892 1.023437,-0.818359 8.058452,3.797697 16.815176,3.797697 24.777344,0 0.335137,0.281467 0.678696,0.556711 1.025391,0.818359 -1.325098,0.804691 -2.729526,1.493743 -4.189453,2.052734 0.76656,1.545998 1.654732,3.01891 2.65625,4.402344 4.044664,-1.268522 8.157334,-3.207202 12.398437,-6.402344 1.016945,-10.849858 -1.738164,-20.255128 -7.28125,-28.595703 -3.170214,-1.494504 -6.559599,-2.582706 -10.103516,-3.201172 -0.43522,0.792848 -0.942403,1.860661 -1.292968,2.708985 -3.76727,-0.570851 -7.501226,-0.570851 -11.199219,0 -0.350515,-0.848324 -0.869458,-1.916137 -1.308594,-2.708985 z m 16.029297,14.255075 c 1.834692,0 3.382114,1.266014 4.050781,3.058594 -0.923459,-0.755586 -2.094514,-1.169363 -3.304687,-1.169922 -2.524391,-5.39e-4 -4.672877,1.777445 -5.058594,4.1875 -0.05908,-0.331486 -0.09044,-0.674385 -0.08984,-1.02539 -0.04236,-2.774891 1.940861,-5.050782 4.402344,-5.050782 z m -18.007812,0.13086 c 2.461483,0 4.444703,2.275892 4.402343,5.050781 6e-4,0.351007 -0.03076,0.693903 -0.08984,1.025391 -0.385717,-2.410057 -2.534205,-4.188039 -5.058594,-4.1875 -1.210173,5.59e-4 -2.381229,0.414335 -3.304688,1.169921 0.668669,-1.79258 2.216088,-3.058593 4.050782,-3.058593 z"
       sodipodi:nodetypes="cccccccccccccccccsccccssccccs" /><path
       id="path5500"
       style="display:inline;opacity:0.35;fill:#12177f;fill-opacity:1;stroke-width:0.192032"
       d="M 26.613281,20.224609 C 23.06557,20.843075 19.672199,21.935156 16.501953,23.433594 11.095415,31.665488 9.0291794,39.723345 9.0410156,47.673828 9.188064,40.02563 11.306525,32.275696 16.501953,24.365234 c 3.170246,-1.498437 6.563617,-2.590519 10.111328,-3.208984 0.439136,0.792847 0.958079,1.860661 1.308594,2.708984 3.697989,-0.57085 7.431953,-0.57085 11.199219,0 0.350564,-0.848323 0.857749,-1.916137 1.292968,-2.708984 3.543914,0.618465 6.933305,1.706669 10.103516,3.201172 4.734369,7.123714 7.426865,15.027618 7.480469,23.941406 0.135732,-9.296866 -2.581516,-17.501687 -7.480469,-24.873047 -3.170211,-1.494502 -6.559602,-2.582706 -10.103516,-3.201172 -0.435219,0.792848 -0.942404,1.860662 -1.292968,2.708985 -3.767266,-0.570851 -7.50123,-0.570851 -11.199219,0 -0.350515,-0.848323 -0.869458,-1.916137 -1.308594,-2.708985 z m 16.775391,16.141632 c -2.524389,-5.39e-4 -4.672877,1.777448 -5.058594,4.1875 -0.03643,-0.20438 -0.05791,-0.41467 -0.07227,-0.626953 -0.01391,0.175494 -0.02033,0.353015 -0.01758,0.533203 -6e-4,0.351005 0.03076,0.693905 0.08984,1.025391 0.385717,-2.410053 2.565275,-4.70782 5.089664,-4.707281 1.210172,5.59e-4 2.791094,1.002744 3.714552,1.758329 L 46.693359,37.536163 C 45.69815,36.709359 44.481768,36.36801 43.388662,36.366241 Z m -19.5,0.13086 c -1.384425,7.63e-4 -2.511067,0.521863 -3.304688,1.169921 l -0.42457,1.049633 c 0.923458,-0.755585 2.519086,-1.642732 3.729258,-1.643291 2.524386,-5.39e-4 4.672877,2.132823 5.058594,4.542877 0.05908,-0.331487 0.09044,-0.674384 0.08984,-1.02539 0.0028,-0.180188 -0.0037,-0.35771 -0.01758,-0.533203 -0.01436,0.212282 -0.03584,0.422571 -0.07227,0.626953 -0.385717,-2.410055 -2.534208,-4.188039 -5.058594,-4.1875 z m -3.78125,15.471649 c -0.22376,0.182925 -0.44577,0.367863 -0.677734,0.541016 1.199169,0.726782 3.142382,1.746388 4.457031,2.27539 0.135066,-0.254654 0.272249,-0.508462 0.40039,-0.767578 -1.210749,-0.44469 -3.048808,-1.347608 -4.179687,-2.048828 z m 26.828759,-7.09e-4 c -1.065463,0.671956 -2.952998,1.603047 -4.19204,2.053443 0.128321,0.258799 0.265292,0.512953 0.40039,0.767578 1.315588,-0.529054 3.266683,-1.549642 4.469385,-2.280005 -0.229169,-0.172952 -0.452833,-0.358313 -0.677735,-0.541016 z"
       sodipodi:nodetypes="ccccccccccccccccccccccccccccccccccccccccccccc" /><path
       id="path5504"
       style="display:inline;opacity:0.35;fill:#12177f;fill-opacity:1;stroke-width:0.192032"
       d="M 26.613281,20.224609 C 23.06557,20.843075 19.672199,21.935156 16.501953,23.433594 11.095415,31.665488 9.0291794,39.723345 9.0410156,47.673828 9.188064,40.02563 11.306525,33.969101 16.501953,26.058639 c 3.170246,-1.498437 6.563617,-2.529408 10.111328,-3.147873 0.439136,0.792847 0.958079,2.048033 1.308594,2.896356 3.697989,-0.57085 7.431953,-0.593162 11.199219,-0.02231 0.350564,-0.848323 0.857749,-2.158827 1.292968,-2.951674 3.543914,0.618465 6.933305,1.833237 10.103516,3.32774 4.734369,7.123714 7.426865,13.224164 7.480469,22.137952 0.135732,-9.296866 -2.581516,-17.501687 -7.480469,-24.873047 -3.170211,-1.494502 -6.559602,-2.582706 -10.103516,-3.201172 -0.435219,0.792848 -0.942404,1.860662 -1.292968,2.708985 -3.767266,-0.570851 -7.50123,-0.570851 -11.199219,0 -0.350515,-0.848323 -0.869458,-1.916137 -1.308594,-2.708985 z m 16.775391,16.140677 c -2.524389,-5.39e-4 -4.672877,1.777448 -5.058594,4.1875 -0.03643,-0.20438 -0.05791,-0.41467 -0.07227,-0.626953 -0.01391,0.175494 -0.02033,0.353015 -0.01758,0.533203 -6e-4,0.351005 0.113273,1.272497 0.172353,1.603983 0.385717,-2.410053 2.435413,-4.528691 4.959802,-4.528152 1.210172,5.59e-4 3.750501,1.713954 4.673959,2.469539 -0.211004,-0.565665 -0.985557,-2.031637 -1.352983,-2.469198 -0.995209,-0.826804 -2.211591,-1.168153 -3.304697,-1.169922 z m -19.5,0.13086 c -1.384425,7.63e-4 -2.511067,0.521863 -3.304688,1.169921 -0.367427,0.437561 -1.07126,1.72357 -1.282265,2.289235 0.923458,-0.755585 3.178495,-1.953023 4.388667,-1.953582 2.524386,-5.39e-4 4.769369,2.095579 5.155086,4.505633 0.05908,-0.331487 0.192234,-1.566451 0.191634,-1.917457 0.0028,-0.180188 -0.0037,-0.35771 -0.01758,-0.533203 -0.01436,0.212282 -0.03584,0.422571 -0.07227,0.626953 -0.385717,-2.410055 -2.534208,-4.188039 -5.058594,-4.1875 z m -3.78125,15.472604 c -0.22376,0.182925 -1.830695,1.549837 -2.062659,1.72299 1.199169,0.726782 3.618162,2.302751 4.932811,2.831753 0.135066,-0.254654 1.181394,-2.246799 1.309535,-2.505915 -1.243296,-0.427289 -3.0821,-1.385955 -4.179687,-2.048828 z m 26.828759,-7.09e-4 c -1.07264,0.664715 -2.947382,1.604701 -4.19204,2.053443 0.128321,0.258799 1.043875,2.029511 1.178973,2.284136 1.315588,-0.529054 4.089952,-1.843104 5.292654,-2.573467 -0.229169,-0.172952 -2.054685,-1.581409 -2.279587,-1.764112 z"
       sodipodi:nodetypes="cccccccccccccccccccccccccccccccccccccccccccccc" /><path
       id="path45264-2"
       style="display:inline;opacity:0.2;fill:#ffffff;fill-opacity:1;stroke-width:0.192032"
       d="m 42.642582,34.479685 c -2.461481,0 -4.444704,2.275893 -4.402344,5.050781 -4.55e-4,0.266293 0.02216,0.525732 0.05664,0.78125 0.327233,-2.372588 2.142434,-5.176936 4.345703,-5.176936 0.53401,0 1.01634,0.07242 1.487092,0.268692 0.932247,0.136288 1.836646,1.539931 2.563689,2.134807 -0.668666,-1.792578 -2.216091,-3.058594 -4.05078,-3.058594 z m -18.007813,0.130859 c -1.834692,0 -3.382113,1.266016 -4.050781,3.058594 0.727043,-0.594876 1.410493,-1.890143 2.342741,-2.026431 0.470751,-0.196273 1.17403,-0.410734 1.70804,-0.410734 2.20208,0 4.017037,2.835982 4.345704,5.206696 0.03413,-0.254262 0.05709,-0.512423 0.05664,-0.777343 0.04236,-2.774887 -1.940863,-5.050782 -4.402344,-5.050782 z M 9.041019,48.505076 c -0.028123,1.721711 0.040671,3.438271 0.199219,5.15039 4.241086,3.191122 8.349856,5.13187 12.390625,6.400391 0.222849,-1.116367 1.172334,-2.900121 1.945313,-4.695313 -0.59218,1.061211 -1.240778,2.083547 -1.945313,3.060547 C 17.590094,57.152571 13.481324,55.211822 9.240238,52.020701 9.1319,50.850785 9.064062,49.679371 9.041019,48.505076 Z m 48.949219,0.02734 c -0.02259,1.146972 -0.08074,2.307586 -0.191406,3.488282 -4.241099,3.195138 -8.353778,5.133823 -12.398438,6.402343 -0.706886,-0.976449 -1.354264,-1.998756 -1.945312,-3.058593 0.36964,0.483955 1.851951,4.010339 1.945312,4.693359 4.04466,-1.268521 8.157339,-3.207205 12.398438,-6.402344 0.163637,-1.745858 0.219003,-3.450413 0.191406,-5.123047 z m -33.724605,4.591793 c 6.091911,2.09345 12.463765,1.99831 18.503906,-0.0869 1.184208,-0.573129 2.624375,-1.064685 3.507194,-1.593941 -0.346695,-0.261647 -0.03338,-0.01229 -0.368521,-0.293761 -7.96216,3.797693 -16.7189,3.797693 -24.777344,0 l -5e-6,-3e-6 c -0.33122,0.281467 -0.0829,0.06654 -0.433418,0.328182"
       sodipodi:nodetypes="sccsccssccsccsccccccccccccccccccssc" /></g></svg>
