<?xml version="1.0" encoding="UTF-8" standalone="no"?>
<!-- Created with Inkscape (http://www.inkscape.org/) -->

<svg
   version="1.0"
   width="96"
   height="96"
   id="svg2408"
   sodipodi:docname="hu.irl.cameractrls.svg"
   inkscape:version="1.2.2 (b0a8486541, 2022-12-01)"
   xmlns:inkscape="http://www.inkscape.org/namespaces/inkscape"
   xmlns:sodipodi="http://sodipodi.sourceforge.net/DTD/sodipodi-0.dtd"
   xmlns:xlink="http://www.w3.org/1999/xlink"
   xmlns="http://www.w3.org/2000/svg"
   xmlns:svg="http://www.w3.org/2000/svg"
   xmlns:rdf="http://www.w3.org/1999/02/22-rdf-syntax-ns#"
   xmlns:cc="http://creativecommons.org/ns#"
   xmlns:dc="http://purl.org/dc/elements/1.1/">
  <sodipodi:namedview
     id="namedview24059"
     pagecolor="#ffffff"
     bordercolor="#000000"
     borderopacity="0.25"
     inkscape:showpageshadow="2"
     inkscape:pageopacity="0.0"
     inkscape:pagecheckerboard="0"
     inkscape:deskcolor="#d1d1d1"
     showgrid="false"
     inkscape:zoom="4"
     inkscape:cx="11.625"
     inkscape:cy="62.125"
     inkscape:current-layer="svg2408" />
  <defs
     id="defs2410">
    <linearGradient
       id="linearGradient3729">
      <stop
         id="stop3731"
         style="stop-color:#1c59ad;stop-opacity:1"
         offset="0" />
      <stop
         id="stop3733"
         style="stop-color:#377ad6;stop-opacity:1"
         offset="1" />
    </linearGradient>
    <linearGradient
       x1="45.447727"
       y1="92.539597"
       x2="45.447727"
       y2="7.0165396"
       id="ButtonShadow"
       gradientUnits="userSpaceOnUse"
       gradientTransform="scale(1.0058652,0.994169)">
      <stop
         id="stop3750"
         style="stop-color:#000000;stop-opacity:1"
         offset="0" />
      <stop
         id="stop3752"
         style="stop-color:#000000;stop-opacity:0.58823532"
         offset="1" />
    </linearGradient>
    <linearGradient
       id="linearGradient3737">
      <stop
         id="stop3739"
         style="stop-color:#ffffff;stop-opacity:1"
         offset="0" />
      <stop
         id="stop3741"
         style="stop-color:#ffffff;stop-opacity:0"
         offset="1" />
    </linearGradient>
    <linearGradient
       id="linearGradient3700">
      <stop
         id="stop3702"
         style="stop-color:#e6e6e6;stop-opacity:1"
         offset="0" />
      <stop
         id="stop3704"
         style="stop-color:#f5f5f5;stop-opacity:1"
         offset="1" />
    </linearGradient>
    <linearGradient
       x1="48"
       y1="90"
       x2="48"
       y2="5.9877172"
       id="linearGradient3706"
       xlink:href="#linearGradient3700"
       gradientUnits="userSpaceOnUse" />
    <filter
       color-interpolation-filters="sRGB"
       id="filter3174"
       x="-0.047720931"
       y="-0.048282354"
       width="1.0954419"
       height="1.0965647">
      <feGaussianBlur
         stdDeviation="1.71"
         id="feGaussianBlur3176" />
    </filter>
    <linearGradient
       x1="36.357143"
       y1="6"
       x2="36.357143"
       y2="63.893143"
       id="linearGradient3188"
       xlink:href="#linearGradient3737"
       gradientUnits="userSpaceOnUse" />
    <linearGradient
       x1="45.447727"
       y1="92.539597"
       x2="45.447727"
       y2="7.0165396"
       id="ButtonShadow-0"
       gradientUnits="userSpaceOnUse"
       gradientTransform="matrix(1.0058652,0,0,0.994169,100,0)">
      <stop
         id="stop3750-8"
         style="stop-color:#000000;stop-opacity:1"
         offset="0" />
      <stop
         id="stop3752-5"
         style="stop-color:#000000;stop-opacity:0.58823532"
         offset="1" />
    </linearGradient>
    <linearGradient
       x1="32.251034"
       y1="6.1317081"
       x2="32.251034"
       y2="90.238609"
       id="linearGradient3780"
       xlink:href="#ButtonShadow-0"
       gradientUnits="userSpaceOnUse"
       gradientTransform="matrix(1.0238095,0,0,1.0119048,-1.1428571,-98.071429)" />
    <linearGradient
       x1="32.251034"
       y1="6.1317081"
       x2="32.251034"
       y2="90.238609"
       id="linearGradient3772"
       xlink:href="#ButtonShadow-0"
       gradientUnits="userSpaceOnUse"
       gradientTransform="matrix(1.0238095,0,0,1.0119048,-1.1428571,-98.071429)" />
    <linearGradient
       x1="32.251034"
       y1="6.1317081"
       x2="32.251034"
       y2="90.238609"
       id="linearGradient3725"
       xlink:href="#ButtonShadow-0"
       gradientUnits="userSpaceOnUse"
       gradientTransform="matrix(1.0238095,0,0,1.0119048,-1.1428571,-98.071429)" />
    <linearGradient
       x1="32.251034"
       y1="6.1317081"
       x2="32.251034"
       y2="90.238609"
       id="linearGradient3721"
       xlink:href="#ButtonShadow-0"
       gradientUnits="userSpaceOnUse"
       gradientTransform="translate(0,-97)" />
    <linearGradient
       x1="32.251034"
       y1="6.1317081"
       x2="32.251034"
       y2="90.238609"
       id="linearGradient3760"
       xlink:href="#ButtonShadow-0"
       gradientUnits="userSpaceOnUse"
       gradientTransform="matrix(1.0238095,0,0,1.0119048,-1.1428571,-98.071429)" />
    <linearGradient
       id="linearGradient3737-0">
      <stop
         id="stop3739-6"
         style="stop-color:#ffffff;stop-opacity:1"
         offset="0" />
      <stop
         id="stop3741-0"
         style="stop-color:#ffffff;stop-opacity:0"
         offset="1" />
    </linearGradient>
    <radialGradient
       cx="48"
       cy="90.171875"
       r="42"
       fx="48"
       fy="90.171875"
       id="radialGradient2903"
       xlink:href="#linearGradient3737-0"
       gradientUnits="userSpaceOnUse"
       gradientTransform="matrix(1.1573129,0,0,0.99590774,-7.551021,0.1971319)" />
    <clipPath
       id="clipPath3782">
      <path
         d="m -98,6 c -3.324,0 -6,2.676 -6,6 l 0,72 c 0,3.324 2.676,6 6,6 l 72,0 c 3.324,0 6,-2.676 6,-6 l 0,-72 c 0,-3.324 -2.676,-6 -6,-6 l -72,0 z m 59.0625,12 C -38.336494,17.9909 -38,18.03125 -38,18.03125 l 0,12.0625 C -50.051065,30.305506 -53,42.0625 -53,42.0625 l 9.0625,0 0,12.0625 -14.09375,0 C -66.507844,80.276885 -86,77.9375 -86,77.9375 l 0,-12.0625 c 0,0 12.376145,2.298313 18.6875,-20.75 6.908061,-25.227422 24.167961,-27.061294 28.375,-27.125 z"
         inkscape:connector-curvature="0"
         id="path3784"
         style="fill:#ff00ff;fill-opacity:1;fill-rule:nonzero;stroke:none" />
    </clipPath>
    <filter
       x="-0.18283333"
       y="-0.14622227"
       width="1.3656667"
       height="1.2924143"
       color-interpolation-filters="sRGB"
       id="filter3786">
      <feGaussianBlur
         id="feGaussianBlur3788"
         stdDeviation="3.24" />
    </filter>
    <linearGradient
       x1="46.906918"
       y1="75.471306"
       x2="46.906918"
       y2="36.246487"
       id="linearGradient3745"
       xlink:href="#linearGradient3729"
       gradientUnits="userSpaceOnUse"
       gradientTransform="translate(-2)" />
    <linearGradient
       id="linearGradient3737-9">
      <stop
         id="stop3739-2"
         style="stop-color:#ffffff;stop-opacity:1"
         offset="0" />
      <stop
         id="stop3741-1"
         style="stop-color:#ffffff;stop-opacity:0"
         offset="1" />
    </linearGradient>
    <clipPath
       id="clipPath3613">
      <rect
         width="84"
         height="84"
         rx="6"
         ry="6"
         x="6"
         y="6"
         id="rect3615"
         style="fill:#ffffff;fill-opacity:1;fill-rule:nonzero;stroke:none" />
    </clipPath>
    <filter
       x="-0.19578789"
       y="-0.19578789"
       width="1.3915758"
       height="1.3915758"
       color-interpolation-filters="sRGB"
       id="filter3794">
      <feGaussianBlur
         id="feGaussianBlur3796"
         stdDeviation="5.28" />
    </filter>
    <linearGradient
       x1="48"
       y1="20.220806"
       x2="48"
       y2="138.66119"
       id="linearGradient4186"
       xlink:href="#linearGradient3737-9"
       gradientUnits="userSpaceOnUse" />
    <linearGradient
       id="linearGradient2660">
      <stop
         style="stop-color:#edeeec;stop-opacity:1;"
         offset="0"
         id="stop2662" />
      <stop
         style="stop-color:#babdb6;stop-opacity:1;"
         offset="1"
         id="stop2664" />
    </linearGradient>
    <linearGradient
       id="linearGradient15653">
      <stop
         style="stop-color:#f0f1ee;stop-opacity:1;"
         offset="0"
         id="stop15655" />
      <stop
         style="stop-color:#d5d9d1;stop-opacity:1;"
         offset="1"
         id="stop15657" />
    </linearGradient>
    <clipPath
       id="clipPath3798">
      <path
         d="m 61.366765,45.997448 a 13.637059,13.637059 0 1 1 -27.274118,0 13.637059,13.637059 0 1 1 27.274118,0 z"
         transform="matrix(1.0266143,0,0,1.0266143,-0.999999,0.778362)"
         id="path3800"
         style="fill:#ff00ff;fill-opacity:1;stroke:none" />
    </clipPath>
    <filter
       x="-0.23999999"
       y="-0.24000001"
       width="1.48"
       height="1.48"
       color-interpolation-filters="sRGB"
       id="filter3833">
      <feGaussianBlur
         id="feGaussianBlur3835"
         stdDeviation="2.8000002" />
    </filter>
    <filter
       color-interpolation-filters="sRGB"
       id="filter3987"
       x="-0.035995064"
       y="-0.03600494"
       width="1.0719901"
       height="1.0720099">
      <feGaussianBlur
         id="feGaussianBlur3989"
         stdDeviation="0.42020394" />
    </filter>
    <linearGradient
       x1="53.510502"
       y1="59.608364"
       x2="61.49099"
       y2="39.92907"
       id="linearGradient3967"
       xlink:href="#linearGradient3881"
       gradientUnits="userSpaceOnUse"
       gradientTransform="matrix(1.0266143,0,0,1.0266143,-0.9999987,50.778362)" />
    <linearGradient
       id="linearGradient3881">
      <stop
         id="stop3883"
         style="stop-color:#d40000;stop-opacity:0"
         offset="0" />
      <stop
         id="stop3889"
         style="stop-color:#d40000;stop-opacity:1"
         offset="0.5" />
      <stop
         id="stop3885"
         style="stop-color:#d40000;stop-opacity:0"
         offset="1" />
    </linearGradient>
    <linearGradient
       x1="53.730709"
       y1="60.139374"
       x2="62.58559"
       y2="38.831467"
       id="linearGradient3969"
       xlink:href="#linearGradient3891"
       gradientUnits="userSpaceOnUse"
       gradientTransform="matrix(0.72592593,0.72592593,-0.72592593,0.72592593,46.742509,29.961028)" />
    <linearGradient
       id="linearGradient3891">
      <stop
         id="stop3893"
         style="stop-color:#d42aff;stop-opacity:0"
         offset="0" />
      <stop
         id="stop3899"
         style="stop-color:#d42aff;stop-opacity:1"
         offset="0.5" />
      <stop
         id="stop3895"
         style="stop-color:#d42aff;stop-opacity:0"
         offset="1" />
    </linearGradient>
    <linearGradient
       x1="53.387505"
       y1="60.34634"
       x2="61.982975"
       y2="39.437084"
       id="linearGradient3971"
       xlink:href="#linearGradient3901"
       gradientUnits="userSpaceOnUse"
       gradientTransform="matrix(0,1.0266143,-1.0266143,0,95.221638,49.000001)" />
    <linearGradient
       id="linearGradient3901">
      <stop
         id="stop3903"
         style="stop-color:#6600ff;stop-opacity:0"
         offset="0" />
      <stop
         id="stop3909"
         style="stop-color:#6600ff;stop-opacity:1"
         offset="0.5" />
      <stop
         id="stop3905"
         style="stop-color:#6600ff;stop-opacity:0"
         offset="1" />
    </linearGradient>
    <linearGradient
       x1="53.295853"
       y1="59.182693"
       x2="61.88982"
       y2="40.223007"
       id="linearGradient3973"
       xlink:href="#linearGradient3911"
       gradientUnits="userSpaceOnUse"
       gradientTransform="matrix(-0.72592593,0.72592593,-0.72592593,-0.72592593,116.03897,96.742509)" />
    <linearGradient
       id="linearGradient3911">
      <stop
         id="stop3913"
         style="stop-color:#2a7fff;stop-opacity:0"
         offset="0" />
      <stop
         id="stop3919"
         style="stop-color:#2a7fff;stop-opacity:1"
         offset="0.5" />
      <stop
         id="stop3915"
         style="stop-color:#2a7fff;stop-opacity:0"
         offset="1" />
    </linearGradient>
    <linearGradient
       x1="53.87949"
       y1="61.330303"
       x2="60.999012"
       y2="39.683075"
       id="linearGradient3975"
       xlink:href="#linearGradient3921"
       gradientUnits="userSpaceOnUse"
       gradientTransform="matrix(-1.0266143,0,0,-1.0266143,96.999997,145.22164)" />
    <linearGradient
       id="linearGradient3921">
      <stop
         id="stop3923"
         style="stop-color:#5fd3bc;stop-opacity:0"
         offset="0" />
      <stop
         id="stop3929"
         style="stop-color:#5fd3bc;stop-opacity:1"
         offset="0.5" />
      <stop
         id="stop3925"
         style="stop-color:#5fd3bc;stop-opacity:0"
         offset="1" />
    </linearGradient>
    <linearGradient
       x1="53.469795"
       y1="59.878456"
       x2="60.324341"
       y2="39.70118"
       id="linearGradient3977"
       xlink:href="#linearGradient3851"
       gradientUnits="userSpaceOnUse"
       gradientTransform="matrix(-0.72592593,-0.72592593,0.72592593,-0.72592593,49.25749,166.03897)" />
    <linearGradient
       id="linearGradient3851">
      <stop
         id="stop3853"
         style="stop-color:#55d400;stop-opacity:0"
         offset="0" />
      <stop
         id="stop3859"
         style="stop-color:#55d400;stop-opacity:1"
         offset="0.5" />
      <stop
         id="stop3855"
         style="stop-color:#55d400;stop-opacity:0"
         offset="1" />
    </linearGradient>
    <linearGradient
       x1="61.628212"
       y1="39.683075"
       x2="52.881298"
       y2="60.715324"
       id="linearGradient3979"
       xlink:href="#linearGradient3861"
       gradientUnits="userSpaceOnUse"
       gradientTransform="matrix(0,-1.0266143,1.0266143,0,0.77836254,147)" />
    <linearGradient
       id="linearGradient3861">
      <stop
         id="stop3863"
         style="stop-color:#ffcc00;stop-opacity:0"
         offset="0" />
      <stop
         id="stop3869"
         style="stop-color:#ffcc00;stop-opacity:1"
         offset="0.5" />
      <stop
         id="stop3865"
         style="stop-color:#ffcc00;stop-opacity:0"
         offset="1" />
    </linearGradient>
    <linearGradient
       x1="53.034939"
       y1="61.183025"
       x2="61.802849"
       y2="40.483921"
       id="linearGradient3981"
       xlink:href="#linearGradient3871"
       gradientUnits="userSpaceOnUse"
       gradientTransform="matrix(0.72592593,-0.72592593,0.72592593,0.72592593,-20.03897,99.25749)" />
    <linearGradient
       id="linearGradient3871">
      <stop
         id="stop3873"
         style="stop-color:#ff6600;stop-opacity:0"
         offset="0" />
      <stop
         id="stop3879"
         style="stop-color:#ff6600;stop-opacity:1"
         offset="0.5" />
      <stop
         id="stop3875"
         style="stop-color:#ff6600;stop-opacity:0"
         offset="1" />
    </linearGradient>
    <radialGradient
       cx="41"
       cy="52"
       r="9.7082043"
       fx="41"
       fy="52"
       id="radialGradient3803"
       xlink:href="#linearGradient3797"
       gradientUnits="userSpaceOnUse"
       gradientTransform="matrix(1,0,0,0.61803397,0,19.862234)" />
    <linearGradient
       id="linearGradient3797">
      <stop
         id="stop3799"
         style="stop-color:#ffffff;stop-opacity:1"
         offset="0" />
      <stop
         id="stop3805"
         style="stop-color:#ffffff;stop-opacity:1"
         offset="0.5" />
      <stop
         id="stop3801"
         style="stop-color:#ffffff;stop-opacity:0"
         offset="1" />
    </linearGradient>
    <radialGradient
       cx="47.729706"
       cy="45.997448"
       r="13.637059"
       fx="47.729706"
       fy="45.997448"
       id="radialGradient3687"
       xlink:href="#linearGradient3681"
       gradientUnits="userSpaceOnUse" />
    <linearGradient
       id="linearGradient3681">
      <stop
         id="stop3683"
         style="stop-color:#ffffff;stop-opacity:0.18548387"
         offset="0" />
      <stop
         id="stop3689"
         style="stop-color:#ffffff;stop-opacity:0.10887097"
         offset="0.3086735" />
      <stop
         id="stop3691"
         style="stop-color:#000000;stop-opacity:0"
         offset="0.43622452" />
      <stop
         id="stop3693"
         style="stop-color:#000000;stop-opacity:0"
         offset="0.54464293" />
      <stop
         id="stop3695"
         style="stop-color:#ffffff;stop-opacity:0"
         offset="0.58290821" />
      <stop
         id="stop3697"
         style="stop-color:#000000;stop-opacity:0.1814516"
         offset="0.61479598" />
      <stop
         id="stop3699"
         style="stop-color:#000000;stop-opacity:0.43145162"
         offset="0.69132656" />
      <stop
         id="stop3701"
         style="stop-color:#ffffff;stop-opacity:0.08064516"
         offset="0.78061229" />
      <stop
         id="stop3703"
         style="stop-color:#000000;stop-opacity:0"
         offset="0.87627554" />
      <stop
         id="stop3685"
         style="stop-color:#ffffff;stop-opacity:0"
         offset="1" />
    </linearGradient>
    <linearGradient
       x1="33.199345"
       y1="45.997448"
       x2="67.957489"
       y2="45.997448"
       id="linearGradient3733"
       xlink:href="#linearGradient3737"
       gradientUnits="userSpaceOnUse" />
    <filter
       color-interpolation-filters="sRGB"
       id="filter3774"
       x="-0.033433961"
       y="-0.033433744"
       width="1.0668679"
       height="1.0668675">
      <feGaussianBlur
         id="feGaussianBlur3776"
         stdDeviation="0.27274118" />
    </filter>
    <linearGradient
       x1="40.068184"
       y1="58.17598"
       x2="31.793724"
       y2="49.665066"
       id="linearGradient3767"
       xlink:href="#linearGradient3737"
       gradientUnits="userSpaceOnUse" />
    <linearGradient
       x1="40.068184"
       y1="58.17598"
       x2="40.068184"
       y2="41.697067"
       id="linearGradient3771"
       xlink:href="#linearGradient3737"
       gradientUnits="userSpaceOnUse" />
    <linearGradient
       x1="64.072342"
       y1="64.036171"
       x2="46.604744"
       y2="46.568573"
       id="linearGradient3817"
       xlink:href="#linearGradient3737"
       gradientUnits="userSpaceOnUse" />
    <linearGradient
       x1="16.162441"
       y1="52.098946"
       x2="76.838295"
       y2="52.098946"
       id="linearGradient3670"
       xlink:href="#linearGradient3664"
       gradientUnits="userSpaceOnUse" />
    <linearGradient
       id="linearGradient3664">
      <stop
         id="stop3666"
         style="stop-color:#000000;stop-opacity:0.51512688;"
         offset="0" />
      <stop
         id="stop3668"
         style="stop-color:#7f7f7f;stop-opacity:0.64516127;"
         offset="1" />
    </linearGradient>
    <linearGradient
       x1="16.162441"
       y1="44.48222"
       x2="76.771591"
       y2="44.48222"
       id="linearGradient3674"
       xlink:href="#linearGradient3719"
       gradientUnits="userSpaceOnUse" />
    <linearGradient
       id="linearGradient3719">
      <stop
         id="stop3721"
         style="stop-color:#4b4b4b;stop-opacity:1"
         offset="0" />
      <stop
         id="stop3723"
         style="stop-color:#232323;stop-opacity:1"
         offset="0.37373093" />
      <stop
         id="stop3725"
         style="stop-color:#5c5c5c;stop-opacity:1"
         offset="1" />
    </linearGradient>
    <linearGradient
       x1="16.162441"
       y1="44.48222"
       x2="76.771591"
       y2="44.48222"
       id="linearGradient3707"
       xlink:href="#linearGradient3650"
       gradientUnits="userSpaceOnUse" />
    <linearGradient
       id="linearGradient3650">
      <stop
         id="stop3709"
         style="stop-color:#141414;stop-opacity:1"
         offset="0" />
      <stop
         id="stop3654"
         style="stop-color:#616161;stop-opacity:1"
         offset="1" />
    </linearGradient>
    <radialGradient
       cx="48"
       cy="48.000935"
       r="27.001867"
       fx="48"
       fy="48.000935"
       id="radialGradient3738"
       xlink:href="#linearGradient3732"
       gradientUnits="userSpaceOnUse"
       gradientTransform="matrix(1,0,0,0.99996543,0,0.00165947)" />
    <linearGradient
       id="linearGradient3732">
      <stop
         id="stop3734"
         style="stop-color:#000000;stop-opacity:0"
         offset="0" />
      <stop
         id="stop3740"
         style="stop-color:#000000;stop-opacity:0"
         offset="0.94999999" />
      <stop
         id="stop3736"
         style="stop-color:#000000;stop-opacity:1"
         offset="1" />
    </linearGradient>
    <linearGradient
       x1="16.162441"
       y1="44.48222"
       x2="76.771591"
       y2="44.48222"
       id="linearGradient3744"
       xlink:href="#linearGradient3746"
       gradientUnits="userSpaceOnUse" />
    <linearGradient
       id="linearGradient3746">
      <stop
         id="stop3748"
         style="stop-color:#5d5d5d;stop-opacity:1"
         offset="0" />
      <stop
         id="stop3753"
         style="stop-color:#0a0a0a;stop-opacity:1"
         offset="0.60000002" />
      <stop
         id="stop3751"
         style="stop-color:#4e4e4e;stop-opacity:1"
         offset="1" />
    </linearGradient>
    <clipPath
       id="clipPath3613-3">
      <rect
         width="84"
         height="84"
         rx="6"
         ry="6"
         x="6"
         y="6"
         id="rect3615-5"
         style="fill:#ffffff;fill-opacity:1;fill-rule:nonzero;stroke:none" />
    </clipPath>
    <filter
       x="-0.19578789"
       y="-0.19578789"
       width="1.3915758"
       height="1.3915758"
       color-interpolation-filters="sRGB"
       id="filter3794-6">
      <feGaussianBlur
         id="feGaussianBlur3796-2"
         stdDeviation="5.28" />
    </filter>
    <linearGradient
       x1="48"
       y1="90"
       x2="48"
       y2="5.9877172"
       id="linearGradient3617"
       xlink:href="#linearGradient3641"
       gradientUnits="userSpaceOnUse" />
    <linearGradient
       id="linearGradient3641">
      <stop
         id="stop3643"
         style="stop-color:#333037;stop-opacity:1;"
         offset="0" />
      <stop
         id="stop3645"
         style="stop-color:#87858b;stop-opacity:1;"
         offset="1" />
    </linearGradient>
    <radialGradient
       cx="48"
       cy="90.171875"
       r="42"
       fx="48"
       fy="90.171875"
       id="radialGradient3619"
       xlink:href="#linearGradient3737"
       gradientUnits="userSpaceOnUse"
       gradientTransform="matrix(1.1573129,0,0,0.99590774,-7.5510206,0.19713193)" />
    <linearGradient
       inkscape:collect="always"
       xlink:href="#ButtonShadow-0"
       id="linearGradient666"
       gradientUnits="userSpaceOnUse"
       gradientTransform="matrix(1.0238095,0,0,1.0119048,-1.1428571,-98.071429)"
       x1="32.251034"
       y1="6.1317081"
       x2="32.251034"
       y2="90.238609" />
    <linearGradient
       inkscape:collect="always"
       xlink:href="#ButtonShadow-0"
       id="linearGradient668"
       gradientUnits="userSpaceOnUse"
       gradientTransform="matrix(1.0238095,0,0,1.0119048,-1.1428571,-98.071429)"
       x1="32.251034"
       y1="6.1317081"
       x2="32.251034"
       y2="90.238609" />
    <linearGradient
       inkscape:collect="always"
       xlink:href="#ButtonShadow-0"
       id="linearGradient670"
       gradientUnits="userSpaceOnUse"
       gradientTransform="matrix(1.0238095,0,0,1.0119048,-1.1428571,-98.071429)"
       x1="32.251034"
       y1="6.1317081"
       x2="32.251034"
       y2="90.238609" />
    <linearGradient
       inkscape:collect="always"
       xlink:href="#ButtonShadow-0"
       id="linearGradient672"
       gradientUnits="userSpaceOnUse"
       gradientTransform="matrix(1.0238095,0,0,1.0119048,-1.1428571,-98.071429)"
       x1="32.251034"
       y1="6.1317081"
       x2="32.251034"
       y2="90.238609" />
    <linearGradient
       inkscape:collect="always"
       xlink:href="#ButtonShadow-0"
       id="linearGradient674"
       gradientUnits="userSpaceOnUse"
       gradientTransform="translate(0,-97)"
       x1="32.251034"
       y1="6.1317081"
       x2="32.251034"
       y2="90.238609" />
    <linearGradient
       inkscape:collect="always"
       xlink:href="#linearGradient3737"
       id="linearGradient676"
       gradientUnits="userSpaceOnUse"
       x1="36.357143"
       y1="6"
       x2="36.357143"
       y2="63.893143" />
    <linearGradient
       inkscape:collect="always"
       xlink:href="#linearGradient3737"
       id="linearGradient678"
       gradientUnits="userSpaceOnUse"
       x1="40.068184"
       y1="58.17598"
       x2="40.068184"
       y2="41.697067" />
    <linearGradient
       inkscape:collect="always"
       xlink:href="#linearGradient3737"
       id="linearGradient680"
       gradientUnits="userSpaceOnUse"
       x1="40.068184"
       y1="58.17598"
       x2="40.068184"
       y2="41.697067" />
    <linearGradient
       inkscape:collect="always"
       xlink:href="#linearGradient3737"
       id="linearGradient682"
       gradientUnits="userSpaceOnUse"
       x1="40.068184"
       y1="58.17598"
       x2="40.068184"
       y2="41.697067" />
    <linearGradient
       x1="20.758585"
       y1="1"
       x2="20.758585"
       y2="45.017357"
       id="linearGradient3147"
       xlink:href="#linearGradient3309"
       gradientUnits="userSpaceOnUse"
       gradientTransform="matrix(0.80968637,0,0,0.80968634,48.567593,55.377117)" />
    <linearGradient
       x1="63.9995"
       y1="3.1001"
       x2="63.9995"
       y2="122.8994"
       id="linearGradient3309"
       gradientUnits="userSpaceOnUse">
      <stop
         id="stop3311"
         style="stop-color:#f6f6f6;stop-opacity:1"
         offset="0" />
      <stop
         id="stop3313"
         style="stop-color:#d2d2d2;stop-opacity:1"
         offset="1" />
    </linearGradient>
    <linearGradient
       x1="37.201294"
       y1="1"
       x2="37.201294"
       y2="45"
       id="linearGradient3149"
       xlink:href="#linearGradient3397"
       gradientUnits="userSpaceOnUse"
       gradientTransform="matrix(0.80968637,0,0,0.80968634,48.567593,55.377117)" />
    <linearGradient
       id="linearGradient3397">
      <stop
         id="stop3399"
         style="stop-color:#aaaaaa;stop-opacity:1"
         offset="0" />
      <stop
         id="stop3401"
         style="stop-color:#8c8c8c;stop-opacity:1"
         offset="1" />
    </linearGradient>
    <linearGradient
       x1="86.132919"
       y1="105.105"
       x2="84.63858"
       y2="20.895"
       id="linearGradient3801"
       xlink:href="#linearGradient5128"
       gradientUnits="userSpaceOnUse"
       gradientTransform="matrix(0.26272728,0,0,0.26272727,51.185527,57.448089)" />
    <linearGradient
       id="linearGradient5128">
      <stop
         id="stop5130"
         style="stop-color:#e5e5e5;stop-opacity:1"
         offset="0" />
      <stop
         id="stop5132"
         style="stop-color:#ababab;stop-opacity:1"
         offset="1" />
    </linearGradient>
    <clipPath
       clipPathUnits="userSpaceOnUse"
       id="clipPath8183">
      <rect
         width="84"
         height="84"
         rx="6"
         ry="6"
         x="-18.3125"
         y="-19.25"
         id="rect8185"
         style="fill:#ffffff;fill-opacity:1;fill-rule:nonzero;stroke:none" />
    </clipPath>
    <linearGradient
       x1="20.758585"
       y1="1"
       x2="20.758585"
       y2="45.017357"
       id="linearGradient3141"
       xlink:href="#linearGradient3309-2"
       gradientUnits="userSpaceOnUse"
       gradientTransform="matrix(1.2790652,0,0,1.2790652,17.302433,18.5815)" />
    <linearGradient
       x1="63.9995"
       y1="3.1001"
       x2="63.9995"
       y2="122.8994"
       id="linearGradient3309-2"
       gradientUnits="userSpaceOnUse">
      <stop
         id="stop3311-0"
         style="stop-color:#f0f0f0;stop-opacity:1"
         offset="0" />
      <stop
         id="stop3313-2"
         style="stop-color:#aaaaaa;stop-opacity:1"
         offset="1" />
    </linearGradient>
    <clipPath
       id="clipPath4403">
      <path
         d="m 30.916245,135.971 c -0.937266,0.54113 -1.228304,1.74752 -0.677924,2.7008 l 1.9375,3.35585 c -1.418086,1.4141 -2.622273,3.01198 -3.595451,4.71 l -3.783634,-0.99095 c -0.531629,-0.14245 -1.037926,-0.11751 -1.476221,0.13061 -0.438159,0.24835 -0.796545,0.66758 -0.936598,1.19027 l -1.978825,7.38507 c -0.280102,1.04538 0.365953,2.06538 1.429126,2.35032 l 3.772195,1.03363 c -0.0062,1.95711 0.237711,3.94301 0.758755,5.87671 l -3.355849,1.9375 c -0.95328,0.55037 -1.304431,1.74066 -0.763301,2.67792 l 3.8125,6.60344 c 0.54113,0.93727 1.747521,1.2283 2.700801,0.67793 l 3.355849,-1.9375 c 1.414106,1.41808 3.011983,2.62227 4.709995,3.59545 l -0.990945,3.78363 c -0.284894,1.06325 0.275431,2.13275 1.320874,2.41282 l 7.385075,1.97883 c 1.045371,0.28011 2.065425,-0.36588 2.35032,-1.42913 l 1.033633,-3.77219 c 1.957118,0.006 3.943015,-0.23771 5.876701,-0.75876 l 1.9375,3.35585 c 0.550375,0.95328 1.740658,1.30443 2.677924,0.7633 l 6.603444,-3.8125 c 0.937258,-0.54113 1.228299,-1.74752 0.677924,-2.7008 l -1.9375,-3.35585 c 1.418087,-1.4141 2.622272,-3.01197 3.595452,-4.70999 l 3.783633,0.99094 c 1.063244,0.2849 2.132709,-0.27549 2.41282,-1.32087 l 1.978825,-7.38508 c 0.280102,-1.04537 -0.365953,-2.06538 -1.429127,-2.35032 l -3.772195,-1.03363 c 0.0062,-1.95711 -0.237701,-3.94301 -0.758754,-5.8767 l 3.355848,-1.9375 c 0.953272,-0.55037 1.304431,-1.74066 0.763301,-2.67793 l -3.8125,-6.60344 c -0.54113,-0.93726 -1.747529,-1.2283 -2.700801,-0.67792 l -3.355849,1.9375 c -1.414093,-1.4181 -3.011984,-2.62228 -4.709995,-3.59546 l 0.990945,-3.78363 c 0.284894,-1.06324 -0.275422,-2.13275 -1.320874,-2.41282 l -7.385074,-1.97882 c -1.045381,-0.28011 -2.065426,0.36588 -2.35032,1.42912 l -1.033633,3.7722 c -1.95712,-0.006 -3.943015,0.2377 -5.876702,0.75875 l -1.9375,-3.35585 c -0.55038,-0.95328 -1.740666,-1.30442 -2.677924,-0.7633 z m 10.051722,9.7851 c 6.696096,-3.866 15.258361,-1.57175 19.124356,5.12435 3.865995,6.6961 1.57174,15.25836 -5.124356,19.12436 -6.696096,3.86599 -15.258361,1.57174 -19.124356,-5.12436 -3.865995,-6.6961 -1.57174,-15.25836 5.124356,-19.12435 z"
         inkscape:connector-curvature="0"
         id="path4405"
         style="display:block;overflow:visible;visibility:visible;fill:url(#linearGradient4407);fill-opacity:1;fill-rule:nonzero;stroke:none;stroke-width:1;marker:none;enable-background:accumulate" />
    </clipPath>
    <linearGradient
       inkscape:collect="always"
       xlink:href="#linearGradient3951"
       id="linearGradient8089"
       gradientUnits="userSpaceOnUse"
       x1="48.233639"
       y1="48.047016"
       x2="126.13924"
       y2="66.232674" />
    <linearGradient
       id="linearGradient3951">
      <stop
         id="stop3953"
         style="stop-color:#000000;stop-opacity:1"
         offset="0" />
      <stop
         id="stop3955"
         style="stop-color:#000000;stop-opacity:0"
         offset="1" />
    </linearGradient>
    <linearGradient
       inkscape:collect="always"
       xlink:href="#linearGradient3951"
       id="linearGradient8091"
       gradientUnits="userSpaceOnUse"
       x1="48.055065"
       y1="48.031517"
       x2="126.67282"
       y2="62.838562" />
    <linearGradient
       inkscape:collect="always"
       xlink:href="#linearGradient3951"
       id="linearGradient8093"
       gradientUnits="userSpaceOnUse"
       x1="47.997307"
       y1="48.028725"
       x2="127.05216"
       y2="60.289631" />
    <linearGradient
       inkscape:collect="always"
       xlink:href="#linearGradient3951"
       id="linearGradient8095"
       gradientUnits="userSpaceOnUse"
       x1="47.99826"
       y1="48.028797"
       x2="127.41583"
       y2="57.664623" />
    <linearGradient
       inkscape:collect="always"
       xlink:href="#linearGradient3737"
       id="linearGradient8097"
       gradientUnits="userSpaceOnUse"
       x1="48.233643"
       y1="48.04702"
       x2="126.13924"
       y2="66.232674" />
    <linearGradient
       inkscape:collect="always"
       xlink:href="#linearGradient3737"
       id="linearGradient8099"
       gradientUnits="userSpaceOnUse"
       x1="48.055069"
       y1="48.031521"
       x2="126.67282"
       y2="62.838566" />
    <linearGradient
       inkscape:collect="always"
       xlink:href="#linearGradient3737"
       id="linearGradient8101"
       gradientUnits="userSpaceOnUse"
       x1="47.997311"
       y1="48.028728"
       x2="127.05216"
       y2="60.289635" />
    <linearGradient
       inkscape:collect="always"
       xlink:href="#linearGradient3737"
       id="linearGradient8103"
       gradientUnits="userSpaceOnUse"
       x1="47.998264"
       y1="48.028801"
       x2="127.41583"
       y2="57.664627" />
    <linearGradient
       x1="47.998264"
       y1="48.028801"
       x2="81.022514"
       y2="52.035671"
       id="linearGradient4227"
       xlink:href="#linearGradient3737"
       gradientUnits="userSpaceOnUse" />
    <linearGradient
       inkscape:collect="always"
       xlink:href="#linearGradient3951"
       id="linearGradient1073"
       gradientUnits="userSpaceOnUse"
       x1="48.233639"
       y1="48.047016"
       x2="126.13924"
       y2="66.232674" />
    <linearGradient
       inkscape:collect="always"
       xlink:href="#linearGradient3951"
       id="linearGradient1075"
       gradientUnits="userSpaceOnUse"
       x1="48.055065"
       y1="48.031517"
       x2="126.67282"
       y2="62.838562" />
    <linearGradient
       inkscape:collect="always"
       xlink:href="#linearGradient3951"
       id="linearGradient1077"
       gradientUnits="userSpaceOnUse"
       x1="47.997307"
       y1="48.028725"
       x2="127.05216"
       y2="60.289631" />
    <linearGradient
       inkscape:collect="always"
       xlink:href="#linearGradient3951"
       id="linearGradient1079"
       gradientUnits="userSpaceOnUse"
       x1="47.99826"
       y1="48.028797"
       x2="127.41583"
       y2="57.664623" />
    <linearGradient
       inkscape:collect="always"
       xlink:href="#linearGradient3737"
       id="linearGradient1081"
       gradientUnits="userSpaceOnUse"
       x1="48.233643"
       y1="48.04702"
       x2="126.13924"
       y2="66.232674" />
    <linearGradient
       inkscape:collect="always"
       xlink:href="#linearGradient3737"
       id="linearGradient1083"
       gradientUnits="userSpaceOnUse"
       x1="48.055069"
       y1="48.031521"
       x2="126.67282"
       y2="62.838566" />
    <linearGradient
       inkscape:collect="always"
       xlink:href="#linearGradient3737"
       id="linearGradient1085"
       gradientUnits="userSpaceOnUse"
       x1="47.997311"
       y1="48.028728"
       x2="127.05216"
       y2="60.289635" />
    <linearGradient
       inkscape:collect="always"
       xlink:href="#linearGradient3951"
       id="linearGradient1087"
       gradientUnits="userSpaceOnUse"
       x1="48.233639"
       y1="48.047016"
       x2="126.13924"
       y2="66.232674" />
    <linearGradient
       inkscape:collect="always"
       xlink:href="#linearGradient3951"
       id="linearGradient1089"
       gradientUnits="userSpaceOnUse"
       x1="48.055065"
       y1="48.031517"
       x2="126.67282"
       y2="62.838562" />
    <linearGradient
       inkscape:collect="always"
       xlink:href="#linearGradient3951"
       id="linearGradient1091"
       gradientUnits="userSpaceOnUse"
       x1="47.997307"
       y1="48.028725"
       x2="127.05216"
       y2="60.289631" />
    <linearGradient
       inkscape:collect="always"
       xlink:href="#linearGradient3951"
       id="linearGradient1093"
       gradientUnits="userSpaceOnUse"
       x1="47.99826"
       y1="48.028797"
       x2="127.41583"
       y2="57.664623" />
  </defs>
  <metadata
     id="metadata2413">
    <rdf:RDF>
      <cc:Work
         rdf:about="">
        <dc:format>image/svg+xml</dc:format>
        <dc:type
           rdf:resource="http://purl.org/dc/dcmitype/StillImage" />
      </cc:Work>
    </rdf:RDF>
  </metadata>
  <g
     id="layer7-7">
    <path
       d="m 12,-95.03125 c -5.5110903,0 -10.03125,4.52016 -10.03125,10.03125 v 71 c 0,5.5110902 4.5201598,10.03125 10.03125,10.03125 h 72 c 5.51109,0 10.03125,-4.5201597 10.03125,-10.03125 v -71 c 0,-5.51109 -4.52016,-10.03125 -10.03125,-10.03125 z"
       transform="scale(1,-1)"
       id="path3786-0"
       style="display:inline;opacity:0.08;fill:url(#linearGradient666);fill-opacity:1;fill-rule:nonzero;stroke:none" />
    <path
       d="m 12,-94.03125 c -4.971633,0 -9.03125,4.059617 -9.03125,9.03125 v 71 c 0,4.9716329 4.0596171,9.03125 9.03125,9.03125 h 72 c 4.971633,0 9.03125,-4.059617 9.03125,-9.03125 v -71 c 0,-4.971633 -4.059617,-9.03125 -9.03125,-9.03125 z"
       transform="scale(1,-1)"
       id="path3778-9"
       style="display:inline;opacity:0.1;fill:url(#linearGradient668);fill-opacity:1;fill-rule:nonzero;stroke:none" />
    <path
       d="m 12,-93 c -4.4091333,0 -8,3.590867 -8,8 v 71 c 0,4.4091333 3.5908667,8 8,8 h 72 c 4.409133,0 8,-3.5908667 8,-8 v -71 c 0,-4.409133 -3.590867,-8 -8,-8 z"
       transform="scale(1,-1)"
       id="path3770-9"
       style="display:inline;opacity:0.2;fill:url(#linearGradient670);fill-opacity:1;fill-rule:nonzero;stroke:none" />
    <rect
       width="86"
       height="85"
       rx="7"
       ry="7"
       x="5"
       y="-92"
       transform="scale(1,-1)"
       id="rect3723-3"
       style="display:inline;opacity:0.3;fill:url(#linearGradient672);fill-opacity:1;fill-rule:nonzero;stroke:none" />
    <rect
       width="84"
       height="84"
       rx="6"
       ry="6"
       x="6"
       y="-91"
       transform="scale(1,-1)"
       id="rect3716-6"
       style="display:inline;opacity:0.45;fill:url(#linearGradient674);fill-opacity:1;fill-rule:nonzero;stroke:none" />
  </g>
  <g
     id="layer1-0">
    <rect
       width="84"
       height="84"
       rx="6"
       ry="6"
       x="6"
       y="6"
       id="rect2419-6"
       style="fill:url(#linearGradient3617);fill-opacity:1;fill-rule:nonzero;stroke:none" />
    <path
       d="M 12,6 C 8.676,6 6,8.676 6,12 v 2 68 2 c 0,0.334721 0.04135,0.6507 0.09375,0.96875 0.0487,0.295596 0.09704,0.596915 0.1875,0.875 0.00988,0.03038 0.020892,0.0636 0.03125,0.09375 0.098865,0.287771 0.2348802,0.547452 0.375,0.8125 0.1445918,0.273507 0.3156161,0.535615 0.5,0.78125 0.1843839,0.245635 0.3737765,0.473472 0.59375,0.6875 0.439947,0.428056 0.94291,0.814526 1.5,1.09375 0.278545,0.139612 0.5734731,0.246947 0.875,0.34375 -0.2562018,-0.100222 -0.4867109,-0.236272 -0.71875,-0.375 -0.00741,-0.0044 -0.023866,0.0045 -0.03125,0 -0.031933,-0.0193 -0.062293,-0.04251 -0.09375,-0.0625 -0.120395,-0.0767 -0.2310226,-0.163513 -0.34375,-0.25 -0.1061728,-0.0808 -0.2132809,-0.161112 -0.3125,-0.25 C 8.4783201,88.557317 8.3087904,88.373362 8.15625,88.1875 8.0486711,88.057245 7.9378561,87.922215 7.84375,87.78125 7.818661,87.74287 7.805304,87.69538 7.78125,87.65625 7.716487,87.553218 7.6510225,87.451733 7.59375,87.34375 7.4927417,87.149044 7.3880752,86.928049 7.3125,86.71875 7.30454,86.69694 7.288911,86.6782 7.28125,86.65625 7.2494249,86.5643 7.2454455,86.469419 7.21875,86.375 7.1884177,86.268382 7.1483606,86.171969 7.125,86.0625 7.0521214,85.720988 7,85.364295 7,85 V 83 15 13 C 7,10.218152 9.2181517,8 12,8 h 2 68 2 c 2.781848,0 5,2.218152 5,5 v 2 68 2 c 0,0.364295 -0.05212,0.720988 -0.125,1.0625 -0.04415,0.206893 -0.08838,0.397658 -0.15625,0.59375 -0.0077,0.02195 -0.0233,0.04069 -0.03125,0.0625 -0.06274,0.173739 -0.138383,0.367449 -0.21875,0.53125 -0.04158,0.0828 -0.07904,0.169954 -0.125,0.25 -0.0546,0.09721 -0.126774,0.18835 -0.1875,0.28125 -0.09411,0.140965 -0.204921,0.275995 -0.3125,0.40625 -0.143174,0.17445 -0.303141,0.346998 -0.46875,0.5 -0.01117,0.0102 -0.01998,0.02115 -0.03125,0.03125 -0.138386,0.125556 -0.285091,0.234436 -0.4375,0.34375 -0.102571,0.07315 -0.204318,0.153364 -0.3125,0.21875 -0.0074,0.0045 -0.02384,-0.0044 -0.03125,0 -0.232039,0.138728 -0.462548,0.274778 -0.71875,0.375 0.301527,-0.0968 0.596455,-0.204138 0.875,-0.34375 0.55709,-0.279224 1.060053,-0.665694 1.5,-1.09375 0.219973,-0.214028 0.409366,-0.441865 0.59375,-0.6875 0.184384,-0.245635 0.355408,-0.507743 0.5,-0.78125 0.14012,-0.265048 0.276135,-0.524729 0.375,-0.8125 0.01041,-0.03078 0.02133,-0.06274 0.03125,-0.09375 0.09046,-0.278085 0.1388,-0.579404 0.1875,-0.875 C 89.95865,84.6507 90,84.334721 90,84 V 82 14 12 C 90,8.676 87.324,6 84,6 Z"
       inkscape:connector-curvature="0"
       id="rect3728-2"
       style="opacity:0.5;fill:url(#linearGradient676);fill-opacity:1;fill-rule:nonzero;stroke:none" />
    <path
       d="M 12,90 C 8.676,90 6,87.324 6,84 V 82 14 12 c 0,-0.334721 0.04135,-0.6507 0.09375,-0.96875 0.0487,-0.295596 0.09704,-0.596915 0.1875,-0.875 C 6.29113,10.12587 6.302142,10.09265 6.3125,10.0625 6.411365,9.774729 6.5473802,9.515048 6.6875,9.25 6.8320918,8.976493 7.0031161,8.714385 7.1875,8.46875 7.3718839,8.223115 7.5612765,7.995278 7.78125,7.78125 8.221197,7.353194 8.72416,6.966724 9.28125,6.6875 9.559795,6.547888 9.8547231,6.440553 10.15625,6.34375 9.9000482,6.443972 9.6695391,6.580022 9.4375,6.71875 c -0.00741,0.0044 -0.023866,-0.0045 -0.03125,0 -0.031933,0.0193 -0.062293,0.04251 -0.09375,0.0625 -0.120395,0.0767 -0.2310226,0.163513 -0.34375,0.25 -0.1061728,0.0808 -0.2132809,0.161112 -0.3125,0.25 C 8.4783201,7.442683 8.3087904,7.626638 8.15625,7.8125 8.0486711,7.942755 7.9378561,8.077785 7.84375,8.21875 7.818661,8.25713 7.805304,8.30462 7.78125,8.34375 7.716487,8.446782 7.6510225,8.548267 7.59375,8.65625 7.4927417,8.850956 7.3880752,9.071951 7.3125,9.28125 7.30454,9.30306 7.288911,9.3218 7.28125,9.34375 7.2494249,9.4357 7.2454455,9.530581 7.21875,9.625 7.1884177,9.731618 7.1483606,9.828031 7.125,9.9375 7.0521214,10.279012 7,10.635705 7,11 v 2 68 2 c 0,2.781848 2.2181517,5 5,5 h 2 68 2 c 2.781848,0 5,-2.218152 5,-5 V 81 13 11 C 89,10.635705 88.94788,10.279012 88.875,9.9375 88.83085,9.730607 88.78662,9.539842 88.71875,9.34375 88.71105,9.3218 88.69545,9.30306 88.6875,9.28125 88.62476,9.107511 88.549117,8.913801 88.46875,8.75 88.42717,8.6672 88.38971,8.580046 88.34375,8.5 88.28915,8.40279 88.216976,8.31165 88.15625,8.21875 88.06214,8.077785 87.951329,7.942755 87.84375,7.8125 87.700576,7.63805 87.540609,7.465502 87.375,7.3125 87.36383,7.3023 87.35502,7.29135 87.34375,7.28125 87.205364,7.155694 87.058659,7.046814 86.90625,6.9375 86.803679,6.86435 86.701932,6.784136 86.59375,6.71875 c -0.0074,-0.0045 -0.02384,0.0044 -0.03125,0 -0.232039,-0.138728 -0.462548,-0.274778 -0.71875,-0.375 0.301527,0.0968 0.596455,0.204138 0.875,0.34375 0.55709,0.279224 1.060053,0.665694 1.5,1.09375 0.219973,0.214028 0.409366,0.441865 0.59375,0.6875 0.184384,0.245635 0.355408,0.507743 0.5,0.78125 0.14012,0.265048 0.276135,0.524729 0.375,0.8125 0.01041,0.03078 0.02133,0.06274 0.03125,0.09375 0.09046,0.278085 0.1388,0.579404 0.1875,0.875 C 89.95865,11.3493 90,11.665279 90,12 v 2 68 2 c 0,3.324 -2.676,6 -6,6 z"
       inkscape:connector-curvature="0"
       id="path3615-6"
       style="opacity:0.3;fill:url(#radialGradient3619);fill-opacity:1;fill-rule:nonzero;stroke:none" />
  </g>
  <g
     id="layer5"
     style="display:inline">
    <rect
       width="66"
       height="66"
       rx="12"
       ry="12"
       x="15"
       y="15"
       clip-path="url(#clipPath3613-3)"
       id="rect3171"
       style="display:none;opacity:0.5;fill:url(#linearGradient4186);fill-opacity:1;fill-rule:nonzero;stroke:#ffffff;stroke-width:0.5;stroke-linecap:round;stroke-linejoin:miter;stroke-miterlimit:4;stroke-dasharray:none;stroke-dashoffset:0;stroke-opacity:1;filter:url(#filter3794-6)" />
  </g>
  <g
     id="layer3">
    <path
       d="m 76.771595,44.48222 a 30.304577,30.304577 0 1 1 -60.609154,0 30.304577,30.304577 0 1 1 60.609154,0 z"
       transform="matrix(0,1.0559461,-1.0559461,0,94.970826,-1.0666667)"
       id="path3660"
       style="fill:url(#linearGradient3670);fill-opacity:1;stroke:none" />
    <path
       d="m 76.771595,44.48222 a 30.304577,30.304577 0 1 1 -60.609154,0 30.304577,30.304577 0 1 1 60.609154,0 z"
       transform="matrix(0.69999999,0.69999999,-0.69999999,0.69999999,46.610641,-15.664466)"
       id="path3648"
       style="fill:url(#linearGradient3674);fill-opacity:1;stroke:none" />
    <path
       d="m 76.771595,44.48222 a 30.304577,30.304577 0 1 1 -60.609154,0 30.304577,30.304577 0 1 1 60.609154,0 z"
       transform="matrix(0,0.9816999,-0.9816999,0,91.66819,2.3833331)"
       id="path3672"
       style="fill:none;stroke:#000000;stroke-width:0.509321;stroke-miterlimit:4;stroke-dasharray:none" />
    <path
       d="m 76.771595,44.48222 a 30.304577,30.304577 0 1 1 -60.609154,0 30.304577,30.304577 0 1 1 60.609154,0 z"
       transform="matrix(0,0.89095453,-0.89095453,0,87.631635,6.5999996)"
       id="path3697"
       style="fill:url(#linearGradient3707);fill-opacity:1;stroke:none" />
    <g
       transform="matrix(0.92592592,0,0,0.92592592,3.555556,3.5555557)"
       id="g3691"
       style="opacity:0.2">
      <path
         d="m 76.771595,44.48222 a 30.304577,30.304577 0 1 1 -60.609154,0 30.304577,30.304577 0 1 1 60.609154,0 z"
         transform="matrix(0,0.88270495,-0.88270495,0,87.264675,6.9833334)"
         id="path3676"
         style="fill:none;stroke:#000000;stroke-width:0.611756;stroke-miterlimit:4;stroke-dasharray:none" />
      <path
         d="m 76.771595,44.48222 a 30.304577,30.304577 0 1 1 -60.609154,0 30.304577,30.304577 0 1 1 60.609154,0 z"
         transform="matrix(0,0.81670832,-0.81670832,0,84.328998,10.05)"
         id="path3678"
         style="fill:none;stroke:#000000;stroke-width:0.661191;stroke-miterlimit:4;stroke-dasharray:none" />
      <path
         d="m 76.771595,44.48222 a 30.304577,30.304577 0 1 1 -60.609154,0 30.304577,30.304577 0 1 1 60.609154,0 z"
         transform="matrix(0,0.84970663,-0.84970663,0,85.796836,8.5166669)"
         id="path3680"
         style="fill:none;stroke:#000000;stroke-width:0.635514;stroke-miterlimit:4;stroke-dasharray:none" />
      <path
         d="m 76.771595,44.48222 a 30.304577,30.304577 0 1 1 -60.609154,0 30.304577,30.304577 0 1 1 60.609154,0 z"
         transform="matrix(0,0.78371,-0.78371,0,82.861159,11.583334)"
         id="path3682"
         style="fill:none;stroke:#000000;stroke-width:0.68903;stroke-miterlimit:4;stroke-dasharray:none" />
    </g>
    <path
       d="m 48,21 c -6.909903,0 -13.821672,2.634172 -19.09375,7.90625 -10.544156,10.544156 -10.544156,27.643344 0,38.1875 10.544156,10.544156 27.643344,10.544156 38.1875,0 10.544156,-10.544156 10.544156,-27.643344 0,-38.1875 C 61.821672,23.634172 54.909903,21 48,21 Z m 0,2.5 c 6.270097,0 12.528577,2.403577 17.3125,7.1875 9.567845,9.567845 9.567845,25.057155 0,34.625 -9.567845,9.567845 -25.057155,9.567845 -34.625,0 -9.567845,-9.567845 -9.567845,-25.057155 0,-34.625 C 35.471423,25.903577 41.729903,23.5 48,23.5 Z"
       inkscape:connector-curvature="0"
       id="path3727"
       style="opacity:0.6;fill:url(#radialGradient3738);fill-opacity:1;stroke:none" />
    <path
       d="m 76.771595,44.48222 a 30.304577,30.304577 0 1 1 -60.609154,0 30.304577,30.304577 0 1 1 60.609154,0 z"
       transform="matrix(0,0.64907743,-0.64907743,0,76.872405,17.839307)"
       id="path3742"
       style="fill:url(#linearGradient3744);fill-opacity:1;stroke:#1a1a1a;stroke-width:1.54065;stroke-miterlimit:4;stroke-dasharray:none" />
  </g>
  <g
     id="layer4"
     style="display:inline">
    <path
       d="m 61.366765,45.997448 a 13.637059,13.637059 0 1 1 -27.274118,0 13.637059,13.637059 0 1 1 27.274118,0 z"
       transform="matrix(1.0266143,0,0,1.0266143,-0.999999,0.7783622)"
       id="path3757"
       style="fill:#000000;fill-opacity:1;stroke:none" />
    <path
       d="M 47.5,33 C 39.491871,33 33,39.491871 33,47.5 33,55.508129 39.491871,62 47.5,62 c 0.08504,0 0.165309,0.0015 0.25,0 C 40.133878,61.866031 34,55.648102 34,48 c 0,-7.731986 6.268014,-14 14,-14 7.648102,0 13.866031,6.133878 14,13.75 0.0015,-0.08469 0,-0.164961 0,-0.25 C 62,39.491871 55.508129,33 47.5,33 Z"
       inkscape:connector-curvature="0"
       id="path3760"
       style="opacity:0.6;fill:#000000;fill-opacity:1;stroke:none" />
    <path
       d="m 61.366765,45.997448 a 13.637059,13.637059 0 1 1 -27.274118,0 13.637059,13.637059 0 1 1 27.274118,0 z"
       transform="matrix(1.0266143,0,0,1.0266143,-0.999999,0.778362)"
       id="path2907"
       style="fill:url(#radialGradient3687);fill-opacity:1;stroke:none" />
    <path
       d="m 61.366765,45.997448 a 13.637059,13.637059 0 1 1 -27.274118,0 13.637059,13.637059 0 1 1 27.274118,0 z"
       transform="matrix(0,0.97161711,-0.97161711,0,92.69191,1.6250011)"
       id="path3705"
       style="fill:none;stroke:url(#linearGradient3733);stroke-width:0.514606;stroke-miterlimit:4;stroke-dasharray:none;stroke-opacity:1;filter:url(#filter3774)" />
    <path
       d="m 41.34375,47.375 c 0.07082,-0.767299 0.285421,-1.486362 0.59375,-2.15625 L 37.34375,42.8125 c -0.603997,1.243084 -1.018186,2.621977 -1.15625,4.0625 z m 1.375,-3.4375 c 1.071033,-1.389071 2.667628,-2.34897 4.5,-2.5625 L 46.625,36.21875 c -3.598468,0.417087 -6.654118,2.435762 -8.53125,5.3125 z"
       inkscape:connector-curvature="0"
       id="path3735"
       style="opacity:0.6;fill:#ffffff;fill-opacity:1;stroke:none" />
    <path
       d="m 50.708204,52 a 9.7082043,6 0 1 1 -19.416408,0 9.7082043,6 0 1 1 19.416408,0 z"
       transform="matrix(0.58268801,-0.58268801,0.58268801,0.58268801,-0.74355667,46.935862)"
       id="path3759"
       style="opacity:0.431452;fill:url(#linearGradient3767);fill-opacity:1;stroke:none" />
    <path
       d="m 50.708204,52 a 9.7082043,6 0 1 1 -19.416408,0 9.7082043,6 0 1 1 19.416408,0 z"
       transform="matrix(0.15076894,-0.15076894,0.15076894,0.15076894,37.387737,49.649792)"
       id="path3769"
       style="opacity:0.3;fill:url(#linearGradient678);fill-opacity:1;stroke:none" />
    <path
       d="m 50.708204,52 a 9.7082043,6 0 1 1 -19.416408,0 9.7082043,6 0 1 1 19.416408,0 z"
       transform="matrix(-0.10757707,0.10757707,-0.10757707,-0.10757707,55.999137,47.076819)"
       id="path3773"
       style="opacity:0.3;fill:url(#linearGradient680);fill-opacity:1;stroke:none" />
    <path
       d="m 50.708204,52 a 9.7082043,6 0 1 1 -19.416408,0 9.7082043,6 0 1 1 19.416408,0 z"
       transform="matrix(-0.19358861,0.19358861,-0.19358861,-0.19358861,59.194255,43.21899)"
       id="path3777"
       style="opacity:0.431452;fill:url(#linearGradient682);fill-opacity:1;stroke:none" />
    <path
       d="m 50.708204,52 a 9.7082043,6 0 1 1 -19.416408,0 9.7082043,6 0 1 1 19.416408,0 z"
       transform="matrix(0.08968638,-0.08968638,0.08968638,0.08968638,40.497472,47.750757)"
       id="path3789"
       style="opacity:0.6;fill:url(#linearGradient3771);fill-opacity:1;stroke:none" />
    <path
       d="m 48,32 c -8.836556,0 -16,7.163444 -16,16 0,8.836556 7.163444,16 16,16 8.836556,0 16,-7.163444 16,-16 0,-8.836556 -7.163444,-16 -16,-16 z m 0,1.5 c 8.008129,0 14.5,6.491871 14.5,14.5 0,8.008129 -6.491871,14.5 -14.5,14.5 -8.008129,0 -14.5,-6.491871 -14.5,-14.5 0,-8.008129 6.491871,-14.5 14.5,-14.5 z"
       inkscape:connector-curvature="0"
       id="path3806"
       style="display:inline;opacity:0.7;fill:url(#linearGradient3817);fill-opacity:1;stroke:none" />
  </g>
  <g
     id="layer6"
     style="display:inline">
    <g
       clip-path="url(#clipPath3798)"
       id="g3786"
       style="display:inline;opacity:0.4;filter:url(#filter3833)">
      <path
         d="m 61.366765,45.997448 a 13.637059,13.637059 0 0 1 -3.994202,9.642857 l -9.642857,-9.642857 z"
         transform="matrix(1.0266143,0,0,1.0266143,-0.9999987,0.7783622)"
         id="path3756"
         style="fill:#d40000;fill-opacity:1;stroke:none" />
      <path
         d="m 61.366765,45.997448 a 13.637059,13.637059 0 0 1 -3.994202,9.642857 l -9.642857,-9.642857 z"
         transform="matrix(0.72592593,0.72592593,-0.72592593,0.72592593,46.742509,-20.038972)"
         id="path3772"
         style="fill:#d42aff;fill-opacity:1;stroke:none" />
      <path
         d="m 61.366765,45.997448 a 13.637059,13.637059 0 0 1 -3.994202,9.642857 l -9.642857,-9.642857 z"
         transform="matrix(0,1.0266143,-1.0266143,0,95.221638,-0.99999877)"
         id="path3774"
         style="fill:#6600ff;fill-opacity:1;stroke:none" />
      <path
         d="m 61.366765,45.997448 a 13.637059,13.637059 0 0 1 -3.994202,9.642857 l -9.642857,-9.642857 z"
         transform="matrix(-0.72592593,0.72592593,-0.72592593,-0.72592593,116.03897,46.742509)"
         id="path3776"
         style="fill:#2a7fff;fill-opacity:1;stroke:none" />
      <path
         d="m 61.366765,45.997448 a 13.637059,13.637059 0 0 1 -3.994202,9.642857 l -9.642857,-9.642857 z"
         transform="matrix(-1.0266143,0,0,-1.0266143,96.999997,95.221637)"
         id="path3778-1"
         style="fill:#5fd3bc;fill-opacity:1;stroke:none" />
      <path
         d="m 61.366765,45.997448 a 13.637059,13.637059 0 0 1 -3.994202,9.642857 l -9.642857,-9.642857 z"
         transform="matrix(-0.72592593,-0.72592593,0.72592593,-0.72592593,49.25749,116.03897)"
         id="path3780"
         style="fill:#55d400;fill-opacity:1;stroke:none" />
      <path
         d="m 61.366765,45.997448 a 13.637059,13.637059 0 0 1 -3.994202,9.642857 l -9.642857,-9.642857 z"
         transform="matrix(0,-1.0266143,1.0266143,0,0.77836254,96.999997)"
         id="path3782"
         style="fill:#ffcc00;fill-opacity:1;stroke:none" />
      <path
         d="m 61.366765,45.997448 a 13.637059,13.637059 0 0 1 -3.994202,9.642857 l -9.642857,-9.642857 z"
         transform="matrix(0.72592593,-0.72592593,0.72592593,0.72592593,-20.03897,49.25749)"
         id="path3784-8"
         style="fill:#ff6600;fill-opacity:1;stroke:none" />
    </g>
    <g
       transform="translate(0,-50)"
       id="g3957"
       style="opacity:0.8;filter:url(#filter3987)">
      <path
         d="m 61.53125,94.375 -0.96875,0.25 C 60.849921,95.699342 61,96.835019 61,98 c 0,4.80784 -2.619633,9.00086 -6.5,11.25 l 0.5,0.875 c 5.487553,-3.16824 8.171252,-9.62943 6.53125,-15.75 z"
         inkscape:connector-curvature="0"
         id="path3726"
         style="opacity:0.8;fill:url(#linearGradient3967);fill-opacity:1;stroke:none" />
      <path
         d="m 59.25,104.5 c -2.249137,3.88037 -6.442164,6.5 -11.25,6.5 -1.164981,0 -2.300658,-0.15008 -3.375,-0.4375 l -0.25,0.96875 c 6.120569,1.64 12.58176,-1.0437 15.75,-6.53125 z"
         inkscape:connector-curvature="0"
         id="path3728"
         style="opacity:0.8;fill:url(#linearGradient3969);fill-opacity:1;stroke:none" />
      <path
         d="m 36.75,104.5 -0.875,0.5 c 3.16824,5.48755 9.629431,8.17125 15.75,6.53125 l -0.25,-0.96875 C 50.300658,110.84992 49.164981,111 48,111 c -4.807836,0 -9.000863,-2.61963 -11.25,-6.5 z"
         inkscape:connector-curvature="0"
         id="path3730"
         style="fill:url(#linearGradient3971);fill-opacity:1;stroke:none" />
      <path
         d="m 34.46875,94.375 c -1.640002,6.12057 1.043697,12.58176 6.53125,15.75 l 0.5,-0.875 C 37.619633,107.00086 35,102.80784 35,98 c 0,-1.164981 0.150079,-2.300658 0.4375,-3.375 z"
         inkscape:connector-curvature="0"
         id="path3732"
         style="opacity:0.9;fill:url(#linearGradient3973);fill-opacity:1;stroke:none" />
      <path
         d="m 41,85.875 c -5.487553,3.16824 -8.171252,9.629431 -6.53125,15.75 l 0.96875,-0.25 C 35.150079,100.30066 35,99.164981 35,98 c 0,-4.807836 2.619633,-9.000863 6.5,-11.25 z"
         inkscape:connector-curvature="0"
         id="path3734"
         style="fill:url(#linearGradient3975);fill-opacity:1;stroke:none" />
      <path
         d="M 48.15625,84 C 43.183834,83.93941 38.449195,86.541364 35.875,91 l 0.875,0.5 C 38.999137,87.619633 43.192164,85 48,85 c 1.164981,0 2.300658,0.150079 3.375,0.4375 l 0.25,-0.96875 C 50.477393,84.16125 49.303731,84.013982 48.15625,84 Z"
         inkscape:connector-curvature="0"
         id="path3736"
         style="fill:url(#linearGradient3977);fill-opacity:1;stroke:none" />
      <path
         d="m 47.84375,84 c -1.147481,0.01398 -2.321143,0.16125 -3.46875,0.46875 l 0.25,0.96875 C 45.699342,85.150079 46.835019,85 48,85 c 4.807836,0 9.000863,2.619633 11.25,6.5 L 60.125,91 C 57.550805,86.541363 52.816166,83.939411 47.84375,84 Z"
         inkscape:connector-curvature="0"
         id="path3738"
         style="display:inline;fill:url(#linearGradient3979);fill-opacity:1;stroke:none" />
      <path
         d="m 55,85.875 -0.5,0.875 c 3.880367,2.249137 6.5,6.442164 6.5,11.25 0,1.164981 -0.150079,2.30066 -0.4375,3.375 l 0.96875,0.25 C 63.171252,95.504431 60.487553,89.04324 55,85.875 Z"
         inkscape:connector-curvature="0"
         id="path3740"
         style="opacity:0.9;fill:url(#linearGradient3981);fill-opacity:1;stroke:none" />
    </g>
    <path
       d="m 50.708204,52 a 9.7082043,6 0 1 1 -19.416408,0 9.7082043,6 0 1 1 19.416408,0 z"
       transform="matrix(0.23287504,-0.23287504,0.23287504,0.23287504,33.266783,52.13527)"
       id="path3793"
       style="display:inline;fill:url(#radialGradient3803);fill-opacity:1;stroke:none" />
  </g>
  <g
     id="layer3-3"
     style="display:inline"
     transform="translate(24.3125,25.25)"
     clip-path="url(#clipPath8183)">
    <path
       d="m 44.1875,18.40625 c -2.812128,0 -5.03125,2.349265 -5.03125,5.09375 v 1.875 C 38.598195,25.583065 38.041936,25.784088 37.5,26.03125 l -1.3125,-1.3125 c -0.815424,-0.815417 -2.045979,-1.518664 -3.53125,-1.53125 -1.303265,-0.01113 -2.609586,0.484578 -3.59375,1.46875 l -5.40625,5.40625 c -1.98399,1.98401 -1.846217,5.216073 0.0625,7.125 l 1.3125,1.3125 c -0.247161,0.541936 -0.448185,1.098196 -0.65625,1.65625 H 22.5 c -2.744488,0 -5.09375,2.219124 -5.09375,5.03125 v 7.625 c 0,2.812126 2.349262,5.03125 5.09375,5.03125 h 1.875 c 0.208065,0.558055 0.409089,1.114314 0.65625,1.65625 l -1.3125,1.3125 c -1.908896,1.908901 -2.046661,5.141029 -0.0625,7.125 l 5.40625,5.40625 c 1.983946,1.983966 5.216043,1.846454 7.125,-0.0625 L 37.5,71.96875 c 0.541936,0.247162 1.098195,0.448185 1.65625,0.65625 V 74.5 c 0,2.744484 2.219121,5.09375 5.03125,5.09375 h 7.625 c 2.812123,0 5.03125,-2.349259 5.03125,-5.09375 V 72.625 C 57.401805,72.416935 57.958064,72.215912 58.5,71.96875 l 1.3125,1.3125 c 1.908959,1.908964 5.141053,2.046443 7.125,0.0625 l 5.40625,-5.40625 c 1.983992,-1.984009 1.846223,-5.216074 -0.0625,-7.125 L 70.96875,59.5 c 0.247162,-0.541935 0.448185,-1.098194 0.65625,-1.65625 H 73.5 c 2.744481,0 5.09375,-2.219118 5.09375,-5.03125 v -7.625 c 0,-2.812131 -2.349267,-5.03125 -5.09375,-5.03125 H 71.625 C 71.416935,39.598194 71.215912,39.041936 70.96875,38.5 l 1.3125,-1.3125 c 1.908886,-1.908892 2.046695,-5.141025 0.0625,-7.125 L 66.9375,24.65625 c -1.983947,-1.983938 -5.21604,-1.846464 -7.125,0.0625 L 58.5,26.03125 C 57.958064,25.784088 57.401805,25.583065 56.84375,25.375 V 23.5 c 0,-2.744491 -2.219127,-5.09375 -5.03125,-5.09375 z M 48,38.09375 c 6.075308,0 10.90625,4.830942 10.90625,10.90625 0,6.075308 -4.830942,10.90625 -10.90625,10.90625 -6.075308,0 -10.90625,-4.830942 -10.90625,-10.90625 0,-6.075308 4.830942,-10.90625 10.90625,-10.90625 z"
       id="path4367"
       style="display:block;overflow:visible;visibility:visible;opacity:0.1;fill:#000000;fill-opacity:1;fill-rule:nonzero;stroke:none;stroke-width:1;marker:none;enable-background:accumulate" />
    <path
       d="m 44.1875,19.4375 c -2.226603,0 -4,1.88144 -4,4.0625 v 2.5625 c -1.016644,0.349685 -1.987325,0.744874 -2.9375,1.21875 l -1.8125,-1.8125 c -0.671479,-0.671474 -1.634818,-1.240285 -2.78125,-1.25 -1.022124,-0.0087 -2.053465,0.397209 -2.84375,1.1875 l -5.40625,5.40625 c -1.570335,1.570351 -1.455432,4.106901 0.0625,5.625 l 1.8125,1.8125 c -0.473875,0.950174 -0.869064,1.920858 -1.21875,2.9375 H 22.5 c -2.181063,0 -4.0625,1.773399 -4.0625,4 v 7.625 c 0,2.226601 1.881437,4 4.0625,4 h 2.5625 c 0.349686,1.016643 0.744875,1.987326 1.21875,2.9375 l -1.8125,1.8125 c -1.518074,1.518078 -1.632971,4.054679 -0.0625,5.625 l 5.40625,5.40625 c 1.570306,1.570322 4.106882,1.455615 5.625,-0.0625 l 1.8125,-1.8125 c 0.950175,0.473877 1.920856,0.869066 2.9375,1.21875 V 74.5 c 0,2.181059 1.773396,4.0625 4,4.0625 h 7.625 c 2.226598,0 4,-1.881434 4,-4.0625 v -2.5625 c 1.016644,-0.349684 1.987325,-0.744873 2.9375,-1.21875 l 1.8125,1.8125 c 1.518117,1.518121 4.054691,1.632806 5.625,0.0625 l 5.40625,-5.40625 c 1.570337,-1.570351 1.455437,-4.106902 -0.0625,-5.625 L 69.71875,59.75 c 0.473875,-0.950173 0.869065,-1.920855 1.21875,-2.9375 H 73.5 c 2.181056,0 4.0625,-1.773393 4.0625,-4 v -7.625 c 0,-2.226606 -1.881442,-4 -4.0625,-4 H 70.9375 C 70.587815,40.170854 70.192626,39.200173 69.71875,38.25 l 1.8125,-1.8125 c 1.518067,-1.518072 1.632997,-4.054677 0.0625,-5.625 L 66.1875,25.40625 c -1.570309,-1.570302 -4.106883,-1.45562 -5.625,0.0625 L 58.75,27.28125 C 57.799825,26.807374 56.829144,26.412185 55.8125,26.0625 V 23.5 c 0,-2.181066 -1.773402,-4.0625 -4,-4.0625 z M 48,37.0625 c 6.630024,0 11.9375,5.307476 11.9375,11.9375 0,6.630024 -5.307476,11.9375 -11.9375,11.9375 -6.630024,0 -11.9375,-5.307476 -11.9375,-11.9375 0,-6.630024 5.307476,-11.9375 11.9375,-11.9375 z"
       id="path4363"
       style="display:block;overflow:visible;visibility:visible;opacity:0.15;fill:#000000;fill-opacity:1;fill-rule:nonzero;stroke:none;stroke-width:1;marker:none;enable-background:accumulate" />
    <path
       d="m 44.1875,20.46875 c -1.649639,0 -2.96875,1.39995 -2.96875,3.03125 v 3.21875 c -1.461857,0.450067 -2.865234,1.039291 -4.1875,1.75 l -2.3125,-2.28125 c -0.52527,-0.525266 -1.250126,-0.930616 -2.0625,-0.9375 -0.759326,-0.0065 -1.530481,0.280476 -2.125,0.875 L 25.125,31.53125 c -1.161458,1.16147 -1.074579,3.050296 0.0625,4.1875 l 2.28125,2.3125 c -0.710706,1.322265 -1.299929,2.725645 -1.75,4.1875 H 22.5 c -1.631303,0 -3.03125,1.319113 -3.03125,2.96875 v 7.625 c 0,1.649637 1.399947,2.96875 3.03125,2.96875 h 3.21875 c 0.450071,1.461856 1.039294,2.865236 1.75,4.1875 l -2.28125,2.3125 c -1.137183,1.137186 -1.224059,3.026052 -0.0625,4.1875 l 5.40625,5.40625 c 1.161443,1.161455 3.050289,1.074709 4.1875,-0.0625 l 2.3125,-2.28125 c 1.322267,0.71071 2.725643,1.299933 4.1875,1.75 V 74.5 c 0,1.631299 1.319111,3.03125 2.96875,3.03125 h 7.625 c 1.649634,0 2.96875,-1.399944 2.96875,-3.03125 v -3.21875 c 1.461857,-0.450067 2.865233,-1.03929 4.1875,-1.75 l 2.3125,2.28125 c 1.137207,1.13721 3.026053,1.223945 4.1875,0.0625 L 70.875,66.46875 c 1.16146,-1.16147 1.074582,-3.050297 -0.0625,-4.1875 l -2.28125,-2.3125 c 0.710707,-1.322263 1.299931,-2.72564 1.75,-4.1875 H 73.5 c 1.631297,0 3.03125,-1.319107 3.03125,-2.96875 v -7.625 c 0,-1.649642 -1.399951,-2.96875 -3.03125,-2.96875 h -3.21875 c -0.450068,-1.461861 -1.039293,-2.865237 -1.75,-4.1875 l 2.28125,-2.3125 c 1.137179,-1.137183 1.224077,-3.026052 0.0625,-4.1875 L 65.46875,26.125 c -1.161447,-1.161442 -3.050293,-1.074709 -4.1875,0.0625 l -2.3125,2.28125 c -1.322266,-0.710709 -2.725643,-1.299933 -4.1875,-1.75 V 23.5 c 0,-1.631306 -1.319116,-3.03125 -2.96875,-3.03125 z M 48,36.03125 c 7.178426,0 12.96875,5.790324 12.96875,12.96875 0,7.178426 -5.790324,12.96875 -12.96875,12.96875 -7.178426,0 -12.96875,-5.790324 -12.96875,-12.96875 0,-7.178426 5.790324,-12.96875 12.96875,-12.96875 z"
       id="path4359"
       style="display:block;overflow:visible;visibility:visible;opacity:0.35;fill:#000000;fill-opacity:1;fill-rule:nonzero;stroke:none;stroke-width:1;marker:none;enable-background:accumulate" />
    <path
       d="m 44.1875,21.5 c -1.082262,0 -1.9375,0.899245 -1.9375,2 v 3.875 c -1.935147,0.515597 -3.776942,1.297312 -5.46875,2.28125 L 34,26.90625 c -0.389179,-0.389176 -0.840116,-0.620732 -1.34375,-0.625 -0.503633,-0.0043 -1.023619,0.179866 -1.40625,0.5625 L 25.84375,32.25 c -0.765262,0.76527 -0.715766,1.971648 0.0625,2.75 l 2.75,2.78125 C 27.672316,39.473053 26.89061,41.314849 26.375,43.25 H 22.5 c -1.100753,0 -2,0.855244 -2,1.9375 v 7.625 c 0,1.082256 0.899247,1.9375 2,1.9375 h 3.875 c 0.51561,1.935152 1.297316,3.776947 2.28125,5.46875 L 25.90625,63 c -0.778348,0.77835 -0.827844,1.984729 -0.0625,2.75 L 31.25,71.15625 c 0.765262,0.76527 1.971652,0.715847 2.75,-0.0625 l 2.78125,-2.75 c 1.691808,0.983939 3.533603,1.765652 5.46875,2.28125 V 74.5 c 0,1.100754 0.855238,2 1.9375,2 h 7.625 c 1.082252,0 1.9375,-0.899246 1.9375,-2 v -3.875 c 1.935147,-0.515598 3.776941,-1.297311 5.46875,-2.28125 L 62,71.09375 c 0.778348,0.77835 1.984727,0.827772 2.75,0.0625 L 70.15625,65.75 c 0.765263,-0.76527 0.715767,-1.97165 -0.0625,-2.75 l -2.75,-2.78125 C 68.327683,58.526947 69.109401,56.685152 69.625,54.75 H 73.5 c 1.100744,0 2,-0.855243 2,-1.9375 v -7.625 c 0,-1.082255 -0.899256,-1.9375 -2,-1.9375 H 69.625 C 69.109405,41.314849 68.327683,39.473053 67.34375,37.78125 L 70.09375,35 c 0.778348,-0.778351 0.827855,-1.98473 0.0625,-2.75 L 64.75,26.84375 C 63.984727,26.07848 62.778348,26.127901 62,26.90625 l -2.78125,2.75 C 57.526941,28.672312 55.685147,27.890597 53.75,27.375 V 23.5 c 0,-1.100755 -0.855248,-2 -1.9375,-2 z M 48,35 c 7.731986,0 14,6.268014 14,14 0,7.731986 -6.268014,14 -14,14 -7.731986,0 -14,-6.268014 -14,-14 0,-7.731986 6.268014,-14 14,-14 z"
       inkscape:connector-curvature="0"
       id="path4353-0"
       style="display:block;overflow:visible;visibility:visible;opacity:0.3;fill:#000000;fill-opacity:1;fill-rule:nonzero;stroke:none;stroke-width:1;marker:none;enable-background:accumulate" />
    <path
       d="m 44.1875,20.5 c -1.082262,0 -1.9375,0.899245 -1.9375,2 v 3.875 c -1.935147,0.515597 -3.776942,1.297312 -5.46875,2.28125 L 34,25.90625 c -0.389179,-0.389176 -0.840116,-0.620732 -1.34375,-0.625 -0.503633,-0.0043 -1.023619,0.179866 -1.40625,0.5625 L 25.84375,31.25 c -0.765262,0.76527 -0.715766,1.971648 0.0625,2.75 l 2.75,2.78125 C 27.672316,38.473053 26.89061,40.314849 26.375,42.25 H 22.5 c -1.100753,0 -2,0.855244 -2,1.9375 v 7.625 c 0,1.082256 0.899247,1.9375 2,1.9375 h 3.875 c 0.51561,1.935152 1.297316,3.776947 2.28125,5.46875 L 25.90625,62 c -0.778348,0.77835 -0.827844,1.984729 -0.0625,2.75 L 31.25,70.15625 c 0.765262,0.76527 1.971652,0.715847 2.75,-0.0625 l 2.78125,-2.75 c 1.691808,0.983939 3.533603,1.765652 5.46875,2.28125 V 73.5 c 0,1.100754 0.855238,2 1.9375,2 h 7.625 c 1.082252,0 1.9375,-0.899246 1.9375,-2 v -3.875 c 1.935147,-0.515598 3.776941,-1.297311 5.46875,-2.28125 L 62,70.09375 c 0.778348,0.77835 1.984727,0.827772 2.75,0.0625 L 70.15625,64.75 c 0.765263,-0.76527 0.715767,-1.97165 -0.0625,-2.75 l -2.75,-2.78125 C 68.327683,57.526947 69.109401,55.685152 69.625,53.75 H 73.5 c 1.100744,0 2,-0.855243 2,-1.9375 v -7.625 c 0,-1.082255 -0.899256,-1.9375 -2,-1.9375 H 69.625 C 69.109405,40.314849 68.327683,38.473053 67.34375,36.78125 L 70.09375,34 c 0.778348,-0.778351 0.827855,-1.98473 0.0625,-2.75 L 64.75,25.84375 C 63.984727,25.07848 62.778348,25.127901 62,25.90625 l -2.78125,2.75 C 57.526941,27.672312 55.685147,26.890597 53.75,26.375 V 22.5 c 0,-1.100755 -0.855248,-2 -1.9375,-2 z M 48,34 c 7.731986,0 14,6.268014 14,14 0,7.731986 -6.268014,14 -14,14 -7.731986,0 -14,-6.268014 -14,-14 0,-7.731986 6.268014,-14 14,-14 z"
       inkscape:connector-curvature="0"
       id="rect3267"
       style="display:block;overflow:visible;visibility:visible;fill:url(#linearGradient3141);fill-opacity:1;fill-rule:nonzero;stroke:none;stroke-width:1;marker:none;enable-background:accumulate" />
    <g
       transform="rotate(30,253.02371,103)"
       clip-path="url(#clipPath4403)"
       id="g4176">
      <g
         transform="matrix(0.1413721,0.99271966,-1.1651755,0.12044784,96.937266,104.80532)"
         id="g4011"
         style="display:inline;opacity:0.9">
        <path
           d="m 108.8959,48 a 60.895905,60.895905 0 0 1 -6.54616,27.466658 L 48,48 Z"
           transform="rotate(-6.2214309,47.948326,50.203473)"
           id="path4009"
           style="color:#000000;display:inline;overflow:visible;visibility:visible;opacity:0.05;fill:url(#linearGradient1073);fill-opacity:1;fill-rule:nonzero;stroke:none;stroke-width:2;marker:none;enable-background:accumulate" />
        <path
           d="m 108.8959,48 a 60.895905,60.895905 0 0 1 -4.45721,22.86887 L 48,48 Z"
           transform="rotate(-3.7483171,47.985116,48.898157)"
           id="path4007"
           style="color:#000000;display:inline;overflow:visible;visibility:visible;opacity:0.07;fill:url(#linearGradient1075);fill-opacity:1;fill-rule:nonzero;stroke:none;stroke-width:2;marker:none;enable-background:accumulate" />
        <path
           d="m 108.8959,48 a 60.895905,60.895905 0 0 1 -3.12994,19.271878 L 48,48 Z"
           transform="rotate(-1.8980234,47.999993,47.999991)"
           id="path4005"
           style="color:#000000;display:inline;overflow:visible;visibility:visible;opacity:0.1;fill:url(#linearGradient1077);fill-opacity:1;fill-rule:nonzero;stroke:none;stroke-width:2;marker:none;enable-background:accumulate" />
        <path
           d="m 108.8959,48 a 60.895905,60.895905 0 0 1 -2.07497,15.76102 L 48,48 Z"
           id="path4003"
           style="color:#000000;display:inline;overflow:visible;visibility:visible;opacity:0.05;fill:url(#linearGradient1079);fill-opacity:1;fill-rule:nonzero;stroke:none;stroke-width:2;marker:none;enable-background:accumulate" />
      </g>
      <g
         transform="matrix(1.062807,-0.13087531,-0.74010065,3.227468,32.525111,9.33226)"
         id="g4027"
         style="display:inline;opacity:0.9;fill:#ffffff">
        <path
           d="m 108.8959,48 a 60.895905,60.895905 0 0 1 -6.54616,27.466658 L 48,48 Z"
           transform="rotate(-6.2214309,47.948326,50.203473)"
           id="path4029"
           style="color:#000000;display:inline;overflow:visible;visibility:visible;opacity:0.2;fill:url(#linearGradient1081);fill-opacity:1;fill-rule:nonzero;stroke:none;stroke-width:2;marker:none;enable-background:accumulate" />
        <path
           d="m 108.8959,48 a 60.895905,60.895905 0 0 1 -4.45721,22.86887 L 48,48 Z"
           transform="rotate(-3.7483171,47.985116,48.898157)"
           id="path4031"
           style="color:#000000;display:inline;overflow:visible;visibility:visible;opacity:0.4;fill:url(#linearGradient1083);fill-opacity:1;fill-rule:nonzero;stroke:none;stroke-width:2;marker:none;enable-background:accumulate" />
        <path
           d="m 108.8959,48 a 60.895905,60.895905 0 0 1 -3.12994,19.271878 L 48,48 Z"
           transform="rotate(-1.8980234,47.999993,47.999991)"
           id="path4033"
           style="color:#000000;display:inline;overflow:visible;visibility:visible;opacity:0.6;fill:url(#linearGradient1085);fill-opacity:1;fill-rule:nonzero;stroke:none;stroke-width:2;marker:none;enable-background:accumulate" />
        <path
           d="m 108.8959,48 a 60.895905,60.895905 0 0 1 -2.07497,15.76102 L 48,48 Z"
           id="path4035"
           style="color:#000000;display:none;overflow:visible;visibility:visible;opacity:0.8;fill:url(#linearGradient8103);fill-opacity:1;fill-rule:nonzero;stroke:none;stroke-width:2;marker:none;enable-background:accumulate" />
      </g>
      <g
         transform="rotate(128.08205,20.984345,103)"
         id="g4079"
         style="display:inline;opacity:0.5">
        <path
           d="m 108.8959,48 a 60.895905,60.895905 0 0 1 -6.54616,27.466658 L 48,48 Z"
           transform="rotate(-6.2214309,47.948326,50.203473)"
           id="path4081"
           style="color:#000000;display:inline;overflow:visible;visibility:visible;opacity:0.05;fill:url(#linearGradient1087);fill-opacity:1;fill-rule:nonzero;stroke:none;stroke-width:2;marker:none;enable-background:accumulate" />
        <path
           d="m 108.8959,48 a 60.895905,60.895905 0 0 1 -4.45721,22.86887 L 48,48 Z"
           transform="rotate(-3.7483171,47.985116,48.898157)"
           id="path4083"
           style="color:#000000;display:inline;overflow:visible;visibility:visible;opacity:0.07;fill:url(#linearGradient1089);fill-opacity:1;fill-rule:nonzero;stroke:none;stroke-width:2;marker:none;enable-background:accumulate" />
        <path
           d="m 108.8959,48 a 60.895905,60.895905 0 0 1 -3.12994,19.271878 L 48,48 Z"
           transform="rotate(-1.8980234,47.999993,47.999991)"
           id="path4085"
           style="color:#000000;display:inline;overflow:visible;visibility:visible;opacity:0.1;fill:url(#linearGradient1091);fill-opacity:1;fill-rule:nonzero;stroke:none;stroke-width:2;marker:none;enable-background:accumulate" />
        <path
           d="m 108.8959,48 a 60.895905,60.895905 0 0 1 -2.07497,15.76102 L 48,48 Z"
           id="path4087"
           style="color:#000000;display:inline;overflow:visible;visibility:visible;opacity:0.1;fill:url(#linearGradient1093);fill-opacity:1;fill-rule:nonzero;stroke:none;stroke-width:2;marker:none;enable-background:accumulate" />
      </g>
      <g
         transform="matrix(-0.06817198,-1.0460056,2.710673,0.60162586,-79.095447,179.08013)"
         id="g4097"
         style="display:inline;opacity:0.8">
        <path
           d="m 108.8959,48 a 60.895905,60.895905 0 0 1 -6.54616,27.466658 L 48,48 Z"
           transform="rotate(-6.2214309,47.948326,50.203473)"
           id="path4099"
           style="color:#000000;display:inline;overflow:visible;visibility:visible;opacity:0.05;fill:url(#linearGradient8089);fill-opacity:1;fill-rule:nonzero;stroke:none;stroke-width:2;marker:none;enable-background:accumulate" />
        <path
           d="m 108.8959,48 a 60.895905,60.895905 0 0 1 -4.45721,22.86887 L 48,48 Z"
           transform="rotate(-3.7483171,47.985116,48.898157)"
           id="path4101"
           style="color:#000000;display:inline;overflow:visible;visibility:visible;opacity:0.07;fill:url(#linearGradient8091);fill-opacity:1;fill-rule:nonzero;stroke:none;stroke-width:2;marker:none;enable-background:accumulate" />
        <path
           d="m 108.8959,48 a 60.895905,60.895905 0 0 1 -3.12994,19.271878 L 48,48 Z"
           transform="rotate(-1.8980234,47.999993,47.999991)"
           id="path4103"
           style="color:#000000;display:inline;overflow:visible;visibility:visible;opacity:0.1;fill:url(#linearGradient8093);fill-opacity:1;fill-rule:nonzero;stroke:none;stroke-width:2;marker:none;enable-background:accumulate" />
        <path
           d="m 108.8959,48 a 60.895905,60.895905 0 0 1 -2.07497,15.76102 L 48,48 Z"
           id="path4105"
           style="color:#000000;display:inline;overflow:visible;visibility:visible;opacity:0.1;fill:url(#linearGradient8095);fill-opacity:1;fill-rule:nonzero;stroke:none;stroke-width:2;marker:none;enable-background:accumulate" />
      </g>
      <g
         transform="matrix(-1.062807,0.1308753,0.74010064,-3.227468,62.996694,306.66774)"
         id="g4147"
         style="display:inline;opacity:0.9;fill:#ffffff">
        <path
           d="m 79.369203,49.836944 c 2e-6,9.541976 -3.980462,-0.820128 -8.284299,7.696108 L 48,48 Z"
           transform="rotate(-6.2214309,47.948326,50.203473)"
           id="path4149"
           style="color:#000000;display:inline;overflow:visible;visibility:visible;opacity:0.2;fill:url(#linearGradient8097);fill-opacity:1;fill-rule:nonzero;stroke:none;stroke-width:2;marker:none;enable-background:accumulate"
           sodipodi:nodetypes="cccc" />
        <path
           d="m 84.911954,50.53481 c 1e-6,7.838782 -3.774884,-0.515308 -6.718662,6.749723 L 48,48 Z"
           transform="rotate(-3.7483171,47.985116,48.898157)"
           id="path4151"
           style="color:#000000;display:inline;overflow:visible;visibility:visible;opacity:0.4;fill:url(#linearGradient8099);fill-opacity:1;fill-rule:nonzero;stroke:none;stroke-width:2;marker:none;enable-background:accumulate"
           sodipodi:nodetypes="cccc" />
        <path
           d="m 86.760123,51.065041 c 20.947327,1.656456 -0.942795,-0.517994 -3.015843,5.695812 L 48,48 Z"
           transform="rotate(-1.8980234,47.999993,47.999991)"
           id="path4153"
           style="color:#000000;display:inline;overflow:visible;visibility:visible;opacity:0.6;fill:url(#linearGradient8101);fill-opacity:1;fill-rule:nonzero;stroke:none;stroke-width:2;marker:none;enable-background:accumulate"
           sodipodi:nodetypes="sccs" />
        <path
           d="m 86.202213,51.912288 c 3e-6,5.321771 -0.301941,-3.041486 -1.679314,2.09895 L 48,48 Z"
           id="path4155"
           style="color:#000000;display:inline;overflow:visible;visibility:visible;opacity:0.8;fill:url(#linearGradient4227);fill-opacity:1;fill-rule:nonzero;stroke:none;stroke-width:2;marker:none;enable-background:accumulate"
           sodipodi:nodetypes="cccc" />
      </g>
    </g>
    <path
       d="m 44.1875,20.5 c -1.082262,0 -1.9375,0.899245 -1.9375,2 v 1 c 0,-1.100755 0.855238,-2 1.9375,-2 h 7.625 c 1.082252,0 1.9375,0.899245 1.9375,2 v -1 c 0,-1.100755 -0.855248,-2 -1.9375,-2 z m -11.53125,4.78125 c -0.503633,-0.0043 -1.023619,0.179866 -1.40625,0.5625 L 25.84375,31.25 c -0.496443,0.496448 -0.634599,1.182061 -0.46875,1.8125 0.0841,-0.291632 0.234756,-0.578504 0.46875,-0.8125 L 31.25,26.84375 c 0.382631,-0.382634 0.902617,-0.5668 1.40625,-0.5625 0.503634,0.0043 0.954571,0.235824 1.34375,0.625 l 2.78125,2.75 C 38.473058,28.672312 40.314853,27.890597 42.25,27.375 v -1 c -1.935147,0.515597 -3.776942,1.297312 -5.46875,2.28125 L 34,25.90625 c -0.389179,-0.389176 -0.840116,-0.620732 -1.34375,-0.625 z m 30.71875,0 c -0.494547,0.01399 -0.985826,0.235826 -1.375,0.625 l -2.78125,2.75 C 57.526941,27.672312 55.685147,26.890597 53.75,26.375 v 1 c 1.935147,0.515597 3.776941,1.297312 5.46875,2.28125 L 62,26.90625 c 0.778348,-0.778349 1.984727,-0.82777 2.75,-0.0625 L 70.15625,32.25 c 0.234022,0.233996 0.38464,0.520868 0.46875,0.8125 0.165867,-0.630439 0.02775,-1.316052 -0.46875,-1.8125 L 64.75,25.84375 c -0.382637,-0.382635 -0.880453,-0.57649 -1.375,-0.5625 z M 28.3125,37.4375 C 27.499744,38.946363 26.824938,40.561324 26.375,42.25 H 22.5 c -1.100753,0 -2,0.855244 -2,1.9375 v 1 c 0,-1.082256 0.899247,-1.9375 2,-1.9375 h 3.875 c 0.51561,-1.935151 1.297316,-3.776947 2.28125,-5.46875 z m 39.375,0 -0.34375,0.34375 c 0.983933,1.691803 1.765655,3.533599 2.28125,5.46875 H 73.5 c 1.100744,0 2,0.855245 2,1.9375 v -1 c 0,-1.082255 -0.899256,-1.9375 -2,-1.9375 H 69.625 C 69.175075,40.561324 68.500258,38.946363 67.6875,37.4375 Z M 34.03125,48.5 C 34.02535,48.66679 34,48.831775 34,49 c 0,7.731986 6.268014,14 14,14 7.731986,0 14,-6.268014 14,-14 0,-0.168225 -0.02537,-0.33321 -0.03125,-0.5 C 61.704161,55.999218 55.563761,62 48,62 40.436239,62 34.295839,55.999218 34.03125,48.5 Z M 28.3125,59.5625 25.90625,62 C 25.365897,62.540355 25.184033,63.275367 25.375,63.9375 25.46481,63.596123 25.632834,63.273417 25.90625,63 l 2.75,-2.78125 C 28.530929,60.00327 28.431128,59.78273 28.3125,59.5625 Z m 39.375,0 c -0.118628,0.22023 -0.218429,0.44077 -0.34375,0.65625 L 70.09375,63 c 0.273388,0.273417 0.441444,0.596123 0.53125,0.9375 C 70.815945,63.275367 70.634,62.540355 70.09375,62 Z"
       inkscape:connector-curvature="0"
       id="path4382"
       style="display:block;overflow:visible;visibility:visible;opacity:0.7;fill:#ffffff;fill-opacity:1;fill-rule:nonzero;stroke:none;stroke-width:1;marker:none;enable-background:accumulate" />
    <path
       d="M 25.375,32.0625 C 25.184055,32.724633 25.366,33.459644 25.90625,34 l 2.40625,2.4375 c 0.118628,-0.22023 0.218429,-0.44077 0.34375,-0.65625 L 25.90625,33 C 25.632863,32.726583 25.464806,32.403877 25.375,32.0625 Z m 45.25,0 C 70.53518,32.403877 70.367166,32.726583 70.09375,33 l -2.75,2.78125 c 0.125321,0.21548 0.225122,0.43602 0.34375,0.65625 L 70.09375,34 c 0.540353,-0.540355 0.722218,-1.275367 0.53125,-1.9375 z M 48,33 c -7.731986,0 -14,6.268014 -14,14 0,0.168225 0.02537,0.33321 0.03125,0.5 C 34.295839,40.000782 40.436239,34 48,34 55.563761,34 61.704161,40.000782 61.96875,47.5 61.97465,47.33321 62,47.168225 62,47 62,39.268014 55.731986,33 48,33 Z M 20.5,50.8125 v 1 c 0,1.082256 0.899247,1.9375 2,1.9375 h 3.875 c 0.449938,1.688677 1.124744,3.303637 1.9375,4.8125 l 0.34375,-0.34375 C 27.672316,56.526947 26.89061,54.685152 26.375,52.75 H 22.5 c -1.100753,0 -2,-0.855244 -2,-1.9375 z m 55,0 c 0,1.082257 -0.899256,1.9375 -2,1.9375 h -3.875 c -0.515599,1.935152 -1.297317,3.776947 -2.28125,5.46875 L 67.6875,58.5625 C 68.500257,57.053637 69.175071,55.438677 69.625,53.75 H 73.5 c 1.100744,0 2,-0.855243 2,-1.9375 z m -50.125,12.125 c -0.165865,0.630439 -0.02775,1.316051 0.46875,1.8125 L 31.25,70.15625 c 0.765262,0.76527 1.971652,0.715847 2.75,-0.0625 l 2.78125,-2.75 c 1.691808,0.983939 3.533603,1.765652 5.46875,2.28125 v -1 C 40.314853,68.109402 38.473058,67.327689 36.78125,66.34375 L 34,69.09375 c -0.778348,0.778347 -1.984738,0.82777 -2.75,0.0625 L 25.84375,63.75 C 25.609731,63.516004 25.45911,63.229132 25.375,62.9375 Z m 45.25,0 c -0.0841,0.291632 -0.234756,0.578504 -0.46875,0.8125 L 64.75,69.15625 C 63.984727,69.921522 62.778348,69.8721 62,69.09375 l -2.78125,-2.75 C 57.526941,67.327689 55.685147,68.109402 53.75,68.625 v 1 c 1.935147,-0.515598 3.776941,-1.297311 5.46875,-2.28125 L 62,70.09375 c 0.778348,0.77835 1.984727,0.827772 2.75,0.0625 L 70.15625,64.75 c 0.496443,-0.496448 0.634599,-1.182061 0.46875,-1.8125 z M 42.25,72.5 v 1 c 0,1.100754 0.855238,2 1.9375,2 h 7.625 c 1.082252,0 1.9375,-0.899246 1.9375,-2 v -1 c 0,1.100754 -0.855248,2 -1.9375,2 h -7.625 c -1.082262,0 -1.9375,-0.899246 -1.9375,-2 z"
       inkscape:connector-curvature="0"
       id="path4391-9"
       style="display:block;overflow:visible;visibility:visible;opacity:0.2;fill:#000000;fill-opacity:1;fill-rule:nonzero;stroke:none;stroke-width:1;marker:none;enable-background:accumulate" />
  </g>
</svg>
