<?xml version="1.0" encoding="UTF-8" standalone="no"?>
<!-- Created with Inkscape (http://www.inkscape.org/) -->

<svg
   version="1.0"
   width="96"
   height="96"
   id="svg2408"
   sodipodi:docname="org.localsend.localsend_app.svg"
   inkscape:version="1.2.2 (b0a8486541, 2022-12-01)"
   xml:space="preserve"
   xmlns:inkscape="http://www.inkscape.org/namespaces/inkscape"
   xmlns:sodipodi="http://sodipodi.sourceforge.net/DTD/sodipodi-0.dtd"
   xmlns:xlink="http://www.w3.org/1999/xlink"
   xmlns="http://www.w3.org/2000/svg"
   xmlns:svg="http://www.w3.org/2000/svg"
   xmlns:rdf="http://www.w3.org/1999/02/22-rdf-syntax-ns#"
   xmlns:cc="http://creativecommons.org/ns#"
   xmlns:dc="http://purl.org/dc/elements/1.1/"><sodipodi:namedview
     id="namedview24059"
     pagecolor="#ffffff"
     bordercolor="#000000"
     borderopacity="0.25"
     inkscape:showpageshadow="2"
     inkscape:pageopacity="0.0"
     inkscape:pagecheckerboard="0"
     inkscape:deskcolor="#d1d1d1"
     showgrid="false"
     inkscape:zoom="5.6568543"
     inkscape:cx="41.542523"
     inkscape:cy="46.757435"
     inkscape:current-layer="svg2408" /><defs
     id="defs2410"><inkscape:path-effect
       effect="simplify"
       id="path-effect22317"
       is_visible="true"
       lpeversion="1"
       steps="3"
       threshold="0.002"
       smooth_angles="0"
       helper_size="5"
       simplify_individual_paths="true"
       simplify_just_coalesce="true" /><linearGradient
       inkscape:collect="always"
       id="linearGradient18595"><stop
         style="stop-color:#ffffff;stop-opacity:1;"
         offset="0"
         id="stop18591" /><stop
         style="stop-color:#ffffff;stop-opacity:0.50666618;"
         offset="1"
         id="stop18593" /></linearGradient><linearGradient
       inkscape:collect="always"
       id="linearGradient14830"><stop
         style="stop-color:#c1c1c1;stop-opacity:1;"
         offset="0"
         id="stop14826" /><stop
         style="stop-color:#fdfdfd;stop-opacity:1;"
         offset="1"
         id="stop14828" /></linearGradient><linearGradient
       inkscape:collect="always"
       id="linearGradient13283"><stop
         style="stop-color:#ffffff;stop-opacity:1;"
         offset="0"
         id="stop13279" /><stop
         style="stop-color:#ffffff;stop-opacity:0;"
         offset="1"
         id="stop13281" /></linearGradient><linearGradient
       inkscape:collect="always"
       id="linearGradient7274"><stop
         style="stop-color:#ffffff;stop-opacity:1;"
         offset="0"
         id="stop7270" /><stop
         style="stop-color:#ffffff;stop-opacity:0;"
         offset="1"
         id="stop7272" /></linearGradient><linearGradient
       inkscape:collect="always"
       id="linearGradient3579"><stop
         style="stop-color:#ffffff;stop-opacity:1;"
         offset="0"
         id="stop3575" /><stop
         style="stop-color:#ffffff;stop-opacity:0;"
         offset="1"
         id="stop3577" /></linearGradient><linearGradient
       id="linearGradient3729"><stop
         id="stop3731"
         style="stop-color:#1c59ad;stop-opacity:1"
         offset="0" /><stop
         id="stop3733"
         style="stop-color:#377ad6;stop-opacity:1"
         offset="1" /></linearGradient><linearGradient
       x1="45.447727"
       y1="92.539597"
       x2="45.447727"
       y2="7.0165396"
       id="ButtonShadow"
       gradientUnits="userSpaceOnUse"
       gradientTransform="scale(1.0058652,0.994169)"><stop
         id="stop3750"
         style="stop-color:#000000;stop-opacity:1"
         offset="0" /><stop
         id="stop3752"
         style="stop-color:#000000;stop-opacity:0.58823532"
         offset="1" /></linearGradient><linearGradient
       id="linearGradient3737"><stop
         id="stop3739"
         style="stop-color:#ffffff;stop-opacity:1"
         offset="0" /><stop
         id="stop3741"
         style="stop-color:#ffffff;stop-opacity:0"
         offset="1" /></linearGradient><linearGradient
       id="linearGradient3700"><stop
         id="stop3702"
         style="stop-color:#cacaca;stop-opacity:1;"
         offset="0" /><stop
         id="stop3704"
         style="stop-color:#ececec;stop-opacity:1;"
         offset="1" /></linearGradient><linearGradient
       x1="48"
       y1="90"
       x2="48"
       y2="5.9877172"
       id="linearGradient3706"
       xlink:href="#linearGradient3700"
       gradientUnits="userSpaceOnUse" /><filter
       color-interpolation-filters="sRGB"
       id="filter3174"
       x="-0.047720931"
       y="-0.048282354"
       width="1.0954419"
       height="1.0965647"><feGaussianBlur
         stdDeviation="1.71"
         id="feGaussianBlur3176" /></filter><linearGradient
       x1="36.357143"
       y1="6"
       x2="36.357143"
       y2="63.893143"
       id="linearGradient3188"
       xlink:href="#linearGradient3737"
       gradientUnits="userSpaceOnUse" /><linearGradient
       x1="45.447727"
       y1="92.539597"
       x2="45.447727"
       y2="7.0165396"
       id="ButtonShadow-0"
       gradientUnits="userSpaceOnUse"
       gradientTransform="matrix(1.0058652,0,0,0.994169,100,0)"><stop
         id="stop3750-8"
         style="stop-color:#000000;stop-opacity:1"
         offset="0" /><stop
         id="stop3752-5"
         style="stop-color:#000000;stop-opacity:0.58823532"
         offset="1" /></linearGradient><linearGradient
       x1="32.251034"
       y1="6.1317081"
       x2="32.251034"
       y2="90.238609"
       id="linearGradient3780"
       xlink:href="#ButtonShadow-0"
       gradientUnits="userSpaceOnUse"
       gradientTransform="matrix(1.0238095,0,0,1.0119048,-1.1428571,-98.071429)" /><linearGradient
       x1="32.251034"
       y1="6.1317081"
       x2="32.251034"
       y2="90.238609"
       id="linearGradient3772"
       xlink:href="#ButtonShadow-0"
       gradientUnits="userSpaceOnUse"
       gradientTransform="matrix(1.0238095,0,0,1.0119048,-1.1428571,-98.071429)" /><linearGradient
       x1="32.251034"
       y1="6.1317081"
       x2="32.251034"
       y2="90.238609"
       id="linearGradient3725"
       xlink:href="#ButtonShadow-0"
       gradientUnits="userSpaceOnUse"
       gradientTransform="matrix(1.0238095,0,0,1.0119048,-1.1428571,-98.071429)" /><linearGradient
       x1="32.251034"
       y1="6.1317081"
       x2="32.251034"
       y2="90.238609"
       id="linearGradient3721"
       xlink:href="#ButtonShadow-0"
       gradientUnits="userSpaceOnUse"
       gradientTransform="translate(0,-97)" /><linearGradient
       x1="32.251034"
       y1="6.1317081"
       x2="32.251034"
       y2="90.238609"
       id="linearGradient3760"
       xlink:href="#ButtonShadow-0"
       gradientUnits="userSpaceOnUse"
       gradientTransform="matrix(1.0238095,0,0,1.0119048,-1.1428571,-98.071429)" /><linearGradient
       id="linearGradient3737-0"><stop
         id="stop3739-6"
         style="stop-color:#ffffff;stop-opacity:1"
         offset="0" /><stop
         id="stop3741-0"
         style="stop-color:#ffffff;stop-opacity:0"
         offset="1" /></linearGradient><radialGradient
       cx="48"
       cy="90.171875"
       r="42"
       fx="48"
       fy="90.171875"
       id="radialGradient2903"
       xlink:href="#linearGradient3737-0"
       gradientUnits="userSpaceOnUse"
       gradientTransform="matrix(1.1573129,0,0,0.99590774,-7.551021,0.1971319)" /><clipPath
       id="clipPath3782"><path
         d="m -98,6 c -3.324,0 -6,2.676 -6,6 l 0,72 c 0,3.324 2.676,6 6,6 l 72,0 c 3.324,0 6,-2.676 6,-6 l 0,-72 c 0,-3.324 -2.676,-6 -6,-6 l -72,0 z m 59.0625,12 C -38.336494,17.9909 -38,18.03125 -38,18.03125 l 0,12.0625 C -50.051065,30.305506 -53,42.0625 -53,42.0625 l 9.0625,0 0,12.0625 -14.09375,0 C -66.507844,80.276885 -86,77.9375 -86,77.9375 l 0,-12.0625 c 0,0 12.376145,2.298313 18.6875,-20.75 6.908061,-25.227422 24.167961,-27.061294 28.375,-27.125 z"
         inkscape:connector-curvature="0"
         id="path3784"
         style="fill:#ff00ff;fill-opacity:1;fill-rule:nonzero;stroke:none" /></clipPath><filter
       x="-0.18283333"
       y="-0.14622227"
       width="1.3656667"
       height="1.2924143"
       color-interpolation-filters="sRGB"
       id="filter3786"><feGaussianBlur
         id="feGaussianBlur3788"
         stdDeviation="3.24" /></filter><linearGradient
       x1="46.906918"
       y1="75.471306"
       x2="46.906918"
       y2="36.246487"
       id="linearGradient3745"
       xlink:href="#linearGradient3729"
       gradientUnits="userSpaceOnUse"
       gradientTransform="translate(-2)" /><linearGradient
       id="linearGradient3737-9"><stop
         id="stop3739-2"
         style="stop-color:#ffffff;stop-opacity:1"
         offset="0" /><stop
         id="stop3741-1"
         style="stop-color:#ffffff;stop-opacity:0"
         offset="1" /></linearGradient><clipPath
       id="clipPath3613"><rect
         width="84"
         height="84"
         rx="6"
         ry="6"
         x="6"
         y="6"
         id="rect3615"
         style="fill:#ffffff;fill-opacity:1;fill-rule:nonzero;stroke:none" /></clipPath><filter
       x="-0.19578789"
       y="-0.19578789"
       width="1.3915758"
       height="1.3915758"
       color-interpolation-filters="sRGB"
       id="filter3794"><feGaussianBlur
         id="feGaussianBlur3796"
         stdDeviation="5.28" /></filter><linearGradient
       x1="48"
       y1="20.220806"
       x2="48"
       y2="138.66119"
       id="linearGradient4186"
       xlink:href="#linearGradient3737-9"
       gradientUnits="userSpaceOnUse" /><linearGradient
       id="linearGradient2660"><stop
         style="stop-color:#edeeec;stop-opacity:1;"
         offset="0"
         id="stop2662" /><stop
         style="stop-color:#babdb6;stop-opacity:1;"
         offset="1"
         id="stop2664" /></linearGradient><linearGradient
       id="linearGradient15653"><stop
         style="stop-color:#f0f1ee;stop-opacity:1;"
         offset="0"
         id="stop15655" /><stop
         style="stop-color:#d5d9d1;stop-opacity:1;"
         offset="1"
         id="stop15657" /></linearGradient><radialGradient
       inkscape:collect="always"
       xlink:href="#linearGradient3579"
       id="radialGradient3581"
       cx="-52.992062"
       cy="36.174511"
       fx="-52.992062"
       fy="36.174511"
       r="31.688831"
       gradientTransform="matrix(1.3069764,0,0,0.79821913,117.63058,28.85031)"
       gradientUnits="userSpaceOnUse" /><filter
       inkscape:collect="always"
       style="color-interpolation-filters:sRGB"
       id="filter4397"
       x="-0.013144273"
       y="-0.044672871"
       width="1.0262885"
       height="1.0893457"><feGaussianBlur
         inkscape:collect="always"
         stdDeviation="0.28859279"
         id="feGaussianBlur4399" /></filter><filter
       inkscape:collect="always"
       style="color-interpolation-filters:sRGB"
       id="filter4955"
       x="-0.32467377"
       y="-0.32467377"
       width="1.6493475"
       height="1.6493475"><feGaussianBlur
         inkscape:collect="always"
         stdDeviation="3.3630329"
         id="feGaussianBlur4957" /></filter><filter
       inkscape:collect="always"
       style="color-interpolation-filters:sRGB"
       id="filter5744"
       x="-0.04953522"
       y="-0.11182143"
       width="1.0990704"
       height="1.2236429"><feGaussianBlur
         inkscape:collect="always"
         stdDeviation="0.60136037"
         id="feGaussianBlur5746" /></filter><linearGradient
       inkscape:collect="always"
       xlink:href="#linearGradient7274"
       id="linearGradient7276"
       x1="48.418251"
       y1="31.765308"
       x2="48.418251"
       y2="49.348248"
       gradientUnits="userSpaceOnUse" /><filter
       inkscape:collect="always"
       style="color-interpolation-filters:sRGB"
       id="filter7384"
       x="-0.8764822"
       y="-0.8764822"
       width="2.7529644"
       height="2.7529644"><feGaussianBlur
         inkscape:collect="always"
         stdDeviation="2.4058904"
         id="feGaussianBlur7386" /></filter><filter
       inkscape:collect="always"
       style="color-interpolation-filters:sRGB"
       id="filter11815"
       x="-0.0085296797"
       y="-0.028902415"
       width="1.0170594"
       height="1.0578048"><feGaussianBlur
         inkscape:collect="always"
         stdDeviation="0.19070303"
         id="feGaussianBlur11817" /></filter><filter
       inkscape:collect="always"
       style="color-interpolation-filters:sRGB"
       id="filter12551"
       x="-0.020562121"
       y="-0.077373225"
       width="1.0411242"
       height="1.1547465"><feGaussianBlur
         inkscape:collect="always"
         stdDeviation="0.42188974"
         id="feGaussianBlur12549" /></filter><radialGradient
       inkscape:collect="always"
       xlink:href="#linearGradient13283"
       id="radialGradient13285"
       cx="-6.2985816"
       cy="-41.569584"
       fx="-6.2985816"
       fy="-41.569584"
       r="24.938402"
       gradientTransform="matrix(2.0251549,0,0,0.7304161,6.6226373,12.152704)"
       gradientUnits="userSpaceOnUse" /><filter
       inkscape:collect="always"
       style="color-interpolation-filters:sRGB"
       id="filter13287"
       x="-0.031766777"
       y="-0.031760184"
       width="1.0635336"
       height="1.0635204"><feGaussianBlur
         inkscape:collect="always"
         stdDeviation="0.82995846"
         id="feGaussianBlur13289" /></filter><linearGradient
       inkscape:collect="always"
       xlink:href="#linearGradient14830"
       id="linearGradient14832"
       x1="48"
       y1="90"
       x2="48"
       y2="7"
       gradientUnits="userSpaceOnUse" /><filter
       inkscape:collect="always"
       style="color-interpolation-filters:sRGB"
       id="filter18587"
       x="-0.0095756913"
       y="-0.009736681"
       width="1.0191514"
       height="1.0194734"><feGaussianBlur
         inkscape:collect="always"
         stdDeviation="0.25014058"
         id="feGaussianBlur18589" /></filter><linearGradient
       inkscape:collect="always"
       xlink:href="#linearGradient18595"
       id="linearGradient18597"
       x1="48.207031"
       y1="16.240234"
       x2="48.207031"
       y2="78.231979"
       gradientUnits="userSpaceOnUse" /><filter
       inkscape:collect="always"
       style="color-interpolation-filters:sRGB"
       id="filter22375"
       x="-0.025145303"
       y="-0.025274481"
       width="1.0502906"
       height="1.050549"><feGaussianBlur
         inkscape:collect="always"
         stdDeviation="0.67319239"
         id="feGaussianBlur22377" /></filter><filter
       inkscape:collect="always"
       style="color-interpolation-filters:sRGB"
       id="filter22435"
       x="-0.030405828"
       y="-0.030731843"
       width="1.0608117"
       height="1.0614637"><feGaussianBlur
         inkscape:collect="always"
         stdDeviation="0.80789238"
         id="feGaussianBlur22437" /></filter></defs><metadata
     id="metadata2413"><rdf:RDF><cc:Work
         rdf:about=""><dc:format>image/svg+xml</dc:format><dc:type
           rdf:resource="http://purl.org/dc/dcmitype/StillImage" /></cc:Work></rdf:RDF></metadata><g
     id="layer7"
     style="display:inline"><path
       d="m 12,-95.03125 c -5.5110903,0 -10.03125,4.52016 -10.03125,10.03125 l 0,71 c 0,5.5110902 4.5201598,10.03125 10.03125,10.03125 l 72,0 c 5.51109,0 10.03125,-4.5201597 10.03125,-10.03125 l 0,-71 c 0,-5.51109 -4.52016,-10.03125 -10.03125,-10.03125 l -72,0 z"
       transform="scale(1,-1)"
       id="path3786"
       style="opacity:0.07999998;fill:url(#linearGradient3760);fill-opacity:1;fill-rule:nonzero;stroke:none;display:inline" /><path
       d="m 12,-94.03125 c -4.971633,0 -9.03125,4.059617 -9.03125,9.03125 l 0,71 c 0,4.9716329 4.0596171,9.03125 9.03125,9.03125 l 72,0 c 4.971633,0 9.03125,-4.059617 9.03125,-9.03125 l 0,-71 c 0,-4.971633 -4.059617,-9.03125 -9.03125,-9.03125 l -72,0 z"
       transform="scale(1,-1)"
       id="path3778"
       style="opacity:0.1;fill:url(#linearGradient3780);fill-opacity:1;fill-rule:nonzero;stroke:none;display:inline" /><path
       d="m 12,-93 c -4.4091333,0 -8,3.590867 -8,8 l 0,71 c 0,4.4091333 3.5908667,8 8,8 l 72,0 c 4.409133,0 8,-3.5908667 8,-8 l 0,-71 c 0,-4.409133 -3.590867,-8 -8,-8 l -72,0 z"
       transform="scale(1,-1)"
       id="path3770"
       style="opacity:0.2;fill:url(#linearGradient3772);fill-opacity:1;fill-rule:nonzero;stroke:none;display:inline" /><rect
       width="86"
       height="85"
       rx="7"
       ry="7"
       x="5"
       y="-92"
       transform="scale(1,-1)"
       id="rect3723"
       style="opacity:0.3;fill:url(#linearGradient3725);fill-opacity:1;fill-rule:nonzero;stroke:none;display:inline" /><rect
       width="84"
       height="84"
       rx="6"
       ry="6"
       x="6"
       y="-91"
       transform="scale(1,-1)"
       id="rect3716"
       style="opacity:0.45;fill:url(#linearGradient3721);fill-opacity:1;fill-rule:nonzero;stroke:none;display:inline" /></g><g
     id="layer1" /><path
     style="display:inline;fill:#37595d;fill-opacity:1;stroke-width:0.163112"
     d="m 45.640349,79.619496 c -2.335952,-0.190835 -6.090647,-0.894462 -6.39451,-1.198328 -0.04449,-0.04452 0.0048,-0.340221 0.109211,-0.657119 0.267836,-0.811538 1.503084,-2.124855 2.412719,-2.565203 0.74798,-0.36209 0.911151,-0.372859 5.99078,-0.395355 5.982303,-0.02649 6.297398,0.02128 7.546196,1.144053 0.915576,0.823181 1.71096,2.308188 1.354339,2.528593 -0.296702,0.183371 -3.222592,0.785208 -4.738908,0.974763 -1.950061,0.243778 -4.516228,0.312672 -6.279827,0.168596 z M 31.557352,75.101272 c -3.842918,-2.273375 -8.280694,-6.682588 -10.579835,-10.511751 -0.824674,-1.373479 -0.82495,-1.36594 0.06294,-1.70847 1.067107,-0.411668 2.678353,-0.392172 3.640548,0.04405 0.845495,0.383313 1.42376,0.91957 3.016985,2.797846 0.627983,0.740337 1.76455,1.877004 2.525696,2.525932 2.698645,2.300767 3.164053,3.011413 3.17622,4.849897 0.0066,0.997369 -0.427988,2.609798 -0.703409,2.609798 -0.0619,0 -0.574517,-0.273285 -1.13914,-0.6073 z M 62.90706,74.944493 c -0.411668,-1.067105 -0.392172,-2.678351 0.04405,-3.640546 0.383537,-0.84599 0.909129,-1.412148 2.836166,-3.05507 0.761149,-0.648928 1.897711,-1.785596 2.525694,-2.525932 1.593231,-1.878276 2.171491,-2.414533 3.016989,-2.797846 0.962195,-0.43622 2.57344,-0.455716 3.640546,-0.04405 0.887889,0.34253 0.887611,0.334991 0.06293,1.70847 -2.255727,3.756858 -6.665401,8.166799 -10.417277,10.417905 -1.374426,0.824649 -1.366575,0.824938 -1.709099,-0.06293 z M 46.211242,64.927756 c -6.751112,-0.65455 -12.660555,-5.627719 -14.587153,-12.27601 -1.353346,-4.670111 -0.542705,-9.980864 2.139288,-14.015163 3.505594,-5.273164 9.599563,-8.195586 15.861233,-7.606411 8.087734,0.760994 14.569171,7.242431 15.330165,15.330165 0.885729,9.413409 -5.991191,17.683304 -15.450685,18.580344 -0.958804,0.09092 -1.77998,0.155456 -1.824836,0.143407 -0.04485,-0.01205 -0.705461,-0.0824 -1.468012,-0.156332 z M 17.330984,56.100304 c -1.120976,-4.162998 -1.331663,-9.263797 -0.563352,-13.638993 0.260436,-1.483056 0.658525,-3.103861 0.796148,-3.241484 0.0445,-0.04452 0.340221,0.0046 0.657121,0.109217 0.811536,0.267832 2.124855,1.503079 2.565202,2.412716 0.362091,0.747979 0.372855,0.91115 0.395355,5.99078 0.02627,5.927709 -0.02567,6.282318 -1.097655,7.500185 -0.588291,0.668332 -1.959802,1.554812 -2.405516,1.554812 -0.08924,0 -0.245522,-0.309255 -0.347303,-0.687233 z m 60.084805,0.348439 c -0.376157,-0.186196 -0.98731,-0.667674 -1.358117,-1.069952 -1.186691,-1.28741 -1.188595,-1.298554 -1.221749,-7.154654 -0.03386,-5.981252 0.0132,-6.293292 1.13763,-7.543935 0.823181,-0.915576 2.308188,-1.710959 2.528593,-1.354338 0.165848,0.268349 0.754739,3.062646 0.998711,4.738908 0.395109,2.714684 0.138766,8.213452 -0.501866,10.765417 -0.422532,1.683159 -0.520827,1.957337 -0.701676,1.957219 -0.108682,-7e-5 -0.50537,-0.152471 -0.881526,-0.338665 z M 21.292624,33.164829 c -0.472754,-0.168768 -0.903746,-0.351052 -0.95777,-0.405075 -0.25962,-0.259621 2.283166,-3.973892 4.056165,-5.924884 2.192299,-2.41238 5.093554,-4.801237 7.4821,-6.160659 0.957014,-0.544678 0.975178,-0.533355 1.391653,0.867518 0.456688,1.536105 0.02507,3.273798 -1.097331,4.41816 -0.307659,0.313667 -1.165105,1.084107 -1.905442,1.71209 -0.740331,0.627982 -1.876999,1.764545 -2.525929,2.525694 -0.64893,0.761149 -1.436502,1.635733 -1.75017,1.943519 -1.191359,1.169024 -3.112368,1.588009 -4.693276,1.023637 z m 50.555531,0.06536 c -1.022785,-0.333371 -1.8522,-0.964056 -2.71932,-2.067763 -0.981959,-1.249874 -3.062837,-3.329383 -4.319593,-4.316746 -2.110411,-1.658032 -2.754005,-3.708409 -1.86301,-5.935223 0.307534,-0.768603 0.32141,-0.768262 1.669298,0.04105 3.756858,2.255728 8.166799,6.665402 10.417906,10.417279 0.811929,1.353225 0.812011,1.361154 0.01716,1.681717 -0.950036,0.383146 -2.339099,0.461086 -3.202435,0.179687 z M 42.137416,20.931337 c -0.910571,-0.303536 -2.142053,-1.468045 -2.610783,-2.468809 -0.319844,-0.682877 -0.353132,-0.869488 -0.174761,-0.979726 0.268351,-0.165849 3.062648,-0.75474 4.738909,-0.998712 1.870305,-0.272214 6.321011,-0.224907 8.400288,0.08929 1.751176,0.264614 4.104002,0.794341 4.271325,0.961666 0.04601,0.04602 -0.0019,0.342945 -0.106491,0.659843 -0.267269,0.809836 -1.502419,2.124536 -2.40771,2.56278 -0.744841,0.36057 -0.897503,0.370055 -6.113138,0.37981 -4.028639,0.0075 -5.509297,-0.04336 -5.997639,-0.206142 z"
     id="path356"
     sodipodi:nodetypes="sccsssssssssssssssssssssssssssssssssscsccscsscssssssssssssscsssssssssssssssssssscscs" /><path
     id="path388"
     style="display:inline;fill:#538f8f;stroke-width:0.163112;filter:url(#filter13287);fill-opacity:1"
     d="m 48.205078,16.646484 c -1.600027,-0.01691 -3.171295,0.03769 -4.066406,0.167969 -0.826467,0.120288 -1.941496,0.326425 -2.876953,0.523438 -0.467729,0.09851 -0.891979,0.194846 -1.210938,0.27539 -0.159479,0.04027 -0.292266,0.07774 -0.388672,0.107422 -0.04611,0.0142 -0.03771,0.01074 -0.06445,0.02148 0.02086,0.08698 0.08637,0.268261 0.232422,0.580078 0.415855,0.887872 1.658706,2.041824 2.41211,2.292968 0.157952,0.05265 0.651863,0.118826 1.578124,0.150391 0.926262,0.03157 2.301583,0.04086 4.314454,0.03711 2.60764,-0.0049 3.951745,-0.0096 4.71289,-0.05664 0.761146,-0.04707 0.890551,-0.11222 1.25586,-0.289063 0.388553,-0.188095 0.910797,-0.607588 1.345703,-1.070312 0.434906,-0.462725 0.788077,-0.984198 0.890625,-1.294922 0.04238,-0.128405 0.06885,-0.248042 0.08594,-0.341797 -0.06749,-0.02321 -0.141175,-0.04827 -0.246093,-0.07813 -0.26154,-0.07443 -0.623207,-0.163645 -1.033204,-0.255859 -0.819993,-0.184428 -1.840127,-0.381019 -2.705078,-0.511719 -1.007373,-0.152223 -2.636301,-0.240904 -4.236328,-0.257813 z m -15.609375,4.015625 c 0.02143,0.01336 0.05679,-0.0041 -0.04297,0.0332 -0.09976,0.03733 -0.277326,0.131952 -0.515625,0.267579 -2.343545,1.33381 -5.232894,3.710615 -7.40039,6.095703 -0.869029,0.956271 -1.944485,2.366755 -2.761719,3.560547 -0.408617,0.596896 -0.753912,1.141871 -0.974609,1.541015 -0.0979,0.177061 -0.159719,0.311745 -0.201172,0.414063 0.03012,0.01337 0.04992,0.02194 0.08594,0.03711 0.166201,0.06998 0.388105,0.155804 0.619141,0.238281 1.451229,0.518079 3.255736,0.124184 4.347656,-0.947265 0.28745,-0.28206 1.086134,-1.166116 1.730469,-1.921875 0.667288,-0.782681 1.801157,-1.915038 2.564453,-2.5625 0.734582,-0.623102 1.600885,-1.403973 1.882813,-1.691407 1.034245,-1.054481 1.436391,-2.674562 1.015624,-4.089843 -0.103907,-0.349509 -0.182117,-0.610088 -0.248046,-0.775391 -0.06593,-0.165303 -0.122648,-0.212363 -0.101563,-0.199219 z m 30.816406,0.02344 c -0.03064,0.04838 -0.08541,0.165743 -0.158203,0.347656 -0.844206,2.109879 -0.271564,3.954879 1.759766,5.550781 1.294903,1.017333 3.364565,3.084442 4.376953,4.373047 0.841522,1.071124 1.605185,1.645637 2.560547,1.957031 0.745903,0.243123 2.114592,0.174967 2.974609,-0.171874 0.192127,-0.07748 0.321265,-0.136785 0.373047,-0.169922 -0.0047,-0.01988 -0.01946,-0.09987 -0.103516,-0.261719 -0.09347,-0.18 -0.244348,-0.431334 -0.447265,-0.769531 C 72.536454,27.854999 68.134535,23.45262 64.443359,21.23633 64.106679,21.034177 63.855643,20.884441 63.675781,20.791018 63.513906,20.706938 63.433944,20.690489 63.412109,20.685549 Z M 47.304688,31.302734 c -5.303442,0.232227 -10.255029,2.991934 -13.263672,7.517578 -2.624461,3.947759 -3.420352,9.169153 -2.095704,13.740235 1.888264,6.516006 7.688543,11.394449 14.296876,12.035156 0.382158,0.03705 0.740069,0.07309 1.007812,0.101563 0.133872,0.01424 0.245733,0.02742 0.328125,0.03711 0.0412,0.0048 0.07443,0.0081 0.101563,0.01172 0.0099,0.0013 0.02511,0.0054 0.03125,0.0059 0.0033,-1.9e-5 0.005,1.8e-4 0.01172,0 0.02242,-6.01e-4 0.06027,-0.0031 0.107422,-0.0059 0.0943,-0.0055 0.228599,-0.01455 0.392578,-0.02734 0.32796,-0.02558 0.772211,-0.06407 1.25,-0.109375 9.282918,-0.880295 16.019341,-8.983664 15.150391,-18.21875 -0.746016,-7.928553 -7.100744,-14.283281 -15.029297,-15.029297 -0.767403,-0.07221 -1.531428,-0.09177 -2.289062,-0.05859 z m -29.527344,8.253907 c -0.01364,0.03856 -0.02484,0.06746 -0.04102,0.11914 -0.0574,0.183443 -0.127513,0.440856 -0.201172,0.740235 -0.147317,0.598758 -0.310673,1.370176 -0.439453,2.103515 -0.758891,4.321555 -0.54928,9.387054 0.556641,13.494141 0.04316,0.160272 0.09936,0.301346 0.146484,0.398437 0.06178,-0.0167 0.102085,-0.02175 0.21875,-0.07617 0.181059,-0.08446 0.40279,-0.20939 0.628906,-0.355469 0.452232,-0.292158 0.929991,-0.676205 1.1875,-0.96875 0.527163,-0.598902 0.744329,-0.877729 0.88086,-1.810547 0.13653,-0.932819 0.145943,-2.503945 0.132812,-5.466797 -0.01125,-2.539571 -0.02076,-3.852998 -0.07031,-4.599609 -0.04955,-0.746612 -0.115427,-0.881296 -0.292969,-1.248047 -0.189395,-0.391239 -0.607607,-0.91392 -1.070313,-1.34961 -0.462705,-0.435689 -0.985286,-0.789744 -1.296874,-0.892578 -0.128059,-0.04228 -0.246505,-0.0705 -0.339844,-0.08789 z m 60.466797,0.02344 c -0.01816,0.0015 -0.01799,-0.0018 -0.04492,0.0039 -0.131411,0.02773 -0.345201,0.111711 -0.578125,0.236328 -0.465849,0.249235 -1.023403,0.662729 -1.400391,1.082032 -0.554488,0.616727 -0.781714,0.895066 -0.921875,1.826172 -0.14016,0.931106 -0.145832,2.504404 -0.128906,5.49414 0.01658,2.927998 0.03047,4.398154 0.173828,5.236328 0.143356,0.838175 0.365864,1.049899 0.958984,1.69336 0.337149,0.365762 0.961953,0.849664 1.261719,0.998047 0.178639,0.08842 0.363949,0.169912 0.511719,0.226562 0.05044,0.01933 0.08626,0.03214 0.125,0.04492 0.01497,-0.03061 0.01825,-0.03018 0.04102,-0.09375 0.08912,-0.248868 0.220813,-0.740246 0.43164,-1.580078 0.618218,-2.462677 0.879004,-8.003896 0.496094,-10.634766 -0.120288,-0.826467 -0.326425,-1.941495 -0.523438,-2.876953 -0.09851,-0.467729 -0.194846,-0.891979 -0.27539,-1.210937 -0.04027,-0.15948 -0.07774,-0.292267 -0.107422,-0.388672 -0.01252,-0.04066 -0.0089,-0.03007 -0.01953,-0.05664 z M 22.896484,62.919922 c -0.620901,-0.0075 -1.257286,0.08668 -1.736328,0.271484 -0.222353,0.08578 -0.380612,0.151595 -0.445312,0.191406 -0.0647,0.03981 -0.01592,-0.01373 -0.01563,-0.02148 2.99e-4,-0.0078 0.0183,0.09688 0.111328,0.277344 0.09303,0.180467 0.244958,0.435851 0.451172,0.779297 2.259829,3.763691 6.687677,8.162006 10.464843,10.396484 0.278458,0.164728 0.545387,0.315036 0.746094,0.421875 0.06002,0.03195 0.09835,0.05102 0.144532,0.07422 0.0029,-0.0058 0.003,-0.0056 0.0059,-0.01172 0.06495,-0.136456 0.141411,-0.356633 0.208984,-0.607422 0.135148,-0.501577 0.237347,-1.140719 0.234375,-1.589844 -0.0059,-0.891432 -0.106795,-1.432559 -0.52539,-2.072265 -0.418632,-0.63971 -1.189647,-1.38185 -2.53324,-2.527348 C 29.225349,67.834851 28.091044,66.701064 27.443359,65.9375 25.855601,64.065669 25.336071,63.58719 24.544922,63.228516 24.125939,63.038565 23.51709,62.927431 22.896484,62.919922 Z m 50.21875,0 c -0.620605,0.0075 -1.229454,0.118644 -1.648437,0.308594 -0.791327,0.358754 -1.312713,0.837255 -2.900391,2.708984 -0.647464,0.763302 -1.779818,1.897167 -2.5625,2.564453 -1.920949,1.637732 -2.390568,2.146633 -2.75,2.939453 -0.380056,0.838308 -0.406899,2.426216 -0.03711,3.384766 0.08578,0.222358 0.151753,0.380905 0.191406,0.445312 0.03965,0.06441 -0.01373,0.01395 -0.02148,0.01367 -0.0078,-2.81e-4 0.0967,-0.01807 0.277343,-0.111328 0.180649,-0.09326 0.435551,-0.244925 0.779297,-0.451172 3.686018,-2.21159 8.088399,-6.613512 10.304688,-10.304687 0.206245,-0.343496 0.357922,-0.59872 0.451172,-0.779297 0.09325,-0.180577 0.111051,-0.284973 0.111328,-0.277344 2.77e-4,0.0076 0.05072,0.06117 -0.01367,0.02148 -0.06439,-0.03968 -0.222997,-0.105641 -0.445313,-0.191406 -0.479041,-0.184804 -1.115428,-0.278998 -1.736328,-0.271484 z M 47.759766,75.136719 c -2.53957,0.01125 -3.852998,0.02076 -4.59961,0.07031 -0.746611,0.04955 -0.881294,0.115428 -1.248047,0.292969 -0.391153,0.189355 -0.912456,0.607632 -1.347656,1.070312 -0.435199,0.462681 -0.789667,0.985056 -0.892578,1.296876 -0.04401,0.133576 -0.0725,0.260322 -0.08984,0.355468 0.02654,0.01357 0.0066,0.0027 0.04297,0.01563 0.120786,0.04312 0.294232,0.09419 0.503906,0.148438 0.419349,0.108503 0.984082,0.229877 1.613282,0.347656 1.258398,0.235559 2.776442,0.458839 3.925781,0.552734 1.72894,0.141245 4.28898,0.07425 6.210937,-0.166015 0.741266,-0.09267 1.849505,-0.290663 2.800782,-0.486328 0.475638,-0.09783 0.913718,-0.195967 1.246093,-0.279297 0.166188,-0.04166 0.306137,-0.07982 0.408203,-0.111328 0.04942,-0.01526 0.04344,-0.0119 0.07227,-0.02344 -0.0014,-0.0185 9.4e-5,-0.01866 -0.0059,-0.04687 -0.02773,-0.13141 -0.111711,-0.345201 -0.236329,-0.578125 -0.249234,-0.465848 -0.662729,-1.023402 -1.082031,-1.400391 -0.615779,-0.553635 -0.894337,-0.780513 -1.826172,-0.921874 -0.931834,-0.141362 -2.505863,-0.14996 -5.496093,-0.136719 z"
     sodipodi:nodetypes="sssssccssccssscssssssccsssccsssscssssccsssscsssscssssscccscscssssscssscsssssssscssscssssssssccsssssssssssssssccsscssssssssssssssssssssscssscccsssssssccssscc" /><circle
     style="opacity:0.534447;mix-blend-mode:normal;fill:#0b5459;fill-opacity:1;stroke:none;stroke-width:0.677;stroke-linejoin:round;filter:url(#filter4955);stop-color:#000000"
     id="path4401"
     cx="50.235142"
     cy="50.451641"
     r="12.429829"
     transform="matrix(0.975966,0,0,0.76741846,-0.31885632,11.801105)" /><path
     id="path356-5"
     style="display:none;mix-blend-mode:normal;fill:url(#radialGradient3581);stroke-width:0.163112;filter:url(#filter4397)"
     d="m 23.368834,62.997149 c 0.565868,0 -1.144896,0.08552 -1.546875,0.238281 0.08565,0.151939 0.16953,0.299656 0.320312,0.550781 2.204486,3.671517 6.616182,8.052705 10.300782,10.232422 0.147223,0.08709 0.260945,0.14861 0.392578,0.222656 0.0077,-0.02664 0.01403,-0.03484 0.02148,-0.0625 0.125249,-0.464839 0.221261,-1.085491 0.21875,-1.464843 -0.0056,-0.852282 -0.08201,-1.25718 -0.449218,-1.81836 -0.367212,-0.56118 -1.109789,-1.289114 -2.445313,-2.427734 -0.812475,-0.692689 -1.941766,-1.820924 -2.617187,-2.617187 -1.580062,-1.862757 -2.021691,-2.26195 -2.736329,-2.585938 -0.331534,-0.150305 -2.029135,-0.267578 -1.458984,-0.267578 z m 49.602082,-0.266756 c 0.570151,0 -1.127449,0.117273 -1.458985,0.267578 -0.715061,0.324179 -1.158422,0.723426 -2.738281,2.585938 -0.67489,0.795634 -1.802239,1.924056 -2.615234,2.617187 -1.912378,1.630424 -2.301459,2.059381 -2.626953,2.777344 -0.299482,0.66058 -0.335125,2.194845 -0.0293,3.003906 0.152192,-0.08585 0.29937,-0.169467 0.550781,-0.320313 3.5933,-2.15596 7.981812,-6.543874 10.142578,-10.142578 0.150836,-0.251212 0.234487,-0.398693 0.320313,-0.550781 -0.401929,-0.152418 -2.11009,-0.238281 -1.544922,-0.238281 z m -29.72196,12.288909 c -0.71494,0.04745 -0.717655,0.07544 -1.074218,0.248047 -0.301524,0.145966 -0.804802,0.538922 -1.210938,0.970703 -0.370058,0.393425 -0.623437,0.809016 -0.71875,1.023438 0.02416,0.0065 0.03318,0.011 0.05859,0.01758 0.402615,0.104173 0.960053,0.223416 1.582031,0.339844 1.243957,0.232855 2.753853,0.45317 3.876953,0.544921 1.680147,0.137259 4.232842,0.07126 6.115234,-0.164062 0.717484,-0.08969 1.82178,-0.284781 2.763672,-0.478516 0.461898,-0.09501 0.883044,-0.189727 1.203125,-0.269531 -0.01838,-0.03859 -0.01517,-0.04883 -0.03711,-0.08984 -0.222098,-0.415128 -0.617302,-0.94321 -0.982422,-1.271484 -0.603642,-0.542724 -0.721993,-0.676171 -1.582031,-0.806641 -3.433818,-0.09358 -6.744113,-0.100232 -9.994136,-0.06446 z"
     sodipodi:nodetypes="scsscccssssssssssscsscsscssccsssscsscc" /><path
     id="path5739"
     style="opacity:0.3040453;fill:#ffffff;fill-opacity:1;stroke:none;stroke-width:0.611263;stroke-linejoin:round;stop-color:#000000;filter:url(#filter5744)"
     d="M 33.255499,50.522124 A 14.860116,14.860116 0 0 0 47.975228,63.428996 14.860116,14.860116 0 0 0 62.391635,52.022841 15.787615,15.787615 0 0 1 48.116306,61.095919 15.787615,15.787615 0 0 1 33.255499,50.522124 Z" /><path
     style="opacity:1;fill:url(#linearGradient7276);fill-opacity:1;stroke:none;stroke-width:0.614354;stroke-linejoin:round;stop-color:#000000"
     d="m 58.930151,48.171263 c 0,0 5.413654,-1.901404 3.639506,-6.747893 -1.628701,-4.284659 -7.106921,-9.725724 -14.365374,-9.661728 -7.426596,0.06548 -12.698495,3.924087 -14.674904,9.443843 -1.976408,5.519754 5.128666,7.231388 5.128666,7.231388 0,0 9.783717,2.641738 20.272106,-0.26561 z"
     id="path7268"
     sodipodi:nodetypes="ccsscc" /><circle
     style="opacity:0.37232784;fill:#ffffff;fill-opacity:1;stroke:none;stroke-width:0.677;stroke-linejoin:round;filter:url(#filter7384);stop-color:#000000"
     id="path7330"
     cx="55.114075"
     cy="58.052677"
     r="3.2939272"
     transform="matrix(1.5720257,0,0,1.5720257,-32.460667,-37.507284)" /><path
     id="path11788"
     style="display:none;opacity:0.183137;mix-blend-mode:normal;fill:#ffffff;stroke-width:0.163112;filter:url(#filter11815)"
     sodipodi:type="inkscape:offset"
     inkscape:radius="-0.1492283"
     inkscape:original="M -5.6855469 -14.052734 C -7.2813316 -14.069604 -8.8513735 -14.014384 -9.7285156 -13.886719 C -10.550081 -13.767144 -11.664939 -13.559717 -12.597656 -13.363281 C -13.064052 -13.265051 -13.486717 -13.169645 -13.802734 -13.089844 C -13.926103 -13.058694 -14.01603 -13.032942 -14.101562 -13.007812 C -14.071502 -12.916702 -14.041072 -12.817887 -13.929688 -12.580078 C -13.734877 -12.164149 -13.328137 -11.6601 -12.880859 -11.238281 C -12.433582 -10.816463 -11.938306 -10.473581 -11.601562 -10.361328 C -11.547963 -10.343458 -11.385274 -10.311746 -11.130859 -10.285156 C -10.876444 -10.258566 -10.525049 -10.23445 -10.064453 -10.21875 C -9.1420537 -10.18731 -7.7662159 -10.177891 -5.7539062 -10.181641 C -3.146346 -10.186541 -1.8021662 -10.191841 -1.0507812 -10.238281 C -0.2967527 -10.284911 -0.21344225 -10.336601 0.15234375 -10.513672 C 0.51107359 -10.68733 1.0317133 -11.100212 1.4570312 -11.552734 C 1.8816763 -12.004542 2.2276069 -12.531775 2.3144531 -12.794922 C 2.3391901 -12.869872 2.3504254 -12.930658 2.3652344 -12.996094 C 2.3280674 -13.008024 2.3003734 -13.019423 2.2519531 -13.033203 C 1.9948597 -13.106363 1.6348597 -13.195278 1.2265625 -13.287109 C 0.41011661 -13.47074 -0.60832145 -13.666858 -1.46875 -13.796875 C -2.4617163 -13.946921 -4.0897778 -14.03587 -5.6855469 -14.052734 z M -21.279297 -10.03125 C -21.369447 -9.991619 -21.505013 -9.9238415 -21.710938 -9.8066406 C -24.034924 -8.4839622 -26.919416 -6.1135049 -29.076172 -3.7402344 C -29.937624 -2.792302 -31.012314 -1.384174 -31.826172 -0.1953125 C -32.233083 0.3990905 -32.576164 0.94187856 -32.792969 1.3339844 C -32.858059 1.451699 -32.889248 1.5245942 -32.925781 1.6054688 C -32.768277 1.6706128 -32.574399 1.745643 -32.365234 1.8203125 C -30.970973 2.3180541 -29.214222 1.9348048 -28.166016 0.90625 C -27.890669 0.63606603 -27.087516 -0.2545533 -26.445312 -1.0078125 C -25.770315 -1.7995362 -24.636025 -2.9304612 -23.863281 -3.5859375 C -23.131349 -4.2067917 -22.260278 -4.9922602 -21.990234 -5.2675781 C -20.994287 -6.2830121 -20.604588 -7.8539498 -21.009766 -9.2167969 C -21.11362 -9.5661275 -21.192718 -9.8270522 -21.253906 -9.9804688 C -21.264426 -10.006854 -21.270017 -10.012034 -21.279297 -10.03125 z M 9.5039062 -9.9589844 C 9.5659973 -9.9658844 9.4525899 -9.8609224 9.4042969 -9.7402344 C 8.991678 -8.708998 8.9281457 -7.7576931 9.2089844 -6.8671875 C 9.4898231 -5.9766819 10.119395 -5.140913 11.119141 -4.3554688 C 12.429835 -3.3257296 14.496501 -1.2616681 15.521484 0.04296875 C 16.352388 1.1005767 17.086237 1.6488805 18.013672 1.9511719 C 18.703079 2.1758804 20.073393 2.1127892 20.890625 1.7832031 C 21.025997 1.7286111 21.081033 1.6993161 21.140625 1.6699219 C 21.127475 1.6365699 21.114448 1.6056799 21.085938 1.5507812 C 20.996388 1.3783218 20.845504 1.1272735 20.642578 0.7890625 C 18.448212 -2.8682451 14.049258 -7.2677004 10.386719 -9.4667969 C 10.050216 -9.6688433 9.7996488 -9.8185026 9.6269531 -9.9082031 C 9.5452791 -9.9506251 9.467083 -9.9548929 9.5039062 -9.9589844 z "
     d="m -5.6875,-13.904297 c -1.5913081,-0.01682 -3.1614358,0.04112 -4.0195312,0.166016 -0.8162658,0.118803 -1.9293938,0.325624 -2.8593748,0.521484 -0.46512,0.09796 -0.886452,0.192504 -1.199219,0.271485 -0.05575,0.01408 -0.09029,0.02486 -0.134766,0.03711 0.02464,0.06905 0.03519,0.115574 0.105469,0.265625 0.180612,0.385614 0.578664,0.882832 1.015625,1.294922 0.43664,0.411786 0.93271,0.748399 1.224609,0.845703 0.0179,0.006 0.190697,0.04236 0.439454,0.06836 0.249563,0.02608 0.598661,0.0508 1.05664,0.06641 0.9183646,0.0313 2.2929705,0.04086 4.3046878,0.03711 2.6074543,-0.0049 3.9522137,-0.01083 4.6933593,-0.05664 0.74792342,-0.04625 0.78039837,-0.08356 1.14843752,-0.261719 0.32620277,-0.157911 0.84504664,-0.564614 1.25976558,-1.005859 0.4126662,-0.439063 0.7557427,-0.980015 0.8242188,-1.1875 0.00625,-0.01893 0.00896,-0.03704 0.013672,-0.05469 -0.2512603,-0.07085 -0.5957964,-0.154988 -0.9921875,-0.244141 -0.81271803,-0.182793 -1.82788481,-0.378509 -2.6835938,-0.507813 -0.9777538,-0.147747 -2.6059685,-0.239042 -4.1972656,-0.255859 z m -15.671875,4.0820314 c -0.07861,0.038807 -0.142542,0.067809 -0.277344,0.1445312 -2.303506,1.3110226 -5.182645,3.6762471 -7.328125,6.0371094 -0.853528,0.9392132 -1.927987,2.3456416 -2.738281,3.52929688 -0.405077,0.59172327 -0.746219,1.13277772 -0.958984,1.51757812 -0.02802,0.050666 -0.03855,0.079712 -0.05664,0.1171875 0.12644,0.050205 0.253392,0.1023788 0.404297,0.15625 1.334037,0.4762422 3.041029,0.1022961 4.042969,-0.88085938 0.261876,-0.25696604 1.072862,-1.15358919 1.71289,-1.90429692 0.683028,-0.8011427 1.817229,-1.9300998 2.59961,-2.59375 0.729123,-0.6184718 1.604264,-1.4117434 1.861328,-1.6738281 0.955697,-0.9743971 1.334115,-2.4930133 0.945312,-3.8007812 -0.08945,-0.300893 -0.153048,-0.4991302 -0.207031,-0.6484375 z m 30.9472656,0.064453 c -0.016042,0.025568 -0.036612,0.051498 -0.044922,0.072266 -0.4028228,1.0067535 -0.4611345,1.918162 -0.1914063,2.7734375 0.2696533,0.8550381 0.8761355,1.6669772 1.8593755,2.4394532 1.326947,1.0425085 3.389787,3.1026902 4.427734,4.42382808 0.820013,1.04374589 1.522938,1.56441922 2.421875,1.85742192 0.626187,0.2041021 2.003743,0.1463517 2.773437,-0.1640626 0.05777,-0.023297 0.07199,-0.033458 0.105469,-0.048828 C 20.852922,1.4313786 20.710316,1.192975 20.513672,0.86523438 18.33741,-2.7618992 13.942991,-7.1568638 10.310547,-9.3378906 9.9873992,-9.5319181 9.7527242,-9.6707632 9.5878906,-9.7578125 Z"
     transform="translate(53.900031,30.69289)" /><path
     id="path12183"
     style="display:inline;opacity:0.355962;mix-blend-mode:normal;fill:url(#radialGradient13285);stroke-width:0.163112;filter:url(#filter12551);fill-opacity:1"
     transform="translate(53.900031,30.69289)"
     d="m -5.7272147,-13.968027 c -1.5624477,-0.01652 -3.1357921,0.04728 -3.8710938,0.154297 -0.7657825,0.111456 -1.8411925,0.313327 -2.7421875,0.501953 0.08207,0.09082 0.103405,0.155288 0.191406,0.238281 0.368062,0.347111 0.866353,0.62993 0.869141,0.630859 -0.212265,-0.07077 0.0221,0.0032 0.234375,0.02539 0.218288,0.02281 0.547176,0.04551 0.988281,0.06055 0.8923508,0.03042 2.2635865,0.04085 4.2714845,0.03711 2.606772,-0.0049 3.9615861,-0.01296 4.6367188,-0.05469 0.70856365,-0.04382 0.40454406,0.01918 0.7871093,-0.166016 0.11087862,-0.05368 0.58762839,-0.411091 0.93164063,-0.761719 -0.71980249,-0.153821 -1.52980541,-0.315409 -2.23437493,-0.421875 -0.8796792,-0.132927 -2.5000339,-0.227628 -4.0625,-0.24414 z m -15.8594333,4.0813105 c -2.026026,1.3055942 -4.375001,3.2147262 -6.185547,5.2070313 -0.802444,0.8830001 -1.86698,2.273737 -2.654297,3.4238281 -0.101286,0.1479548 -0.142721,0.231845 -0.234375,0.37109371 0.81384,0.012009 1.678673,-0.18058321 2.197266,-0.68945311 0.175031,-0.17175 1.028292,-1.1075389 1.654296,-1.8417968 0.734799,-0.8618671 1.86448,-1.988731 2.708985,-2.7050782 0.711016,-0.6031129 1.625444,-1.4345583 1.798828,-1.6113281 0.535373,-0.5458484 0.734286,-1.3663251 0.714844,-2.1542969 z m 31.2447051,-0.094312 c -0.0017,0.2820528 -0.15094,0.6248662 -0.06836,0.8867187 0.197541,0.6263786 0.6602879,1.2837866 1.5371099,1.9726563 1.431732,1.1248326 3.466364,3.1564641 4.58789,4.5839844 0.749801,0.954377 1.247682,1.3059447 1.962891,1.5390624 0.09337,0.0304329 0.537604,-0.0504491 0.904297,-0.0605469 -2.056699,-3.1773953 -5.74222,-6.8623779 -8.9238279,-8.9218749 z"
     sodipodi:nodetypes="sscscssccscsscsscssscccsssscc" /><path
     id="path388-9"
     style="display:inline;fill:url(#linearGradient18597);fill-opacity:1;stroke-width:0.163112;filter:url(#filter18587)"
     d="m 48.205078,16.646484 c -1.60003,-0.01691 -3.1713,0.03769 -4.06641,0.167969 -0.82645,0.120288 -1.94149,0.326425 -2.87695,0.523438 -0.46773,0.09851 -0.89198,0.194846 -1.21094,0.27539 -0.15948,0.04027 -0.29226,0.07774 -0.38867,0.107422 -0.0461,0.0142 -0.03765,0.01074 -0.06445,0.02148 0.0209,0.08698 0.0864,0.268262 0.23242,0.580078 0.01188,0.02536 0.03173,0.05236 0.04492,0.07813 0.06033,-0.01661 0.10363,-0.03061 0.17578,-0.04883 0.31896,-0.08054 0.74321,-0.17688 1.21094,-0.27539 0.93546,-0.197013 2.0505,-0.40315 2.87695,-0.523438 0.89511,-0.130279 2.46638,-0.184878 4.06641,-0.167969 1.60003,0.01691 3.22896,0.10559 4.23633,0.257813 0.86495,0.1307 1.88509,0.327291 2.70508,0.511719 0.40543,0.09119 0.76066,0.17998 1.02148,0.253906 0.06031,-0.10847 0.14437,-0.233061 0.17188,-0.316406 0.0424,-0.128405 0.06883,-0.248042 0.08593,-0.341797 -0.0675,-0.02321 -0.14117,-0.04827 -0.24609,-0.07813 -0.26154,-0.07443 -0.6232,-0.163646 -1.0332,-0.25586 -0.81999,-0.184427 -1.84013,-0.381018 -2.70508,-0.511718 -1.00737,-0.152223 -2.6363,-0.240904 -4.23633,-0.257813 z m -15.60937,4.015625 c -0.0015,-9.24e-4 0.0085,0.01398 0.0078,0.01367 0.01235,-0.0052 0.0056,-0.0053 -0.0078,-0.01367 z m 0.0078,0.01367 c -0.0074,0.0031 -0.01355,0.0056 -0.05078,0.01953 -0.0998,0.03733 -0.27733,0.131952 -0.51563,0.267579 -2.34355,1.333808 -5.2329,3.710617 -7.40039,6.095703 -0.86903,0.95627 -1.94449,2.366756 -2.76172,3.560547 -0.40862,0.596895 -0.75391,1.141872 -0.97461,1.541015 -0.0979,0.177061 -0.15972,0.311745 -0.20117,0.414063 0.0301,0.01337 0.04994,0.02194 0.08594,0.03711 0.06397,0.02694 0.16046,0.06126 0.23828,0.0918 0.21945,-0.379547 0.49468,-0.824376 0.85156,-1.345703 0.81723,-1.193791 1.89269,-2.604277 2.76172,-3.560547 2.16749,-2.385086 5.05684,-4.761895 7.40039,-6.095703 0.2383,-0.135627 0.41583,-0.230248 0.51563,-0.267578 0.03564,-0.01332 0.04088,-0.01628 0.04883,-0.01953 7.3e-4,3.25e-4 -0.0073,-0.01454 -0.0059,-0.01367 0.01375,0.0086 0.02017,0.0078 0.0059,0.01367 -0.01033,-0.0046 0.03417,0.03122 0.0957,0.185547 0.06593,0.165303 0.14415,0.425882 0.24805,0.775391 0.07778,0.261624 0.11983,0.530027 0.14257,0.800781 0.04775,-0.515872 0.0057,-1.040341 -0.14257,-1.539062 -0.1039,-0.349509 -0.18212,-0.610088 -0.24805,-0.775391 -0.06127,-0.153676 -0.10349,-0.189626 -0.09375,-0.185547 z m 30.80859,0.0098 c -0.0306,0.04838 -0.0854,0.165743 -0.1582,0.347656 -0.30445,0.76088 -0.41761,1.486963 -0.35156,2.179688 0.0413,-0.466966 0.15308,-0.945364 0.35156,-1.441407 0.0728,-0.181913 0.1276,-0.299276 0.1582,-0.347656 0.02183,0.0049 0.1018,0.02139 0.26367,0.105469 0.17986,0.09342 0.4309,0.243159 0.76758,0.445312 3.69117,2.216288 8.09309,6.618672 10.30469,10.304688 0.11333,0.18889 0.17007,0.292285 0.25,0.429687 0.13472,-0.05652 0.25905,-0.11001 0.30078,-0.136719 -0.005,-0.01988 -0.01949,-0.09987 -0.10351,-0.261718 -0.0935,-0.18 -0.24436,-0.431335 -0.44727,-0.769532 -2.2116,-3.686015 -6.61352,-8.088399 -10.30469,-10.304687 -0.33668,-0.202153 -0.58772,-0.35189 -0.76758,-0.445313 -0.16187,-0.08408 -0.24184,-0.100528 -0.26367,-0.105468 z m -45.63476,18.871094 c -0.0136,0.03856 -0.02482,0.06746 -0.04102,0.11914 -0.0574,0.183443 -0.12751,0.440856 -0.20117,0.740234 -0.14731,0.598758 -0.31067,1.370178 -0.43945,2.103516 -0.31202,1.776826 -0.44986,3.679816 -0.43946,5.589844 0.02669,-1.660123 0.16771,-3.304061 0.43946,-4.851563 0.12878,-0.733338 0.29214,-1.504758 0.43945,-2.103515 0.07366,-0.299379 0.14377,-0.556792 0.20117,-0.740235 0.0162,-0.05168 0.02742,-0.08058 0.04102,-0.11914 0.09334,0.01739 0.21178,0.04561 0.33984,0.08789 0.31158,0.102834 0.83418,0.45689 1.29688,0.892579 0.46271,0.435689 0.88092,0.95837 1.07031,1.349609 0.17755,0.366751 0.24337,0.501435 0.29297,1.248047 0.04766,0.718894 0.05763,2.020395 0.06836,4.378906 -6.9e-4,-0.204478 0.0029,-0.298138 0.0019,-0.517578 -0.0112,-2.539569 -0.02081,-3.852999 -0.07031,-4.59961 -0.0496,-0.746611 -0.11542,-0.881296 -0.29297,-1.248046 -0.18939,-0.391239 -0.6076,-0.91392 -1.07031,-1.34961 -0.4627,-0.435688 -0.9853,-0.789744 -1.29688,-0.892578 -0.12806,-0.04228 -0.2465,-0.0705 -0.33984,-0.08789 z m 60.46679,0.02344 c -0.0182,0.0015 -0.01802,-0.0018 -0.04492,0.0039 -0.13141,0.02773 -0.3452,0.111711 -0.57812,0.236328 -0.46585,0.249235 -1.0234,0.662729 -1.40039,1.082032 -0.55448,0.616726 -0.78172,0.895066 -0.92188,1.826171 -0.14016,0.931106 -0.14582,2.504408 -0.1289,5.494141 2.1e-4,0.03866 0.0017,0.05169 0.002,0.08984 -0.01072,-2.483359 -3e-4,-4.000372 0.12695,-4.845703 0.14016,-0.931105 0.3674,-1.209446 0.92188,-1.826172 0.37699,-0.419303 0.93454,-0.832797 1.40039,-1.082031 0.23292,-0.124617 0.44671,-0.208599 0.57812,-0.236329 0.0269,-0.0057 0.02672,-0.0024 0.04492,-0.0039 0.0105,0.02657 0.007,0.01598 0.01953,0.05664 0.02972,0.0964 0.06713,0.229192 0.10743,0.388672 0.08054,0.318957 0.17689,0.743209 0.27539,1.210937 0.19701,0.935457 0.40315,2.050487 0.52344,2.876953 0.12111,0.832132 0.17245,1.966463 0.17382,3.191407 0.02462,-1.510954 -0.02838,-2.930349 -0.17382,-3.929688 -0.12029,-0.826466 -0.32643,-1.941496 -0.52344,-2.876953 -0.0985,-0.467729 -0.19485,-0.89198 -0.27539,-1.210937 -0.0403,-0.15948 -0.07771,-0.292267 -0.10743,-0.388672 -0.01249,-0.04066 -0.009,-0.03007 -0.01953,-0.05664 z m -55.34765,23.339809 c -0.6209,-0.0075 -1.25729,0.08668 -1.73633,0.271484 -0.22236,0.08578 -0.38061,0.151595 -0.44531,0.191406 -0.0062,0.0038 -0.0016,-2.67e-4 -0.0059,0.002 0.0034,0.01011 0.01643,0.08877 0.10156,0.253907 0.04221,0.08191 0.13902,0.239515 0.20508,0.353515 0.0577,-0.02345 0.07229,-0.03463 0.14453,-0.0625 0.47904,-0.184803 1.11543,-0.278984 1.73633,-0.271484 0.62061,0.0075 1.22946,0.118643 1.64844,0.308594 0.79114,0.358673 1.31067,0.837155 2.89843,2.708984 0.64768,0.763563 1.782,1.897352 2.56446,2.564453 1.34359,1.145497 2.11652,1.887635 2.53515,2.527344 0.33569,0.512993 0.46197,0.970198 0.50391,1.587891 0.0048,-0.08228 0.02197,-0.180379 0.02148,-0.253907 -0.006,-0.891431 -0.10679,-1.43256 -0.52539,-2.072265 -0.41863,-0.63971 -1.19156,-1.381847 -2.53515,-2.527344 -0.78246,-0.667101 -1.91678,-1.80089 -2.56446,-2.564453 -1.58776,-1.871829 -2.10729,-2.350311 -2.89843,-2.708985 -0.41898,-0.18995 -1.02783,-0.301084 -1.64844,-0.308593 z m -2.1875,0.464843 c -3.2e-4,-9.38e-4 -0.0097,-0.0241 -0.0098,-0.02344 -2.7e-4,0.007 -0.03046,0.04445 0.0098,0.02344 z m 52.40625,-0.464843 c -0.6206,0.0075 -1.22946,0.118644 -1.64844,0.308593 -0.79133,0.358754 -1.31272,0.837258 -2.90039,2.708985 -0.64747,0.763301 -1.77982,1.897168 -2.5625,2.564453 -1.92095,1.63773 -2.39057,2.146634 -2.75,2.939453 -0.23482,0.517956 -0.31659,1.317007 -0.27148,2.082031 0.03273,-0.508839 0.11339,-0.995056 0.27148,-1.34375 0.35943,-0.792819 0.82905,-1.301722 2.75,-2.939453 0.78268,-0.667285 1.91503,-1.801152 2.5625,-2.564453 1.58767,-1.871727 2.10906,-2.350231 2.90039,-2.708984 0.41898,-0.18995 1.02784,-0.301094 1.64844,-0.308594 0.6209,-0.0075 1.25729,0.08668 1.73633,0.271484 0.07139,0.02755 0.08533,0.03926 0.14257,0.0625 0.06604,-0.113984 0.16276,-0.271558 0.20508,-0.353515 0.08528,-0.165237 0.09819,-0.243707 0.10156,-0.253907 -0.0033,-0.0019 3.6e-4,6.74e-4 -0.0039,-0.002 -0.0644,-0.03968 -0.223,-0.105641 -0.44531,-0.191406 -0.47904,-0.184804 -1.11543,-0.278998 -1.73633,-0.271484 z m 2.18554,0.464843 c 0.04663,0.02611 0.01003,-0.01634 0.0098,-0.02344 -2e-5,-6.48e-4 -0.0095,0.02249 -0.0098,0.02344 z m -27.54101,11.751954 c -2.53957,0.01125 -3.853,0.02076 -4.59961,0.07031 -0.74661,0.04955 -0.8813,0.115428 -1.24805,0.292969 -0.39115,0.189355 -0.91245,0.607633 -1.34765,1.070312 -0.4352,0.462681 -0.78967,0.985056 -0.89258,1.296875 -0.044,0.133576 -0.07255,0.260323 -0.08985,0.355469 0.0265,0.01357 0.007,0.0027 0.04297,0.01563 0.05102,0.01821 0.14433,0.04181 0.21289,0.0625 0.16419,-0.298742 0.40341,-0.648629 0.72657,-0.992187 0.4352,-0.46268 0.9565,-0.880958 1.34765,-1.070313 0.36675,-0.177541 0.50144,-0.243419 1.24805,-0.292969 0.74661,-0.04955 2.06004,-0.05906 4.59961,-0.07031 2.99023,-0.01324 4.56425,-0.0046 5.49609,0.136719 0.93183,0.14136 1.21039,0.36824 1.82617,0.921875 0.40879,0.367539 0.80768,0.904795 1.0586,1.363281 0.06411,-0.01757 0.14501,-0.03781 0.19336,-0.05273 0.0494,-0.01526 0.04336,-0.0119 0.07226,-0.02344 -0.001,-0.0185 2.3e-4,-0.01866 -0.0059,-0.04687 -0.0277,-0.13141 -0.1117,-0.345201 -0.23632,-0.578125 -0.24923,-0.465848 -0.66274,-1.023402 -1.08204,-1.400391 -0.61578,-0.553634 -0.89434,-0.780514 -1.82617,-0.921875 -0.93184,-0.141361 -2.50586,-0.149959 -5.49609,-0.136718 z"
     sodipodi:nodetypes="ssssscscsssssscccssssscccsccssscccssscccccscccsscccscsssccccssccccscsscccsccccccscccscsssscsssccscsscsscccscsscccsssssscccsssccccccsssscssssssccccscccsccsssccccsssscscsccssscc" /><path
     id="path356-1"
     style="display:inline;fill:#37595d;stroke-width:0.163096"
     d="m 48.207031,16.240234 c -1.608664,-0.01709 -3.187989,0.03439 -4.132812,0.171875 -0.840929,0.122369 -1.959414,0.330211 -2.902344,0.529297 -0.471465,0.09954 -0.899099,0.198372 -1.226563,0.28125 -0.163731,0.04144 -0.300742,0.07819 -0.408203,0.111328 -0.107461,0.03314 -0.17976,0.05851 -0.230468,0.08984 -0.05394,0.03333 -0.100764,0.07871 -0.125,0.140625 -0.02424,0.06192 -0.02612,0.133515 -0.01172,0.214844 0.02881,0.162657 0.118644,0.379723 0.279297,0.722656 0.481304,1.027405 1.710375,2.193873 2.658203,2.509766 0.264522,0.08816 0.75641,0.139452 1.693359,0.171875 0.936949,0.03242 2.315407,0.04281 4.330078,0.03906 2.607867,-0.0049 3.949752,-0.0093 4.738282,-0.05859 0.788529,-0.04926 1.036106,-0.14904 1.410156,-0.330078 0.467874,-0.226448 1.004972,-0.66836 1.464844,-1.158203 0.459871,-0.489843 0.839478,-1.0221 0.980468,-1.449219 0.05339,-0.161914 0.09282,-0.318055 0.113282,-0.443359 0.01023,-0.06265 0.01592,-0.117536 0.01563,-0.164062 -2.94e-4,-0.04653 0.0075,-0.08821 -0.03906,-0.134766 -0.0463,-0.04629 -0.102468,-0.06352 -0.189453,-0.0957 -0.08698,-0.03218 -0.20097,-0.06846 -0.337891,-0.107422 -0.273841,-0.07793 -0.639701,-0.168377 -1.054687,-0.261719 -0.829972,-0.186683 -1.85626,-0.384916 -2.734375,-0.517578 -1.047439,-0.158245 -2.682343,-0.244623 -4.291016,-0.261719 z m -0.0059,0.482422 c 1.59781,0.01689 3.224471,0.106712 4.224609,0.257813 0.862714,0.130334 1.88297,0.325778 2.701172,0.509765 0.409135,0.092 0.76997,0.182078 1.029297,0.25586 0.07676,0.02183 0.1266,0.03895 0.179688,0.05664 -0.01716,0.0818 -0.03456,0.550942 -0.06836,0.653451 -0.09468,0.286813 -0.445759,0.812443 -0.875,1.269531 -0.429581,0.457458 -0.952746,0.875903 -1.326172,1.056641 -0.365818,0.177052 -0.470832,0.233933 -1.228515,0.28125 -0.756192,0.04723 -2.099495,0.05372 -4.707032,0.05859 -2.012493,0.0037 -3.388193,-0.0071 -4.3125,-0.03906 -0.461841,-0.01597 -0.813652,-0.04171 -1.070312,-0.06836 -0.256661,-0.02665 -0.42015,-0.05607 -0.486328,-0.07812 -0.356519,-0.118822 -0.855671,-0.46761 -1.308594,-0.894532 -0.452923,-0.426922 -0.863249,-0.933791 -1.064453,-1.363281 -0.128748,-0.274835 -0.175927,-0.796016 -0.201172,-0.883919 0.09445,-0.02898 0.221711,-0.06619 0.376953,-0.105469 0.317409,-0.08031 0.739927,-0.174839 1.207031,-0.273437 0.93412,-0.197176 2.049242,-0.405514 2.873047,-0.525391 0.88609,-0.12894 2.458812,-0.184856 4.056641,-0.167969 z m -15.583984,3.544922 c -0.204345,0.0048 -0.428167,0.141455 -0.78711,0.345703 -2.399201,1.365213 -5.303765,3.755458 -7.501953,6.173828 -0.89064,0.979855 -1.970048,2.396144 -2.796875,3.603516 -0.413413,0.603686 -0.764351,1.155254 -0.996094,1.574219 -0.115871,0.209482 -0.201247,0.384402 -0.251953,0.521484 -0.02535,0.06854 -0.04281,0.12706 -0.04883,0.179688 -0.006,0.05263 -0.0052,0.110013 0.03906,0.154296 0.03477,0.03476 0.06942,0.04764 0.126953,0.07617 0.05754,0.02853 0.133061,0.06235 0.220703,0.09961 0.175283,0.07451 0.400903,0.163182 0.638672,0.248047 1.611664,0.575233 3.56045,0.150905 4.77539,-1.041016 0.319913,-0.313847 1.105849,-1.186956 1.75586,-1.949219 0.644579,-0.755893 1.782719,-1.894362 2.517578,-2.517578 0.741645,-0.628962 1.596301,-1.394925 1.910156,-1.714844 1.143353,-1.165458 1.582401,-2.931633 1.117188,-4.496093 -0.130188,-0.437826 -0.221779,-0.740125 -0.320313,-0.94336 -0.04927,-0.101617 -0.100253,-0.179284 -0.166016,-0.234375 -0.06576,-0.05509 -0.147443,-0.08209 -0.232421,-0.08008 z m 30.771484,0 c -0.129621,-0.0032 -0.236148,0.06565 -0.310547,0.173828 -0.0744,0.10818 -0.133969,0.254945 -0.210937,0.447266 -0.902081,2.254078 -0.240461,4.351034 1.888671,6.023437 1.247655,0.980013 3.331873,3.064205 4.306641,4.304688 0.873214,1.111239 1.717161,1.753305 2.755859,2.091797 0.891186,0.290416 2.28643,0.211986 3.257813,-0.179688 0.198813,-0.08017 0.349753,-0.141607 0.460937,-0.216797 0.111184,-0.07519 0.183034,-0.182012 0.181641,-0.3125 C 75.717309,32.469122 75.660379,32.324841 75.5566,32.125 75.452821,31.925159 75.300614,31.670297 75.097615,31.332031 72.837127,27.565284 68.424723,23.155238 64.652303,20.890625 64.315315,20.688327 64.06059,20.53567 63.861287,20.431641 63.661984,20.327611 63.518246,20.270765 63.388631,20.267578 Z m -30.822266,0.50586 c 0.01712,0.02927 0.03461,0.06042 0.05859,0.121093 0.06332,0.160157 0.142096,0.421762 0.246094,0.771485 0.412966,1.388766 0.01708,3.329016 -0.998047,4.363763 -0.275865,0.281197 -1.143613,1.061673 -1.876953,1.683594 -0.768114,0.651422 -1.903105,1.787202 -2.574219,2.574218 -0.643273,0.75436 -1.443269,1.640006 -1.724609,1.916016 -1.070042,1.049764 -2.850741,1.43943 -4.273438,0.93164 -0.228995,-0.08173 -0.449169,-0.213122 -0.613281,-0.282871 -0.0082,-0.0035 -0.01251,-0.0012 -0.01953,-0.0041 0.04009,-0.09269 0.08561,-0.500249 0.167968,-0.649092 0.218767,-0.395405 0.562958,-0.939902 0.970704,-1.535157 0.815566,-1.190634 1.890606,-2.60081 2.755859,-3.552734 2.162108,-2.378677 5.049024,-4.750133 7.382812,-6.078125 0.234153,-0.133239 0.407781,-0.224859 0.498047,-0.259765 z m 30.88086,0.01172 c 0.03556,0.0093 0.06893,0.01328 0.189453,0.07617 0.176455,0.09207 0.428797,0.24311 0.765625,0.445313 3.67694,2.207294 8.07637,6.604534 10.279297,10.27539 0.202851,0.338015 0.353695,0.591186 0.445312,0.767578 0.06354,0.122329 0.06721,0.482697 0.07617,0.516936 -0.05525,0.02941 -0.143525,0.11132 -0.306641,0.177102 -0.838465,0.338079 -2.208343,0.405671 -2.925781,0.171875 -0.941911,-0.306946 -1.691261,-0.867658 -2.527344,-1.93164 -1.01852,-1.296159 -3.085674,-3.363238 -4.388671,-4.386719 -1.007811,-0.791629 -1.647582,-1.638682 -1.933594,-2.544922 -0.286012,-0.90624 -0.220128,-2.240899 0.197265,-3.283882 0.06057,-0.151339 0.100334,-0.229647 0.128907,-0.283203 z M 48.451172,30.886719 c -5.868953,-0.145733 -11.458344,2.74392 -14.759766,7.708984 -2.695648,4.054013 -3.508586,9.385467 -2.148437,14.078125 1.935697,6.678338 7.871285,11.672377 14.65625,12.330078 1.090109,0.180922 2.300656,0.104822 3.308635,0.01368 9.501304,-0.900831 16.409199,-9.21027 15.51949,-18.664065 C 64.2628,38.229658 57.752419,31.721422 49.626953,30.957031 c -0.393046,-0.03697 -0.784406,-0.06059 -1.175781,-0.07031 z m -0.01367,0.482422 c 0.380152,0.0093 0.760466,0.03241 1.142578,0.06836 7.894393,0.742654 14.224001,7.070103 14.966797,14.962891 0.865356,9.195086 -5.840771,17.26018 -15.085937,18.136718 -1.061356,0.172503 -2.219826,0.08607 -3.214874,-0.01368 -6.57765,-0.637603 -12.358268,-5.496243 -14.238282,-11.982422 -1.31845,-4.548805 -0.524172,-9.751381 2.087891,-13.679688 2.996013,-4.505746 7.924365,-7.249652 13.205078,-7.480469 0.377289,-0.0165 0.756561,-0.02093 1.136719,-0.01172 z m -30.802734,7.757812 c -0.04616,2.05e-4 -0.08583,-0.008 -0.132813,0.03906 -0.03794,0.03793 -0.05418,0.08075 -0.08008,0.144531 -0.0259,0.06378 -0.05327,0.145564 -0.08398,0.244141 -0.06143,0.197152 -0.132294,0.460597 -0.207032,0.765624 -0.149475,0.610056 -0.314758,1.38758 -0.445312,2.13086 -0.770544,4.387034 -0.560088,9.494506 0.564453,13.669922 0.05213,0.19355 0.117161,0.368658 0.183594,0.5 0.03322,0.06567 0.06671,0.119877 0.101562,0.162109 0.03485,0.04223 0.07065,0.08203 0.138672,0.08203 0.137569,0 0.308541,-0.05878 0.513672,-0.154296 0.205131,-0.09551 0.441147,-0.228946 0.679688,-0.382813 0.47708,-0.307735 0.968628,-0.697023 1.271484,-1.041016 0.538098,-0.611216 0.835065,-1.033267 0.980469,-2.027343 0.145404,-0.994077 0.149869,-2.563849 0.136718,-5.527344 -0.01125,-2.539361 -0.01891,-3.848943 -0.07031,-4.623047 -0.0514,-0.774104 -0.152113,-1.024769 -0.333985,-1.400391 -0.227478,-0.469821 -0.670324,-1.007981 -1.160156,-1.46875 -0.489832,-0.460768 -1.021158,-0.841178 -1.449218,-0.982422 -0.161758,-0.05339 -0.318455,-0.09448 -0.44336,-0.115234 -0.06244,-0.01037 -0.117903,-0.01583 -0.164062,-0.01563 z m 60.738281,0.04102 c -0.136909,-0.0229 -0.304962,0.01293 -0.5,0.08398 -0.195038,0.07105 -0.415129,0.180193 -0.644531,0.316406 -0.458805,0.272427 -0.951064,0.654065 -1.31836,1.0625 -0.564025,0.627215 -0.87179,1.043521 -1.021484,2.03711 -0.149694,0.993588 -0.151717,2.566407 -0.134766,5.55664 0.01658,2.927463 0.02272,4.39379 0.177735,5.302735 0.155017,0.908945 0.46909,1.258698 1.0625,1.902344 0.378783,0.410843 0.986563,0.892756 1.380859,1.08789 0.190261,0.09416 0.385953,0.179436 0.548828,0.242188 0.08144,0.03138 0.153362,0.05796 0.214844,0.07617 0.06148,0.01821 0.108539,0.02927 0.154297,0.0293 0.0652,4.3e-5 0.13607,-0.03276 0.1875,-0.09766 0.05143,-0.0649 0.09528,-0.157765 0.146484,-0.300781 0.102418,-0.286032 0.231996,-0.775364 0.443359,-1.617188 0.645946,-2.572619 0.90191,-8.058957 0.503907,-10.792968 -0.122392,-0.840722 -0.330712,-1.958884 -0.529297,-2.902344 -0.09929,-0.47173 -0.196606,-0.898891 -0.279297,-1.226563 -0.04135,-0.163835 -0.07824,-0.302632 -0.111328,-0.410156 -0.03308,-0.107524 -0.05847,-0.179707 -0.08984,-0.230469 -0.04158,-0.06727 -0.113011,-0.106039 -0.191406,-0.11914 z m -60.554688,0.478515 c 0.08182,0.01731 0.168812,0.03448 0.271485,0.06836 0.287709,0.09493 0.814333,0.447042 1.271484,0.876953 0.457489,0.430227 0.874437,0.953768 1.056641,1.330078 0.177611,0.366823 0.467323,0.477708 0.516649,1.220703 0.04923,0.741532 0.08047,2.05281 0.09172,4.591797 0.01314,2.961987 -0.02121,4.776222 -0.156126,5.698414 -0.135282,0.924568 -0.606867,1.403577 -1.133168,2.001389 -0.248782,0.28257 -0.818067,0.663937 -1.265792,0.953125 -0.224115,0.144751 -0.442714,0.269279 -0.619141,0.351562 -0.0797,0.03717 -0.109068,0.04087 -0.148437,0.05078 -0.03996,-0.08959 -0.08342,-0.195511 -0.119141,-0.328125 -1.102669,-4.09419 -1.179284,-9.617271 -0.422423,-13.926366 0.128503,-0.731617 0.291105,-1.502294 0.4375,-2.099609 0.07315,-0.29848 0.144618,-0.554882 0.201172,-0.736328 0.0071,-0.02265 0.01172,-0.0359 0.01758,-0.05273 z m 60.373047,0.01758 c 0.02881,0.09391 0.06571,0.223347 0.105469,0.38086 0.08016,0.317554 0.175064,0.741737 0.273437,1.208984 0.196755,0.934497 0.405473,2.049292 0.525391,2.873047 0.380178,2.611565 0.35672,8.53753 -0.256476,10.979725 -0.21072,0.839259 -0.343019,1.329886 -0.429687,1.572265 -0.0069,0.01933 -0.245665,0.01792 -0.249385,0.02734 -0.02023,-0.0069 -0.03785,-0.01199 -0.0625,-0.02148 -0.146041,-0.05625 -0.331155,-0.135232 -0.507812,-0.222656 -0.279565,-0.138354 -0.909717,-0.624098 -1.238282,-0.980469 -0.593925,-0.644211 -0.989766,-0.830272 -1.130947,-1.658203 -0.140682,-0.825009 -0.163644,-2.673444 -0.180224,-5.600819 -0.01695,-2.988864 0.188337,-4.561456 0.326797,-5.480468 0.138809,-0.921454 0.348403,-1.171118 0.902343,-1.78711 0.36932,-0.41069 0.923156,-0.823088 1.38086,-1.068359 0.220016,-0.117905 0.420286,-0.194484 0.541016,-0.222657 z M 22.894531,62.505859 c -0.665069,-0.008 -1.342354,0.09006 -1.888672,0.300782 -0.221861,0.08558 -0.388561,0.148885 -0.511718,0.224609 -0.123158,0.07572 -0.206087,0.181211 -0.210938,0.314453 -0.0049,0.133242 0.05198,0.278735 0.15625,0.480469 0.104273,0.201734 0.258695,0.459469 0.464844,0.802734 2.30847,3.843926 6.748926,8.253028 10.607422,10.535156 0.283186,0.167493 0.553926,0.318808 0.761719,0.429688 0.103896,0.05544 0.192175,0.100992 0.259765,0.132812 0.03379,0.01591 0.06198,0.02785 0.08594,0.03711 0.02395,0.0093 0.03543,0.01758 0.07227,0.01758 0.07293,0 0.124762,-0.0453 0.169922,-0.09961 0.04516,-0.05431 0.08751,-0.124078 0.128906,-0.210938 0.0828,-0.17372 0.162425,-0.41103 0.234375,-0.677734 0.143902,-0.53341 0.25163,-1.186899 0.248047,-1.697266 -0.0061,-0.925653 -0.128042,-1.586594 -0.591797,-2.294922 -0.463754,-0.708327 -1.260653,-1.463928 -2.611328,-2.615234 -0.756018,-0.644432 -1.892254,-1.780871 -2.515625,-2.515625 -1.594522,-1.879444 -2.186571,-2.42929 -3.044922,-2.81836 -0.495823,-0.22474 -1.149473,-0.337659 -1.814453,-0.345703 z m 50.210938,0 c -0.664989,0.008 -1.316763,0.120998 -1.8125,0.345703 -0.858372,0.38907 -1.45038,0.938916 -3.044922,2.81836 -0.623371,0.734753 -1.759597,1.871194 -2.515625,2.515625 -1.928468,1.643808 -2.468151,2.223573 -2.857422,3.082031 -0.44948,0.991355 -0.468473,2.608552 -0.04687,3.701172 0.08559,0.221829 0.148778,0.388573 0.224609,0.511719 0.07583,0.123146 0.181095,0.206093 0.314454,0.210937 0.133358,0.0048 0.28045,-0.052 0.482421,-0.15625 0.201972,-0.104248 0.45916,-0.258743 0.802735,-0.464844 3.767471,-2.26001 8.180222,-6.66972 10.445312,-10.441406 0.206164,-0.343277 0.360741,-0.600973 0.464844,-0.802734 0.104103,-0.201761 0.161408,-0.347196 0.15625,-0.480469 -0.0052,-0.133272 -0.08958,-0.238759 -0.212891,-0.314453 -0.123313,-0.07569 -0.289858,-0.139036 -0.511718,-0.224609 -0.546324,-0.210714 -1.223597,-0.308827 -1.888672,-0.300782 z m -50.214844,0.482422 c 0.612496,0.0074 1.212268,0.121149 1.617187,0.304688 0.779976,0.353537 1.29032,0.819326 2.876954,2.689453 0.651489,0.767895 1.785102,1.901301 2.572265,2.572266 1.342244,1.144123 2.107109,1.885 2.517578,2.511718 0.411421,0.628171 0.662788,1.638597 0.668649,2.524662 0.0031,0.437541 -0.09886,1.074901 -0.232422,1.570313 -0.06023,0.223377 -0.127715,0.403809 -0.185546,0.535156 -0.02235,-0.01186 -0.04048,-0.02119 -0.07031,-0.03711 -0.199019,-0.106169 -0.80945,-0.41534 -1.087202,-0.579615 -3.762844,-2.225565 -8.341227,-6.952259 -10.592479,-10.700907 -0.206273,-0.343472 -0.383336,-0.599004 -0.47452,-0.77539 -0.04179,-0.08084 -0.06478,-0.14034 -0.07813,-0.179688 0.06488,-0.03419 0.560308,-0.194289 0.75899,-0.270921 0.46775,-0.180411 1.096829,-0.172032 1.708984,-0.164626 z m 50.21875,0 c 0.612157,-0.0074 1.241225,0.09107 1.708984,0.271485 0.199917,0.0771 0.328082,0.13183 0.392579,0.166015 -0.01338,0.03901 -0.0364,0.377024 -0.07813,0.457879 -0.09092,0.176189 -0.24491,0.610474 -0.451171,0.953911 -2.207671,3.676102 -6.607647,7.996064 -10.279297,10.198591 -0.343628,0.206136 -0.598465,0.357897 -0.775391,0.449219 -0.08094,0.04177 -0.139988,0.06479 -0.179687,0.07813 -6.1e-5,-1.16e-4 -0.0019,1.16e-4 -0.002,0 -0.03414,-0.06476 -0.08743,-0.192012 -0.164062,-0.390625 -0.359775,-0.932389 -0.331273,-2.895926 0.03516,-3.704131 0.177254,-0.390889 0.377337,-0.705996 0.775391,-1.132812 0.398054,-0.426817 0.993207,-0.963018 1.953125,-1.78125 0.787162,-0.670966 1.920787,-1.804371 2.572266,-2.572266 1.586643,-1.870128 2.096977,-2.335916 2.876953,-2.689453 0.405302,-0.183715 1.002726,-0.297279 1.615234,-0.304688 z m -52.829302,0.451172 c 0,-0.0065 0.02927,0.01282 0.03516,0.01563 -0.0072,-0.0016 -0.01569,-0.0039 -0.01563,-0.0039 1.02e-4,4.1e-5 -0.01953,-0.01162 -0.01953,-0.01172 z m 0.06641,0.01563 c -0.0013,6.51e-4 -0.01693,0.002 -0.02344,0.002 0.0046,-2.51e-4 0.01536,-0.0014 0.02344,-0.002 z M 47.75391,74.720708 c -2.539858,0.01125 -3.850579,0.01744 -4.625,0.06836 -0.77442,0.05092 -1.024636,0.15212 -1.40039,0.333985 -0.469949,0.227452 -1.009483,0.66981 -1.470704,1.160156 -0.46122,0.490347 -0.841135,1.023171 -0.982421,1.451172 -0.05322,0.161791 -0.09248,0.318981 -0.113282,0.443359 -0.0104,0.06219 -0.01755,0.116123 -0.01758,0.16211 -3.1e-5,0.04599 -0.0081,0.08563 0.03906,0.132812 0.06136,0.06135 0.156886,0.09841 0.296875,0.148438 0.139988,0.05003 0.322036,0.10391 0.539062,0.160156 0.434052,0.112492 1.005079,0.234298 1.640625,0.353516 1.271093,0.238436 2.796332,0.462832 3.96875,0.558593 1.771881,0.144724 4.340198,0.07464 6.296875,-0.169921 0.762164,-0.09526 1.872507,-0.292864 2.832031,-0.490235 0.479763,-0.09869 0.922285,-0.197613 1.263672,-0.283203 0.170694,-0.04279 0.316144,-0.08214 0.429688,-0.117188 0.113544,-0.03505 0.190575,-0.0626 0.24414,-0.0957 0.06703,-0.04142 0.106025,-0.113229 0.119141,-0.191406 0.01312,-0.07818 0.005,-0.166048 -0.01563,-0.263672 -0.04124,-0.195248 -0.138846,-0.430568 -0.27539,-0.685547 -0.273089,-0.509958 -0.703033,-1.092022 -1.169922,-1.511718 -0.626443,-0.563109 -1.044138,-0.872478 -2.039063,-1.023438 -0.994925,-0.15096 -2.569182,-0.153868 -5.560547,-0.140625 z m 0.002,0.482422 c 2.989978,-0.01324 4.565911,-0.0029 5.486329,0.136719 0.922839,0.139969 1.173929,0.351359 1.789062,0.904297 0.410765,0.369237 0.821566,0.921803 1.066406,1.378906 0.118149,0.220568 0.19492,0.780863 0.222656,0.901027 -0.0055,0.0017 -0.0033,0.0013 -0.01172,0.0039 -0.09976,0.03078 -0.240732,0.06984 -0.40625,0.111328 -0.33093,0.08295 -0.765407,0.179698 -1.240235,0.277344 -0.949857,0.195334 -2.059339,0.394146 -2.796875,0.486328 -1.916036,0.239477 -4.476183,0.308544 -6.197265,0.167969 -1.145234,-0.09353 -2.661854,-0.317157 -3.918018,-0.552734 -0.627986,-0.117769 -1.192475,-0.239631 -1.609375,-0.347656 -0.201128,-0.05212 -0.363868,-0.09975 -0.480469,-0.140625 0.01732,-0.08466 0.0368,-0.177326 0.07227,-0.285156 0.09492,-0.287562 0.446462,-1.171995 0.876953,-1.629543 0.430849,-0.457929 0.955835,-0.876517 1.332031,-1.058593 0.366763,-0.177511 0.477527,-0.236311 1.220703,-0.285157 0.741736,-0.04875 2.054196,-0.05711 4.59375,-0.06836 z m 15.720703,0.436552 c 6.52e-4,0.0013 0.002,0.01693 0.002,0.02344 -2.53e-4,-0.0046 -0.0014,-0.01536 -0.002,-0.02344 z m 0,0.03125 c -0.0013,0.0052 -0.01172,0.02864 -0.01562,0.03516 0.0029,-0.0058 0.01283,-0.02928 0.01562,-0.03516 z"
     sodipodi:nodetypes="ssssssscsssccsscsssssssssssssccssscsscsscssssscsssssccscsssscsssccsscssssssssssscccsssssccccssccsscssccssssssssssccssssscscccssssccscscsssssscscssscsccsssssssssssssssssssssssssssccsssccsscsscsssssccsssccsscssscssssscsssscsssssssssscsscsssscssssssssscscccsscssssscscssccccsscssssccsscccsssscsscsssssssssscsssssssssccssssssccssssscccccc" /><g
     id="g14461"><path
       id="rect2419-9"
       style="fill:url(#linearGradient14832);fill-opacity:1;fill-rule:nonzero;stroke:none"
       d="M 12,6 C 8.676,6 6,8.676003 6,12 v 72 c 0,3.323996 2.676,6 6,6 h 72 c 3.324,0 6,-2.676004 6,-6 V 12 C 90,8.676003 87.324,6 84,6 Z m 36.21094,10.310547 c 1.60637,0.01707 3.23965,0.106573 4.27929,0.263671 1.75117,0.264614 4.10417,0.793613 4.27149,0.960938 0.046,0.04602 -0.0029,0.343258 -0.10742,0.660156 -0.26727,0.809835 -1.50096,2.124257 -2.40625,2.5625 -0.74484,0.36057 -0.89765,0.371105 -6.11329,0.38086 -4.02862,0.0075 -5.5097,-0.04425 -5.99804,-0.207032 -0.91058,-0.303535 -2.1426,-1.467987 -2.61133,-2.46875 -0.31984,-0.682876 -0.3522,-0.868277 -0.17383,-0.978515 0.26835,-0.165849 3.06202,-0.756029 4.73828,-1 0.93516,-0.136107 2.51472,-0.190903 4.1211,-0.173828 z m -15.58789,4.029296 c 0.27557,-0.0065 0.38033,0.327581 0.64062,1.203125 0.45669,1.536104 0.02477,3.273608 -1.09765,4.417969 -0.30766,0.313667 -1.16396,1.082955 -1.9043,1.710938 -0.74033,0.627981 -1.87842,1.766195 -2.52735,2.527343 -0.64892,0.761149 -1.43633,1.635574 -1.75,1.94336 -1.19135,1.169023 -3.11245,1.587809 -4.69335,1.023437 -0.47275,-0.168768 -0.90301,-0.352227 -0.95704,-0.40625 -0.25962,-0.259621 2.28365,-3.972838 4.05664,-5.923828 2.1923,-2.412377 5.09388,-4.800735 7.48243,-6.160156 0.35887,-0.204254 0.58465,-0.332015 0.75,-0.335938 z m 30.76757,0 c 0.2104,0.0052 0.55067,0.208626 1.22461,0.613282 3.75686,2.255725 8.16686,6.664142 10.41797,10.416015 0.81192,1.353224 0.81239,1.361078 0.01758,1.681641 -0.95004,0.383145 -2.33979,0.461086 -3.20312,0.179687 -1.02278,-0.33337 -1.85164,-0.9627 -2.71875,-2.066406 -0.98195,-1.249873 -3.06356,-3.330997 -4.32032,-4.318359 -2.1104,-1.658031 -2.75427,-3.706782 -1.86328,-5.933594 0.15377,-0.384301 0.23492,-0.577439 0.44531,-0.572266 z m -14.9375,10.621094 c 0.38946,0.0097 0.77857,0.03349 1.16993,0.07031 8.08772,0.760993 14.56909,7.242352 15.33007,15.330078 0.88573,9.413399 -5.98973,17.683039 -15.44921,18.580078 -0.95881,0.09092 -1.78132,0.154627 -1.82618,0.142578 -0.0448,-0.01205 -0.70424,-0.08232 -1.46679,-0.15625 -6.75111,-0.654549 -12.6613,-5.627106 -14.58789,-12.275391 -1.35335,-4.670106 -0.54333,-9.98133 2.13867,-14.015625 3.28649,-4.943586 8.84961,-7.820868 14.6914,-7.675781 z M 17.78906,39.21875 c 0.11911,0.01979 0.27319,0.05902 0.43164,0.111328 0.81154,0.267831 2.12412,1.502473 2.56446,2.412109 0.36209,0.747978 0.37398,0.91061 0.39648,5.990234 0.0263,5.927704 -0.0257,6.284088 -1.09766,7.501954 -0.58829,0.668331 -1.96054,1.554687 -2.40625,1.554687 -0.0892,0 -0.24587,-0.309522 -0.34765,-0.6875 -1.12097,-4.162994 -1.33081,-9.26348 -0.5625,-13.638672 0.26044,-1.483054 0.6573,-3.104564 0.79492,-3.242187 0.02225,-0.02226 0.10746,-0.02174 0.22656,-0.002 z m 60.57422,0.02539 c 0.06331,0.01059 0.11112,0.03745 0.13867,0.08203 0.16584,0.268349 0.75407,3.063975 0.99805,4.740235 0.39511,2.714681 0.13868,8.211709 -0.50195,10.763672 -0.42253,1.683157 -0.52033,1.959102 -0.70118,1.958984 -0.10868,-7e-5 -0.50471,-0.15365 -0.88085,-0.339844 -0.37616,-0.186195 -0.98857,-0.668035 -1.35938,-1.070312 -1.18669,-1.287409 -1.18754,-1.298203 -1.2207,-7.154297 -0.0339,-5.981246 0.01229,-6.292327 1.13672,-7.542969 0.72028,-0.801128 1.94747,-1.511649 2.39062,-1.437499 z M 22.89844,62.585937 c 0.65647,0.0079 1.30015,0.121733 1.78125,0.339844 0.8455,0.383312 1.42435,0.920554 3.01757,2.798828 0.62798,0.740336 1.76425,1.876463 2.5254,2.525391 2.69863,2.300764 3.16361,3.011127 3.17578,4.849609 0.007,0.997368 -0.42771,2.609375 -0.70313,2.609375 -0.0619,0 -0.57405,-0.273407 -1.13867,-0.607422 -3.84292,-2.273373 -8.28094,-6.682559 -10.58008,-10.511719 -0.82468,-1.373477 -0.82535,-1.364501 0.0625,-1.707031 0.53355,-0.205834 1.2029,-0.304818 1.85938,-0.296875 z m 50.21093,0 c 0.65648,-0.0079 1.32583,0.09104 1.85938,0.296875 0.88789,0.34253 0.88917,0.333554 0.06445,1.707031 -2.25572,3.756855 -6.6661,8.166865 -10.41797,10.417969 -1.37442,0.824648 -1.36646,0.825367 -1.70898,-0.0625 -0.41167,-1.067104 -0.39125,-2.678431 0.04492,-3.640625 0.38354,-0.845989 0.9089,-1.411767 2.83594,-3.054687 0.76114,-0.648928 1.89741,-1.785056 2.52539,-2.525391 1.59323,-1.878274 2.17208,-2.415516 3.01758,-2.798828 0.48109,-0.21811 1.12282,-0.331901 1.77929,-0.339844 z m -25.35156,12.21875 c 5.9823,-0.02649 6.29809,0.02176 7.54688,1.144531 0.91558,0.823181 1.71013,2.306939 1.35351,2.527344 -0.2967,0.183371 -3.22197,0.785055 -4.73828,0.974609 -1.95007,0.243778 -4.51765,0.313998 -6.28125,0.169922 -2.33595,-0.190834 -6.09067,-0.895353 -6.39453,-1.199218 -0.0445,-0.04452 0.0052,-0.339353 0.10938,-0.65625 0.26783,-0.811538 1.50442,-2.126059 2.41406,-2.566407 0.74798,-0.362089 0.91061,-0.372035 5.99023,-0.394531 z" /><path
       d="M 12,6 C 8.676,6 6,8.676 6,12 l 0,2 0,68 0,2 c 0,0.334721 0.04135,0.6507 0.09375,0.96875 0.0487,0.295596 0.09704,0.596915 0.1875,0.875 0.00988,0.03038 0.020892,0.0636 0.03125,0.09375 0.098865,0.287771 0.2348802,0.547452 0.375,0.8125 0.1445918,0.273507 0.3156161,0.535615 0.5,0.78125 0.1843839,0.245635 0.3737765,0.473472 0.59375,0.6875 0.439947,0.428056 0.94291,0.814526 1.5,1.09375 0.278545,0.139612 0.5734731,0.246947 0.875,0.34375 -0.2562018,-0.100222 -0.4867109,-0.236272 -0.71875,-0.375 -0.00741,-0.0044 -0.023866,0.0045 -0.03125,0 -0.031933,-0.0193 -0.062293,-0.04251 -0.09375,-0.0625 -0.120395,-0.0767 -0.2310226,-0.163513 -0.34375,-0.25 -0.1061728,-0.0808 -0.2132809,-0.161112 -0.3125,-0.25 C 8.4783201,88.557317 8.3087904,88.373362 8.15625,88.1875 8.0486711,88.057245 7.9378561,87.922215 7.84375,87.78125 7.818661,87.74287 7.805304,87.69538 7.78125,87.65625 7.716487,87.553218 7.6510225,87.451733 7.59375,87.34375 7.4927417,87.149044 7.3880752,86.928049 7.3125,86.71875 7.30454,86.69694 7.288911,86.6782 7.28125,86.65625 7.2494249,86.5643 7.2454455,86.469419 7.21875,86.375 7.1884177,86.268382 7.1483606,86.171969 7.125,86.0625 7.0521214,85.720988 7,85.364295 7,85 L 7,83 7,15 7,13 C 7,10.218152 9.2181517,8 12,8 l 2,0 68,0 2,0 c 2.781848,0 5,2.218152 5,5 l 0,2 0,68 0,2 c 0,0.364295 -0.05212,0.720988 -0.125,1.0625 -0.04415,0.206893 -0.08838,0.397658 -0.15625,0.59375 -0.0077,0.02195 -0.0233,0.04069 -0.03125,0.0625 -0.06274,0.173739 -0.138383,0.367449 -0.21875,0.53125 -0.04158,0.0828 -0.07904,0.169954 -0.125,0.25 -0.0546,0.09721 -0.126774,0.18835 -0.1875,0.28125 -0.09411,0.140965 -0.204921,0.275995 -0.3125,0.40625 -0.143174,0.17445 -0.303141,0.346998 -0.46875,0.5 -0.01117,0.0102 -0.01998,0.02115 -0.03125,0.03125 -0.138386,0.125556 -0.285091,0.234436 -0.4375,0.34375 -0.102571,0.07315 -0.204318,0.153364 -0.3125,0.21875 -0.0074,0.0045 -0.02384,-0.0044 -0.03125,0 -0.232039,0.138728 -0.462548,0.274778 -0.71875,0.375 0.301527,-0.0968 0.596455,-0.204138 0.875,-0.34375 0.55709,-0.279224 1.060053,-0.665694 1.5,-1.09375 0.219973,-0.214028 0.409366,-0.441865 0.59375,-0.6875 0.184384,-0.245635 0.355408,-0.507743 0.5,-0.78125 0.14012,-0.265048 0.276135,-0.524729 0.375,-0.8125 0.01041,-0.03078 0.02133,-0.06274 0.03125,-0.09375 0.09046,-0.278085 0.1388,-0.579404 0.1875,-0.875 C 89.95865,84.6507 90,84.334721 90,84 l 0,-2 0,-68 0,-2 C 90,8.676 87.324,6 84,6 L 12,6 z"
       inkscape:connector-curvature="0"
       id="rect3728"
       style="opacity:0.8;fill:url(#linearGradient3188);fill-opacity:1;fill-rule:nonzero;stroke:none" /><path
       d="M 12,90 C 8.676,90 6,87.324 6,84 V 82 14 12 c 0,-0.334721 0.04135,-0.6507 0.09375,-0.96875 0.0487,-0.295596 0.09704,-0.596915 0.1875,-0.875 C 6.29113,10.12587 6.302142,10.09265 6.3125,10.0625 6.411365,9.774729 6.5473802,9.515048 6.6875,9.25 6.8320918,8.976493 7.0031161,8.714385 7.1875,8.46875 7.3718839,8.223115 7.5612765,7.995278 7.78125,7.78125 8.221197,7.353194 8.72416,6.966724 9.28125,6.6875 9.559795,6.547888 9.8547231,6.440553 10.15625,6.34375 9.9000482,6.443972 9.6695391,6.580022 9.4375,6.71875 c -0.00741,0.0044 -0.023866,-0.0045 -0.03125,0 -0.031933,0.0193 -0.062293,0.04251 -0.09375,0.0625 -0.120395,0.0767 -0.2310226,0.163513 -0.34375,0.25 -0.1061728,0.0808 -0.2132809,0.161112 -0.3125,0.25 C 8.4783201,7.442683 8.3087904,7.626638 8.15625,7.8125 8.0486711,7.942755 7.9378561,8.077785 7.84375,8.21875 7.818661,8.25713 7.805304,8.30462 7.78125,8.34375 7.716487,8.446782 7.6510225,8.548267 7.59375,8.65625 7.4927417,8.850956 7.3880752,9.071951 7.3125,9.28125 7.30454,9.30306 7.288911,9.3218 7.28125,9.34375 7.2494249,9.4357 7.2454455,9.530581 7.21875,9.625 7.1884177,9.731618 7.1483606,9.828031 7.125,9.9375 7.0521214,10.279012 7,10.635705 7,11 v 2 68 2 c 0,2.781848 2.2181517,5 5,5 h 2 68 2 c 2.781848,0 5,-2.218152 5,-5 V 81 13 11 C 89,10.635705 88.94788,10.279012 88.875,9.9375 88.83085,9.730607 88.78662,9.539842 88.71875,9.34375 88.71105,9.3218 88.69545,9.30306 88.6875,9.28125 88.62476,9.107511 88.549117,8.913801 88.46875,8.75 88.42717,8.6672 88.38971,8.580046 88.34375,8.5 88.28915,8.40279 88.216976,8.31165 88.15625,8.21875 88.06214,8.077785 87.951329,7.942755 87.84375,7.8125 87.700576,7.63805 87.540609,7.465502 87.375,7.3125 87.36383,7.3023 87.35502,7.29135 87.34375,7.28125 87.205364,7.155694 87.058659,7.046814 86.90625,6.9375 86.803679,6.86435 86.701932,6.784136 86.59375,6.71875 c -0.0074,-0.0045 -0.02384,0.0044 -0.03125,0 -0.232039,-0.138728 -0.462548,-0.274778 -0.71875,-0.375 0.301527,0.0968 0.596455,0.204138 0.875,0.34375 0.55709,0.279224 1.060053,0.665694 1.5,1.09375 0.219973,0.214028 0.409366,0.441865 0.59375,0.6875 0.184384,0.245635 0.355408,0.507743 0.5,0.78125 0.14012,0.265048 0.276135,0.524729 0.375,0.8125 0.01041,0.03078 0.02133,0.06274 0.03125,0.09375 0.09046,0.278085 0.1388,0.579404 0.1875,0.875 C 89.95865,11.3493 90,11.665279 90,12 v 2 68 2 c 0,3.324 -2.676,6 -6,6 z"
       inkscape:connector-curvature="0"
       id="path3615"
       style="display:inline;opacity:0.8;fill:url(#radialGradient2903);fill-opacity:1;fill-rule:nonzero;stroke:none" /></g><path
     id="path388-8"
     style="display:inline;mix-blend-mode:normal;fill:#ffffff;fill-opacity:1;stroke-width:0.169268;filter:url(#filter22375)"
     d="m 39.200088,18.270193 c -0.10455,0.02794 -0.21462,0.05641 -0.28516,0.07813 -0.0478,0.01474 -0.0386,0.01034 -0.0664,0.02148 0.0217,0.09026 0.08874,0.277976 0.24023,0.601562 0.43156,0.921383 1.928817,2.940786 2.710657,3.201409 0.16391,0.05464 0.873174,0.234596 1.834404,0.267353 0.96122,0.03276 2.38771,0.041 4.47656,0.03711 2.70606,-0.0051 4.10075,-0.0098 4.89063,-0.05859 0.78987,-0.04885 0.92363,-0.11531 1.30273,-0.298828 0.40321,-0.195194 0.94517,-0.63114 1.39649,-1.111328 0.45132,-0.480189 1.28646,-2.003772 1.39288,-2.326223 0.044,-0.133251 0.07205,-0.258175 0.08985,-0.355469 -0.0701,-0.02409 -0.14698,-0.04909 -0.25586,-0.08008 -0.02526,-0.0072 -0.0726,-0.01795 -0.09961,-0.02539 -0.1588,0.313097 -0.568727,1.358817 -0.928587,1.738824 -0.44456,0.469453 -1.303453,1.222741 -1.700633,1.413571 -0.37343,0.179415 -0.5071,0.247167 -1.28515,0.294922 -0.77806,0.04772 -2.15087,0.05167 -4.81641,0.05664 -2.05757,0.0038 -3.46333,-0.0051 -4.41016,-0.03711 -0.94684,-0.03202 -1.647554,-0.210033 -1.809014,-0.263446 -1.271768,-0.555603 -2.387464,-2.329304 -2.673537,-3.146721 -0.0021,-0.0043 -0.0014,-0.0038 -0.0039,-0.0078 z m -5.878765,6.473271 c 0,0.287264 -0.682567,0.992878 -0.91211,1.421875 -0.193425,0.361495 -1.17294,1.08268 -1.92382,1.714843 -0.78025,0.656878 -1.93899,1.805546 -2.6211,2.59961 -0.65864,0.766749 -1.492131,1.649055 -1.76953,1.951171 -1.035096,1.127323 -2.966092,1.940748 -5.206976,1.038704 -0.21439,-0.0863 -0.441216,-0.231014 -0.605816,-0.298696 -0.10407,0.170157 -0.26269,0.399527 -0.33985,0.539062 -0.10159,0.183744 -0.16597,0.323509 -0.20898,0.429688 0.0312,0.01388 0.05059,0.02332 0.08789,0.03906 0.17247,0.07262 0.424656,0.236544 0.664416,0.322134 1.506,0.537632 4.142206,0.0517 5.275336,-1.060188 0.2983,-0.292706 1.12822,-1.209858 1.79687,-1.994141 0.69247,-0.812221 1.86805,-1.988257 2.66016,-2.660156 0.7623,-0.646619 1.66251,-1.455623 1.95508,-1.753906 0.857256,-0.483119 1.14843,-2.508322 1.14843,-2.289062 z m 29.570732,0.21157 c 0.2058,1.149035 0.90551,2.208904 2.13868,3.177734 1.34379,1.05573 3.49238,3.201823 4.54297,4.539062 0.87329,1.111551 1.66483,1.70615 2.65625,2.029297 0.77404,0.2523 2.660273,0.02202 3.552753,-0.337909 0.19938,-0.0804 0.33299,-0.141394 0.38671,-0.175781 -0.005,-0.02063 -0.02019,-0.103528 -0.10742,-0.271485 -0.0868,-0.16716 -0.23779,-0.417571 -0.41601,-0.714844 -0.06806,0.03499 -0.1429,0.07196 -0.29492,0.132813 -0.87912,0.351885 -2.743413,0.580662 -3.505883,0.334003 -0.97657,-0.315923 -1.75699,-0.897674 -2.61719,-1.984375 -1.03488,-1.307345 -3.14899,-3.405372 -4.47265,-4.4375 -0.91467,-0.713216 -1.52362,-1.478356 -1.86329,-2.291015 z M 16.990161,39.90769 c -0.03,0.03 -0.02422,0.06942 -0.04102,0.123047 -0.0596,0.190367 -0.13254,0.456901 -0.20898,0.767578 -0.15287,0.621357 -0.3234,1.422577 -0.45704,2.183594 -0.78752,4.484661 -0.788635,11.366374 0.359025,15.628471 0.0448,0.166321 0.10348,0.313308 0.15234,0.414063 0.0641,-0.01733 0.10551,-0.0236 0.22657,-0.08008 0.1879,-0.08765 0.41769,-0.217549 0.65234,-0.369141 0.4693,-0.303185 0.96519,-0.702274 1.23242,-1.005859 0.54706,-0.621507 1.04555,-0.908406 1.18723,-1.87643 0.0139,-0.09494 0.04505,-0.223118 0.05651,-0.331543 -0.13216,0.215023 -0.346645,0.403253 -0.574045,0.659668 -0.26324,0.296799 -1.011901,0.806227 -1.474171,1.102634 -0.23114,0.148203 -0.442069,0.158809 -0.627159,0.244499 -0.11925,0.05521 -0.104874,0.0086 -0.168074,0.02559 -0.04812,-0.0985 -0.137587,-0.183682 -0.181787,-0.346285 -1.395187,-4.160719 -1.220439,-10.930987 -0.372444,-15.321448 0.119684,-0.619661 0.24588,-1.232437 0.375,-1.783203 -0.04429,-0.01053 -0.109791,-0.06208 -0.13671,-0.03516 z m 61.820108,-0.328828 c 0,-0.01897 -0.01898,-0.002 -0.04688,0.0039 -0.02839,0.006 -0.0898,0.03988 -0.125,0.05078 0.03468,0.155019 0.06569,0.26845 0.10156,0.4375 0.20139,0.949062 0.41219,2.081436 0.53516,2.919922 0.39141,2.66913 0.272731,9.670122 -0.359219,12.168613 -0.2155,0.852045 -0.361712,1.277662 -0.452812,1.530149 -0.0233,0.06449 -0.08605,0.06603 -0.101337,0.09708 -0.03958,-0.01296 -0.115001,0.0119 -0.166501,-0.0077 -0.15105,-0.05747 -0.419147,-0.180451 -0.601757,-0.270161 -0.30641,-0.150541 -1.458256,-0.789707 -1.802886,-1.160788 -0.26813,-0.288705 -0.403174,-0.598515 -0.548884,-0.808744 0.173812,1.259508 0.932489,1.757361 1.65263,2.528528 0.34987,0.379567 0.99948,0.881173 1.31055,1.035156 0.18539,0.09176 0.3779,0.177541 0.53125,0.236328 0.0523,0.02006 0.08868,0.03361 0.1289,0.04688 0.0156,-0.03177 0.01937,-0.03169 0.04297,-0.09766 0.0925,-0.25826 0.2285,-0.769096 0.44727,-1.640625 0.64156,-2.555624 0.813276,-9.633917 0.415916,-12.364082 -0.12483,-0.85766 -0.33852,-2.015563 -0.54297,-2.986328 -0.10222,-0.485382 -0.20353,-0.924863 -0.28711,-1.25586 -0.04179,-0.165498 -0.08044,-0.304253 -0.11132,-0.404296 -0.013,-0.04219 -0.0083,-0.03101 -0.01953,-0.05859 z m -13.968435,6.336972 c 0,0.362105 0.121692,0.715318 0.15235,1.080078 0.787499,9.369387 -6.065107,17.52517 -15.48633,18.418266 -0.488369,0.0463 -0.94211,0.08538 -1.27735,0.111328 -0.16762,0.01298 -0.30594,0.02174 -0.40234,0.02734 -0.0482,0.0029 -0.08648,0.0053 -0.10938,0.0059 -0.007,1.83e-4 -0.0087,-1.9e-5 -0.01171,0 -0.0061,-5e-4 -0.02301,-0.0046 -0.03321,-0.0059 -0.02782,-0.0037 -0.06141,-0.0068 -0.10351,-0.01172 -0.08423,-0.0098 -0.19714,-0.02266 -0.33399,-0.03711 -0.27368,-0.02889 -0.6406,-0.06593 -1.03125,-0.103516 -6.75507,-0.650024 -12.624948,-5.519886 -14.555148,-12.130651 -0.66337,-2.271971 -0.861112,-4.717518 -0.519072,-7.076677 -0.62594,2.818049 -0.57536,5.796984 0.22266,8.550781 1.95954,6.761935 7.97819,11.825346 14.83594,12.490234 0.39658,0.03845 0.76903,0.07592 1.04687,0.105469 0.13893,0.01478 0.25434,0.02706 0.33985,0.03711 0.0427,0.005 0.07728,0.0099 0.10547,0.01367 0.0104,0.0013 0.0268,0.0054 0.0332,0.0059 0.003,-1.9e-5 0.0046,1.87e-4 0.01172,0 0.0233,-6.23e-4 0.06245,-0.003 0.11133,-0.0059 0.0979,-0.0057 0.23803,-0.01603 0.4082,-0.0293 0.34034,-0.02655 0.80105,-0.06627 1.29687,-0.113281 9.63328,-0.91352 16.62441,-9.32261 15.72266,-18.90625 -0.07796,-0.82856 -0.42383,-3.239843 -0.42383,-2.425781 z m 11.27608,17.965042 c -2.31796,3.681886 -7.683402,9.49436 -11.353032,11.679611 -0.35137,0.209247 -0.61222,0.362411 -0.79687,0.457031 -0.16925,0.08674 -0.2498,0.10017 -0.25977,0.103516 0.02659,0.0473 -0.01597,0.01003 -0.02344,0.0098 -6.6e-4,-2.3e-5 0.02254,-0.0095 0.02344,-0.0098 -0.0019,-0.0034 7.2e-4,4.18e-4 -0.002,-0.0039 -0.04054,-0.06534 -0.10761,-0.227533 -0.19531,-0.453125 -0.0016,-0.0042 -0.0023,-0.0094 -0.0039,-0.01367 -0.03438,0.713207 0.0378,1.464419 0.25195,2.019532 0.089,0.230751 0.15807,0.396052 0.19922,0.46289 0.0026,0.0042 1.1e-4,6.27e-4 0.002,0.0039 0.01,-0.0034 0.09159,-0.01663 0.26368,-0.105469 0.18745,-0.09678 0.45187,-0.254718 0.80859,-0.46875 3.82514,-2.29506 9.410512,-8.386232 11.710452,-12.216721 0.21404,-0.35646 0.37198,-0.621201 0.46875,-0.808593 0.08876,-0.172015 0.10208,-0.253655 0.10547,-0.263672 -0.0034,-0.0019 5.1e-4,7.73e-4 -0.0039,-0.002 -0.0668,-0.04118 -0.23219,-0.108264 -0.46289,-0.197266 -0.21691,-0.08368 -0.623443,-0.438557 -0.73242,-0.193359 z m 1.19922,0.392578 c 0.04836,0.0271 0.01003,-0.01606 0.0098,-0.02344 -2e-5,-6.49e-4 -0.0095,0.02254 -0.0098,0.02344 z M 63.960192,78.136659 c -8.9e-4,3.02e-4 -0.02409,0.0097 -0.02343,0.0098 0.0076,2.72e-4 0.05123,0.03961 0.02343,-0.0098 z M 19.889219,63.824091 c -0.25532,0.04661 -0.49857,0.108278 -0.70899,0.189453 -0.23076,0.08902 -0.39575,0.155952 -0.46289,0.197266 -0.006,0.0037 -0.0016,-3.03e-4 -0.0059,0.002 0.0034,0.0099 0.01686,0.09177 0.10547,0.263672 0.0965,0.187278 0.25476,0.452185 0.46875,0.808593 2.34512,3.905742 8.109965,10.148321 12.029695,12.467133 0.28896,0.170946 0.56515,0.326629 0.77344,0.4375 0.0623,0.03316 0.10252,0.05405 0.15039,0.07813 0.003,-0.006 0.0029,-0.0054 0.0059,-0.01172 0.0675,-0.141606 0.14666,-0.370604 0.21679,-0.630859 0.14024,-0.520508 0.24723,-1.184314 0.24414,-1.650391 -8.8e-4,-0.135614 -0.07408,-0.34126 -0.0799,-0.462716 -0.0015,0.0055 -0.0024,0.01215 -0.0039,0.01758 -0.06908,0.254435 -0.129092,0.322655 -0.195492,0.461096 -0.003,0.0062 -0.0029,0.0058 -0.0059,0.01172 -0.04712,-0.02354 -0.05372,0.08109 -0.115017,0.04868 -0.20517,-0.108393 -0.428501,-0.217208 -0.713141,-0.384331 -4.031266,-2.082255 -9.663181,-7.944136 -11.703475,-11.84275 z m -1.17774,0.388672 c -3e-4,-8.87e-4 -0.0097,-0.0241 -0.0098,-0.02344 -2.7e-4,0.0073 -0.03322,0.0462 0.0098,0.02344 z M 56.870662,78.82075 c 0.258155,-0.0065 -0.47939,0.111451 -0.77539,0.171875 -0.97239,0.198511 -3.306205,0.704397 -4.063935,0.798417 -1.96464,0.243759 -4.58033,0.313221 -6.34765,0.169922 -1.17486,-0.09526 -3.990623,-0.632891 -5.276963,-0.871875 -0.46484,-0.08636 -0.82663,-0.170042 -1.1914,-0.253906 -0.03724,0.0378 -0.07904,0.06698 -0.11524,0.105469 -0.45163,0.480143 -0.82094,1.022114 -0.92773,1.345703 -0.0457,0.138618 -0.0738,0.270403 -0.0918,0.36914 0.0275,0.01408 0.0073,0.0022 0.04492,0.01563 0.12534,0.04475 0.30391,0.09801 0.52149,0.154297 0.43518,0.112599 1.02089,0.239104 1.67383,0.361328 1.30589,0.24445 4.144793,0.786155 5.337493,0.883594 1.79419,0.146576 4.45082,0.0755 6.44532,-0.173828 0.76925,-0.09617 2.7414,-0.523091 4.106905,-0.810136 0.432805,-0.09098 0.94999,-0.202588 1.29492,-0.289063 0.17245,-0.04323 0.31594,-0.08449 0.42187,-0.117187 0.0513,-0.01584 0.04618,-0.01147 0.07618,-0.02344 -10e-4,-0.0192 2.3e-4,-0.01955 -0.0059,-0.04883 -0.0288,-0.136369 -0.11678,-0.357894 -0.2461,-0.599609 -0.2089,-0.390469 -0.53618,-0.821745 -0.88086,-1.1875 z"
     sodipodi:nodetypes="ccccssccssccscssccsccscsscssscccccssscsscsssscsccscscsccccccscsccssccscsssscscscccssccsscccsssccsssscscccscscssscccscscsssscscsccccsscscscccscsccccccccscccsscccccccccsccccccssssccccscssssasccsccs" /><path
     id="path388-3"
     style="display:inline;opacity:0.580592;mix-blend-mode:normal;fill:#000000;fill-opacity:1;stroke-width:0.166292;filter:url(#filter22435)"
     d="m 48.215344,14.849203 c -1.627205,-0.01728 -3.226319,0.03758 -4.136633,0.170737 -0.840498,0.122935 -1.973841,0.334987 -2.925191,0.536337 -0.47567,0.100678 -1.488336,0.375012 -1.812715,0.457329 -0.162185,0.04115 -0.297147,0.07916 -0.395197,0.109495 -0.0469,0.01451 -0.03731,0.0113 -0.06464,0.02227 0.02127,0.08889 0.08785,0.275188 0.236378,0.593869 0.09264,0.198784 0.228513,0.411234 0.387804,0.623561 0.03161,-0.0084 0.04897,-0.01539 0.0831,-0.02413 0.319376,-0.0817 1.325916,-0.355559 1.794258,-0.455473 0.936694,-0.199827 2.053321,-0.408766 2.880865,-0.53077 0.896292,-0.132141 2.468023,-0.187888 4.070154,-0.170737 1.60212,0.01714 3.233201,0.107276 4.241896,0.261671 0.866094,0.132567 1.888055,0.330719 2.709122,0.51778 0.281518,0.06414 1.228807,0.298611 1.448081,0.356032 0.233438,-0.310313 0.427618,-0.607923 0.494921,-0.812858 0.04312,-0.13123 0.0694,-0.253077 0.0868,-0.348897 -0.06864,-0.02371 -0.144457,-0.04928 -0.251158,-0.0798 -0.265983,-0.07607 -1.372761,-0.345299 -1.789724,-0.439544 -0.833918,-0.188487 -1.870109,-0.389768 -2.749751,-0.523345 -1.024485,-0.155573 -2.681171,-0.246248 -4.308376,-0.263529 z m -15.874327,4.103254 c -0.0015,-9.38e-4 0.0081,0.01516 0.0073,0.01485 0.01209,-0.0052 0.0062,-0.0063 -0.0073,-0.01485 z m 0.0073,0.01485 c -0.0073,0.0031 -0.01348,0.0061 -0.05171,0.02041 -0.101491,0.03815 -0.282122,0.134195 -0.524467,0.272807 -2.383354,1.363168 -5.321034,3.792457 -7.525344,6.230044 -0.883793,0.97732 -1.977727,2.419227 -2.808845,3.639296 -0.415555,0.610033 -1.523961,2.298551 -1.748417,2.706481 -0.09956,0.180959 -0.162837,0.31856 -0.204988,0.42313 0.03063,0.01367 0.05205,0.02347 0.08864,0.03898 0.16902,0.07152 0.394772,0.158822 0.629732,0.243114 0.0973,0.03491 0.19905,0.05479 0.299162,0.08166 0.206897,-0.347975 1.170119,-1.830015 1.467721,-2.27036 0.818306,-1.210834 1.89436,-2.641537 2.764528,-3.611459 2.170328,-2.419136 5.064222,-4.828942 7.410851,-6.181791 0.238602,-0.137563 0.4153,-0.233088 0.515231,-0.270952 0.03803,-0.01438 0.04464,-0.01732 0.05171,-0.02041 7.28e-4,3.29e-4 -0.0088,-0.01387 -0.0073,-0.01299 0.01325,0.0083 0.01891,0.008 0.0073,0.01299 -0.01032,-0.0046 0.03266,0.03092 0.09418,0.187439 0.0011,0.0028 0.0025,0.0102 0.0037,0.01299 -0.0275,-0.174949 -0.06408,-0.349207 -0.114492,-0.519634 -0.105662,-0.357202 -0.184102,-0.6235 -0.251157,-0.792442 -0.06218,-0.156701 -0.105624,-0.193196 -0.09602,-0.189295 z m 31.331302,0.0093 c -0.0311,0.04945 -0.08667,0.170403 -0.160662,0.356321 -0.286454,0.719448 -0.396048,1.405769 -0.360109,2.065545 0.06074,-0.252034 0.14109,-0.508381 0.243764,-0.768316 0.07293,-0.18451 0.128183,-0.303542 0.158818,-0.352608 0.02186,0.005 0.101993,0.02235 0.264082,0.107638 0.180093,0.09475 0.431109,0.24593 0.768232,0.450968 3.696004,2.247928 8.80621,7.750301 11.020693,11.488939 0.03334,0.05628 0.04337,0.07645 0.07388,0.128053 0.136949,-0.03791 0.284071,-0.06814 0.404425,-0.116917 0.195391,-0.07919 0.325919,-0.140583 0.378584,-0.17445 -0.0047,-0.02032 -0.01983,-0.101828 -0.105263,-0.26724 -0.09509,-0.183962 -0.247934,-0.441233 -0.454293,-0.786874 -2.249165,-3.767151 -7.429339,-9.301813 -11.183217,-11.566884 -0.342401,-0.206604 -0.596403,-0.361057 -0.779304,-0.456537 -0.164624,-0.08593 -0.247423,-0.10259 -0.269624,-0.107638 z M 48.459079,29.81651 c -0.388115,-0.01 -0.774481,-0.0058 -1.159732,0.01113 -5.393527,0.237339 -10.428636,3.057906 -13.488374,7.683164 -2.66904,4.034653 -3.47826,9.37142 -2.131107,14.043116 0.1494,0.518094 0.33024,1.021491 0.526312,1.518074 -0.04939,-0.155341 -0.108291,-0.306701 -0.153278,-0.463959 -1.326399,-4.636337 -0.530057,-9.931364 2.097864,-13.935478 3.012585,-4.590248 7.971145,-7.39009 13.281541,-7.625631 0.758626,-0.03366 1.523359,-0.01385 2.291771,0.05938 7.93895,0.756666 14.301848,7.202109 15.048853,15.243843 0.09894,1.065132 0.08685,2.111857 -0.0037,3.13822 0.210898,-1.373343 0.27802,-2.790005 0.142197,-4.240587 -0.758691,-8.103068 -7.220151,-14.598323 -15.283379,-15.36076 -0.390215,-0.03689 -0.780845,-0.06054 -1.16897,-0.07052 z m -31.189106,8.447797 c -0.01381,0.0394 -0.02416,0.06781 -0.04062,0.120629 -0.05833,0.18748 -0.130074,0.451213 -0.204987,0.75718 -0.149807,0.611938 -0.315944,1.39958 -0.446908,2.14906 -0.771787,4.416675 -0.559603,9.593234 0.565097,13.790722 0.04397,0.1638 0.10171,0.309056 0.149581,0.408284 0.06287,-0.01706 0.10481,-0.02232 0.223454,-0.07794 0.01597,-0.0075 0.03883,-0.02345 0.05539,-0.03155 -0.947909,-4.027847 -1.104476,-8.823443 -0.387804,-12.957451 0.128949,-0.743808 0.293839,-1.525052 0.441358,-2.132357 0.07376,-0.303651 0.143812,-0.56555 0.201291,-0.751614 0.01627,-0.05242 0.02702,-0.08152 0.04063,-0.120629 0.09346,0.01764 0.211569,0.0462 0.339799,0.08908 0.311982,0.104302 0.834919,0.46374 1.298241,0.905648 0.281225,0.268231 0.524175,0.560704 0.73129,0.844406 C 20.188595,41.03375 20.127599,40.86161 20.023413,40.64535 19.830811,40.2455 19.406274,39.709887 18.9357,39.264606 c -0.470564,-0.445278 -1.003523,-0.806118 -1.320393,-0.911214 -0.130236,-0.04321 -0.250411,-0.07132 -0.345341,-0.08908 z m 61.493635,0.02227 c -0.01853,0.0015 -0.01699,-2.29e-4 -0.04432,0.0056 -0.133648,0.02834 -0.352232,0.113898 -0.589104,0.241259 -0.473769,0.25472 -1.040417,0.677545 -1.423814,1.106078 -0.563897,0.630301 -0.795595,0.913515 -0.938123,1.865115 -0.005,0.03323 -0.0065,0.08392 -0.01108,0.118774 0.145213,-0.280016 0.341776,-0.516279 0.629723,-0.840693 0.377479,-0.425289 0.935182,-0.844008 1.401652,-1.0968 0.233212,-0.126396 0.448297,-0.211267 0.579876,-0.239403 0.02694,-0.0057 0.02616,-0.0022 0.04431,-0.0037 0.01106,0.02695 0.0077,0.01629 0.02031,0.05754 0.02975,0.09778 0.06674,0.231681 0.107118,0.393438 0.08065,0.32351 0.176518,0.754158 0.275154,1.228564 0.197273,0.948812 0.404019,2.079111 0.524469,2.917375 0.383406,2.668426 0.122264,8.290146 -0.496765,10.787979 -0.08608,0.347329 -0.113216,0.416161 -0.175441,0.653254 0.01684,0.006 0.03701,0.01308 0.05355,0.01855 0.01523,-0.03128 0.01746,-0.02968 0.04063,-0.09465 0.09058,-0.254345 0.225108,-0.758115 0.439514,-1.616433 0.628721,-2.516883 0.89357,-8.179002 0.504158,-10.86778 -0.12233,-0.844659 -0.331497,-1.983597 -0.531852,-2.939645 -0.100168,-0.478025 -0.198805,-0.911864 -0.280705,-1.237843 -0.04104,-0.162992 -0.07876,-0.298624 -0.108952,-0.39715 -0.01277,-0.04156 -0.0099,-0.03223 -0.02031,-0.05938 z M 22.47588,62.141491 c -0.631444,-0.0077 -1.278272,0.08765 -1.765449,0.27652 -0.226139,0.08767 -0.38665,0.156031 -0.452448,0.196718 -0.0073,0.0046 -0.0026,-5.06e-4 -0.0073,0.0019 0.0034,0.01021 0.01865,0.09094 0.105265,0.259818 0.09458,0.184438 0.248264,0.445148 0.45798,0.796153 0.01643,0.0275 0.03875,0.05595 0.05541,0.08351 -0.03089,-0.07849 -0.06611,-0.16214 -0.06833,-0.16888 -0.03678,0.01862 -0.0094,-0.01715 -0.0093,-0.02413 2.9e-5,-6.71e-4 0.0089,0.02318 0.0093,0.02413 0.0046,-0.0024 1.51e-4,0.0027 0.0073,-0.0019 0.06478,-0.04038 0.222405,-0.107853 0.445055,-0.194862 0.47967,-0.187438 1.117903,-0.282265 1.739608,-0.274664 0.621431,0.0076 1.229587,0.119118 1.649113,0.311781 0.792191,0.363794 1.313189,0.849942 2.903027,2.748494 0.648529,0.774464 1.783452,1.925258 2.566934,2.601883 1.345347,1.161851 2.118202,1.914069 2.537378,2.562911 0.02941,0.04552 0.04566,0.08894 0.07202,0.13362 -0.07721,-0.365833 -0.208137,-0.692335 -0.43767,-1.044837 -0.425744,-0.65379 -1.209748,-1.412613 -2.576169,-2.583324 -0.795757,-0.681786 -1.94887,-1.840071 -2.607555,-2.620441 C 25.485326,63.312859 24.957283,62.82355 24.152696,62.456982 23.7266,62.262849 23.107031,62.149162 22.47588,62.141488 Z m -2.225282,0.475094 c -3.21e-4,-9.39e-4 -0.0092,-0.0248 -0.0093,-0.02413 -2.46e-4,0.007 -0.02812,0.0429 0.0093,0.02413 z m 53.297931,-0.475094 c -0.631142,0.0077 -1.25072,0.121362 -1.676817,0.315492 -0.804776,0.36665 -1.334558,0.855981 -2.949197,2.768909 -0.658467,0.780103 -1.809736,1.938467 -2.60571,2.620441 -1.953588,1.67378 -2.432226,2.194329 -2.797763,3.004599 -0.167735,0.371805 -0.253729,0.89495 -0.282549,1.440129 0.04536,-0.194598 0.09757,-0.37928 0.166203,-0.532624 0.359892,-0.804139 0.829974,-1.319363 2.753447,-2.980474 0.78371,-0.676812 1.918604,-1.827686 2.566925,-2.601884 1.589744,-1.898449 2.110666,-2.384619 2.903037,-2.748493 0.419526,-0.192662 1.029535,-0.304179 1.650957,-0.311781 0.621713,-0.0076 1.258074,0.08721 1.737754,0.274664 0.141713,0.05538 0.202265,0.08695 0.284393,0.124342 0.150525,-0.253428 0.29327,-0.490361 0.369346,-0.638408 0.08676,-0.168948 0.1,-0.249471 0.103411,-0.259818 -0.0041,-0.0022 3.88e-4,0.0018 -0.0056,-0.0019 -0.06553,-0.04055 -0.226356,-0.109066 -0.452438,-0.196719 -0.487178,-0.188871 -1.134015,-0.2842 -1.765459,-0.27652 z m 2.223437,0.475094 c 0.04153,0.02224 0.0094,-0.01703 0.0093,-0.02413 -2.8e-5,-6.59e-4 -0.0089,0.02317 -0.0093,0.02413 z M 47.762895,74.627559 c -2.582696,0.01149 -3.918427,0.01987 -4.677714,0.07052 -0.759296,0.05064 -0.897559,0.119196 -1.270537,0.300645 -0.397797,0.193523 -0.927664,0.620224 -1.37026,1.093088 -0.442596,0.472865 -0.802072,1.006382 -0.906732,1.325068 -0.04472,0.136515 -0.07475,0.266503 -0.09234,0.363744 0.02695,0.01387 0.0082,0.0035 0.04431,0.01671 0.115703,0.04152 0.285234,0.08919 0.481996,0.141044 0.166203,-0.297978 0.399812,-0.640941 0.712835,-0.978026 0.435768,-0.469284 0.956426,-0.893605 1.348098,-1.085664 0.367229,-0.180076 0.502617,-0.246679 1.250217,-0.296934 0.747592,-0.05025 2.062805,-0.0591 4.605704,-0.07052 2.994156,-0.01342 4.570133,-0.0061 5.503197,0.137332 0.933054,0.143379 1.21165,0.373802 1.82824,0.935342 0.383861,0.349596 0.749889,0.848794 1.002767,1.293518 0.09206,-0.02465 0.19368,-0.0504 0.258542,-0.07053 0.05021,-0.01559 0.04446,-0.01234 0.07387,-0.02413 -9.46e-4,-0.0189 2.27e-4,-0.01943 -0.0056,-0.04826 -0.02817,-0.134301 -0.113329,-0.352105 -0.240067,-0.590154 C 56.055956,76.664249 55.635202,76.094788 55.208775,75.7095 54.582549,75.14368 54.300492,74.911208 53.35283,74.766736 52.405168,74.622262 50.803861,74.614017 47.762835,74.627549 Z"
     transform="matrix(1,0,0,0.99254424,0,0.59554609)"
     sodipodi:nodetypes="scssscsccsscsscccsssssccccccsscccsccssccccscscccsccccscscscccssssscsscccccsccsssccccccccsscccsccscccccssccssccccscscccsssccccsscccscccccssssssccsssssccccsssscsscsssccccscccsccsssccccsssccscsccssscc" /></svg>
