<?xml version="1.0" encoding="UTF-8" standalone="no"?>
<!-- Created with Inkscape (http://www.inkscape.org/) -->

<svg
   version="1.0"
   width="96"
   height="96"
   id="svg2408"
   sodipodi:docname="steam_icon_570.svg"
   inkscape:version="1.4.4 (dcaf3e7d9e, 2026-05-05)"
   xml:space="preserve"
   xmlns:inkscape="http://www.inkscape.org/namespaces/inkscape"
   xmlns:sodipodi="http://sodipodi.sourceforge.net/DTD/sodipodi-0.dtd"
   xmlns:xlink="http://www.w3.org/1999/xlink"
   xmlns="http://www.w3.org/2000/svg"
   xmlns:svg="http://www.w3.org/2000/svg"
   xmlns:rdf="http://www.w3.org/1999/02/22-rdf-syntax-ns#"
   xmlns:cc="http://creativecommons.org/ns#"
   xmlns:dc="http://purl.org/dc/elements/1.1/"><sodipodi:namedview
     id="namedview24059"
     pagecolor="#ffffff"
     bordercolor="#000000"
     borderopacity="0.25"
     inkscape:showpageshadow="2"
     inkscape:pageopacity="0.0"
     inkscape:pagecheckerboard="0"
     inkscape:deskcolor="#d1d1d1"
     showgrid="false"
     inkscape:zoom="7.5645693"
     inkscape:cx="32.057344"
     inkscape:cy="52.745898"
     inkscape:current-layer="svg2408" /><defs
     id="defs2410"><linearGradient
       id="linearGradient3729"><stop
         id="stop3731"
         style="stop-color:#1c59ad;stop-opacity:1"
         offset="0" /><stop
         id="stop3733"
         style="stop-color:#377ad6;stop-opacity:1"
         offset="1" /></linearGradient><linearGradient
       x1="45.447727"
       y1="92.539597"
       x2="45.447727"
       y2="7.0165396"
       id="ButtonShadow"
       gradientUnits="userSpaceOnUse"
       gradientTransform="scale(1.0058652,0.994169)"><stop
         id="stop3750"
         style="stop-color:#000000;stop-opacity:1"
         offset="0" /><stop
         id="stop3752"
         style="stop-color:#000000;stop-opacity:0.58823532"
         offset="1" /></linearGradient><linearGradient
       id="linearGradient3737"><stop
         id="stop3739"
         style="stop-color:#ffffff;stop-opacity:1"
         offset="0" /><stop
         id="stop3741"
         style="stop-color:#ffffff;stop-opacity:0"
         offset="1" /></linearGradient><linearGradient
       id="linearGradient3700"><stop
         id="stop3702"
         style="stop-color:#e6e6e6;stop-opacity:1"
         offset="0" /><stop
         id="stop3704"
         style="stop-color:#f5f5f5;stop-opacity:1"
         offset="1" /></linearGradient><linearGradient
       x1="48"
       y1="90"
       x2="48"
       y2="5.9877172"
       id="linearGradient3706"
       xlink:href="#linearGradient3700"
       gradientUnits="userSpaceOnUse" /><filter
       color-interpolation-filters="sRGB"
       id="filter3174"
       x="-0.047720931"
       y="-0.048282354"
       width="1.0954419"
       height="1.0965647"><feGaussianBlur
         stdDeviation="1.71"
         id="feGaussianBlur3176" /></filter><linearGradient
       x1="36.357143"
       y1="6"
       x2="36.357143"
       y2="63.893143"
       id="linearGradient3188"
       xlink:href="#linearGradient3737"
       gradientUnits="userSpaceOnUse" /><linearGradient
       x1="45.447727"
       y1="92.539597"
       x2="45.447727"
       y2="7.0165396"
       id="ButtonShadow-0"
       gradientUnits="userSpaceOnUse"
       gradientTransform="matrix(1.0058652,0,0,0.994169,100,0)"><stop
         id="stop3750-8"
         style="stop-color:#000000;stop-opacity:1"
         offset="0" /><stop
         id="stop3752-5"
         style="stop-color:#000000;stop-opacity:0.58823532"
         offset="1" /></linearGradient><linearGradient
       x1="32.251034"
       y1="6.1317081"
       x2="32.251034"
       y2="90.238609"
       id="linearGradient3780"
       xlink:href="#ButtonShadow-0"
       gradientUnits="userSpaceOnUse"
       gradientTransform="matrix(1.0238095,0,0,1.0119048,-1.1428571,-98.071429)" /><linearGradient
       x1="32.251034"
       y1="6.1317081"
       x2="32.251034"
       y2="90.238609"
       id="linearGradient3772"
       xlink:href="#ButtonShadow-0"
       gradientUnits="userSpaceOnUse"
       gradientTransform="matrix(1.0238095,0,0,1.0119048,-1.1428571,-98.071429)" /><linearGradient
       x1="32.251034"
       y1="6.1317081"
       x2="32.251034"
       y2="90.238609"
       id="linearGradient3725"
       xlink:href="#ButtonShadow-0"
       gradientUnits="userSpaceOnUse"
       gradientTransform="matrix(1.0238095,0,0,1.0119048,-1.1428571,-98.071429)" /><linearGradient
       x1="32.251034"
       y1="6.1317081"
       x2="32.251034"
       y2="90.238609"
       id="linearGradient3721"
       xlink:href="#ButtonShadow-0"
       gradientUnits="userSpaceOnUse"
       gradientTransform="translate(0,-97)" /><linearGradient
       x1="32.251034"
       y1="6.1317081"
       x2="32.251034"
       y2="90.238609"
       id="linearGradient3760"
       xlink:href="#ButtonShadow-0"
       gradientUnits="userSpaceOnUse"
       gradientTransform="matrix(1.0238095,0,0,1.0119048,-1.1428571,-98.071429)" /><linearGradient
       id="linearGradient3737-0"><stop
         id="stop3739-6"
         style="stop-color:#ffffff;stop-opacity:1"
         offset="0" /><stop
         id="stop3741-0"
         style="stop-color:#ffffff;stop-opacity:0"
         offset="1" /></linearGradient><radialGradient
       cx="48"
       cy="90.171875"
       r="42"
       fx="48"
       fy="90.171875"
       id="radialGradient2903"
       xlink:href="#linearGradient3737-0"
       gradientUnits="userSpaceOnUse"
       gradientTransform="matrix(1.1573129,0,0,0.99590774,-7.551021,0.1971319)" /><clipPath
       id="clipPath3782"><path
         d="m -98,6 c -3.324,0 -6,2.676 -6,6 l 0,72 c 0,3.324 2.676,6 6,6 l 72,0 c 3.324,0 6,-2.676 6,-6 l 0,-72 c 0,-3.324 -2.676,-6 -6,-6 l -72,0 z m 59.0625,12 C -38.336494,17.9909 -38,18.03125 -38,18.03125 l 0,12.0625 C -50.051065,30.305506 -53,42.0625 -53,42.0625 l 9.0625,0 0,12.0625 -14.09375,0 C -66.507844,80.276885 -86,77.9375 -86,77.9375 l 0,-12.0625 c 0,0 12.376145,2.298313 18.6875,-20.75 6.908061,-25.227422 24.167961,-27.061294 28.375,-27.125 z"
         inkscape:connector-curvature="0"
         id="path3784"
         style="fill:#ff00ff;fill-opacity:1;fill-rule:nonzero;stroke:none" /></clipPath><filter
       x="-0.18283333"
       y="-0.14622227"
       width="1.3656667"
       height="1.2924143"
       color-interpolation-filters="sRGB"
       id="filter3786"><feGaussianBlur
         id="feGaussianBlur3788"
         stdDeviation="3.24" /></filter><linearGradient
       x1="46.906918"
       y1="75.471306"
       x2="46.906918"
       y2="36.246487"
       id="linearGradient3745"
       xlink:href="#linearGradient3729"
       gradientUnits="userSpaceOnUse"
       gradientTransform="translate(-2)" /><linearGradient
       id="linearGradient3737-9"><stop
         id="stop3739-2"
         style="stop-color:#ffffff;stop-opacity:1"
         offset="0" /><stop
         id="stop3741-1"
         style="stop-color:#ffffff;stop-opacity:0"
         offset="1" /></linearGradient><clipPath
       id="clipPath3613"><rect
         width="84"
         height="84"
         rx="6"
         ry="6"
         x="6"
         y="6"
         id="rect3615"
         style="fill:#ffffff;fill-opacity:1;fill-rule:nonzero;stroke:none" /></clipPath><filter
       x="-0.19578789"
       y="-0.19578789"
       width="1.3915758"
       height="1.3915758"
       color-interpolation-filters="sRGB"
       id="filter3794"><feGaussianBlur
         id="feGaussianBlur3796"
         stdDeviation="5.28" /></filter><linearGradient
       x1="48"
       y1="20.220806"
       x2="48"
       y2="138.66119"
       id="linearGradient4186"
       xlink:href="#linearGradient3737-9"
       gradientUnits="userSpaceOnUse" /><linearGradient
       id="linearGradient2660"><stop
         style="stop-color:#edeeec;stop-opacity:1;"
         offset="0"
         id="stop2662" /><stop
         style="stop-color:#babdb6;stop-opacity:1;"
         offset="1"
         id="stop2664" /></linearGradient><linearGradient
       id="linearGradient15653"><stop
         style="stop-color:#f0f1ee;stop-opacity:1;"
         offset="0"
         id="stop15655" /><stop
         style="stop-color:#d5d9d1;stop-opacity:1;"
         offset="1"
         id="stop15657" /></linearGradient><linearGradient
       x1="57.900513"
       y1="106.70871"
       x2="114.43932"
       y2="49.359089"
       id="linearGradient3873"
       xlink:href="#linearGradient3674"
       gradientUnits="userSpaceOnUse"
       gradientTransform="rotate(-21.220431,-38.267578,105.53822)" /><linearGradient
       id="linearGradient3674"><stop
         id="stop3676"
         style="stop-color:#000000;stop-opacity:1"
         offset="0" /><stop
         id="stop3678"
         style="stop-color:#000000;stop-opacity:0"
         offset="1" /></linearGradient><filter
       color-interpolation-filters="sRGB"
       id="filter3751"
       x="-0.036572215"
       y="-0.017860291"
       width="1.0731444"
       height="1.0357206"><feGaussianBlur
         id="feGaussianBlur3753"
         stdDeviation="0.79380238" /></filter><linearGradient
       x1="144.82578"
       y1="95.798721"
       x2="144.82578"
       y2="108.34345"
       id="linearGradient3969"
       xlink:href="#linearGradient3737"
       gradientUnits="userSpaceOnUse"
       gradientTransform="matrix(1,0,0,1.1160733,0.0625,-9.9986727)" /><linearGradient
       x1="144.82578"
       y1="95.798721"
       x2="144.82578"
       y2="108.34345"
       id="linearGradient3971"
       xlink:href="#linearGradient3737"
       gradientUnits="userSpaceOnUse"
       gradientTransform="matrix(-1,0,0,1.1160733,289.71406,-9.9986727)" /><linearGradient
       x1="144.87347"
       y1="97.697334"
       x2="144.87347"
       y2="99.774651"
       id="linearGradient3973"
       xlink:href="#linearGradient3674"
       gradientUnits="userSpaceOnUse" /><linearGradient
       x1="131.29102"
       y1="77.089378"
       x2="153.84979"
       y2="77.089378"
       id="linearGradient3975"
       xlink:href="#linearGradient3501"
       gradientUnits="userSpaceOnUse" /><linearGradient
       id="linearGradient3501"><stop
         id="stop3503"
         style="stop-color:#9a3030;stop-opacity:1"
         offset="0" /><stop
         id="stop3505"
         style="stop-color:#5b1c1c;stop-opacity:1"
         offset="1" /></linearGradient><linearGradient
       x1="131.29102"
       y1="77.089378"
       x2="153.84979"
       y2="77.089378"
       id="linearGradient3977"
       xlink:href="#linearGradient3509"
       gradientUnits="userSpaceOnUse" /><linearGradient
       id="linearGradient3509"><stop
         id="stop3511"
         style="stop-color:#ad1616;stop-opacity:1"
         offset="0" /><stop
         id="stop3513"
         style="stop-color:#4d0a0a;stop-opacity:1"
         offset="1" /></linearGradient><filter
       x="-0.66366301"
       y="-0.038064804"
       width="2.327326"
       height="1.0761296"
       color-interpolation-filters="sRGB"
       id="filter3526"><feGaussianBlur
         id="feGaussianBlur3528"
         stdDeviation="0.98809091" /></filter><linearGradient
       x1="140"
       y1="88"
       x2="150"
       y2="88"
       id="linearGradient3979"
       xlink:href="#linearGradient3411"
       gradientUnits="userSpaceOnUse" /><linearGradient
       id="linearGradient3411"><stop
         id="stop3413"
         style="stop-color:#797979;stop-opacity:1"
         offset="0" /><stop
         id="stop3423"
         style="stop-color:#a1a1a1;stop-opacity:1"
         offset="0.21906407" /><stop
         id="stop3419"
         style="stop-color:#cdcdcd;stop-opacity:1"
         offset="0.34999999" /><stop
         id="stop3421"
         style="stop-color:#9b9b9b;stop-opacity:1"
         offset="0.47209707" /><stop
         id="stop3415"
         style="stop-color:#373737;stop-opacity:1"
         offset="1" /></linearGradient><linearGradient
       x1="197.9899"
       y1="62.225395"
       x2="212.13203"
       y2="62.225395"
       id="linearGradient3981"
       xlink:href="#linearGradient3737"
       gradientUnits="userSpaceOnUse"
       gradientTransform="scale(0.7071068,1.4142136)" /><linearGradient
       x1="141"
       y1="81.75"
       x2="149"
       y2="81.75"
       id="linearGradient3983"
       xlink:href="#linearGradient3674"
       gradientUnits="userSpaceOnUse"
       gradientTransform="matrix(1.247211,0,0,1,-35.862183,0)" /><linearGradient
       x1="141"
       y1="81.75"
       x2="149"
       y2="81.75"
       id="linearGradient3985"
       xlink:href="#linearGradient3737"
       gradientUnits="userSpaceOnUse"
       gradientTransform="matrix(1.247211,0,0,-1,-35.862183,164.98438)" /><linearGradient
       x1="35.289513"
       y1="132.69209"
       x2="122.40135"
       y2="71.475204"
       id="linearGradient3743"
       xlink:href="#linearGradient3674"
       gradientUnits="userSpaceOnUse"
       gradientTransform="matrix(0.7096226,0,0,0.7096226,-0.821028,0.1362159)" /><filter
       color-interpolation-filters="sRGB"
       id="filter3905"
       x="-0.0231227"
       y="-0.024946507"
       width="1.0462454"
       height="1.049893"><feGaussianBlur
         id="feGaussianBlur3907"
         stdDeviation="0.59517855" /></filter><linearGradient
       x1="49.689098"
       y1="6"
       x2="49.689098"
       y2="76.945404"
       id="linearGradient3651"
       xlink:href="#linearGradient3737"
       gradientUnits="userSpaceOnUse" /><linearGradient
       x1="48"
       y1="20.220806"
       x2="48"
       y2="138.66119"
       id="linearGradient2908"
       xlink:href="#linearGradient3737"
       gradientUnits="userSpaceOnUse"
       gradientTransform="translate(-40)" /><clipPath
       id="clipPath2977"><path
         d="m -28,6 c -3.324,0 -6,2.676 -6,6 v 33.21875 c 2.18571,0.12257 4.56375,0.238058 5.75,0.4375 0.64556,0.108538 -0.10827,0.242057 -1.125,0.34375 -1.01673,0.101693 -2.31358,0.197367 -2.8125,0.28125 -0.60768,0.102166 -1.20065,0.155127 -1.8125,0.25 v 1.03125 c 0.37152,0.03564 0.69223,0.03125 0.90625,0.03125 0.79002,10e-7 1.13227,0.219783 1.28125,0.5625 0.14898,0.342717 0.09375,0.815139 0.09375,1.375 0,0.41983 -0.91575,0.671391 -1.125,1.375 -0.07478,0.251474 -0.61801,0.51087 -1.15625,0.75 v 2.1875 c 0.71848,0.02468 1.41156,0.05972 1.8125,0.3125 0.27517,0.173491 -0.76856,0.376316 -1.8125,0.5625 v 7.5 c 1.1115,0.178216 3.23164,0.89604 3.875,1.03125 1.0648,0.223782 1.18534,0.335965 0.84375,0.4375 -0.34159,0.101535 -1.1303,0.176786 -1.9375,0.3125 -0.95534,0.160617 -1.89421,0.456871 -2.78125,0.65625 V 84 c 0,3.324 2.676,6 6,6 h 12.5625 c 0.09318,-0.433081 0.15326,-0.905883 0.25,-1.40625 0.1371,-0.709071 0.22652,-1.344555 0.34375,-1.59375 0.02931,-0.0623 0.05898,-0.11418 0.09375,-0.125 0.10432,-0.03246 0.24356,0.19889 0.46875,0.78125 0.29726,0.768719 0.51235,1.624099 0.65625,2.34375 h 0.75 c 0.26973,-0.487886 0.55273,-1.110762 0.78125,-1.40625 0.09677,-0.125139 0.28119,0.103115 0.53125,0.34375 0.25006,0.240635 0.56576,0.485066 0.90625,0.375 0.63353,-0.20479 1.58152,-0.698195 2,-0.96875 0.13663,-0.08833 0.27138,-0.158324 0.375,-0.1875 0.10362,-0.02918 0.17609,-0.01753 0.25,0 0.14782,0.03506 0.23479,0.146168 0.34375,0.28125 0.21791,0.270164 0.44939,0.625 1.03125,0.625 0.46722,0 0.66007,-0.03138 0.78125,0.0625 0.12118,0.09388 0.1707,0.321145 0.375,0.875 H 3.1875 C 3.14083,89.413108 4.20094,87.869015 4.375,86.96875 4.56148,86.004238 4.59064,85.759698 4.65625,85.9375 c 0.06561,0.177802 0.16768,0.770965 0.4375,1.46875 0.10788,0.278977 0.21618,0.357332 0.3125,0.28125 0.09632,-0.07608 0.17078,-0.297106 0.25,-0.5625 0.15844,-0.530788 0.287,-1.268952 0.34375,-1.5625 0.12808,-0.662448 0.09732,-1.761071 0.09375,-2.25 -8.9e-4,-0.122232 -0.0058,-0.218192 0,-0.25 0.01738,-0.09543 0.08534,0.295908 0.28125,1.5625 0.16001,1.034452 0.55165,2.666984 0.71875,3.53125 0.16585,0.857781 0.26937,1.297378 0.375,1.84375 h 27.5625 c 0.03787,-0.489133 0.03582,-1.072063 0.0625,-1.46875 0.02001,-0.297515 0.06858,-0.486789 0.15625,-0.46875 0.02922,0.006 0.05177,0.03947 0.09375,0.09375 0.22802,0.29483 0.60721,1.142012 0.9375,1.84375 H 44 c 3.324,0 6,-2.676 6,-6 v -7.0625 c -0.16548,0.0045 -0.29499,0 -0.5,0 -1.29937,0 -2.57564,0 -3.875,0 -1.19804,0 -1.996,-0.0017 -2.1875,-0.0625 -0.1915,-0.06081 0.23046,-0.186909 1.4375,-0.5 0.6398,-0.165955 3.26183,-0.901716 5.125,-1.3125 V 37.09375 c -0.63757,-0.263204 -1.18841,-0.49357 -1.71875,-0.90625 -0.1392,-0.108324 -0.42969,-0.363223 -0.9375,-0.53125 -0.50781,-0.168027 -1.23505,-0.253867 -2.21875,-0.0625 -1.49781,0.291384 -1.64422,0.281974 -1.21875,0.15625 0.42547,-0.125724 1.42431,-0.382779 2.1875,-0.53125 C 47.21966,34.999712 48.75193,34.038229 50,33.40625 V 28.875 C 49.31793,28.620057 48.60142,28.342045 48.28125,27.84375 48.07642,27.524969 47.99109,27.329414 48,27.21875 c 0.0089,-0.110664 0.10446,-0.149576 0.21875,-0.1875 0.11429,-0.03792 0.26368,-0.05569 0.375,-0.15625 0.11132,-0.100562 0.1875,-0.295173 0.1875,-0.59375 0,-0.319121 0.082,-0.861922 0.0625,-1.375 -0.0097,-0.256539 -0.03769,-0.499478 -0.125,-0.6875 -0.08731,-0.188022 -0.22417,-0.333499 -0.4375,-0.375 -0.56121,-0.109178 -0.81824,-0.234978 -0.875,-0.34375 -0.05676,-0.108772 0.07694,-0.190451 0.28125,-0.28125 0.40861,-0.181598 1.10111,-0.308199 1.09375,-0.3125 -0.65315,-0.381187 -5.11642,-0.921785 -4.875,-0.96875 0.32484,-0.06319 0.64392,-0.124305 0.96875,-0.1875 1.02328,-0.199069 2.36966,-0.312207 3.65625,-0.5625 C 49.09118,21.07857 49.41673,20.934731 49.625,20.75 49.83327,20.565269 49.92108,20.35562 50,20.15625 V 12 C 50,8.676 47.324,6 44,6 H -6.03125 C -5.93692,7.381129 -5.83654,8.919032 -6.125,8.15625 -6.33053,7.612767 -6.45072,7.043483 -6.65625,6.5 -6.70825,6.362498 -6.75371,6.168523 -6.8125,6 h -1.96875 c -0.2351,0.486521 -0.45735,0.973378 -0.78125,1.1875 -0.49514,0.327333 -0.76026,0.462326 -1,0.375 C -10.80224,7.47517 -11.01662,7.16134 -11.375,6.6875 -11.53494,6.476035 -11.81687,6.253022 -12.125,6 h -6.65625 L -20.0625,11.5 -21.75,6 h -0.21875 L -23.6875,14.84375 -25.0625,6 Z"
         inkscape:connector-curvature="0"
         id="path2979"
         style="display:inline;fill:#ffffff;fill-opacity:1;fill-rule:nonzero;stroke:none" /></clipPath><filter
       x="-0.19578789"
       y="-0.19578789"
       width="1.3915758"
       height="1.3915758"
       color-interpolation-filters="sRGB"
       id="filter3794-3"><feGaussianBlur
         id="feGaussianBlur3796-5"
         stdDeviation="5.28" /></filter><linearGradient
       x1="66.300034"
       y1="62.345222"
       x2="83.323959"
       y2="117.09522"
       id="linearGradient3698"
       xlink:href="#linearGradient3599"
       gradientUnits="userSpaceOnUse"
       gradientTransform="matrix(0.7669902,0,0,0.7669902,-0.8145051,-3.739269)" /><linearGradient
       id="linearGradient3599"><stop
         id="stop3601"
         style="stop-color:#000000;stop-opacity:0.41960785"
         offset="0" /><stop
         id="stop3603"
         style="stop-color:#98713b;stop-opacity:0"
         offset="1" /></linearGradient><linearGradient
       x1="41.530895"
       y1="65.389084"
       x2="62.394035"
       y2="68.389084"
       id="linearGradient3701"
       xlink:href="#linearGradient3599"
       gradientUnits="userSpaceOnUse"
       gradientTransform="matrix(0.7669902,0,0,0.7669902,-0.8145051,-3.739269)" /><linearGradient
       x1="59.710438"
       y1="23.204762"
       x2="74.153046"
       y2="43.247578"
       id="linearGradient3703"
       xlink:href="#linearGradient3737"
       gradientUnits="userSpaceOnUse"
       gradientTransform="matrix(0.7669902,0,0,0.7669902,-0.8145051,-3.739269)" /><linearGradient
       x1="62.75"
       y1="96.26342"
       x2="49"
       y2="82.75"
       id="linearGradient3705"
       xlink:href="#linearGradient3599"
       gradientUnits="userSpaceOnUse"
       gradientTransform="matrix(0.7669902,0,0,0.7669902,-0.8145051,-3.739269)" /><linearGradient
       x1="62.75"
       y1="96.26342"
       x2="49"
       y2="82.75"
       id="linearGradient3707"
       xlink:href="#linearGradient3599"
       gradientUnits="userSpaceOnUse"
       gradientTransform="matrix(0.3856985,0.7985247,0.8841857,-0.1651513,-36.612561,11.165888)" /><linearGradient
       x1="48"
       y1="90"
       x2="48"
       y2="5.9877172"
       id="linearGradient2969"
       xlink:href="#linearGradient3187"
       gradientUnits="userSpaceOnUse" /><linearGradient
       id="linearGradient3187"><stop
         id="stop3189"
         style="stop-color:#9a2210;stop-opacity:1;"
         offset="0" /><stop
         id="stop3191"
         style="stop-color:#ec723a;stop-opacity:1;"
         offset="1" /></linearGradient><filter
       color-interpolation-filters="sRGB"
       id="filter3325"
       x="-0.053378044"
       y="-0.053378068"
       width="1.1067561"
       height="1.1067561"><feGaussianBlur
         id="feGaussianBlur3327"
         stdDeviation="2.32" /></filter><radialGradient
       cx="48"
       cy="90.171875"
       r="42"
       fx="48"
       fy="90.171875"
       id="radialGradient3720"
       xlink:href="#linearGradient3737"
       gradientUnits="userSpaceOnUse"
       gradientTransform="matrix(1.1573129,0,0,0.99590774,-7.551021,0.1971319)" /><linearGradient
       x1="48"
       y1="90"
       x2="48"
       y2="5.9877172"
       id="linearGradient3757"
       xlink:href="#ButtonShadow"
       gradientUnits="userSpaceOnUse"
       gradientTransform="matrix(1.0238095,0,0,1.0119048,-1.14286,0.92857143)" /><linearGradient
       x1="48"
       y1="90"
       x2="48"
       y2="5.9877172"
       id="linearGradient2946"
       xlink:href="#ButtonShadow"
       gradientUnits="userSpaceOnUse"
       gradientTransform="translate(0,1)" /><linearGradient
       inkscape:collect="always"
       xlink:href="#ButtonShadow"
       id="linearGradient569"
       gradientUnits="userSpaceOnUse"
       gradientTransform="matrix(1.0238095,0,0,1.0119048,-1.14286,0.92857143)"
       x1="48"
       y1="90"
       x2="48"
       y2="5.9877172" /><linearGradient
       inkscape:collect="always"
       xlink:href="#ButtonShadow"
       id="linearGradient571"
       gradientUnits="userSpaceOnUse"
       gradientTransform="matrix(1.0238095,0,0,1.0119048,-1.14286,0.92857143)"
       x1="48"
       y1="90"
       x2="48"
       y2="5.9877172" /><linearGradient
       inkscape:collect="always"
       xlink:href="#ButtonShadow"
       id="linearGradient573"
       gradientUnits="userSpaceOnUse"
       gradientTransform="matrix(1.0238095,0,0,1.0119048,-1.14286,0.92857143)"
       x1="48"
       y1="90"
       x2="48"
       y2="5.9877172" /></defs><metadata
     id="metadata2413"><rdf:RDF><cc:Work
         rdf:about=""><dc:format>image/svg+xml</dc:format><dc:type
           rdf:resource="http://purl.org/dc/dcmitype/StillImage" /></cc:Work></rdf:RDF></metadata><g
     id="layer6"
     style="display:inline"><path
       id="path3755"
       style="display:inline;opacity:0.08;fill:url(#linearGradient569);fill-opacity:1;fill-rule:nonzero;stroke:none"
       d="M 23.84375 4 C 22.545146 3.97991 21.21571 4.0040002 19.84375 4.1875 A 0.9989342 0.9989342 0 0 0 19.8125 4.21875 C 19.8152 4.2182882 19.653637 4.2194031 19.65625 4.21875 C 19.65805 4.2182928 19.60168 4.238708 19.5625 4.25 C 19.54571 4.25484 19.53048 4.281502 19.53125 4.28125 C 19.28261 4.3596278 19.190707 4.5504616 19 4.6875 C 18.723636 4.4926513 18.525594 4.2244885 18.15625 4.125 C 17.395925 3.9201948 16.626651 4.0330361 15.9375 4.375 C 15.9392 4.3741923 15.87332 4.407145 15.875 4.40625 C 15.8767 4.4053547 15.77962 4.469731 15.78125 4.46875 C 15.78285 4.4677694 15.68592 4.532313 15.6875 4.53125 C 15.3179 4.305196 14.891424 4.1314305 14.4375 4.0625 A 0.9989342 0.9989342 0 0 0 14.34375 4.0625 C 14.34635 4.062684 14.216138 4.0625 14.21875 4.0625 C 14.22005 4.0625 14.19011 4.06131 14.15625 4.0625 L 14.09375 4.0625 L 12.03125 4.0625 L 12 4.0625 C 5.8718264 3.9030576 1.3871486 9.7088645 2.0625 15.5 C 2.06744 15.54233 2.05701 15.58268 2.0625 15.625 C 2.098163 26.028628 1.9979471 36.436933 2.125 46.875 C 2.1255082 46.91675 2.1244844 46.95825 2.125 47 C 2.1251413 46.9977 2.125 47.12729 2.125 47.125 C 2.125 47.1227 2.1251413 47.22104 2.125 47.21875 C 2.1250398 47.217806 2.1247797 47.22795 2.125 47.25 C 2.1243497 47.26035 2.1262 47.26495 2.125 47.28125 C 2.12775 47.31082 2.1251411 47.34489 2.125 47.34375 C 2.11999 47.40725 2.101785 47.464143 2.09375 47.5625 C 2.07316 47.814541 2.049818 48.155352 2.03125 48.53125 C 2.009103 48.979617 2.0301103 49.574604 2.28125 50.1875 C 2.430153 50.550892 2.8422579 50.721469 3.125 51 C 3.103674 51.01389 3.092942 51.03181 3.09375 51.03125 C 3.09537 51.03015 2.998446 51.0637 3 51.0625 C 3.00155 51.0613 2.936012 51.12628 2.9375 51.125 C 2.93899 51.1237 2.842331 51.22011 2.84375 51.21875 C 2.84517 51.21735 2.779905 51.28268 2.78125 51.28125 C 2.7826 51.27985 2.717483 51.34525 2.71875 51.34375 C 2.72002 51.34225 2.655064 51.43906 2.65625 51.4375 C 2.65744 51.4359 2.592648 51.50162 2.59375 51.5 C 2.59485 51.4984 2.530235 51.59543 2.53125 51.59375 C 2.53226 51.59205 2.499076 51.68923 2.5 51.6875 C 2.5009243 51.6858 2.436669 51.78303 2.4375 51.78125 C 2.4383314 51.77945 2.405514 51.87682 2.40625 51.875 C 2.4069862 51.8732 2.374361 51.97061 2.375 51.96875 C 1.618198 54.327472 2.2003589 56.464447 2.0625 57.59375 A 0.9989342 0.9989342 0 0 0 2.0625 57.625 C 2.0627876 57.6217 2.0625 57.815767 2.0625 57.8125 C 2.0625 57.8099 2.0607 57.89509 2.0625 57.9375 C 2.0629502 57.9481 2.0625575 57.9694 2.0625 57.96875 C 2.177685 59.824418 1.7132593 62.252744 2.28125 64.875 C 2.2806384 64.8724 2.313297 65.033796 2.3125 65.03125 C 2.3120783 65.02995 2.331607 65.05933 2.34375 65.09375 C 2.331712 65.1231 2.31207 65.15744 2.3125 65.15625 C 2.31354 65.15335 2.28045 65.284193 2.28125 65.28125 C 2.2820505 65.27835 2.249444 65.440499 2.25 65.4375 A 0.9989342 0.9989342 0 0 0 2.21875 65.5 C 1.7772433 68.609052 2.1734769 71.618906 2.0625 74.21875 C 2.0625919 74.21615 2.0625919 74.346359 2.0625 74.34375 C 2.2129529 78.515654 1.6528497 83.05553 2.4375 87.71875 A 0.9989342 0.9989342 0 0 0 2.46875 87.8125 C 2.4683349 87.811 2.491611 87.87845 2.5 87.90625 C 2.50258 87.91485 2.5001536 87.93796 2.5 87.9375 C 2.4993471 87.9355 2.532011 88.03317 2.53125 88.03125 L 2.5625 88.03125 C 4.0509825 93.135012 9.3715885 95.454874 14.09375 94.9375 C 14.10403 94.9364 14.11473 94.9387 14.125 94.9375 C 14.14472 94.937015 14.16776 94.93796 14.1875 94.9375 C 17.503637 94.86024 21.073957 95.128835 24.6875 94.8125 C 24.686754 94.812542 24.70168 94.814 24.71875 94.8125 C 24.7529 94.8095 24.78273 94.812325 24.78125 94.8125 C 24.77905 94.812762 24.908456 94.78085 24.90625 94.78125 C 24.90505 94.78146 24.93875 94.75633 24.96875 94.75 C 25.06323 94.79464 25.105089 94.83661 25.21875 94.875 C 25.561699 94.990819 25.923281 94.883 26.28125 94.84375 A 0.9989342 0.9989342 0 0 0 26.96875 94.84375 C 27.00092 94.83327 27.01125 94.81924 27.03125 94.8125 C 27.03985 94.8096 27.05289 94.8157 27.0625 94.8125 C 28.6273 94.293385 29.138737 93.978947 30.65625 93.71875 C 30.65415 93.719099 30.783337 93.68703 30.78125 93.6875 C 30.77915 93.68797 30.87706 93.65566 30.875 93.65625 C 30.8729 93.65684 30.97077 93.62429 30.96875 93.625 C 30.96675 93.625708 31.095725 93.59293 31.09375 93.59375 C 31.09175 93.594573 31.18942 93.53031 31.1875 93.53125 C 31.1856 93.532186 31.28312 93.49895 31.28125 93.5 C 31.27935 93.501 31.3768 93.43635 31.375 93.4375 C 31.3775 93.4391 31.40358 93.4358 31.40625 93.4375 C 31.638606 93.587166 32.268056 94.219223 33.21875 94.71875 A 0.9989342 0.9989342 0 0 0 33.25 94.75 C 33.2479 94.7489 33.34592 94.78217 33.34375 94.78125 C 33.34155 94.780326 33.470977 94.84453 33.46875 94.84375 C 33.46655 94.842966 33.56477 94.87564 33.5625 94.875 C 33.5602 94.874359 33.689809 94.90675 33.6875 94.90625 C 33.6852 94.905755 33.814836 94.906597 33.8125 94.90625 C 33.8102 94.905903 33.939853 94.9377 33.9375 94.9375 C 33.9351 94.937303 34.064861 94.937547 34.0625 94.9375 C 34.0601 94.937453 34.15861 94.937397 34.15625 94.9375 C 37.151233 94.85691 40.371183 95.155925 43.71875 94.8125 C 43.718164 94.812536 43.74081 94.813458 43.75 94.8125 C 43.78861 94.8085 43.877442 94.7809 43.875 94.78125 C 43.872 94.781687 44.034227 94.74932 44.03125 94.75 C 44.02825 94.750684 44.19041 94.71782 44.1875 94.71875 C 44.1846 94.719677 44.315324 94.65509 44.3125 94.65625 C 44.3097 94.65745 44.471469 94.59236 44.46875 94.59375 C 44.46605 94.59515 44.596345 94.52964 44.59375 94.53125 C 44.59115 94.53285 44.721204 94.43568 44.71875 94.4375 C 44.71625 94.4393 44.846046 94.34174 44.84375 94.34375 A 0.9989342 0.9989342 0 0 0 44.875 94.3125 C 45.081897 94.116129 45.137732 93.922165 45.28125 93.71875 C 45.509816 94.024885 45.668647 94.361213 46.0625 94.59375 C 46.554309 94.88412 47.047003 94.821802 47.53125 94.8125 A 0.9989342 0.9989342 0 0 0 47.96875 94.9375 C 48.0338 94.937241 48.106999 94.937802 48.1875 94.9375 C 57.419902 94.90293 66.665448 95.00275 75.9375 94.875 C 75.9362 94.874908 75.96614 94.8738 76 94.875 C 76.03386 94.8762 76.06381 94.875 76.0625 94.875 C 76.0599 94.875 76.190106 94.874816 76.1875 94.875 A 0.9989342 0.9989342 0 0 0 76.28125 94.875 C 76.22143 94.8841 76.642161 94.89201 77.15625 94.9375 C 77.670339 94.98299 78.341079 95.02577 79.0625 94.9375 C 79.10764 94.937063 79.173122 94.937681 79.21875 94.9375 C 80.98986 94.9305 83.101799 95.116538 85.28125 94.8125 C 87.54985 94.496026 89.958601 93.527208 91.65625 91.3125 L 91.6875 91.3125 C 91.6919 91.3067 91.6831 91.28706 91.6875 91.28125 L 91.71875 91.28125 C 93.386917 89.221819 93.863603 86.82576 93.96875 84.625 C 94.074434 82.412986 93.837636 80.286018 93.90625 78.53125 C 93.90617 78.53315 93.906235 78.43561 93.90625 78.4375 C 93.906265 78.4394 93.906139 78.34187 93.90625 78.34375 C 93.906361 78.34565 93.906044 78.24813 93.90625 78.25 C 93.906456 78.2519 93.8747 78.15439 93.875 78.15625 C 93.875301 78.15815 93.874604 78.06066 93.875 78.0625 C 93.875396 78.0643 93.84326 77.96693 93.84375 77.96875 C 93.844239 77.97055 93.81192 77.87321 93.8125 77.875 C 93.813081 77.8768 93.78058 77.77949 93.78125 77.78125 C 93.781921 77.78305 93.74924 77.68578 93.75 77.6875 C 93.750456 77.6885 93.73073 77.6817 93.71875 77.65625 C 93.80095 77.467334 93.857896 77.475299 93.90625 77.21875 A 0.9989342 0.9989342 0 0 0 93.9375 77.125 C 93.937212 77.1283 93.9375 76.934233 93.9375 76.9375 C 93.9375 76.9388 93.9389 76.90745 93.9375 76.875 C 93.937427 76.84378 93.937571 76.81247 93.9375 76.78125 C 93.90819 63.929207 94.01083 51.065732 93.90625 38.1875 C 93.906232 38.188088 93.906345 38.1658 93.90625 38.15625 C 93.90587 38.11806 93.906137 38.028901 93.90625 38.03125 C 93.906391 38.03415 93.87463 37.872084 93.875 37.875 C 93.875374 37.8779 93.874396 37.747123 93.875 37.75 C 93.875604 37.7529 93.84292 37.59093 93.84375 37.59375 C 93.84458 37.59655 93.7802 37.466004 93.78125 37.46875 C 93.78235 37.47145 93.71748 37.309846 93.71875 37.3125 C 93.72005 37.3152 93.65478 37.184954 93.65625 37.1875 C 93.65775 37.19 93.56083 37.060079 93.5625 37.0625 A 0.9989342 0.9989342 0 0 0 93.5625 37.03125 C 93.435998 36.862272 93.320979 36.823967 93.1875 36.6875 C 93.2177 36.6482 93.28273 36.59163 93.28125 36.59375 C 93.27925 36.59655 93.3767 36.434508 93.375 36.4375 C 94.060438 35.239893 94.047193 33.981028 94 33.0625 C 93.95263 32.140522 93.884898 31.380588 93.9375 31.03125 A 0.9989342 0.9989342 0 0 0 93.90625 30.65625 A 0.9989342 0.9989342 0 0 0 93.90625 30.625 C 94.00603 30.053667 94.015287 29.471432 93.65625 28.875 C 93.273052 28.238431 92.766474 27.900939 92.5 27.71875 C 92.718885 26.085106 92.291926 24.657758 92.130859 24.113281 C 92.215368 24.060247 92.259087 24.017152 92.46875 23.9375 A 0.9989342 0.9989342 0 0 0 92.5 23.9375 C 92.4979 23.938338 92.59576 23.87404 92.59375 23.875 C 92.59175 23.87596 92.720697 23.81142 92.71875 23.8125 C 92.71685 23.8136 92.81438 23.78006 92.8125 23.78125 C 92.8106 23.78245 92.90805 23.71745 92.90625 23.71875 C 92.90445 23.72005 93.00172 23.62359 93 23.625 C 92.9983 23.6264 93.06413 23.56099 93.0625 23.5625 C 93.0609 23.564 93.15779 23.46714 93.15625 23.46875 C 93.15475 23.47035 93.22019 23.40455 93.21875 23.40625 C 93.21735 23.40795 93.31384 23.31072 93.3125 23.3125 C 93.3112 23.3143 93.37623 23.21689 93.375 23.21875 C 93.3738 23.22065 93.43861 23.12307 93.4375 23.125 C 93.4364 23.1269 93.46975 23.02926 93.46875 23.03125 C 93.467753 23.03325 93.53213 22.904204 93.53125 22.90625 C 93.530374 22.90825 93.56325 22.8104 93.5625 22.8125 C 93.561749 22.8146 93.59437 22.71661 93.59375 22.71875 C 93.593273 22.72035 93.6171 22.65529 93.625 22.625 C 93.6274 22.6157 93.625116 22.59324 93.625 22.59375 C 94.350821 19.888338 93.809014 17.380824 93.9375 15.5625 C 93.94985 15.387803 93.94844 15.358259 93.9375 15.5 C 94.715312 9.4580233 89.730422 3.5747495 83.4375 4.0625 C 83.46905 4.06005 83.39485 4.06423 83.40625 4.0625 C 83.44044 4.0573 83.45972 4.049397 83.3125 4.0625 C 65.720132 4.0921744 48.086359 3.986979 30.5 4.09375 C 30.5019 4.0937673 30.40433 4.0938319 30.40625 4.09375 C 30.40815 4.0936681 30.31059 4.0939309 30.3125 4.09375 C 30.3144 4.0935691 30.21685 4.125279 30.21875 4.125 C 30.22065 4.1247206 30.12312 4.1253772 30.125 4.125 C 30.1269 4.1246228 30.02939 4.156724 30.03125 4.15625 C 30.03315 4.1557761 29.93567 4.188069 29.9375 4.1875 C 29.9393 4.1869306 29.84195 4.219413 29.84375 4.21875 C 29.84555 4.2180866 29.74824 4.250756 29.75 4.25 C 29.7518 4.2492445 29.65453 4.282096 29.65625 4.28125 C 29.65795 4.2804043 29.56083 4.344684 29.5625 4.34375 C 29.5642 4.3428164 29.49837 4.376019 29.5 4.375 C 29.5016 4.37398 29.40468 4.438602 29.40625 4.4375 C 29.40785 4.4364 29.34224 4.501181 29.34375 4.5 C 29.34525 4.49882 29.24855 4.563758 29.25 4.5625 C 29.2514 4.56124 29.18612 4.626331 29.1875 4.625 C 29.1889 4.62367 29.12369 4.688901 29.125 4.6875 C 29.10677 4.707198 29.11147 4.699868 29.09375 4.71875 C 28.989475 4.6378236 28.942868 4.6110094 28.8125 4.5 A 0.9989342 0.9989342 0 0 0 28.78125 4.46875 C 28.78385 4.4708 28.622212 4.373195 28.625 4.375 C 28.6278 4.37681 28.497062 4.279701 28.5 4.28125 C 28.5029 4.2828 28.340685 4.217471 28.34375 4.21875 C 28.34685 4.22003 28.184333 4.15525 28.1875 4.15625 C 28.1907 4.15725 27.996756 4.093037 28 4.09375 C 28.0032 4.0944628 27.840455 4.06208 27.84375 4.0625 C 27.84705 4.0629197 27.684181 4.0623768 27.6875 4.0625 C 27.6903 4.0626027 27.569898 4.0622855 27.53125 4.0625 C 27.52155 4.0627962 27.50968 4.0622198 27.5 4.0625 C 26.367256 4.0952897 25.135178 4.0199789 23.84375 4 z M 20.121094 25.853516 L 25.775391 29.707031 L 25.753906 29.535156 A 3.3215549 3.3215549 0 0 0 28.921875 32.4375 L 29.728516 32.46875 L 76.021484 63.380859 L 75.990234 64.109375 L 72.537109 74.314453 L 72.347656 74.363281 L 65.509766 73.947266 L 20.121094 25.853516 z M 67.583984 25.996094 L 69.853516 27.673828 L 69.003906 32.380859 L 62.289062 27.285156 L 67.583984 25.996094 z M 21.582031 64.361328 L 31.167969 73.613281 L 26.416016 75.414062 L 22.402344 75.035156 L 18.632812 71.503906 L 21.582031 64.361328 z " /><path
       id="path3747"
       style="display:inline;opacity:0.1;fill:url(#linearGradient571);fill-opacity:1;fill-rule:nonzero;stroke:none"
       d="M 23.84375 5 C 22.573023 4.980341 21.270391 5.0134072 19.96875 5.1875 A 0.88762099 0.88762099 0 0 0 19.84375 5.21875 C 19.441386 5.3353004 19.206069 5.5761608 19.03125 5.84375 C 18.762921 5.5179927 18.388802 5.2237327 17.90625 5.09375 C 17.423698 4.9637673 16.866617 5.037305 16.375 5.28125 A 0.88762099 0.88762099 0 0 0 16.21875 5.375 C 16.004426 5.5457387 15.919854 5.7649603 15.78125 5.96875 C 15.473589 5.5155393 14.911324 5.15818 14.28125 5.0625 A 0.88762099 0.88762099 0 0 0 14.15625 5.0625 L 12.03125 5.0625 L 12 5.0625 C 6.468025 4.9000114 2.3813511 10.24816 3.0625 15.5 C 3.0626472 15.54165 3.0623572 15.58335 3.0625 15.625 C 3.0983361 26.079058 2.9957781 36.534748 3.125 47 A 0.88762099 0.88762099 0 0 0 3.125 47.21875 C 3.135627 47.2604 3.066623 47.877638 3.03125 48.59375 C 3.013564 48.951807 3.0411902 49.379177 3.21875 49.8125 C 3.3963077 50.245823 3.7838782 50.658422 4.28125 50.875 A 0.88762099 0.88762099 0 0 0 4.65625 50.9375 C 4.8022572 50.9328 4.7122461 50.92706 4.8125 50.9375 C 4.4839102 51.248727 4.0554564 51.651866 3.8125 51.75 A 0.88762099 0.88762099 0 0 0 3.3125 52.28125 C 2.6653646 54.298174 3.2439388 56.232455 3.0625 57.71875 A 0.88762099 0.88762099 0 0 0 3.0625 57.875 C 3.1971205 59.932385 2.7340637 62.274314 3.25 64.65625 A 0.88762099 0.88762099 0 0 0 3.5 65.09375 A 0.88762099 0.88762099 0 0 0 3.5 65.125 A 0.88762099 0.88762099 0 0 0 3.21875 65.625 C 2.8022149 68.558204 3.1787167 71.527408 3.0625 74.25 A 0.88762099 0.88762099 0 0 0 3.0625 74.3125 C 3.2168451 78.592332 2.6837615 83.08299 3.4375 87.5625 A 0.88762099 0.88762099 0 0 0 3.46875 87.65625 C 4.7508866 92.322348 9.622387 94.428698 14 93.9375 C 14.02073 93.9352 14.04179 93.9399 14.0625 93.9375 C 17.484549 93.85117 21.078305 94.126396 24.625 93.8125 A 0.88762099 0.88762099 0 0 0 25.03125 93.6875 C 25.159701 93.77209 25.288846 93.855637 25.53125 93.9375 C 25.838983 94.041426 26.261237 94.03329 26.65625 93.875 L 26.65625 93.90625 C 26.69516 93.89357 26.71225 93.88752 26.75 93.875 C 28.249252 93.377629 28.875367 92.997314 30.5 92.71875 A 0.88762099 0.88762099 0 0 0 30.875 92.5625 C 31.120179 92.382736 31.224496 92.370261 31.34375 92.375 C 31.463004 92.3797 31.649101 92.4264 31.875 92.5625 C 32.326797 92.834698 32.888079 93.423707 33.6875 93.84375 A 0.88762099 0.88762099 0 0 0 34.125 93.9375 C 37.211671 93.85444 40.424133 94.14806 43.65625 93.8125 A 0.88762099 0.88762099 0 0 0 44.1875 93.59375 C 44.928837 92.890128 45.074158 92.049495 45.25 91.6875 C 45.30627 91.571662 45.34352 91.565358 45.375 91.53125 C 45.45039 91.921442 45.44708 92.258762 45.65625 92.6875 C 45.843454 93.071216 46.111268 93.452336 46.5625 93.71875 C 46.952923 93.949261 47.471536 93.97956 47.96875 93.90625 L 47.96875 93.9375 C 48.0416 93.93721 48.114646 93.937773 48.1875 93.9375 C 57.450454 93.90282 66.723483 94.00384 76 93.875 A 0.88762099 0.88762099 0 0 0 76.125 93.875 C 76.608367 93.80185 77.719564 94.086522 78.9375 93.9375 C 78.99161 93.9309 79.00788 93.946 79.0625 93.9375 C 80.932686 93.91939 83.070223 94.103505 85.15625 93.8125 C 87.271513 93.517417 89.398486 92.677003 90.90625 90.6875 C 90.91575 90.6759 90.92808 90.66788 90.9375 90.65625 C 92.425233 88.819574 92.868756 86.655414 92.96875 84.5625 C 93.069377 82.456336 92.833216 80.367815 92.90625 78.5 A 0.88762099 0.88762099 0 0 0 92.65625 77.84375 C 92.61776 77.80675 92.6401 77.83114 92.625 77.8125 C 92.69018 77.702919 92.84811 77.505517 92.9375 77.03125 A 0.88762099 0.88762099 0 0 0 92.9375 76.875 C 92.907434 63.974495 93.011418 51.06542 92.90625 38.15625 A 0.88762099 0.88762099 0 0 0 92.75 37.625 C 92.37943 37.130003 91.932102 36.812535 91.5625 36.5625 C 91.54414 36.55008 91.54932 36.54345 91.53125 36.53125 C 91.722419 36.4442 91.69295 36.45225 92 36.34375 A 0.88762099 0.88762099 0 0 0 92.5 35.9375 C 93.034267 35.004021 93.044757 33.996113 93 33.125 C 92.95524 32.253887 92.848098 31.468735 92.9375 30.875 L 92.875 30.875 C 93.032615 30.344065 93.05046 29.7703 92.8125 29.375 C 92.53989 28.922139 92.182873 28.690003 91.90625 28.5 C 91.698782 28.357498 91.60521 28.275015 91.53125 28.21875 C 92.056207 26.585133 91.394353 25.180616 91.15625 24.375 C 91.032261 23.955485 91.041161 23.768953 91.09375 23.65625 C 91.146339 23.543547 91.350405 23.294272 92.125 23 A 0.88762099 0.88762099 0 0 0 92.65625 22.375 C 93.316595 19.946815 92.792694 17.549283 92.9375 15.5 C 92.9389 15.48067 92.936 15.45676 92.9375 15.4375 C 93.673665 9.999783 89.145526 4.6249277 83.5 5.0625 C 83.46813 5.06497 83.43819 5.05966 83.40625 5.0625 C 65.777673 5.0927172 48.109518 4.9868384 30.5 5.09375 A 0.88762099 0.88762099 0 0 0 29.84375 5.375 C 29.544932 5.6979697 29.341529 5.907481 29.21875 6 C 29.179112 6.0298687 29.17568 6.0317852 29.164062 6.0410156 C 29.214305 6.0223735 28.858656 5.8481073 28.15625 5.25 A 0.88762099 0.88762099 0 0 0 27.5625 5.0625 C 26.356582 5.0994579 25.114477 5.0196586 23.84375 5 z M 20.986328 24.6875 L 27.376953 29.042969 L 27.412109 29.314453 A 2.3335871 2.3335871 0 0 0 29.638672 31.353516 L 30.722656 31.394531 L 77.708984 62.769531 L 77.648438 64.193359 L 73.980469 75.041016 L 73.121094 75.261719 L 65.736328 74.810547 L 18.753906 25.027344 L 19.585938 24.701172 L 20.986328 24.6875 z M 68.476562 24.828125 L 71.611328 27.146484 L 70.367188 34.044922 L 60.917969 26.875 L 62.355469 26.320312 L 68.476562 24.828125 z M 21.900391 62.544922 L 33.654297 73.886719 L 27.228516 76.322266 L 22.652344 75.888672 L 18.136719 71.660156 L 21.900391 62.544922 z " /><path
       id="path3733"
       style="display:inline;opacity:0.2;fill:url(#linearGradient573);fill-opacity:1;fill-rule:nonzero;stroke:none"
       d="M 17.275391 5.9101562 C 17.125457 5.9294133 16.964709 5.9782498 16.794922 6.0625 C 15.745445 6.8985527 16.13495 8.5580162 15.6875 9.71875 C 15.208871 8.5325191 15.858615 6.1960129 14.15625 5.9375 L 12 5.9375 C 7.0098882 5.771831 3.249534 10.723575 3.9375 15.486328 C 3.974623 25.98992 3.8626136 36.510145 3.9921875 47.003906 C 4.2145758 47.875495 3.3689019 49.511884 4.6289062 50.060547 C 7.6112027 49.965067 5.3042018 52.088644 4.1503906 52.554688 C 3.6128508 54.230036 4.1496376 56.061054 3.9375 57.798828 C 4.0820837 60.008479 3.6603934 62.337461 4.125 64.482422 C 5.3570735 65.388676 5.2364641 64.817657 4.0976562 65.765625 C 3.7039076 68.538368 4.0580281 71.451797 3.9375 74.275391 C 4.0951038 78.645581 3.5748316 83.084079 4.3007812 87.398438 C 5.4522103 91.58885 9.9434387 93.539193 13.982422 93.0625 C 17.485154 92.96969 21.047886 93.242455 24.515625 92.935547 C 25.028521 92.090917 25.522689 93.477069 26.371094 93.0625 C 27.889254 92.567812 28.592295 92.161694 30.355469 91.859375 C 31.84302 90.768706 32.857472 92.414243 34.080078 93.056641 C 37.235958 92.971721 40.458989 93.249408 43.576172 92.925781 C 44.602568 91.951602 44.132733 90.321977 46 90.5 C 46.138326 91.466872 46.385863 93.455148 47.964844 93.0625 C 57.30931 93.02532 66.669271 93.137462 76.003906 93.007812 C 76.85302 92.879309 77.965666 93.215717 78.951172 93.0625 C 82.862805 93.00839 87.533144 93.723156 90.222656 90.128906 C 92.925519 86.828682 91.874107 82.381859 92.027344 78.462891 C 91.338706 77.800914 91.915755 77.653571 92.0625 76.875 C 92.03242 63.968351 92.122668 51.04997 92.017578 38.150391 C 90.915188 36.67785 88.458321 36.658226 91.730469 35.501953 C 92.523451 34.116444 91.830298 32.295997 92.0625 30.753906 C 92.739551 29.223326 90.069456 29.084663 90.697266 28.087891 C 91.72654 25.391417 88.280011 23.491927 91.816406 22.148438 C 92.405775 19.981245 91.889253 17.606822 92.0625 15.363281 C 92.765656 10.442313 88.603424 5.4836395 83.503906 5.9375 C 65.839643 5.9682636 48.127681 5.8753645 30.494141 5.9824219 C 29.260551 7.3157153 29.113266 7.234789 27.603516 5.9492188 C 25.106894 6.025733 22.53785 5.7454939 20.080078 6.0742188 C 19.169373 6.3380173 19.468515 9.1129495 19.003906 8.0585938 C 18.889884 7.1013554 18.324926 5.7753572 17.275391 5.9101562 z M 21.554688 23.636719 L 28.369141 28.279297 L 28.441406 28.845703 A 1.6701456 1.6701456 0 0 0 30.033203 30.304688 L 31.306641 30.353516 L 78.759766 62.041016 L 78.677734 63.931641 L 74.863281 75.208984 L 73.556641 75.544922 L 65.806641 75.072266 L 17.966797 24.382812 L 19.828125 23.654297 L 21.554688 23.636719 z M 68.996094 23.726562 L 72.708984 26.472656 L 71.201172 34.841797 L 59.820312 26.207031 A 1.6701456 1.6701456 0 0 0 60.25 26.179688 L 62.527344 25.302734 L 68.996094 23.726562 z M 22.029297 61.003906 L 35.238281 73.75 L 27.691406 76.611328 L 22.734375 76.142578 L 17.720703 71.445312 L 22.029297 61.003906 z " /><path
       id="path2943"
       style="display:inline;opacity:0.45;fill:url(#linearGradient2946);fill-opacity:1;fill-rule:nonzero;stroke:none"
       d="M 12 7 C 8.6760033 7 6 9.6760033 6 13 L 6 46.21875 C 8.1857078 46.34132 10.563751 46.456808 11.75 46.65625 C 12.395559 46.764788 11.641729 46.898307 10.625 47 C 9.608271 47.101693 8.3114195 47.197367 7.8125 47.28125 C 7.2048206 47.383416 6.6118494 47.436377 6 47.53125 L 6 48.5625 C 6.3715196 48.59814 6.6922302 48.59375 6.90625 48.59375 C 7.6962692 48.593751 8.0385201 48.813533 8.1875 49.15625 C 8.3364799 49.498967 8.28125 49.97139 8.28125 50.53125 C 8.28125 50.95108 7.3654998 51.202642 7.15625 51.90625 C 7.0814701 52.157724 6.5382395 52.41712 6 52.65625 L 6 54.84375 C 6.7184793 54.86843 7.4115604 54.90347 7.8125 55.15625 C 8.0876697 55.329741 7.043939 55.532566 6 55.71875 L 6 63.21875 C 7.1114989 63.396966 9.2316406 64.11479 9.875 64.25 C 10.939799 64.473782 11.06034 64.585965 10.71875 64.6875 C 10.37716 64.789035 9.5884492 64.864286 8.78125 65 C 7.825911 65.160617 6.8870391 65.456871 6 65.65625 L 6 85 C 6 88.323997 8.6760033 91 12 91 L 24.5625 91 C 24.65568 90.566919 24.71576 90.094116 24.8125 89.59375 C 24.9496 88.88468 25.03902 88.249195 25.15625 88 C 25.18556 87.9377 25.21523 87.88582 25.25 87.875 C 25.35432 87.84254 25.49356 88.073891 25.71875 88.65625 C 26.01601 89.424968 26.2311 90.28035 26.375 91 L 27.125 91 C 27.39473 90.512114 27.67773 89.889238 27.90625 89.59375 C 28.00302 89.468611 28.18744 89.696865 28.4375 89.9375 C 28.68756 90.178135 29.00326 90.422566 29.34375 90.3125 C 29.977279 90.10771 30.92527 89.614305 31.34375 89.34375 C 31.48038 89.25542 31.61513 89.185426 31.71875 89.15625 C 31.82237 89.12707 31.89484 89.13872 31.96875 89.15625 C 32.11657 89.19131 32.20354 89.302418 32.3125 89.4375 C 32.53041 89.707664 32.761891 90.0625 33.34375 90.0625 C 33.81097 90.0625 34.00382 90.03112 34.125 90.125 C 34.24618 90.21888 34.2957 90.446146 34.5 91 L 43.1875 91 C 43.14083 90.413109 44.20094 88.869014 44.375 87.96875 C 44.56148 87.004239 44.59064 86.759698 44.65625 86.9375 C 44.72186 87.115302 44.82393 87.708466 45.09375 88.40625 C 45.20163 88.685227 45.30993 88.763582 45.40625 88.6875 C 45.50257 88.61142 45.57703 88.390394 45.65625 88.125 C 45.81469 87.594213 45.94325 86.856048 46 86.5625 C 46.12808 85.900053 46.09732 84.801429 46.09375 84.3125 C 46.09286 84.190268 46.08795 84.094308 46.09375 84.0625 C 46.11113 83.96707 46.17909 84.358409 46.375 85.625 C 46.53501 86.659451 46.92665 88.291985 47.09375 89.15625 C 47.2596 90.01403 47.36312 90.453629 47.46875 91 L 75.03125 91 C 75.06912 90.510867 75.06707 89.927937 75.09375 89.53125 C 75.11376 89.233735 75.16233 89.044461 75.25 89.0625 C 75.27922 89.0685 75.30177 89.10197 75.34375 89.15625 C 75.57177 89.45108 75.95096 90.298263 76.28125 91 L 84 91 C 87.323997 91 90 88.323997 90 85 L 90 77.9375 C 89.83452 77.942 89.70501 77.9375 89.5 77.9375 L 85.625 77.9375 C 84.426961 77.9375 83.629 77.9358 83.4375 77.875 C 83.246 77.81419 83.667961 77.688091 84.875 77.375 C 85.514799 77.209045 88.136832 76.473284 90 76.0625 L 90 38.09375 C 89.362431 37.830546 88.811589 37.60018 88.28125 37.1875 C 88.14205 37.079176 87.851559 36.824277 87.34375 36.65625 C 86.835941 36.488223 86.108699 36.402383 85.125 36.59375 C 83.627191 36.885134 83.48078 36.875724 83.90625 36.75 C 84.33172 36.624276 85.330561 36.367221 86.09375 36.21875 C 87.219659 35.999712 88.751931 35.038228 90 34.40625 L 90 29.875 C 89.317931 29.620057 88.60142 29.342045 88.28125 28.84375 C 88.07642 28.524969 87.99109 28.329414 88 28.21875 C 88.0089 28.108086 88.10446 28.069174 88.21875 28.03125 C 88.33304 27.99333 88.48243 27.97556 88.59375 27.875 C 88.70507 27.774438 88.78125 27.579827 88.78125 27.28125 C 88.78125 26.962129 88.86325 26.419327 88.84375 25.90625 C 88.83405 25.649711 88.80606 25.406772 88.71875 25.21875 C 88.63144 25.030728 88.49458 24.885251 88.28125 24.84375 C 87.720041 24.734572 87.46301 24.608772 87.40625 24.5 C 87.34949 24.391228 87.48319 24.309549 87.6875 24.21875 C 88.09611 24.037152 88.78861 23.910551 88.78125 23.90625 C 88.128101 23.525063 83.66483 22.984465 83.90625 22.9375 C 84.23109 22.87431 84.55017 22.813195 84.875 22.75 C 85.898279 22.550931 87.244661 22.437793 88.53125 22.1875 C 89.091179 22.07857 89.41673 21.934731 89.625 21.75 C 89.83327 21.565269 89.92108 21.35562 90 21.15625 L 90 13 C 90 9.6760033 87.323997 7 84 7 L 33.96875 7 C 34.06308 8.3811276 34.16346 9.9190312 33.875 9.15625 C 33.66947 8.6127675 33.54928 8.0434825 33.34375 7.5 C 33.29175 7.3624981 33.24629 7.1685228 33.1875 7 L 31.21875 7 C 30.98365 7.4865205 30.7614 7.9733782 30.4375 8.1875 C 29.94236 8.5148327 29.67724 8.6498259 29.4375 8.5625 C 29.19776 8.4751701 28.98338 8.1613395 28.625 7.6875 C 28.46506 7.4760352 28.18313 7.2530217 27.875 7 L 21.21875 7 L 19.9375 12.5 L 18.25 7 L 18.03125 7 L 16.3125 15.84375 L 14.9375 7 L 12 7 z M 22.019531 22.777344 L 29.181641 27.65625 L 29.283203 28.470703 A 1.1200255 1.1200255 0 0 0 30.351562 29.449219 L 31.779297 29.503906 L 79.619141 61.449219 L 79.521484 63.728516 L 75.585938 75.361328 L 73.90625 75.792969 L 65.851562 75.300781 L 17.304688 23.861328 L 20.017578 22.798828 L 22.019531 22.777344 z M 69.410156 22.824219 L 73.607422 25.927734 L 71.878906 35.517578 L 58.628906 25.460938 L 59.095703 25.259766 L 59.683594 25.402344 A 1.1200255 1.1200255 0 0 0 60.349609 25.359375 L 62.660156 24.46875 L 69.410156 22.824219 z M 22.126953 59.740234 L 36.542969 73.652344 L 28.0625 76.865234 L 22.792969 76.367188 L 17.363281 71.279297 L 22.126953 59.740234 z " /><path
       id="path3720"
       style="display:inline;opacity:0.3;fill:url(#linearGradient3757);fill-opacity:1;fill-rule:nonzero;stroke:none"
       d="M 12 7 C 8.1220039 7 5 10.122004 5 14 L 5 46.6875 C 7.2377488 46.811529 9.6605072 46.923184 10.875 47.125 C 11.535929 47.23483 10.790939 47.365847 9.75 47.46875 C 8.709063 47.571654 7.3545485 47.665118 6.84375 47.75 C 6.2216016 47.853382 5.6264174 47.903997 5 48 L 5 49.0625 C 5.3803656 49.09856 5.7183852 49.09375 5.9375 49.09375 C 6.7463292 49.093751 7.0974732 49.309453 7.25 49.65625 C 7.4025278 50.003047 7.34375 50.495975 7.34375 51.0625 C 7.34375 51.487328 6.4017318 51.725516 6.1875 52.4375 C 6.1109401 52.69197 5.5510544 52.945523 5 53.1875 L 5 55.40625 C 5.7355863 55.43122 6.4332644 55.46296 6.84375 55.71875 C 7.1254707 55.894306 6.0687949 56.1241 5 56.3125 L 5 63.875 C 6.1379629 64.055337 8.3100727 64.80068 8.96875 64.9375 C 10.058901 65.163946 10.193473 65.272256 9.84375 65.375 C 9.4940273 65.477744 8.6701682 65.550171 7.84375 65.6875 C 6.865665 65.850029 5.9081591 66.141997 5 66.34375 L 5 85 C 5 88.877996 8.1220039 92 12 92 L 24 92 C 24.0954 91.561763 24.150956 91.068823 24.25 90.5625 C 24.390364 89.844989 24.504979 89.220911 24.625 88.96875 C 24.65501 88.90571 24.68315 88.854698 24.71875 88.84375 C 24.825554 88.8109 24.956948 89.035708 25.1875 89.625 C 25.491838 90.40287 25.727674 91.271783 25.875 92 L 26.625 92 C 26.901152 91.506306 27.203539 90.861506 27.4375 90.5625 C 27.53657 90.435871 27.712736 90.694 27.96875 90.9375 C 28.224764 91.181 28.557653 91.423877 28.90625 91.3125 C 29.554863 91.105272 30.509056 90.586276 30.9375 90.3125 C 31.077383 90.22312 31.237663 90.154523 31.34375 90.125 C 31.449837 90.09547 31.51808 90.10726 31.59375 90.125 C 31.745089 90.16048 31.825946 90.26956 31.9375 90.40625 C 32.160598 90.67963 32.404287 91.0625 33 91.0625 C 33.478344 91.0625 33.657185 91.03001 33.78125 91.125 C 33.905315 91.22 33.978336 91.439552 34.1875 92 L 43.0625 92 C 43.01472 91.406122 44.103046 89.848481 44.28125 88.9375 C 44.47217 87.961506 44.495328 87.695081 44.5625 87.875 C 44.62967 88.054919 44.755005 88.668909 45.03125 89.375 C 45.141698 89.657298 45.245137 89.733238 45.34375 89.65625 C 45.44236 89.57926 45.512644 89.362303 45.59375 89.09375 C 45.755963 88.556644 45.879399 87.797042 45.9375 87.5 C 46.068629 86.829666 46.06616 85.713499 46.0625 85.21875 C 46.061589 85.095063 46.0566 85.000936 46.0625 84.96875 C 46.08029 84.87218 46.14317 85.28083 46.34375 86.5625 C 46.507569 87.609266 46.891421 89.250446 47.0625 90.125 C 47.232298 90.992991 47.360605 91.447125 47.46875 92 L 75.6875 92 C 75.72627 91.505044 75.72268 90.901409 75.75 90.5 C 75.77049 90.198943 75.81649 90.012996 75.90625 90.03125 C 75.93617 90.03735 75.95702 90.07007 76 90.125 C 76.233449 90.423339 76.630596 91.289909 76.96875 92 L 84 92 C 87.877996 92 91 88.877996 91 85 L 91 78.78125 C 90.83058 78.78585 90.709891 78.78125 90.5 78.78125 L 86.53125 78.78125 C 85.304687 78.78125 84.47731 78.78029 84.28125 78.71875 C 84.08519 78.65722 84.514222 78.535568 85.75 78.21875 C 86.405033 78.050815 89.092471 77.290674 91 76.875 L 91 38.46875 C 90.347251 38.202412 89.792967 37.980093 89.25 37.5625 C 89.107486 37.452886 88.80115 37.170027 88.28125 37 C 87.76135 36.829972 87.00712 36.74385 86 36.9375 C 84.466529 37.232352 84.314399 37.22097 84.75 37.09375 C 85.1856 36.966529 86.21864 36.712739 87 36.5625 C 88.152716 36.340851 89.722215 35.358251 91 34.71875 L 91 30.15625 C 90.301691 29.898272 89.577793 29.597976 89.25 29.09375 C 89.040293 28.771174 88.928378 28.580732 88.9375 28.46875 C 88.9466 28.356769 89.070489 28.319626 89.1875 28.28125 C 89.304511 28.24288 89.448529 28.22676 89.5625 28.125 C 89.67647 28.023241 89.75 27.833382 89.75 27.53125 C 89.75 27.20833 89.83246 26.644185 89.8125 26.125 C 89.8026 25.865407 89.77689 25.62776 89.6875 25.4375 C 89.59811 25.24724 89.46841 25.104495 89.25 25.0625 C 88.675429 24.952022 88.401861 24.828817 88.34375 24.71875 C 88.28564 24.608683 88.41582 24.52938 88.625 24.4375 C 89.043339 24.25374 89.757535 24.098102 89.75 24.09375 C 89.0813 23.708025 84.502832 23.172524 84.75 23.125 C 85.082574 23.06106 85.417436 23.001447 85.75 22.9375 C 86.797643 22.736061 88.182778 22.628272 89.5 22.375 C 90.07326 22.264773 90.411772 22.12443 90.625 21.9375 C 90.838227 21.75057 90.919201 21.514243 91 21.3125 L 91 14 C 91 10.122004 87.877996 7 84 7 L 33.625 7 C 33.72158 8.3975696 33.826576 9.959362 33.53125 9.1875 C 33.320824 8.6375475 33.210423 8.0499525 33 7.5 C 32.946762 7.3608612 32.90394 7.170529 32.84375 7 L 30.8125 7 C 30.571803 7.4923124 30.362862 7.9708291 30.03125 8.1875 C 29.524322 8.5187295 29.245448 8.6821155 29 8.59375 C 28.754552 8.5053801 28.523163 8.1669805 28.15625 7.6875 C 27.992502 7.4735178 27.721717 7.2560339 27.40625 7 L 20.59375 7 L 19.28125 12.5625 L 17.53125 7 L 17.3125 7 L 15.5625 15.9375 L 14.15625 7 L 12 7 z M 22.285156 22.138672 L 29.720703 27.205078 L 29.847656 28.214844 A 0.68310076 0.68310076 0 0 0 30.5 28.810547 L 32.050781 28.871094 L 80.197266 61.021484 L 80.085938 63.607422 L 76.054688 75.523438 L 74.078125 76.033203 L 65.783203 75.525391 L 16.673828 23.490234 L 20.064453 22.162109 L 22.285156 22.138672 z M 69.636719 22.150391 L 74.216797 25.537109 L 72.322266 36.050781 L 72.273438 36.0625 L 57.898438 25.15625 L 59.185547 24.599609 L 59.917969 24.777344 A 0.68310076 0.68310076 0 0 0 60.324219 24.75 L 62.660156 23.849609 L 69.636719 22.150391 z M 22.099609 58.779297 L 37.472656 73.615234 L 28.253906 77.107422 L 22.734375 76.585938 L 16.974609 71.191406 L 22.099609 58.779297 z " /></g><g
     id="layer1-1"
     style="display:inline"><path
       id="rect2419-2"
       style="fill:url(#linearGradient2969);fill-opacity:1;fill-rule:nonzero;stroke:none"
       d="M 12 6 C 8.6760033 6 6 8.6760033 6 12 L 6 45.21875 C 8.1857078 45.34132 10.563751 45.456808 11.75 45.65625 C 12.395559 45.764788 11.641729 45.898307 10.625 46 C 9.608271 46.101693 8.3114195 46.197367 7.8125 46.28125 C 7.2048206 46.383416 6.6118494 46.436377 6 46.53125 L 6 47.5625 C 6.3715196 47.59814 6.6922302 47.59375 6.90625 47.59375 C 7.6962692 47.593751 8.0385201 47.813533 8.1875 48.15625 C 8.3364799 48.498967 8.28125 48.97139 8.28125 49.53125 C 8.28125 49.95108 7.3654998 50.202642 7.15625 50.90625 C 7.0814701 51.157724 6.5382395 51.41712 6 51.65625 L 6 53.84375 C 6.7184793 53.86843 7.4115604 53.90347 7.8125 54.15625 C 8.0876697 54.329741 7.043939 54.532566 6 54.71875 L 6 62.21875 C 7.1114989 62.396966 9.2316406 63.11479 9.875 63.25 C 10.939799 63.473782 11.06034 63.585965 10.71875 63.6875 C 10.37716 63.789035 9.5884492 63.864286 8.78125 64 C 7.825911 64.160617 6.8870391 64.456871 6 64.65625 L 6 84 C 6 87.323997 8.6760033 90 12 90 L 24.5625 90 C 24.65568 89.566919 24.71576 89.094116 24.8125 88.59375 C 24.9496 87.88468 25.03902 87.249195 25.15625 87 C 25.18556 86.9377 25.21523 86.88582 25.25 86.875 C 25.35432 86.84254 25.49356 87.073891 25.71875 87.65625 C 26.01601 88.424968 26.2311 89.28035 26.375 90 L 27.125 90 C 27.39473 89.512114 27.67773 88.889238 27.90625 88.59375 C 28.00302 88.468611 28.18744 88.696865 28.4375 88.9375 C 28.68756 89.178135 29.00326 89.422566 29.34375 89.3125 C 29.977279 89.10771 30.92527 88.614305 31.34375 88.34375 C 31.48038 88.25542 31.61513 88.185426 31.71875 88.15625 C 31.82237 88.12707 31.89484 88.13872 31.96875 88.15625 C 32.11657 88.19131 32.20354 88.302418 32.3125 88.4375 C 32.53041 88.707664 32.761891 89.0625 33.34375 89.0625 C 33.81097 89.0625 34.00382 89.03112 34.125 89.125 C 34.24618 89.21888 34.2957 89.446146 34.5 90 L 43.1875 90 C 43.14083 89.413109 44.20094 87.869014 44.375 86.96875 C 44.56148 86.004239 44.59064 85.759698 44.65625 85.9375 C 44.72186 86.115302 44.82393 86.708466 45.09375 87.40625 C 45.20163 87.685227 45.30993 87.763582 45.40625 87.6875 C 45.50257 87.61142 45.57703 87.390394 45.65625 87.125 C 45.81469 86.594213 45.94325 85.856048 46 85.5625 C 46.12808 84.900053 46.09732 83.801429 46.09375 83.3125 C 46.09286 83.190268 46.08795 83.094308 46.09375 83.0625 C 46.11113 82.96707 46.17909 83.358409 46.375 84.625 C 46.53501 85.659451 46.92665 87.291985 47.09375 88.15625 C 47.2596 89.01403 47.36312 89.453629 47.46875 90 L 75.03125 90 C 75.06912 89.510867 75.06707 88.927937 75.09375 88.53125 C 75.11376 88.233735 75.16233 88.044461 75.25 88.0625 C 75.27922 88.0685 75.30177 88.10197 75.34375 88.15625 C 75.57177 88.45108 75.95096 89.298263 76.28125 90 L 84 90 C 87.323997 90 90 87.323997 90 84 L 90 76.9375 C 89.83452 76.942 89.70501 76.9375 89.5 76.9375 L 85.625 76.9375 C 84.426961 76.9375 83.629 76.9358 83.4375 76.875 C 83.246 76.81419 83.667961 76.688091 84.875 76.375 C 85.514799 76.209045 88.136832 75.473284 90 75.0625 L 90 37.09375 C 89.362431 36.830546 88.811589 36.60018 88.28125 36.1875 C 88.14205 36.079176 87.851559 35.824277 87.34375 35.65625 C 86.835941 35.488223 86.108699 35.402383 85.125 35.59375 C 83.627191 35.885134 83.48078 35.875724 83.90625 35.75 C 84.33172 35.624276 85.330561 35.367221 86.09375 35.21875 C 87.219659 34.999712 88.751931 34.038228 90 33.40625 L 90 28.875 C 89.317931 28.620057 88.60142 28.342045 88.28125 27.84375 C 88.07642 27.524969 87.99109 27.329414 88 27.21875 C 88.0089 27.108086 88.10446 27.069174 88.21875 27.03125 C 88.33304 26.99333 88.48243 26.97556 88.59375 26.875 C 88.70507 26.774438 88.78125 26.579827 88.78125 26.28125 C 88.78125 25.962129 88.86325 25.419327 88.84375 24.90625 C 88.83405 24.649711 88.80606 24.406772 88.71875 24.21875 C 88.63144 24.030728 88.49458 23.885251 88.28125 23.84375 C 87.720041 23.734572 87.46301 23.608772 87.40625 23.5 C 87.34949 23.391228 87.48319 23.309549 87.6875 23.21875 C 88.09611 23.037152 88.78861 22.910551 88.78125 22.90625 C 88.128101 22.525063 83.66483 21.984465 83.90625 21.9375 C 84.23109 21.87431 84.55017 21.813195 84.875 21.75 C 85.898279 21.550931 87.244661 21.437793 88.53125 21.1875 C 89.091179 21.07857 89.41673 20.934731 89.625 20.75 C 89.83327 20.565269 89.92108 20.35562 90 20.15625 L 90 12 C 90 8.6760033 87.323997 6 84 6 L 33.96875 6 C 34.06308 7.3811276 34.16346 8.9190312 33.875 8.15625 C 33.66947 7.6127675 33.54928 7.0434825 33.34375 6.5 C 33.29175 6.3624981 33.24629 6.1685228 33.1875 6 L 31.21875 6 C 30.98365 6.4865205 30.7614 6.9733782 30.4375 7.1875 C 29.94236 7.5148327 29.67724 7.6498259 29.4375 7.5625 C 29.19776 7.4751701 28.98338 7.1613395 28.625 6.6875 C 28.46506 6.4760352 28.18313 6.2530217 27.875 6 L 21.21875 6 L 19.9375 11.5 L 18.25 6 L 18.03125 6 L 16.3125 14.84375 L 14.9375 6 L 12 6 z M 69.785156 20.71875 L 74.964844 24.548828 L 72.916016 35.912109 L 72.123047 36.115234 L 56.554688 24.302734 L 59.125 23.191406 L 60.078125 23.421875 L 62.455078 22.505859 L 69.785156 20.71875 z M 22.492188 20.761719 L 30.359375 26.123047 L 30.525391 27.4375 L 32.269531 27.503906 L 80.896484 59.974609 L 80.763672 63.042969 L 76.583984 75.402344 L 74.144531 76.029297 L 65.472656 75.5 L 15.482422 22.53125 L 19.931641 20.789062 L 22.492188 20.761719 z M 21.851562 56.898438 L 38.722656 73.179688 L 28.347656 77.111328 L 22.4375 76.552734 L 16.164062 70.675781 L 21.851562 56.898438 z " /><path
       d="M 10.15625,6.34375 C 9.854723,6.440553 9.559795,6.547888 9.28125,6.6875 8.72416,6.966724 8.221197,7.353194 7.78125,7.78125 7.561276,7.995278 7.371884,8.223115 7.1875,8.46875 7.003116,8.714385 6.832092,8.976493 6.6875,9.25 6.573695,9.4652707 6.465683,9.6801347 6.375,9.90625 6.35403,9.958535 6.33107,10.008455 6.3125,10.0625 c -0.01036,0.03015 -0.02135,0.06337 -0.03125,0.09375 -0.006,0.01873 0.0058,0.04369 0,0.0625 -0.02154,0.07131 -0.04532,0.145178 -0.0625,0.21875 -0.04593,0.196664 -0.09198,0.393321 -0.125,0.59375 C 6.04135,11.3493 6,11.665279 6,12 v 2 31.21875 c 0.336356,0.01886 0.659579,0.04364 1,0.0625 V 13 11 C 7,10.635705 7.05212,10.279012 7.125,9.9375 7.14836,9.828031 7.18842,9.731618 7.21875,9.625 7.24545,9.530581 7.24943,9.4357 7.28125,9.34375 7.28895,9.3218 7.3045,9.30306 7.3125,9.28125 7.38808,9.071951 7.492742,8.850956 7.59375,8.65625 7.65102,8.548267 7.71649,8.446782 7.78125,8.34375 7.8053,8.30462 7.81866,8.25713 7.84375,8.21875 7.93786,8.077785 8.048671,7.942755 8.15625,7.8125 c 0.15254,-0.185862 0.32207,-0.369817 0.5,-0.53125 0.09922,-0.088888 0.206327,-0.1692 0.3125,-0.25 0.112727,-0.086487 0.223355,-0.1733 0.34375,-0.25 0.03146,-0.01999 0.06182,-0.0432 0.09375,-0.0625 0.0074,-0.0045 0.02385,0.0044 0.03125,0 0.232039,-0.138728 0.462548,-0.274778 0.71875,-0.375 z m 75.6875,0 c 0.256202,0.100222 0.486711,0.236272 0.71875,0.375 0.0074,0.0044 0.02385,-0.0045 0.03125,0 0.108182,0.065386 0.209929,0.1456 0.3125,0.21875 0.152409,0.109314 0.299114,0.218194 0.4375,0.34375 0.01127,0.0101 0.02008,0.02105 0.03125,0.03125 0.165609,0.153002 0.325576,0.32555 0.46875,0.5 0.107579,0.130255 0.21839,0.265285 0.3125,0.40625 0.06073,0.0929 0.1329,0.18404 0.1875,0.28125 0.04596,0.080046 0.08342,0.1672 0.125,0.25 0.08037,0.163801 0.15601,0.357511 0.21875,0.53125 0.008,0.02181 0.02355,0.04055 0.03125,0.0625 0.06787,0.196092 0.1121,0.386857 0.15625,0.59375 C 88.94788,10.279012 89,10.635705 89,11 v 2 8.0625 C 89.27304,20.97452 89.487622,20.871851 89.625,20.75 89.83327,20.565269 89.92108,20.35562 90,20.15625 V 14 12 c 0,-0.334721 -0.04135,-0.6507 -0.09375,-0.96875 -0.03302,-0.200429 -0.07907,-0.397086 -0.125,-0.59375 -0.02507,-0.09361 -0.03309,-0.189533 -0.0625,-0.28125 C 89.70883,10.12524 89.69791,10.09328 89.6875,10.0625 89.668933,10.008455 89.645969,9.9585349 89.625,9.90625 89.534316,9.6801347 89.426305,9.4652707 89.3125,9.25 89.167908,8.976493 88.996884,8.714385 88.8125,8.46875 88.628116,8.223115 88.438723,7.995278 88.21875,7.78125 87.778803,7.353194 87.27584,6.966724 86.71875,6.6875 86.440205,6.547888 86.145277,6.44055 85.84375,6.34375 Z M 89,28.4375 v 5.5 c 0.336753,-0.182434 0.687983,-0.373255 1,-0.53125 V 28.875 c -0.341035,-0.127471 -0.695593,-0.273842 -1,-0.4375 z m 0,8.1875 v 38.6875 c 0.336531,-0.08148 0.692488,-0.182201 1,-0.25 V 37.09375 C 89.642464,36.946151 89.314667,36.789888 89,36.625 Z M 7,46.40625 C 6.668861,46.4483 6.336982,46.479 6,46.53125 v 1.03125 c 0.37152,0.03564 0.69223,0.03125 0.90625,0.03125 0.03689,0 0.05879,-9.49e-4 0.09375,0 z M 7,51.125 c -0.216368,0.182144 -0.613571,0.359567 -1,0.53125 v 2.1875 c 0.348394,0.01197 0.693964,0.02202 1,0.0625 z m 0,3.40625 c -0.311386,0.06817 -0.629714,0.12146 -1,0.1875 v 7.5 c 0.284874,0.04568 0.624459,0.121076 1,0.21875 z m 0,9.875 c -0.334567,0.08694 -0.67744,0.177499 -1,0.25 V 82 84 c 0,3.324 2.676,6 6,6 h 12.5625 c 0.09318,-0.433081 0.15326,-0.905883 0.25,-1.40625 C 24.85465,88.375766 24.90217,88.19499 24.9375,88 H 14 12 C 9.218152,88 7,85.781848 7,83 V 81 Z M 89,76.9375 V 81 83 c 0,2.781848 -2.218152,5 -5,5 H 82 47.0625 c 0.0086,0.04295 0.02355,0.116426 0.03125,0.15625 0.16585,0.857781 0.26937,1.297378 0.375,1.84375 h 27.5625 c 0.03787,-0.489133 0.03582,-1.072063 0.0625,-1.46875 0.02001,-0.297515 0.06858,-0.486789 0.15625,-0.46875 0.02922,0.006 0.05177,0.03947 0.09375,0.09375 0.22802,0.29483 0.60721,1.142012 0.9375,1.84375 H 84 c 3.324,0 6,-2.676 6,-6 v -2 -5.0625 c -0.16548,0.0045 -0.29499,0 -0.5,0 z M 25.8125,88 c 0.234826,0.676172 0.43917,1.383221 0.5625,2 h 0.75 c 0.26973,-0.487886 0.55273,-1.110762 0.78125,-1.40625 0.09677,-0.125139 0.28119,0.103115 0.53125,0.34375 0.25006,0.240635 0.56576,0.485066 0.90625,0.375 0.63353,-0.20479 1.58152,-0.698195 2,-0.96875 0.13663,-0.08833 0.27138,-0.158324 0.375,-0.1875 0.10362,-0.02918 0.17609,-0.01753 0.25,0 0.14782,0.03506 0.23479,0.146168 0.34375,0.28125 0.21791,0.270164 0.44939,0.625 1.03125,0.625 0.46722,0 0.66007,-0.03138 0.78125,0.0625 0.12118,0.09388 0.1707,0.321145 0.375,0.875 h 8.6875 C 43.155928,89.602975 43.635518,88.777468 44,88 Z"
       inkscape:connector-curvature="0"
       id="path3615-7"
       style="display:inline;opacity:0.3;fill:url(#radialGradient3720);fill-opacity:1;fill-rule:nonzero;stroke:none" /></g><g
     id="layer3"
     style="display:inline"><path
       d="M 12,6 C 8.676,6 6,8.676 6,12 v 33.21875 c 0.336356,0.01886 0.6595788,0.04364 1,0.0625 V 13 C 7,10.218152 9.2181517,8 12,8 h 2.0625 l 1.25,8 c 0.06325,0.498819 0.497249,0.867145 1,0.875 0.502751,0.0079 0.9212,-0.347151 1,-0.84375 l 1.03125,-5.28125 0.625,2.03125 c 0.140195,0.425735 0.552009,0.701951 1,0.6875 0.447992,-0.01445 0.825034,-0.316114 0.9375,-0.75 L 22,8 h 5.46875 c 0.130793,0.1154471 0.331426,0.264956 0.34375,0.28125 0.345847,0.4572692 0.492179,0.9313268 1.28125,1.21875 0.389667,0.1419381 0.834483,0.085863 1.125,-0.03125 C 30.509267,9.3516371 30.736531,9.2054269 31,9.03125 31.473065,8.7185186 31.547282,8.3528168 31.71875,8 h 0.75 c 0.14566,0.4247908 0.25011,0.92185 0.46875,1.5 0.05249,0.1388048 0.06174,0.2486991 0.28125,0.5 0.109757,0.125651 0.368745,0.418922 0.875,0.375 0.506255,-0.04392 0.762158,-0.4329522 0.84375,-0.59375 0.163184,-0.3215957 0.114359,-0.4058289 0.125,-0.53125 0.01064,-0.1254211 2.38e-4,-0.2422877 0,-0.375 C 35.06207,8.6354084 35.047083,8.298129 35.03125,8 H 84 c 2.781848,0 5,2.218152 5,5 v 7.9375 c -0.0065,0.0082 -0.02249,0.05473 -0.03125,0.0625 -0.01207,0.01071 -0.156648,0.09639 -0.625,0.1875 -1.212932,0.235964 -2.540358,0.345414 -3.65625,0.5625 -0.322937,0.06283 -0.642023,0.123939 -0.96875,0.1875 -0.03092,0.006 -0.0701,0.01344 -0.125,0.03125 -0.0549,0.01781 -0.249246,0.124514 -0.25,0.125 -3.77e-4,2.43e-4 -0.187262,0.155992 -0.1875,0.15625 -2.38e-4,2.58e-4 -0.21865,0.343478 -0.21875,0.34375 -1e-4,2.72e-4 -0.03129,0.468463 -0.03125,0.46875 3.7e-5,2.87e-4 0.124827,0.374699 0.125,0.375 1.73e-4,3.01e-4 0.155942,0.218434 0.15625,0.21875 3.08e-4,3.16e-4 0.05986,0.06843 0.09375,0.09375 0.06779,0.05065 0.119333,0.07502 0.15625,0.09375 0.07383,0.03746 0.123965,0.05157 0.15625,0.0625 0.129141,0.04373 0.153035,0.04937 0.21875,0.0625 0.131431,0.02626 0.298428,0.06145 0.5,0.09375 0.403145,0.0646 0.954186,0.125479 1.53125,0.21875 0.218209,0.03527 0.407699,0.08759 0.625,0.125 -0.0026,0.203377 -0.04426,0.41779 0.03125,0.5625 0.243804,0.467215 0.541838,0.525695 0.78125,0.625 0.155941,0.06468 0.346609,0.110797 0.53125,0.15625 0.0075,0.0424 0.02596,0.0483 0.03125,0.1875 0.01272,0.334728 -0.0486,0.758571 -0.0625,1.1875 -0.07944,0.02657 -0.162906,0.04849 -0.3125,0.15625 C 87.259319,27.432118 87.026877,27.791183 87,28.125 c -0.05796,0.719813 0.200079,0.880497 0.4375,1.25 0.427142,0.66478 1.00622,0.937316 1.5625,1.15625 V 33.75 c -1.169862,0.611903 -2.452979,1.344092 -3.09375,1.46875 -0.815552,0.158657 -1.802596,0.42106 -2.28125,0.5625 -0.06238,0.01843 -0.129343,0.04233 -0.1875,0.0625 -0.05816,0.02017 -0.06113,0.0085 -0.25,0.125 -0.04722,0.02914 -0.110109,0.03838 -0.21875,0.15625 -0.02716,0.02947 -0.09352,0.124664 -0.09375,0.125 -2.32e-4,3.36e-4 -0.09362,0.187184 -0.09375,0.1875 -1.34e-4,3.16e-4 -0.09371,0.280955 -0.09375,0.28125 -3.6e-5,2.95e-4 0.03119,0.343476 0.03125,0.34375 6.3e-5,2.74e-4 0.124837,0.312248 0.125,0.3125 1.63e-4,2.52e-4 0.187236,0.218519 0.1875,0.21875 2.64e-4,2.31e-4 0.155885,0.124791 0.15625,0.125 3.65e-4,2.09e-4 0.08821,0.04776 0.125,0.0625 0.147152,0.05895 0.226292,0.0564 0.28125,0.0625 0.219833,0.02439 0.244355,0.0073 0.3125,0 0.27258,-0.02932 0.649288,-0.102741 1.40625,-0.25 0.836515,-0.162734 1.386596,-0.07865 1.71875,0.03125 0.327629,0.108408 0.417213,0.213302 0.625,0.375 0.44848,0.348981 0.898203,0.519432 1.34375,0.71875 v 36.5625 c -0.818365,0.196955 -1.257388,0.329557 -2.03125,0.53125 0.968379,-0.256033 2.099665,-0.544608 3.03125,-0.75 V 37.09375 c -0.63757,-0.263204 -1.18841,-0.49357 -1.71875,-0.90625 -0.1392,-0.108324 -0.42969,-0.363223 -0.9375,-0.53125 -0.50781,-0.168027 -1.23505,-0.253867 -2.21875,-0.0625 -1.49781,0.291384 -1.64422,0.281974 -1.21875,0.15625 0.42547,-0.125724 1.42431,-0.382779 2.1875,-0.53125 C 87.21966,34.999712 88.75193,34.038229 90,33.40625 V 28.875 C 89.31793,28.620057 88.60142,28.342045 88.28125,27.84375 88.07642,27.524969 87.99109,27.329414 88,27.21875 c 0.0089,-0.110664 0.10446,-0.149576 0.21875,-0.1875 0.11429,-0.03792 0.26368,-0.05569 0.375,-0.15625 0.11132,-0.100562 0.1875,-0.295173 0.1875,-0.59375 0,-0.319121 0.082,-0.861922 0.0625,-1.375 -0.0097,-0.256539 -0.03769,-0.499478 -0.125,-0.6875 -0.08731,-0.188022 -0.22417,-0.333499 -0.4375,-0.375 -0.56121,-0.109178 -0.81824,-0.234978 -0.875,-0.34375 -0.05676,-0.108772 0.07694,-0.190451 0.28125,-0.28125 0.40861,-0.181598 1.10111,-0.308199 1.09375,-0.3125 -0.65315,-0.381187 -5.11642,-0.921785 -4.875,-0.96875 0.32484,-0.06319 0.64392,-0.124305 0.96875,-0.1875 1.02328,-0.199069 2.36966,-0.312207 3.65625,-0.5625 C 89.09118,21.07857 89.41673,20.934731 89.625,20.75 89.83327,20.565269 89.92108,20.35562 90,20.15625 V 12 C 90,8.676 87.324,6 84,6 H 33.96875 C 34.06308,7.3811286 34.16346,8.9190317 33.875,8.15625 33.66947,7.6127666 33.54928,7.0434834 33.34375,6.5 33.29175,6.3624976 33.24629,6.1685229 33.1875,6 h -1.96875 c -0.2351,0.4865208 -0.45735,0.9733776 -0.78125,1.1875 -0.49514,0.3273326 -0.76026,0.4623265 -1,0.375 C 29.19776,7.4751735 28.98338,7.1613403 28.625,6.6875 28.46506,6.4760348 28.18313,6.2530216 27.875,6 H 21.21875 L 19.9375,11.5 18.25,6 H 18.03125 L 16.3125,14.84375 14.9375,6 Z m 74.96875,69.8125 c -0.891153,0.232262 -2.077547,0.524701 -2.34375,0.59375 -0.607731,0.157638 -1.01267,0.242795 -1.3125,0.34375 -0.149915,0.05048 -0.226451,0.03669 -0.53125,0.28125 -0.0762,0.06114 -0.177481,0.135257 -0.28125,0.34375 -0.103769,0.208493 -0.155224,0.59863 -0.03125,0.875 0.247947,0.55274 0.533325,0.554715 0.65625,0.59375 0.239467,0.07604 0.350113,0.05166 0.5,0.0625 0.149887,0.01084 0.304116,0.02704 0.5,0.03125 0.391769,0.0084 0.900506,0 1.5,0 1.131701,0 2.247813,0 3.375,0 V 85 c 0,2.434117 -1.711811,4.443649 -4,4.90625 C 87.847169,89.43487 90,86.984862 90,84 v -7.0625 c -0.16548,0.0045 -0.29499,0 -0.5,0 -1.29937,0 -2.57564,0 -3.875,0 -1.19804,0 -1.996,-0.0017 -2.1875,-0.0625 -0.1915,-0.06081 0.23046,-0.186909 1.4375,-0.5 0.3199,-0.08298 1.125371,-0.306467 2.09375,-0.5625 z m -77.25,-30.375 c 0.808363,0.06055 1.536785,0.135617 2.03125,0.21875 C 12.39556,45.764788 11.64173,45.898307 10.625,46 9.60827,46.101693 8.31142,46.197367 7.8125,46.28125 7.20482,46.383416 6.61185,46.436377 6,46.53125 v 1.03125 c 0.37152,0.03564 0.69223,0.03125 0.90625,0.03125 0.79002,10e-7 1.13227,0.219783 1.28125,0.5625 0.14898,0.342717 0.09375,0.815139 0.09375,1.375 0,0.41983 -0.91575,0.671391 -1.125,1.375 C 7.08147,51.157724 6.53824,51.41712 6,51.65625 v 2.1875 c 0.71848,0.02468 1.41156,0.05972 1.8125,0.3125 C 8.08767,54.329741 7.04394,54.532566 6,54.71875 v 7.5 c 0.2848739,0.04568 0.6244585,0.121076 1,0.21875 v -5.90625 c 0.2213534,-0.04506 0.4652447,-0.07382 0.65625,-0.125 0.2147182,-0.05753 0.3773068,-0.07878 0.65625,-0.25 0.1394716,-0.08561 0.4308888,-0.217587 0.53125,-0.75 C 8.8939306,55.140044 8.8089961,54.811233 8.6875,54.625 8.5660039,54.438767 8.440653,54.373596 8.34375,54.3125 7.8827818,54.021872 7.4372701,53.914553 7,53.875 V 53.3125 C 7.094819,53.26386 7.1876496,53.211843 7.28125,53.15625 7.5661207,52.987053 7.924177,52.862838 8.125,52.1875 c -7.707e-4,0.0026 0.075869,-0.09265 0.3125,-0.28125 0.1183154,-0.0943 0.2633698,-0.192087 0.4375,-0.375 0.1741302,-0.182913 0.40625,-0.527812 0.40625,-1 C 9.28125,50.037823 9.4456763,49.487691 9.125,48.75 9.03369,48.539948 8.7844439,48.39761 8.59375,48.21875 9.1630876,48.15803 9.9158783,48.080303 10.71875,48 c 0.527328,-0.05274 0.968861,-0.09227 1.34375,-0.1875 0.09372,-0.02381 0.163995,-0.05245 0.3125,-0.125 0.07425,-0.03628 0.174715,-0.08035 0.3125,-0.21875 0.137785,-0.138403 0.369362,-0.479629 0.3125,-0.875 -0.05686,-0.395371 -0.305922,-0.592622 -0.4375,-0.6875 C 12.430922,45.81137 12.353764,45.776347 12.28125,45.75 12.136223,45.69731 12.019493,45.67529 11.90625,45.65625 11.343229,45.56159 10.573482,45.495042 9.71875,45.4375 Z M 7,62.4375 c 1.0897186,0.283425 2.3965311,0.711944 2.875,0.8125 1.0648,0.223782 1.18534,0.335965 0.84375,0.4375 C 10.37716,63.789035 9.58845,63.864286 8.78125,64 7.82591,64.160617 6.88704,64.456871 6,64.65625 V 84 c 0,2.984862 2.1528308,5.43487 5,5.90625 C 8.7118109,89.443649 7,87.434117 7,85 V 66.46875 C 7.6616205,66.299134 8.3232868,66.103265 8.9375,66 9.6988097,65.872002 10.382007,65.839944 11,65.65625 11.149648,65.61177 11.350422,65.706 11.71875,65.1875 11.902914,64.92825 11.916584,64.345567 11.75,64.0625 11.583416,63.779433 11.420418,63.686517 11.3125,63.625 10.880829,63.37893 10.65189,63.367301 10.09375,63.25 9.9056141,63.210461 9.1649414,63.002597 8.40625,62.78125 7.9326877,62.643089 7.4664453,62.550719 7,62.4375 Z m 39.0625,20.59375 c -4.3e-4,1.2e-5 -0.530848,0.187234 -0.53125,0.1875 -4.02e-4,2.66e-4 -0.249625,0.249483 -0.25,0.25 -3.75e-4,5.17e-4 -0.07242,0.109427 -0.09375,0.15625 -0.02133,0.04682 -0.05265,0.09412 -0.0625,0.125 -0.0197,0.06176 -0.02538,0.09278 -0.03125,0.125 -0.04394,0.241386 -7.61e-4,0.227498 0,0.28125 7.61e-4,0.05375 -3.61e-4,0.106707 0,0.15625 0.0031,0.425493 -0.01817,1.17042 -0.0625,1.6875 -0.08915,-0.04734 -0.118993,-0.105021 -0.25,-0.125 -0.05228,-0.008 -0.103688,-0.0018 -0.15625,0 0.01487,-0.01299 0.01485,0.01805 0.03125,0.0625 0.06561,0.177802 0.16768,0.770965 0.4375,1.46875 0.10788,0.278977 0.21618,0.357332 0.3125,0.28125 0.09632,-0.07608 0.17078,-0.297106 0.25,-0.5625 0.15844,-0.530788 0.287,-1.268952 0.34375,-1.5625 0.12808,-0.662448 0.09732,-1.761071 0.09375,-2.25 -8.9e-4,-0.122232 -0.0058,-0.218192 0,-0.25 0.01738,-0.09543 0.08534,0.295908 0.28125,1.5625 0.16001,1.034452 0.55165,2.666984 0.71875,3.53125 0.16585,0.857781 0.26937,1.297378 0.375,1.84375 h 0.84375 c -0.06515,-0.310524 -0.127319,-0.558368 -0.21875,-1.03125 -0.177936,-0.920314 -0.572261,-2.552959 -0.71875,-3.5 -0.09825,-0.635203 -0.171285,-1.046931 -0.21875,-1.3125 -0.02373,-0.132785 -0.02862,-0.220896 -0.0625,-0.34375 -0.0085,-0.03071 -0.0089,-0.06728 -0.03125,-0.125 C 47.05131,83.65864 47.02755,83.64573 47,83.59375 46.98622,83.56776 46.96298,83.5378 46.9375,83.5 c -0.02548,-0.0378 -0.09326,-0.155745 -0.09375,-0.15625 -4.88e-4,-5.05e-4 -0.280791,-0.187255 -0.28125,-0.1875 -4.59e-4,-2.45e-4 -0.49957,-0.125012 -0.5,-0.125 z M 44.625,85.875 c -0.283836,0.0098 -0.560371,0.13895 -0.6875,0.25 -0.301342,0.263229 -0.282258,0.385296 -0.3125,0.46875 -0.03024,0.08345 -0.01692,0.128618 -0.03125,0.1875 -0.05731,0.235529 -0.126668,0.523731 -0.21875,1 -0.03491,0.180546 -0.309307,0.795974 -0.59375,1.375 C 42.643207,89.437257 42.490087,89.713153 42.375,90 h 0.8125 c -0.04667,-0.586892 1.01344,-2.130985 1.1875,-3.03125 0.13986,-0.723384 0.205378,-1.054772 0.25,-1.09375 z m -19.375,1 c 0.10432,-0.03246 0.24356,0.19889 0.46875,0.78125 C 26.01601,88.424969 26.2311,89.280349 26.375,90 h 0.75 c 0.26973,-0.487886 0.55273,-1.110762 0.78125,-1.40625 0.0097,-0.01251 0.01984,-0.02546 0.03125,-0.03125 -0.311783,0.04089 -0.68619,0.2025 -0.84375,0.40625 C 27.01979,89.06438 27.00072,89.151327 26.9375,89.25 26.84041,88.920002 26.782396,88.607466 26.65625,88.28125 26.534624,87.966716 26.450974,87.730627 26.3125,87.5 26.243263,87.384686 26.179917,87.276016 26,87.125 25.865062,87.011738 25.564596,86.883102 25.25,86.875 Z m 0,0 c -0.104865,-0.0027 -0.209502,-7.99e-4 -0.3125,0.03125 -0.376925,0.117294 -0.486441,0.328495 -0.5625,0.4375 -0.07606,0.109005 -0.100433,0.166532 -0.125,0.21875 -0.157298,0.334367 -0.191995,0.576489 -0.25,0.875 -0.05801,0.298511 -0.121857,0.629249 -0.1875,0.96875 C 23.76758,89.638569 23.75261,89.795264 23.71875,90 h 0.84375 c 0.09318,-0.433081 0.15326,-0.905883 0.25,-1.40625 C 24.9496,87.884679 25.03902,87.249195 25.15625,87 25.18556,86.9377 25.21523,86.88582 25.25,86.875 Z m 49.90625,1.1875 c -0.303503,0.04802 -0.590155,0.226498 -0.71875,0.375 -0.17146,0.198002 -0.2142,0.322485 -0.25,0.4375 -0.0716,0.230031 -0.08103,0.404704 -0.09375,0.59375 C 74.0824,89.637511 74.068265,89.816271 74.0625,90 h 0.96875 c 0.03787,-0.489133 0.03582,-1.072063 0.0625,-1.46875 0.02001,-0.297515 0.06858,-0.486789 0.15625,-0.46875 -0.03023,0.002 -0.0634,-0.0048 -0.09375,0 z m 0.09375,0 c 0.02922,0.006 0.05177,0.03947 0.09375,0.09375 0.22802,0.29483 0.60721,1.142012 0.9375,1.84375 h 0.65625 c -0.08457,-0.180517 -0.165457,-0.358468 -0.25,-0.53125 -0.17318,-0.353929 -0.296568,-0.634056 -0.53125,-0.9375 -0.0131,-0.01694 -0.04942,-0.04233 -0.125,-0.125 -0.07558,-0.08267 -0.235883,-0.276538 -0.5625,-0.34375 -0.06676,-0.01374 -0.148222,-0.0046 -0.21875,0 z m -43.5625,0.09375 c -0.08497,0.005 -0.167003,0.0079 -0.25,0.03125 -0.289408,0.08149 -0.469642,0.19186 -0.65625,0.3125 -0.276152,0.178537 -1.094023,0.558857 -1.59375,0.75 -0.0248,-0.02074 -0.03323,-0.0031 -0.0625,-0.03125 -0.09945,-0.0957 -0.176434,-0.216295 -0.375,-0.375 -0.09928,-0.07935 -0.213992,-0.212328 -0.53125,-0.28125 -0.06169,-0.0134 -0.140768,-0.0057 -0.21875,0 0.104415,0.02268 0.249955,0.194524 0.4375,0.375 0.25006,0.240635 0.56576,0.485066 0.90625,0.375 0.63353,-0.20479 1.58152,-0.698195 2,-0.96875 0.127521,-0.08244 0.243285,-0.155283 0.34375,-0.1875 z m 0.3125,0 c 0.130737,0.04197 0.210804,0.155173 0.3125,0.28125 0.213493,0.264688 0.443716,0.611083 1,0.625 -0.01252,-0.0097 -0.08385,-0.08275 -0.21875,-0.25 C 32.989813,88.683645 32.715007,88.312629 32.1875,88.1875 32.15112,88.1789 32.068997,88.16495 32,88.15625 Z m 1.90625,0.90625 c 0.09877,0.0061 0.165288,0.02108 0.21875,0.0625 0.12118,0.09388 0.1707,0.321145 0.375,0.875 h 0.6875 c -0.06973,-0.182937 -0.13372,-0.45216 -0.4375,-0.6875 -0.308754,-0.239194 -0.649553,-0.243796 -0.84375,-0.25 z"
       inkscape:connector-curvature="0"
       id="path3638"
       style="opacity:0.4;fill:url(#linearGradient3651);fill-opacity:1;fill-rule:nonzero;stroke:none" /><rect
       width="66"
       height="66"
       rx="12"
       ry="12"
       x="-25"
       y="15"
       transform="translate(40)"
       clip-path="url(#clipPath2977)"
       id="rect3171"
       style="display:none;opacity:0.1;fill:url(#linearGradient2908);fill-opacity:1;fill-rule:nonzero;stroke:#ffffff;stroke-width:0.5;stroke-linecap:round;stroke-linejoin:miter;stroke-miterlimit:4;stroke-dasharray:none;stroke-dashoffset:0;stroke-opacity:1;filter:url(#filter3794-3)" /></g><path
     id="path1915"
     style="display:inline;opacity:0.511009;fill:#ffffff;fill-opacity:1;stroke:none;stroke-width:2.1;stroke-linejoin:round;stop-color:#000000"
     d="m 16.189453,23.27357 -0.707031,0.277344 49.990234,52.96875 8.671875,0.529297 2.439453,-0.626953 4.179688,-12.359375 0.132812,-3.06836 -0.04297,-0.0293 -0.08984,2.070313 -4.179688,12.359375 -2.439453,0.626953 -8.671875,-0.529297 z m 41.228516,1.675782 -0.863281,0.373046 15.568359,11.8125 0.792969,-0.203125 2.048828,-11.363281 -0.164063,-0.121094 -1.884765,10.457032 -0.792969,0.203125 z m -40.947266,46.005859 -0.306641,0.740234 6.273438,5.876953 5.910156,0.558594 10.375,-3.93164 -0.763672,-0.738282 -9.611328,3.642578 -5.910156,-0.558593 z" /></svg>
