<?xml version="1.0" encoding="UTF-8" standalone="no"?>
<!-- Created with Inkscape (http://www.inkscape.org/) -->

<svg
   version="1.0"
   width="96"
   height="96"
   id="svg2408"
   sodipodi:docname="steam_icon_24720.svg"
   inkscape:version="1.2.2 (b0a8486541, 2022-12-01)"
   xml:space="preserve"
   xmlns:inkscape="http://www.inkscape.org/namespaces/inkscape"
   xmlns:sodipodi="http://sodipodi.sourceforge.net/DTD/sodipodi-0.dtd"
   xmlns:xlink="http://www.w3.org/1999/xlink"
   xmlns="http://www.w3.org/2000/svg"
   xmlns:svg="http://www.w3.org/2000/svg"
   xmlns:rdf="http://www.w3.org/1999/02/22-rdf-syntax-ns#"
   xmlns:cc="http://creativecommons.org/ns#"
   xmlns:dc="http://purl.org/dc/elements/1.1/"><sodipodi:namedview
     id="namedview24059"
     pagecolor="#ffffff"
     bordercolor="#000000"
     borderopacity="0.25"
     inkscape:showpageshadow="2"
     inkscape:pageopacity="0.0"
     inkscape:pagecheckerboard="0"
     inkscape:deskcolor="#d1d1d1"
     showgrid="false"
     inkscape:zoom="15.129139"
     inkscape:cx="50.663822"
     inkscape:cy="58.926024"
     inkscape:current-layer="svg2408" /><defs
     id="defs2410"><linearGradient
       id="linearGradient3729"><stop
         id="stop3731"
         style="stop-color:#1c59ad;stop-opacity:1"
         offset="0" /><stop
         id="stop3733"
         style="stop-color:#377ad6;stop-opacity:1"
         offset="1" /></linearGradient><linearGradient
       x1="45.447727"
       y1="92.539597"
       x2="45.447727"
       y2="7.0165396"
       id="ButtonShadow"
       gradientUnits="userSpaceOnUse"
       gradientTransform="scale(1.0058652,0.994169)"><stop
         id="stop3750"
         style="stop-color:#000000;stop-opacity:1"
         offset="0" /><stop
         id="stop3752"
         style="stop-color:#000000;stop-opacity:0.58823532"
         offset="1" /></linearGradient><linearGradient
       id="linearGradient3737"><stop
         id="stop3739"
         style="stop-color:#ffffff;stop-opacity:1"
         offset="0" /><stop
         id="stop3741"
         style="stop-color:#ffffff;stop-opacity:0"
         offset="1" /></linearGradient><linearGradient
       id="linearGradient3700"><stop
         id="stop3702"
         style="stop-color:#e6e6e6;stop-opacity:1"
         offset="0" /><stop
         id="stop3704"
         style="stop-color:#f5f5f5;stop-opacity:1"
         offset="1" /></linearGradient><linearGradient
       x1="48"
       y1="90"
       x2="48"
       y2="5.9877172"
       id="linearGradient3706"
       xlink:href="#linearGradient3700"
       gradientUnits="userSpaceOnUse" /><filter
       color-interpolation-filters="sRGB"
       id="filter3174"
       x="-0.047720931"
       y="-0.048282354"
       width="1.0954419"
       height="1.0965647"><feGaussianBlur
         stdDeviation="1.71"
         id="feGaussianBlur3176" /></filter><linearGradient
       x1="36.357143"
       y1="6"
       x2="36.357143"
       y2="63.893143"
       id="linearGradient3188"
       xlink:href="#linearGradient3737"
       gradientUnits="userSpaceOnUse" /><linearGradient
       x1="45.447727"
       y1="92.539597"
       x2="45.447727"
       y2="7.0165396"
       id="ButtonShadow-0"
       gradientUnits="userSpaceOnUse"
       gradientTransform="matrix(1.0058652,0,0,0.994169,100,0)"><stop
         id="stop3750-8"
         style="stop-color:#000000;stop-opacity:1"
         offset="0" /><stop
         id="stop3752-5"
         style="stop-color:#000000;stop-opacity:0.58823532"
         offset="1" /></linearGradient><linearGradient
       x1="32.251034"
       y1="6.1317081"
       x2="32.251034"
       y2="90.238609"
       id="linearGradient3780"
       xlink:href="#ButtonShadow-0"
       gradientUnits="userSpaceOnUse"
       gradientTransform="matrix(1.0238095,0,0,1.0119048,-1.1428571,-98.071429)" /><linearGradient
       x1="32.251034"
       y1="6.1317081"
       x2="32.251034"
       y2="90.238609"
       id="linearGradient3772"
       xlink:href="#ButtonShadow-0"
       gradientUnits="userSpaceOnUse"
       gradientTransform="matrix(1.0238095,0,0,1.0119048,-1.1428571,-98.071429)" /><linearGradient
       x1="32.251034"
       y1="6.1317081"
       x2="32.251034"
       y2="90.238609"
       id="linearGradient3725"
       xlink:href="#ButtonShadow-0"
       gradientUnits="userSpaceOnUse"
       gradientTransform="matrix(1.0238095,0,0,1.0119048,-1.1428571,-98.071429)" /><linearGradient
       x1="32.251034"
       y1="6.1317081"
       x2="32.251034"
       y2="90.238609"
       id="linearGradient3721"
       xlink:href="#ButtonShadow-0"
       gradientUnits="userSpaceOnUse"
       gradientTransform="translate(0,-97)" /><linearGradient
       x1="32.251034"
       y1="6.1317081"
       x2="32.251034"
       y2="90.238609"
       id="linearGradient3760"
       xlink:href="#ButtonShadow-0"
       gradientUnits="userSpaceOnUse"
       gradientTransform="matrix(1.0238095,0,0,1.0119048,-1.1428571,-98.071429)" /><linearGradient
       id="linearGradient3737-0"><stop
         id="stop3739-6"
         style="stop-color:#ffffff;stop-opacity:1"
         offset="0" /><stop
         id="stop3741-0"
         style="stop-color:#ffffff;stop-opacity:0"
         offset="1" /></linearGradient><radialGradient
       cx="48"
       cy="90.171875"
       r="42"
       fx="48"
       fy="90.171875"
       id="radialGradient2903"
       xlink:href="#linearGradient3737-0"
       gradientUnits="userSpaceOnUse"
       gradientTransform="matrix(1.1573129,0,0,0.99590774,-7.551021,0.1971319)" /><clipPath
       id="clipPath3782"><path
         d="m -98,6 c -3.324,0 -6,2.676 -6,6 l 0,72 c 0,3.324 2.676,6 6,6 l 72,0 c 3.324,0 6,-2.676 6,-6 l 0,-72 c 0,-3.324 -2.676,-6 -6,-6 l -72,0 z m 59.0625,12 C -38.336494,17.9909 -38,18.03125 -38,18.03125 l 0,12.0625 C -50.051065,30.305506 -53,42.0625 -53,42.0625 l 9.0625,0 0,12.0625 -14.09375,0 C -66.507844,80.276885 -86,77.9375 -86,77.9375 l 0,-12.0625 c 0,0 12.376145,2.298313 18.6875,-20.75 6.908061,-25.227422 24.167961,-27.061294 28.375,-27.125 z"
         inkscape:connector-curvature="0"
         id="path3784"
         style="fill:#ff00ff;fill-opacity:1;fill-rule:nonzero;stroke:none" /></clipPath><filter
       x="-0.18283333"
       y="-0.14622227"
       width="1.3656667"
       height="1.2924143"
       color-interpolation-filters="sRGB"
       id="filter3786"><feGaussianBlur
         id="feGaussianBlur3788"
         stdDeviation="3.24" /></filter><linearGradient
       x1="46.906918"
       y1="75.471306"
       x2="46.906918"
       y2="36.246487"
       id="linearGradient3745"
       xlink:href="#linearGradient3729"
       gradientUnits="userSpaceOnUse"
       gradientTransform="translate(-2)" /><linearGradient
       id="linearGradient3737-9"><stop
         id="stop3739-2"
         style="stop-color:#ffffff;stop-opacity:1"
         offset="0" /><stop
         id="stop3741-1"
         style="stop-color:#ffffff;stop-opacity:0"
         offset="1" /></linearGradient><clipPath
       id="clipPath3613"><rect
         width="84"
         height="84"
         rx="6"
         ry="6"
         x="6"
         y="6"
         id="rect3615"
         style="fill:#ffffff;fill-opacity:1;fill-rule:nonzero;stroke:none" /></clipPath><filter
       x="-0.19578789"
       y="-0.19578789"
       width="1.3915758"
       height="1.3915758"
       color-interpolation-filters="sRGB"
       id="filter3794"><feGaussianBlur
         id="feGaussianBlur3796"
         stdDeviation="5.28" /></filter><linearGradient
       x1="48"
       y1="20.220806"
       x2="48"
       y2="138.66119"
       id="linearGradient4186"
       xlink:href="#linearGradient3737-9"
       gradientUnits="userSpaceOnUse" /><linearGradient
       id="linearGradient2660"><stop
         style="stop-color:#edeeec;stop-opacity:1;"
         offset="0"
         id="stop2662" /><stop
         style="stop-color:#babdb6;stop-opacity:1;"
         offset="1"
         id="stop2664" /></linearGradient><linearGradient
       id="linearGradient15653"><stop
         style="stop-color:#f0f1ee;stop-opacity:1;"
         offset="0"
         id="stop15655" /><stop
         style="stop-color:#d5d9d1;stop-opacity:1;"
         offset="1"
         id="stop15657" /></linearGradient><linearGradient
       x1="43.17857"
       y1="13"
       x2="43.17857"
       y2="83.294571"
       id="linearGradient3436"
       xlink:href="#linearGradient3465-2"
       gradientUnits="userSpaceOnUse"
       gradientTransform="matrix(1.0593067,0,0,1.0605259,-2.896883,-2.897414)" /><linearGradient
       id="linearGradient3465-2"><stop
         id="stop3467-0"
         style="stop-color:#8c857c;stop-opacity:1;"
         offset="0" /><stop
         id="stop3469-2"
         style="stop-color:#fdfdfd;stop-opacity:1"
         offset="1" /></linearGradient><radialGradient
       cx="48"
       cy="90.171875"
       r="42"
       fx="48"
       fy="90.171875"
       id="radialGradient2893"
       xlink:href="#linearGradient3737"
       gradientUnits="userSpaceOnUse"
       gradientTransform="matrix(1.1573129,0,0,0.99590774,-7.551021,0.197132)" /><linearGradient
       inkscape:collect="always"
       xlink:href="#linearGradient62884"
       id="linearGradient62874"
       gradientUnits="userSpaceOnUse"
       x1="65.15625"
       y1="16.125"
       x2="65.15625"
       y2="69.687508" /><linearGradient
       id="linearGradient62884"><stop
         id="stop62880"
         style="stop-color:#ffffff;stop-opacity:1;"
         offset="0" /><stop
         id="stop62882"
         style="stop-color:#deecfc;stop-opacity:0"
         offset="1" /></linearGradient><linearGradient
       x1="48"
       y1="90"
       x2="48"
       y2="5.9877172"
       id="linearGradient4636"
       xlink:href="#linearGradient3187"
       gradientUnits="userSpaceOnUse" /><linearGradient
       id="linearGradient3187"><stop
         id="stop3189"
         style="stop-color:#b9b9b9;stop-opacity:1;"
         offset="0" /><stop
         id="stop3191"
         style="stop-color:#d7d7d7;stop-opacity:1;"
         offset="1" /></linearGradient><filter
       inkscape:collect="always"
       style="color-interpolation-filters:sRGB"
       id="filter62908"
       x="-0.035662353"
       y="-0.035662353"
       width="1.0713247"
       height="1.0713247"><feGaussianBlur
         inkscape:collect="always"
         stdDeviation="0.4896"
         id="feGaussianBlur62910" /></filter><radialGradient
       inkscape:collect="always"
       xlink:href="#linearGradient3700-9"
       id="radialGradient37668"
       cx="56.124557"
       cy="68.061661"
       fx="56.124557"
       fy="68.061661"
       r="42"
       gradientUnits="userSpaceOnUse"
       gradientTransform="matrix(1.756774,0,0,1.1261128,-41.979926,-8.7923795)" /><linearGradient
       id="linearGradient3700-9"><stop
         id="stop3702-2"
         style="stop-color:#f38b34;stop-opacity:1;"
         offset="0" /><stop
         id="stop3704-0"
         style="stop-color:#822f14;stop-opacity:1;"
         offset="1" /></linearGradient><radialGradient
       cx="48"
       cy="90.171875"
       r="42"
       fx="48"
       fy="90.171875"
       id="radialGradient2903-5"
       xlink:href="#linearGradient3737"
       gradientUnits="userSpaceOnUse"
       gradientTransform="matrix(1.1573129,0,0,0.99590774,-7.551021,0.1971319)" /><linearGradient
       inkscape:collect="always"
       xlink:href="#ButtonShadow-0"
       id="linearGradient688"
       gradientUnits="userSpaceOnUse"
       gradientTransform="matrix(1.0238095,0,0,1.0119048,-1.1428571,-98.071429)"
       x1="32.251034"
       y1="6.1317081"
       x2="32.251034"
       y2="90.238609" /><linearGradient
       inkscape:collect="always"
       xlink:href="#ButtonShadow-0"
       id="linearGradient690"
       gradientUnits="userSpaceOnUse"
       gradientTransform="matrix(1.0238095,0,0,1.0119048,-1.1428571,-98.071429)"
       x1="32.251034"
       y1="6.1317081"
       x2="32.251034"
       y2="90.238609" /><linearGradient
       inkscape:collect="always"
       xlink:href="#ButtonShadow-0"
       id="linearGradient692"
       gradientUnits="userSpaceOnUse"
       gradientTransform="matrix(1.0238095,0,0,1.0119048,-1.1428571,-98.071429)"
       x1="32.251034"
       y1="6.1317081"
       x2="32.251034"
       y2="90.238609" /><linearGradient
       inkscape:collect="always"
       xlink:href="#ButtonShadow-0"
       id="linearGradient694"
       gradientUnits="userSpaceOnUse"
       gradientTransform="matrix(1.0238095,0,0,1.0119048,-1.1428571,-98.071429)"
       x1="32.251034"
       y1="6.1317081"
       x2="32.251034"
       y2="90.238609" /><linearGradient
       inkscape:collect="always"
       xlink:href="#ButtonShadow-0"
       id="linearGradient696"
       gradientUnits="userSpaceOnUse"
       gradientTransform="translate(0,-97)"
       x1="32.251034"
       y1="6.1317081"
       x2="32.251034"
       y2="90.238609" /><linearGradient
       inkscape:collect="always"
       xlink:href="#linearGradient3737"
       id="linearGradient698"
       gradientUnits="userSpaceOnUse"
       x1="36.357143"
       y1="6"
       x2="36.357143"
       y2="63.893143" /><linearGradient
       inkscape:collect="always"
       xlink:href="#linearGradient62884"
       id="linearGradient700"
       gradientUnits="userSpaceOnUse"
       x1="65.15625"
       y1="16.125"
       x2="65.15625"
       y2="69.687508" /><linearGradient
       inkscape:collect="always"
       xlink:href="#linearGradient3737"
       id="linearGradient702"
       gradientUnits="userSpaceOnUse"
       x1="36.357143"
       y1="6"
       x2="36.357143"
       y2="63.893143" /></defs><metadata
     id="metadata2413"><rdf:RDF><cc:Work
         rdf:about=""><dc:format>image/svg+xml</dc:format><dc:type
           rdf:resource="http://purl.org/dc/dcmitype/StillImage" /></cc:Work></rdf:RDF></metadata><g
     id="layer7-7"
     style="display:inline"><path
       d="m 12,-95.03125 c -5.5110903,0 -10.03125,4.52016 -10.03125,10.03125 v 71 c 0,5.5110902 4.5201598,10.03125 10.03125,10.03125 h 72 c 5.51109,0 10.03125,-4.5201597 10.03125,-10.03125 v -71 c 0,-5.51109 -4.52016,-10.03125 -10.03125,-10.03125 z"
       transform="scale(1,-1)"
       id="path3786-3"
       style="display:inline;opacity:0.08;fill:url(#linearGradient688);fill-opacity:1;fill-rule:nonzero;stroke:none" /><path
       d="m 12,-94.03125 c -4.971633,0 -9.03125,4.059617 -9.03125,9.03125 v 71 c 0,4.9716329 4.0596171,9.03125 9.03125,9.03125 h 72 c 4.971633,0 9.03125,-4.059617 9.03125,-9.03125 v -71 c 0,-4.971633 -4.059617,-9.03125 -9.03125,-9.03125 z"
       transform="scale(1,-1)"
       id="path3778-6"
       style="display:inline;opacity:0.1;fill:url(#linearGradient690);fill-opacity:1;fill-rule:nonzero;stroke:none" /><path
       d="m 12,-93 c -4.4091333,0 -8,3.590867 -8,8 v 71 c 0,4.4091333 3.5908667,8 8,8 h 72 c 4.409133,0 8,-3.5908667 8,-8 v -71 c 0,-4.409133 -3.590867,-8 -8,-8 z"
       transform="scale(1,-1)"
       id="path3770-1"
       style="display:inline;opacity:0.2;fill:url(#linearGradient692);fill-opacity:1;fill-rule:nonzero;stroke:none" /><rect
       width="86"
       height="85"
       rx="7"
       ry="7"
       x="5"
       y="-92"
       transform="scale(1,-1)"
       id="rect3723-2"
       style="display:inline;opacity:0.3;fill:url(#linearGradient694);fill-opacity:1;fill-rule:nonzero;stroke:none" /><rect
       width="84"
       height="84"
       rx="6"
       ry="6"
       x="6"
       y="-91"
       transform="scale(1,-1)"
       id="rect3716-9"
       style="display:inline;opacity:0.45;fill:url(#linearGradient696);fill-opacity:1;fill-rule:nonzero;stroke:none" /></g><g
     id="layer1-3"><rect
       width="84"
       height="84"
       rx="6"
       ry="6"
       x="6"
       y="6"
       id="rect2419-1"
       style="fill:url(#radialGradient37668);fill-opacity:1;fill-rule:nonzero;stroke:none" /><path
       d="M 12,6 C 8.676,6 6,8.676 6,12 v 2 68 2 c 0,0.334721 0.04135,0.6507 0.09375,0.96875 0.0487,0.295596 0.09704,0.596915 0.1875,0.875 0.00988,0.03038 0.020892,0.0636 0.03125,0.09375 0.098865,0.287771 0.2348802,0.547452 0.375,0.8125 0.1445918,0.273507 0.3156161,0.535615 0.5,0.78125 0.1843839,0.245635 0.3737765,0.473472 0.59375,0.6875 0.439947,0.428056 0.94291,0.814526 1.5,1.09375 0.278545,0.139612 0.5734731,0.246947 0.875,0.34375 -0.2562018,-0.100222 -0.4867109,-0.236272 -0.71875,-0.375 -0.00741,-0.0044 -0.023866,0.0045 -0.03125,0 -0.031933,-0.0193 -0.062293,-0.04251 -0.09375,-0.0625 -0.120395,-0.0767 -0.2310226,-0.163513 -0.34375,-0.25 -0.1061728,-0.0808 -0.2132809,-0.161112 -0.3125,-0.25 C 8.4783201,88.557317 8.3087904,88.373362 8.15625,88.1875 8.0486711,88.057245 7.9378561,87.922215 7.84375,87.78125 7.818661,87.74287 7.805304,87.69538 7.78125,87.65625 7.716487,87.553218 7.6510225,87.451733 7.59375,87.34375 7.4927417,87.149044 7.3880752,86.928049 7.3125,86.71875 7.30454,86.69694 7.288911,86.6782 7.28125,86.65625 7.2494249,86.5643 7.2454455,86.469419 7.21875,86.375 7.1884177,86.268382 7.1483606,86.171969 7.125,86.0625 7.0521214,85.720988 7,85.364295 7,85 V 83 15 13 C 7,10.218152 9.2181517,8 12,8 h 2 68 2 c 2.781848,0 5,2.218152 5,5 v 2 68 2 c 0,0.364295 -0.05212,0.720988 -0.125,1.0625 -0.04415,0.206893 -0.08838,0.397658 -0.15625,0.59375 -0.0077,0.02195 -0.0233,0.04069 -0.03125,0.0625 -0.06274,0.173739 -0.138383,0.367449 -0.21875,0.53125 -0.04158,0.0828 -0.07904,0.169954 -0.125,0.25 -0.0546,0.09721 -0.126774,0.18835 -0.1875,0.28125 -0.09411,0.140965 -0.204921,0.275995 -0.3125,0.40625 -0.143174,0.17445 -0.303141,0.346998 -0.46875,0.5 -0.01117,0.0102 -0.01998,0.02115 -0.03125,0.03125 -0.138386,0.125556 -0.285091,0.234436 -0.4375,0.34375 -0.102571,0.07315 -0.204318,0.153364 -0.3125,0.21875 -0.0074,0.0045 -0.02384,-0.0044 -0.03125,0 -0.232039,0.138728 -0.462548,0.274778 -0.71875,0.375 0.301527,-0.0968 0.596455,-0.204138 0.875,-0.34375 0.55709,-0.279224 1.060053,-0.665694 1.5,-1.09375 0.219973,-0.214028 0.409366,-0.441865 0.59375,-0.6875 0.184384,-0.245635 0.355408,-0.507743 0.5,-0.78125 0.14012,-0.265048 0.276135,-0.524729 0.375,-0.8125 0.01041,-0.03078 0.02133,-0.06274 0.03125,-0.09375 0.09046,-0.278085 0.1388,-0.579404 0.1875,-0.875 C 89.95865,84.6507 90,84.334721 90,84 V 82 14 12 C 90,8.676 87.324,6 84,6 Z"
       inkscape:connector-curvature="0"
       id="rect3728-9"
       style="opacity:0.5;fill:url(#linearGradient698);fill-opacity:1;fill-rule:nonzero;stroke:none" /><path
       d="M 12,90 C 8.676,90 6,87.324 6,84 V 82 14 12 c 0,-0.334721 0.04135,-0.6507 0.09375,-0.96875 0.0487,-0.295596 0.09704,-0.596915 0.1875,-0.875 C 6.29113,10.12587 6.302142,10.09265 6.3125,10.0625 6.411365,9.774729 6.5473802,9.515048 6.6875,9.25 6.8320918,8.976493 7.0031161,8.714385 7.1875,8.46875 7.3718839,8.223115 7.5612765,7.995278 7.78125,7.78125 8.221197,7.353194 8.72416,6.966724 9.28125,6.6875 9.559795,6.547888 9.8547231,6.440553 10.15625,6.34375 9.9000482,6.443972 9.6695391,6.580022 9.4375,6.71875 c -0.00741,0.0044 -0.023866,-0.0045 -0.03125,0 -0.031933,0.0193 -0.062293,0.04251 -0.09375,0.0625 -0.120395,0.0767 -0.2310226,0.163513 -0.34375,0.25 -0.1061728,0.0808 -0.2132809,0.161112 -0.3125,0.25 C 8.4783201,7.442683 8.3087904,7.626638 8.15625,7.8125 8.0486711,7.942755 7.9378561,8.077785 7.84375,8.21875 7.818661,8.25713 7.805304,8.30462 7.78125,8.34375 7.716487,8.446782 7.6510225,8.548267 7.59375,8.65625 7.4927417,8.850956 7.3880752,9.071951 7.3125,9.28125 7.30454,9.30306 7.288911,9.3218 7.28125,9.34375 7.2494249,9.4357 7.2454455,9.530581 7.21875,9.625 7.1884177,9.731618 7.1483606,9.828031 7.125,9.9375 7.0521214,10.279012 7,10.635705 7,11 v 2 68 2 c 0,2.781848 2.2181517,5 5,5 h 2 68 2 c 2.781848,0 5,-2.218152 5,-5 V 81 13 11 C 89,10.635705 88.94788,10.279012 88.875,9.9375 88.83085,9.730607 88.78662,9.539842 88.71875,9.34375 88.71105,9.3218 88.69545,9.30306 88.6875,9.28125 88.62476,9.107511 88.549117,8.913801 88.46875,8.75 88.42717,8.6672 88.38971,8.580046 88.34375,8.5 88.28915,8.40279 88.216976,8.31165 88.15625,8.21875 88.06214,8.077785 87.951329,7.942755 87.84375,7.8125 87.700576,7.63805 87.540609,7.465502 87.375,7.3125 87.36383,7.3023 87.35502,7.29135 87.34375,7.28125 87.205364,7.155694 87.058659,7.046814 86.90625,6.9375 86.803679,6.86435 86.701932,6.784136 86.59375,6.71875 c -0.0074,-0.0045 -0.02384,0.0044 -0.03125,0 -0.232039,-0.138728 -0.462548,-0.274778 -0.71875,-0.375 0.301527,0.0968 0.596455,0.204138 0.875,0.34375 0.55709,0.279224 1.060053,0.665694 1.5,1.09375 0.219973,0.214028 0.409366,0.441865 0.59375,0.6875 0.184384,0.245635 0.355408,0.507743 0.5,0.78125 0.14012,0.265048 0.276135,0.524729 0.375,0.8125 0.01041,0.03078 0.02133,0.06274 0.03125,0.09375 0.09046,0.278085 0.1388,0.579404 0.1875,0.875 C 89.95865,11.3493 90,11.665279 90,12 v 2 68 2 c 0,3.324 -2.676,6 -6,6 z"
       inkscape:connector-curvature="0"
       id="path3615-4"
       style="display:inline;opacity:0.3;fill:url(#radialGradient2903-5);fill-opacity:1;fill-rule:nonzero;stroke:none" /></g><rect
     width="68"
     height="68"
     rx="3"
     ry="3"
     x="13.994708"
     y="13.977852"
     id="rect3469"
     style="display:inline;fill:none;stroke:#5f200f;stroke-width:2.5;stroke-linecap:square;stroke-linejoin:miter;stroke-miterlimit:4;stroke-dasharray:none;stroke-dashoffset:0;stroke-opacity:1;filter:url(#filter62908);enable-background:new"
     transform="matrix(1.010227,0,0,1.0094202,-0.488142,-0.466561)" /><path
     d="M 12,6 C 8.676,6 6,8.676 6,12 v 72 c 0,3.324 2.676,6 6,6 h 72 c 3.324,0 6,-2.676 6,-6 V 12 C 90,8.676 87.324,6 84,6 Z m 5,7 h 62 c 2.216001,0 4,1.784 4,4 v 62 c 10e-7,2.216001 -1.784,4 -4,4 H 17 c -2.215999,10e-7 -4,-1.784 -4,-4 V 17 c 0,-2.215999 1.784,-4 4,-4 z"
     id="rect2419-3"
     style="fill:url(#linearGradient4636);fill-opacity:1;fill-rule:nonzero;stroke:none" /><path
     d="M 12,90 C 8.676,90 6,87.324 6,84 V 82 14 12 c 0,-0.334721 0.04135,-0.6507 0.09375,-0.96875 0.0487,-0.295596 0.09704,-0.596915 0.1875,-0.875 C 6.29115,10.12587 6.30214,10.09265 6.3125,10.0625 6.41137,9.774729 6.54738,9.515048 6.6875,9.25 6.832092,8.976493 7.003116,8.714385 7.1875,8.46875 7.371884,8.223115 7.561276,7.995278 7.78125,7.78125 8.221197,7.353194 8.72416,6.966724 9.28125,6.6875 9.559795,6.547888 9.854723,6.440553 10.15625,6.34375 9.900048,6.443972 9.669539,6.580022 9.4375,6.71875 c -0.0074,0.0044 -0.02387,-0.0045 -0.03125,0 -0.03193,0.0193 -0.06229,0.04251 -0.09375,0.0625 -0.120395,0.0767 -0.231023,0.163513 -0.34375,0.25 -0.106173,0.0808 -0.213281,0.161112 -0.3125,0.25 C 8.47832,7.442683 8.30879,7.626638 8.15625,7.8125 8.048671,7.942755 7.937856,8.077785 7.84375,8.21875 7.81866,8.25713 7.8053,8.30462 7.78125,8.34375 7.71649,8.446782 7.651022,8.548267 7.59375,8.65625 7.492742,8.850956 7.388075,9.071951 7.3125,9.28125 7.3045,9.30306 7.28891,9.3218 7.28125,9.34375 7.24943,9.4357 7.24545,9.530581 7.21875,9.625 7.18842,9.731618 7.14836,9.828031 7.125,9.9375 7.05212,10.279012 7,10.635705 7,11 v 2 68 2 c 0,2.781848 2.218152,5 5,5 h 2 68 2 c 2.781848,0 5,-2.218152 5,-5 V 81 13 11 C 89,10.635705 88.94788,10.279012 88.875,9.9375 88.83085,9.730607 88.78662,9.539842 88.71875,9.34375 88.71105,9.3218 88.69545,9.30306 88.6875,9.28125 88.62476,9.107511 88.549117,8.913801 88.46875,8.75 88.42717,8.6672 88.38971,8.580046 88.34375,8.5 88.28915,8.40279 88.216976,8.31165 88.15625,8.21875 88.06214,8.077785 87.951329,7.942755 87.84375,7.8125 87.700576,7.63805 87.540609,7.465502 87.375,7.3125 87.36383,7.3023 87.35502,7.29135 87.34375,7.28125 87.205364,7.155694 87.058659,7.046814 86.90625,6.9375 86.803679,6.86435 86.701932,6.784136 86.59375,6.71875 c -0.0074,-0.0045 -0.02384,0.0044 -0.03125,0 -0.232039,-0.138728 -0.462548,-0.274778 -0.71875,-0.375 0.301527,0.0968 0.596455,0.204138 0.875,0.34375 0.55709,0.279224 1.060053,0.665694 1.5,1.09375 0.219973,0.214028 0.409366,0.441865 0.59375,0.6875 0.184384,0.245635 0.355408,0.507743 0.5,0.78125 0.14012,0.265048 0.276135,0.524729 0.375,0.8125 0.01041,0.03078 0.02133,0.06274 0.03125,0.09375 0.09046,0.278085 0.1388,0.579404 0.1875,0.875 C 89.95865,11.3493 90,11.665279 90,12 v 2 68 2 c 0,3.324 -2.676,6 -6,6 z"
     id="path3615-6"
     style="opacity:0.4;fill:#000000;fill-opacity:0;fill-rule:nonzero;stroke:none" /><path
     id="path6865"
     style="opacity:0.05;fill:#000000;fill-opacity:1;stroke:none;stroke-width:1.177;stroke-dasharray:none;stroke-opacity:1"
     sodipodi:type="inkscape:offset"
     inkscape:radius="1.4533372"
     inkscape:original="M 59.445312 19.404297 C 58.517023 19.414907 57.541444 19.635404 56.589844 20.126953 C 53.977054 21.476586 53.464961 23.831572 55.337891 25.880859 L 56.25 26.878906 L 55.947266 30.189453 C 55.628666 33.67681 55.079536 37.250548 54.822266 37.507812 C 54.738296 37.591792 54.07332 37.775939 53.34375 37.916016 C 51.06091 38.354322 48.9274 39.347586 46.875 40.929688 C 46.74784 41.027707 46.150456 40.782648 45.253906 40.261719 C 41.915336 38.321869 39.391852 38.00675 39.763672 39.576172 C 39.934242 40.296115 41.660132 42.781264 42.976562 44.203125 L 44.121094 45.441406 L 44.121094 46.884766 C 44.121094 49.385304 44.906264 51.111531 46.933594 53.078125 L 48.09375 54.203125 L 48.015625 56.626953 C 47.780895 63.873222 47.934891 65.347656 48.931641 65.347656 C 49.984851 65.347656 51.37218 62.629107 52.21875 58.904297 C 52.86597 56.056641 52.854553 56.076945 53.658203 56.242188 C 54.841183 56.485428 58.321382 56.377217 59.539062 56.058594 C 60.163502 55.895196 60.72265 55.810121 60.78125 55.869141 C 60.83986 55.928161 60.888672 57.947331 60.888672 60.357422 C 60.888672 64.253094 60.923465 64.792563 61.203125 65.220703 C 61.376135 65.485572 61.624899 65.703125 61.755859 65.703125 C 63.298369 65.703125 65.333161 60.11146 65.931641 54.230469 C 66.080061 52.772068 66.168636 52.500513 66.791016 51.570312 C 67.172406 51.00029 67.58974 50.253642 67.71875 49.912109 C 68.06274 49.001417 68.128566 48.969937 69.166016 49.195312 C 71.870516 49.78284 73.968371 49.792427 74.275391 49.21875 C 74.733471 48.362825 73.083911 46.86478 69.582031 44.957031 C 67.927311 44.055577 67.564352 43.777283 67.201172 43.134766 C 65.885082 40.806407 62.794067 38.701956 59.679688 38.013672 C 59.054257 37.875445 58.585485 37.665481 58.484375 37.476562 C 58.153455 36.858266 57.895003 32.175039 58.064453 29.863281 L 58.226562 27.646484 L 59.712891 27.511719 C 61.393581 27.359483 62.379156 26.98707 63.347656 26.136719 C 66.627866 23.256661 63.467902 19.358326 59.445312 19.404297 z M 59.175781 20.976562 C 59.429561 20.977663 59.56052 21.066353 59.46875 21.275391 C 58.87301 22.632329 59.465049 24.052761 60.724609 24.289062 C 61.830109 24.496454 63.103469 23.563747 63.105469 22.544922 C 63.106299 22.157842 63.561281 22.135802 63.707031 22.515625 C 64.150541 23.671382 63.324828 24.88271 61.773438 25.349609 C 58.555597 26.31804 55.077173 24.484551 56.189453 22.40625 C 56.538733 21.753615 58.414431 20.973115 59.175781 20.976562 z M 41.060547 23.503906 C 40.979967 23.492526 40.887613 23.497666 40.783203 23.509766 L 40.306641 23.564453 L 40.208984 25.912109 C 40.077644 29.030516 39.993638 29.102629 39.423828 26.59375 C 39.032668 24.871579 39.068242 24.896484 36.857422 24.896484 C 34.539682 24.896484 33.587089 25.063687 30.261719 26.052734 C 26.917369 27.047419 25.874354 27.227387 23.521484 27.216797 C 22.458744 27.211997 21.589844 27.25521 21.589844 27.3125 C 21.589844 27.36979 22.071709 28.527209 22.662109 29.884766 C 23.258749 31.256658 23.678822 32.450378 23.607422 32.572266 C 23.536742 32.69288 22.846979 33.611534 22.074219 34.615234 C 21.290729 35.632835 20.711272 36.549009 20.763672 36.685547 C 20.850052 36.910651 21.565221 37.110549 23.707031 37.503906 C 25.467691 37.827262 28.099755 37.578117 30.109375 36.900391 C 32.952425 35.941589 36.053373 35.64602 39.064453 36.044922 C 39.906943 36.156534 39.955013 36.191204 40.007812 36.738281 C 40.065512 37.336492 40.508219 37.59881 41.224609 37.460938 C 41.531149 37.401947 41.551803 37.031812 41.595703 30.785156 C 41.639563 24.549389 41.624667 23.583545 41.060547 23.503906 z M 40.181641 42.816406 C 40.104131 42.816406 40.041196 44.193675 40.041016 45.876953 C 40.040826 47.56023 39.987608 51.13457 39.923828 53.820312 C 39.817408 58.302402 39.834014 58.728547 40.115234 59.009766 C 40.478474 59.373005 40.758712 59.395621 41.138672 59.09375 C 41.381122 58.901123 41.431484 57.928504 41.521484 51.697266 L 41.625 44.523438 L 40.974609 43.669922 C 40.616339 43.200124 40.259141 42.816406 40.181641 42.816406 z M 52.283203 44.628906 C 52.416723 44.615146 52.57206 44.614846 52.75 44.628906 C 53.22449 44.666386 53.857834 44.802231 54.652344 45.033203 L 55.642578 45.320312 L 56.210938 46.818359 C 56.523738 47.64183 56.842922 48.316406 56.919922 48.316406 C 57.047622 48.316406 57.200253 47.835733 57.501953 46.496094 C 57.629983 45.927596 57.846053 45.908516 60.251953 46.244141 L 61.746094 46.453125 L 62.085938 47.472656 C 62.490378 48.68817 62.678397 48.753604 62.841797 47.738281 C 63.047117 46.462562 63.324437 46.1875 64.404297 46.1875 C 64.919227 46.1875 65.437588 46.28329 65.554688 46.400391 C 66.415378 47.261086 64.333633 49.766529 62.033203 50.640625 C 61.006463 51.030756 59.132768 51.07278 58.048828 50.728516 C 56.164788 50.130152 53.819308 48.516039 52.673828 47.03125 C 51.497558 45.506599 51.348543 44.725225 52.283203 44.628906 z M 44.09375 52.642578 C 43.76976 52.623528 43.405568 52.700737 42.923828 52.849609 C 42.688618 52.922289 42.597613 55.07222 42.820312 55.294922 C 42.885362 55.359972 43.804198 55.412109 44.861328 55.412109 C 47.251098 55.412109 47.352375 55.203314 45.734375 53.625 C 45.061845 52.968961 44.63372 52.674338 44.09375 52.642578 z M 38.519531 53.164062 C 38.365651 53.105013 37.187794 53.194083 35.902344 53.361328 C 29.384334 54.209391 22.460887 56.002055 16.216797 58.457031 C 16.135837 58.488861 16.07968 58.504476 16 58.535156 A 33.615185 33.615185 0 0 0 16.599609 60.244141 C 18.314169 59.609593 20.772847 58.8176 23.185547 58.175781 C 27.073277 57.141588 31.38208 56.359144 35.9375 55.861328 C 37.34029 55.708033 38.559231 55.541011 38.644531 55.488281 C 38.937381 55.307289 38.828461 53.28261 38.519531 53.164062 z M 67.576172 55.234375 C 67.156932 55.234375 66.987612 55.81083 66.945312 57.380859 L 66.919922 58.28125 L 69.138672 58.955078 C 72.388262 59.941431 76.400559 61.404136 78.292969 62.251953 A 33.615185 33.615185 0 0 0 79.548828 59.191406 C 79.253798 59.077125 79.010077 58.987039 78.591797 58.818359 C 74.504617 57.170077 68.555562 55.234375 67.576172 55.234375 z M 29.136719 62.880859 C 26.767499 62.806209 25.298374 65.910353 27.433594 67.707031 C 27.999744 68.183411 28.685547 68.349544 28.685547 68.009766 C 28.685547 67.912186 28.604859 67.832031 28.505859 67.832031 C 28.136819 67.832031 27.623747 66.678817 27.623047 65.849609 C 27.621947 64.457547 28.940968 63.367103 30.298828 63.638672 C 31.019428 63.782798 30.952399 63.435803 30.199219 63.121094 C 29.831929 62.967632 29.475169 62.891523 29.136719 62.880859 z M 41.636719 67.505859 C 39.249519 67.574349 37.023224 69.479998 37.027344 72.257812 C 37.029944 74.040306 37.761982 75.364185 39.326172 76.410156 C 39.567442 76.571491 39.922644 76.703125 40.115234 76.703125 C 40.421194 76.703125 40.395833 76.630774 39.908203 76.126953 C 38.442033 74.612026 38.403825 71.944887 39.828125 70.425781 C 41.107185 69.06158 43.047429 68.735905 44.755859 69.597656 C 45.327149 69.885819 45.823475 70.092491 45.859375 70.056641 C 46.003535 69.912491 45.503865 69.247734 44.796875 68.642578 C 43.840615 67.824058 42.721789 67.474727 41.636719 67.505859 z M 58.417969 69.283203 C 56.158039 69.247103 54.20071 71.588874 54.96875 73.882812 C 55.27969 74.811515 55.916056 75.555977 56.753906 75.970703 C 57.895856 76.535955 58.14783 76.436349 57.375 75.726562 C 55.02567 73.568862 56.396612 70.138672 59.607422 70.138672 C 60.640302 70.138672 60.547868 69.833732 59.398438 69.451172 C 59.070287 69.341956 58.740809 69.288359 58.417969 69.283203 z "
     d="m 59.427734,17.951172 c -1.146749,0.01311 -2.349908,0.288668 -3.503906,0.884766 -1.578233,0.815233 -2.729517,2.065062 -3.0625,3.595703 -0.332982,1.53064 0.236303,3.151713 1.404297,4.429687 L 54.744141,27.384766 54.5,30.056641 c -0.156509,1.713134 -0.370697,3.459066 -0.574219,4.783203 -0.09652,0.627997 -0.188247,1.141297 -0.267578,1.515625 -0.186073,0.04548 -0.364746,0.08997 -0.587891,0.132812 -2.266927,0.435251 -4.387002,1.448932 -6.40039,2.873047 -0.186675,-0.08857 -0.378764,-0.177216 -0.685547,-0.355469 -1.163184,-0.675859 -2.197067,-1.113377 -3.175781,-1.43164 0.09476,-0.347266 0.126877,-0.627877 0.15039,-1.050781 0.05359,-0.963779 0.06788,-2.603788 0.08984,-5.728516 0.02194,-3.119569 0.03372,-4.90493 -0.04297,-6.054688 -0.03834,-0.574878 -0.07011,-0.988123 -0.269531,-1.484375 -0.199418,-0.496251 -0.929883,-1.114781 -1.472656,-1.191406 -0.292828,-0.04135 -0.493429,-0.01601 -0.648438,0.002 l -0.474609,0.05469 a 1.4534825,1.4534825 0 0 0 -1.285156,1.382812 l -0.0039,0.115235 c -0.616434,-0.171629 -1.213103,-0.175782 -1.99414,-0.175782 -2.387636,0 -3.654602,0.218889 -7.009766,1.216797 -3.311121,0.984802 -4.043482,1.113764 -6.320312,1.103516 -0.552857,-0.0025 -1.051766,0.0061 -1.441406,0.02539 -0.194821,0.0097 -0.357925,0.02095 -0.521485,0.04102 -0.08178,0.01003 -0.153747,0.01782 -0.296875,0.05469 -0.07156,0.01844 -0.156856,0.03223 -0.341797,0.128906 -0.09247,0.04834 -0.217522,0.113209 -0.386719,0.291016 -0.0846,0.0889 -0.261297,0.379971 -0.261718,0.380859 -4.22e-4,8.88e-4 -0.140625,0.626058 -0.140625,0.626953 0,0.512913 0.05493,0.401116 0.07031,0.451172 0.01538,0.05006 0.02541,0.0808 0.03711,0.113281 0.0234,0.06497 0.04792,0.128587 0.07813,0.205078 0.0604,0.152982 0.141033,0.349822 0.240234,0.587891 0.198403,0.476138 0.469806,1.110228 0.767578,1.794922 0.286586,0.658965 0.529751,1.277532 0.683594,1.714844 0.01291,0.03671 0.01379,0.04593 0.02539,0.08008 -0.03598,0.04821 -0.05754,0.07741 -0.09766,0.130859 -0.272941,0.363635 -0.63639,0.840247 -1.019531,1.337891 -0.414709,0.538626 -0.774195,1.046821 -1.044922,1.474609 -0.135363,0.213894 -0.246324,0.402351 -0.345703,0.605469 -0.04969,0.101559 -0.09715,0.20318 -0.146484,0.363281 -0.04934,0.160101 -0.242984,0.346035 0.02148,1.035156 0.236135,0.615362 0.639521,0.814387 0.900391,0.945313 0.26087,0.130925 0.491109,0.202349 0.767578,0.279297 0.552937,0.153896 1.285436,0.302565 2.371093,0.501953 2.144209,0.393797 4.857379,0.109802 7.128907,-0.65625 2.590823,-0.87374 5.432318,-1.140815 8.1875,-0.792969 0.05575,0.144404 0.08615,0.280662 0.169922,0.416016 -0.489118,0.565954 -0.72903,1.391251 -0.582032,2.011718 0.126154,0.532471 0.309777,0.812584 0.544922,1.21875 0.09985,0.172476 0.242968,0.376343 0.361328,0.5625 -0.0032,0.0025 -0.007,0.0055 -0.0098,0.0078 -0.06164,0.05134 -0.111419,0.101025 -0.152344,0.146484 -0.163699,0.181836 -0.212305,0.300463 -0.251953,0.388672 -0.0793,0.176419 -0.09142,0.254466 -0.107422,0.326172 -0.03201,0.143412 -0.0413,0.234074 -0.05273,0.339844 -0.02287,0.211539 -0.03729,0.451913 -0.05078,0.746094 -0.02699,0.588361 -0.04288,1.368806 -0.04297,2.228515 -1.38e-4,1.216491 -0.04543,3.644893 -0.08594,5.820313 -3.74e-4,-2.1e-5 -0.0016,2.2e-5 -0.002,0 -0.108088,-0.0063 -0.199533,-0.0056 -0.298828,-0.0039 -0.198589,0.0035 -0.420755,0.01591 -0.675781,0.03516 -0.510053,0.03848 -1.144238,0.104715 -1.810547,0.191406 -6.647286,0.864883 -13.668961,2.682913 -20.029297,5.183594 -0.01861,0.0073 -0.06798,0.02263 -0.207031,0.07617 a 1.4534825,1.4534825 0 0 0 -0.863282,1.798828 c 0.192449,0.599764 0.402481,1.194674 0.626954,1.783203 a 1.4534825,1.4534825 0 0 0 1.861328,0.845703 c 1.659581,-0.614201 4.092373,-1.398825 6.455078,-2.027344 3.805911,-1.012428 8.046789,-1.782735 12.537109,-2.273437 0.712868,-0.0779 1.376615,-0.160298 1.886719,-0.230469 0.177975,-0.02448 0.311885,-0.04449 0.451172,-0.06641 0.0011,0.251952 -0.01888,0.841847 -0.01172,1.035156 0.01473,0.397743 0.03483,0.695247 0.125,1.037109 0.09017,0.341862 0.345995,0.760058 0.541016,0.955078 0.303095,0.303095 0.760704,0.659467 1.414062,0.712891 0.653359,0.05342 1.200939,-0.247393 1.541016,-0.517578 0.507828,-0.403471 0.609297,-0.886465 0.673828,-1.232422 0.06453,-0.345957 0.09263,-0.715747 0.121094,-1.265625 0.009,-0.173532 0.01351,-0.738444 0.02148,-0.949219 0.162579,0.01976 0.330539,0.03171 0.527344,0.04297 0.409658,0.02343 0.922152,0.03711 1.474609,0.03711 0.618606,0 1.103851,-0.0059 1.570313,-0.07031 0.04065,-0.0056 0.09002,-0.0267 0.130859,-0.0332 -0.110628,3.475304 -0.145563,5.6696 0.0039,7.09375 0.07665,0.730308 0.166657,1.302112 0.523438,1.896484 0.356781,0.594372 1.234303,1.048828 1.841797,1.048828 0.888529,0 1.468553,-0.479268 1.902343,-0.945312 0.43379,-0.466044 0.780954,-1.020512 1.113282,-1.671875 0.664656,-1.302727 1.245078,-3.001833 1.689453,-4.957032 0.234973,-1.033843 0.309649,-1.257717 0.378906,-1.517578 1.661076,0.230627 3.778315,0.160911 5.390625,-0.179687 0.01637,0.774307 0.0293,1.734819 0.0293,2.828125 0,1.952163 0.0052,3.061042 0.05469,3.826172 0.04946,0.76513 0.218517,1.40708 0.496094,1.832031 0.161284,0.246916 0.334702,0.45021 0.552734,0.640625 0.218033,0.190415 0.346548,0.5 1.216797,0.5 1.263696,0 1.896127,-0.826786 2.421875,-1.603516 0.525749,-0.776729 0.97016,-1.743632 1.384766,-2.882812 0.330957,-0.909346 0.610684,-1.987851 0.878906,-3.076172 a 1.4534825,1.4534825 0 0 0 0.05664,0.07813 l 2.21875,0.673828 c 3.185627,0.966938 7.22031,2.44298 8.982422,3.232422 a 1.4534825,1.4534825 0 0 0 1.910156,-0.708984 c 0.488757,-1.041932 0.92462,-2.108432 1.308594,-3.19336 a 1.4534825,1.4534825 0 0 0 -0.84375,-1.839843 C 79.767685,57.7172 79.537895,57.633273 79.134766,57.470703 77.047358,56.628891 74.521015,55.725532 72.369141,55.025391 71.293203,54.67532 70.311958,54.376953 69.517578,54.160156 68.723198,53.943359 68.299757,53.78125 67.576172,53.78125 c -0.0053,0 -0.01026,0.0077 -0.01563,0.0078 0.05482,-0.465732 0.02461,-0.793055 0.4375,-1.410156 0.389743,-0.582506 0.718177,-1.164129 0.966797,-1.75 1.377437,0.29306 2.623097,0.462099 3.648437,0.466797 0.527764,0.0024 0.997352,-0.02901 1.466797,-0.146484 0.469446,-0.117474 1.074113,-0.292932 1.476563,-1.044922 0.36897,-0.689424 0.246167,-1.541446 -0.0293,-2.09375 -0.275465,-0.552304 -0.661448,-0.972721 -1.136719,-1.404297 -0.950543,-0.863152 -2.30619,-1.740145 -4.113281,-2.724609 -0.811389,-0.442026 -1.272367,-0.722919 -1.486328,-0.886719 -0.213962,-0.1638 -0.200455,-0.156043 -0.324219,-0.375 -1.61117,-2.8504 -4.946622,-5.046911 -8.472656,-5.826172 -0.112171,-0.02479 -0.158248,-0.04745 -0.244141,-0.07422 -0.0175,-0.111388 -0.03506,-0.197872 -0.05273,-0.34375 -0.06226,-0.513752 -0.119043,-1.205927 -0.160157,-1.951172 -0.08223,-1.490488 -0.09899,-3.225067 -0.02344,-4.255859 l 0.07227,-0.986328 0.257812,-0.02344 c 1.841927,-0.16684 3.285138,-0.696392 4.462891,-1.730468 1.029141,-0.903597 1.669057,-2.019653 1.822265,-3.173828 0.153209,-1.154176 -0.180037,-2.277614 -0.783203,-3.185547 -1.206331,-1.815868 -3.432936,-2.946369 -5.917969,-2.917969 z m -1.529296,4.929687 c 0.04231,0.289831 0.0452,0.588143 0.15625,0.859375 -0.005,-0.0026 -0.01461,-0.0033 -0.01953,-0.0059 -0.369183,-0.194598 -0.552222,-0.417344 -0.589844,-0.494141 -0.03762,-0.0768 -0.06203,0.0149 0.02539,-0.148437 -0.144513,0.270025 0.195034,-0.03007 0.427735,-0.210938 z m -3.779297,23.521485 c 0.05625,0.01571 0.0685,0.01035 0.126953,0.02734 a 1.4534825,1.4534825 0 0 0 0.002,0 l 0.292969,0.08398 0.146484,0.388672 c -0.184671,-0.169819 -0.424749,-0.339294 -0.568359,-0.5 z m 4.615234,1.138672 c 0.285119,0.02217 0.488071,0.02702 1.316406,0.142578 l 0.601563,0.08398 0.05469,0.164063 c 0.110527,0.33218 0.207744,0.601131 0.333985,0.865234 0.06312,0.132051 0.129838,0.263142 0.251953,0.427734 0.01236,0.01666 0.06456,0.04227 0.07813,0.06055 -0.609929,0.171524 -2.320492,0.23719 -2.882813,0.05859 -0.107025,-0.03399 -0.252802,-0.148495 -0.367187,-0.193359 0.0532,-0.0725 0.137277,-0.160494 0.169922,-0.21875 0.127913,-0.22827 0.17762,-0.390087 0.238281,-0.580079 0.06396,-0.200318 0.138204,-0.541778 0.205078,-0.810546 z m -15.714844,1.041015 c 0.165293,0.919833 0.370358,1.839189 0.808594,2.666016 -0.293852,0.01512 -0.576765,0.06488 -0.849609,0.134765 z m -13.83789,12.845703 c -1.827836,-0.05759 -3.333533,1.120024 -3.935547,2.625 -0.602014,1.504976 -0.256801,3.496086 1.251953,4.765625 0.440597,0.370735 0.877611,0.623758 1.431641,0.757813 0.277014,0.06703 0.595407,0.145346 1.105468,-0.02734 0.510062,-0.17269 1.103516,-0.965219 1.103516,-1.539062 0,-0.898748 -0.749353,-1.63086 -1.632813,-1.63086 0.664663,0 0.799774,0.302027 0.826172,0.333985 0.0264,0.03196 -0.02956,-0.04324 -0.07813,-0.152344 -0.09714,-0.218207 -0.177637,-0.597468 -0.177734,-0.712891 -3.74e-4,-0.473409 0.490744,-0.872553 0.9375,-0.783203 0.285875,0.05718 0.535882,0.111587 0.972656,0.02148 0.218387,-0.04505 0.528277,-0.127329 0.845703,-0.458985 0.317426,-0.331656 0.472516,-0.955132 0.396485,-1.349609 -0.152064,-0.788955 -0.496224,-0.91883 -0.730469,-1.091797 -0.234245,-0.172967 -0.4694,-0.293901 -0.738281,-0.40625 -0.518469,-0.216628 -1.054252,-0.335056 -1.578125,-0.351563 z m 12.414062,4.625 c -3.133798,0.08991 -6.026757,2.651711 -6.021484,6.207032 0.0032,2.179349 1.082297,4.114886 2.943359,5.359375 0.485525,0.324665 0.742835,0.537109 1.597656,0.537109 0.133769,0 0.267683,0.07121 0.753907,-0.144531 0.243112,-0.107871 0.637568,-0.401313 0.804687,-0.84961 0.167119,-0.448297 0.07962,-0.837538 0.0039,-1.048828 -0.151427,-0.42258 -0.276112,-0.501769 -0.382812,-0.626953 -0.106397,-0.124828 -0.212679,-0.235727 -0.341797,-0.36914 v -0.002 c -0.8809,-0.911936 -0.898941,-2.805278 -0.06445,-3.695312 0.856407,-0.913415 2.030967,-1.121566 3.21289,-0.525391 0.312008,0.157379 0.599418,0.293198 0.847657,0.396485 0.124119,0.05164 0.233121,0.09376 0.371093,0.136718 0.06899,0.02148 0.136754,0.04587 0.283204,0.06836 0.07322,0.01125 0.164847,0.02553 0.341796,0.01367 0.08847,-0.0059 0.200229,-0.01739 0.357422,-0.06836 0.0786,-0.02549 0.169834,-0.06096 0.269532,-0.117187 0.0997,-0.05623 0.313892,-0.237721 0.314453,-0.238281 a 1.4534825,1.4534825 0 0 0 0,-0.002 c 0.363911,-0.363886 0.460277,-0.866182 0.449219,-1.160156 -0.01106,-0.293974 -0.07726,-0.467793 -0.136719,-0.613281 -0.118918,-0.290977 -0.247831,-0.47209 -0.390625,-0.662109 -0.285588,-0.38004 -0.641689,-0.745834 -1.066406,-1.109376 -1.226514,-1.049846 -2.721243,-1.52722 -4.146485,-1.486328 z m 16.845703,1.777344 c -3.276924,-0.05235 -5.950162,3.232437 -4.851562,6.513672 0.426237,1.273069 1.324179,2.338002 2.519531,2.929688 0.31974,0.158267 0.589681,0.279843 0.861328,0.373046 0.135824,0.0466 0.268741,0.08743 0.451172,0.117188 0.182431,0.02976 0.411822,0.1053 0.892578,-0.08398 0.240378,-0.09464 0.556568,-0.31179 0.748047,-0.634766 0.191479,-0.322976 0.225772,-0.679201 0.203125,-0.917969 -0.04529,-0.477536 -0.192911,-0.643627 -0.292969,-0.792969 -0.200115,-0.298682 -0.380577,-0.462218 -0.615234,-0.677734 -0.788352,-0.724048 -0.831208,-1.419412 -0.601563,-1.994141 0.229645,-0.574728 0.763704,-1.070312 1.851563,-1.070312 0.329732,0 0.594114,-0.0016 0.970703,-0.111328 0.188294,-0.05487 0.433036,-0.117441 0.744141,-0.425781 0.311104,-0.308341 0.53226,-1.066287 0.388672,-1.539063 C 61.42376,68.570074 61.018703,68.583181 60.746094,68.4375 60.473485,68.291819 60.194133,68.184332 59.857422,68.072266 59.387879,67.915991 58.909251,67.83755 58.441406,67.830078 Z"
     transform="translate(0,0.96132414)" /><path
     id="path6862"
     style="opacity:0.15;fill:#000000;fill-opacity:1;stroke:none;stroke-width:1.177;stroke-dasharray:none;stroke-opacity:1"
     sodipodi:type="inkscape:offset"
     inkscape:radius="1.0170246"
     inkscape:original="M 59.445312 19.404297 C 58.517023 19.414907 57.541444 19.635404 56.589844 20.126953 C 53.977054 21.476586 53.464961 23.831572 55.337891 25.880859 L 56.25 26.878906 L 55.947266 30.189453 C 55.628666 33.67681 55.079536 37.250548 54.822266 37.507812 C 54.738296 37.591792 54.07332 37.775939 53.34375 37.916016 C 51.06091 38.354322 48.9274 39.347586 46.875 40.929688 C 46.74784 41.027707 46.150456 40.782648 45.253906 40.261719 C 41.915336 38.321869 39.391852 38.00675 39.763672 39.576172 C 39.934242 40.296115 41.660132 42.781264 42.976562 44.203125 L 44.121094 45.441406 L 44.121094 46.884766 C 44.121094 49.385304 44.906264 51.111531 46.933594 53.078125 L 48.09375 54.203125 L 48.015625 56.626953 C 47.780895 63.873222 47.934891 65.347656 48.931641 65.347656 C 49.984851 65.347656 51.37218 62.629107 52.21875 58.904297 C 52.86597 56.056641 52.854553 56.076945 53.658203 56.242188 C 54.841183 56.485428 58.321382 56.377217 59.539062 56.058594 C 60.163502 55.895196 60.72265 55.810121 60.78125 55.869141 C 60.83986 55.928161 60.888672 57.947331 60.888672 60.357422 C 60.888672 64.253094 60.923465 64.792563 61.203125 65.220703 C 61.376135 65.485572 61.624899 65.703125 61.755859 65.703125 C 63.298369 65.703125 65.333161 60.11146 65.931641 54.230469 C 66.080061 52.772068 66.168636 52.500513 66.791016 51.570312 C 67.172406 51.00029 67.58974 50.253642 67.71875 49.912109 C 68.06274 49.001417 68.128566 48.969937 69.166016 49.195312 C 71.870516 49.78284 73.968371 49.792427 74.275391 49.21875 C 74.733471 48.362825 73.083911 46.86478 69.582031 44.957031 C 67.927311 44.055577 67.564352 43.777283 67.201172 43.134766 C 65.885082 40.806407 62.794067 38.701956 59.679688 38.013672 C 59.054257 37.875445 58.585485 37.665481 58.484375 37.476562 C 58.153455 36.858266 57.895003 32.175039 58.064453 29.863281 L 58.226562 27.646484 L 59.712891 27.511719 C 61.393581 27.359483 62.379156 26.98707 63.347656 26.136719 C 66.627866 23.256661 63.467902 19.358326 59.445312 19.404297 z M 59.175781 20.976562 C 59.429561 20.977663 59.56052 21.066353 59.46875 21.275391 C 58.87301 22.632329 59.465049 24.052761 60.724609 24.289062 C 61.830109 24.496454 63.103469 23.563747 63.105469 22.544922 C 63.106299 22.157842 63.561281 22.135802 63.707031 22.515625 C 64.150541 23.671382 63.324828 24.88271 61.773438 25.349609 C 58.555597 26.31804 55.077173 24.484551 56.189453 22.40625 C 56.538733 21.753615 58.414431 20.973115 59.175781 20.976562 z M 41.060547 23.503906 C 40.979967 23.492526 40.887613 23.497666 40.783203 23.509766 L 40.306641 23.564453 L 40.208984 25.912109 C 40.077644 29.030516 39.993638 29.102629 39.423828 26.59375 C 39.032668 24.871579 39.068242 24.896484 36.857422 24.896484 C 34.539682 24.896484 33.587089 25.063687 30.261719 26.052734 C 26.917369 27.047419 25.874354 27.227387 23.521484 27.216797 C 22.458744 27.211997 21.589844 27.25521 21.589844 27.3125 C 21.589844 27.36979 22.071709 28.527209 22.662109 29.884766 C 23.258749 31.256658 23.678822 32.450378 23.607422 32.572266 C 23.536742 32.69288 22.846979 33.611534 22.074219 34.615234 C 21.290729 35.632835 20.711272 36.549009 20.763672 36.685547 C 20.850052 36.910651 21.565221 37.110549 23.707031 37.503906 C 25.467691 37.827262 28.099755 37.578117 30.109375 36.900391 C 32.952425 35.941589 36.053373 35.64602 39.064453 36.044922 C 39.906943 36.156534 39.955013 36.191204 40.007812 36.738281 C 40.065512 37.336492 40.508219 37.59881 41.224609 37.460938 C 41.531149 37.401947 41.551803 37.031812 41.595703 30.785156 C 41.639563 24.549389 41.624667 23.583545 41.060547 23.503906 z M 40.181641 42.816406 C 40.104131 42.816406 40.041196 44.193675 40.041016 45.876953 C 40.040826 47.56023 39.987608 51.13457 39.923828 53.820312 C 39.817408 58.302402 39.834014 58.728547 40.115234 59.009766 C 40.478474 59.373005 40.758712 59.395621 41.138672 59.09375 C 41.381122 58.901123 41.431484 57.928504 41.521484 51.697266 L 41.625 44.523438 L 40.974609 43.669922 C 40.616339 43.200124 40.259141 42.816406 40.181641 42.816406 z M 52.283203 44.628906 C 52.416723 44.615146 52.57206 44.614846 52.75 44.628906 C 53.22449 44.666386 53.857834 44.802231 54.652344 45.033203 L 55.642578 45.320312 L 56.210938 46.818359 C 56.523738 47.64183 56.842922 48.316406 56.919922 48.316406 C 57.047622 48.316406 57.200253 47.835733 57.501953 46.496094 C 57.629983 45.927596 57.846053 45.908516 60.251953 46.244141 L 61.746094 46.453125 L 62.085938 47.472656 C 62.490378 48.68817 62.678397 48.753604 62.841797 47.738281 C 63.047117 46.462562 63.324437 46.1875 64.404297 46.1875 C 64.919227 46.1875 65.437588 46.28329 65.554688 46.400391 C 66.415378 47.261086 64.333633 49.766529 62.033203 50.640625 C 61.006463 51.030756 59.132768 51.07278 58.048828 50.728516 C 56.164788 50.130152 53.819308 48.516039 52.673828 47.03125 C 51.497558 45.506599 51.348543 44.725225 52.283203 44.628906 z M 44.09375 52.642578 C 43.76976 52.623528 43.405568 52.700737 42.923828 52.849609 C 42.688618 52.922289 42.597613 55.07222 42.820312 55.294922 C 42.885362 55.359972 43.804198 55.412109 44.861328 55.412109 C 47.251098 55.412109 47.352375 55.203314 45.734375 53.625 C 45.061845 52.968961 44.63372 52.674338 44.09375 52.642578 z M 38.519531 53.164062 C 38.365651 53.105013 37.187794 53.194083 35.902344 53.361328 C 29.384334 54.209391 22.460887 56.002055 16.216797 58.457031 C 16.135837 58.488861 16.07968 58.504476 16 58.535156 A 33.615185 33.615185 0 0 0 16.599609 60.244141 C 18.314169 59.609593 20.772847 58.8176 23.185547 58.175781 C 27.073277 57.141588 31.38208 56.359144 35.9375 55.861328 C 37.34029 55.708033 38.559231 55.541011 38.644531 55.488281 C 38.937381 55.307289 38.828461 53.28261 38.519531 53.164062 z M 67.576172 55.234375 C 67.156932 55.234375 66.987612 55.81083 66.945312 57.380859 L 66.919922 58.28125 L 69.138672 58.955078 C 72.388262 59.941431 76.400559 61.404136 78.292969 62.251953 A 33.615185 33.615185 0 0 0 79.548828 59.191406 C 79.253798 59.077125 79.010077 58.987039 78.591797 58.818359 C 74.504617 57.170077 68.555562 55.234375 67.576172 55.234375 z M 29.136719 62.880859 C 26.767499 62.806209 25.298374 65.910353 27.433594 67.707031 C 27.999744 68.183411 28.685547 68.349544 28.685547 68.009766 C 28.685547 67.912186 28.604859 67.832031 28.505859 67.832031 C 28.136819 67.832031 27.623747 66.678817 27.623047 65.849609 C 27.621947 64.457547 28.940968 63.367103 30.298828 63.638672 C 31.019428 63.782798 30.952399 63.435803 30.199219 63.121094 C 29.831929 62.967632 29.475169 62.891523 29.136719 62.880859 z M 41.636719 67.505859 C 39.249519 67.574349 37.023224 69.479998 37.027344 72.257812 C 37.029944 74.040306 37.761982 75.364185 39.326172 76.410156 C 39.567442 76.571491 39.922644 76.703125 40.115234 76.703125 C 40.421194 76.703125 40.395833 76.630774 39.908203 76.126953 C 38.442033 74.612026 38.403825 71.944887 39.828125 70.425781 C 41.107185 69.06158 43.047429 68.735905 44.755859 69.597656 C 45.327149 69.885819 45.823475 70.092491 45.859375 70.056641 C 46.003535 69.912491 45.503865 69.247734 44.796875 68.642578 C 43.840615 67.824058 42.721789 67.474727 41.636719 67.505859 z M 58.417969 69.283203 C 56.158039 69.247103 54.20071 71.588874 54.96875 73.882812 C 55.27969 74.811515 55.916056 75.555977 56.753906 75.970703 C 57.895856 76.535955 58.14783 76.436349 57.375 75.726562 C 55.02567 73.568862 56.396612 70.138672 59.607422 70.138672 C 60.640302 70.138672 60.547868 69.833732 59.398438 69.451172 C 59.070287 69.341956 58.740809 69.288359 58.417969 69.283203 z "
     d="m 59.433594,18.386719 c -1.081165,0.01236 -2.217312,0.271227 -3.310547,0.835937 -1.496623,0.773079 -2.536722,1.927314 -2.835938,3.302735 -0.299215,1.375421 0.202296,2.839095 1.300782,4.041015 l 0.609375,0.667969 -0.263672,2.863281 c -0.157347,1.722304 -0.370926,3.473236 -0.576172,4.808594 -0.102623,0.667679 -0.20401,1.232196 -0.289063,1.623047 -0.01874,0.08611 -0.03021,0.122238 -0.04687,0.189453 -0.231377,0.06294 -0.541733,0.136357 -0.86914,0.199219 -2.288388,0.439371 -4.429395,1.45661 -6.464844,2.941406 -0.207685,-0.08876 -0.521462,-0.243907 -0.921875,-0.476563 -1.396578,-0.81147 -2.531217,-1.160944 -3.619141,-1.43164 0.08584,-0.126565 0.191334,-0.256921 0.226563,-0.365234 0.109996,-0.338194 0.124291,-0.616514 0.150391,-1.085938 0.0522,-0.938849 0.06789,-2.582724 0.08984,-5.707031 0.02194,-3.119063 0.03134,-4.91132 -0.04297,-6.025391 -0.03715,-0.557035 -0.0747,-0.94059 -0.238281,-1.347656 -0.163579,-0.407067 -0.706742,-0.86423 -1.128906,-0.923828 -0.229108,-0.03236 -0.397291,-0.0123 -0.537109,0.0039 l -0.47461,0.05469 a 1.0171263,1.0171263 0 0 0 -0.90039,0.966796 l -0.0293,0.689454 c -0.720098,-0.41967 -1.361133,-0.332032 -2.404297,-0.332032 -2.366653,0 -3.538546,0.203971 -6.884766,1.199219 -3.321097,0.987769 -4.147607,1.131444 -6.447265,1.121094 -0.546407,-0.0025 -1.040209,0.0086 -1.417969,0.02734 -0.18888,0.0094 -0.344384,0.01945 -0.488281,0.03711 -0.07195,0.0088 -0.136226,0.01517 -0.244141,0.04297 -0.05396,0.0139 -0.114686,0.02506 -0.246094,0.09375 -0.0657,0.03435 -0.154533,0.08012 -0.273437,0.205078 -0.05945,0.06248 -0.183172,0.26669 -0.183594,0.267578 -4.22e-4,8.88e-4 -0.09961,0.438558 -0.09961,0.439453 0,0.360005 0.03891,0.283648 0.05078,0.322266 0.01187,0.03862 0.02091,0.06505 0.03125,0.09375 0.02068,0.05741 0.04492,0.11915 0.07422,0.193359 0.0586,0.148417 0.137747,0.343499 0.236328,0.580078 0.197161,0.473158 0.466671,1.106145 0.763672,1.789063 0.290108,0.667065 0.538369,1.292466 0.697265,1.74414 0.04727,0.134364 0.06601,0.208209 0.0957,0.304688 -0.07018,0.09501 -0.135556,0.18605 -0.230468,0.3125 -0.274421,0.365606 -0.639324,0.84289 -1.023438,1.341797 -0.407815,0.529672 -0.761108,1.031926 -1.021484,1.443359 -0.130188,0.205717 -0.236903,0.384037 -0.324219,0.5625 -0.04366,0.08923 -0.08286,0.174751 -0.121094,0.298828 -0.03824,0.124077 -0.173365,0.264592 0.01367,0.751953 0.171727,0.447517 0.471125,0.602343 0.6875,0.710938 0.216375,0.108594 0.427338,0.177047 0.689453,0.25 0.524231,0.145906 1.250803,0.293613 2.332032,0.492187 2.029061,0.37265 4.717257,0.09891 6.910156,-0.640625 2.690832,-0.907467 5.641927,-1.18892 8.498047,-0.810547 0.265381,0.03516 0.187111,0.0069 0.193359,-0.002 0.0736,0.314593 0.270263,0.574218 0.498047,0.822266 -0.06459,0.0343 -0.135214,-0.0084 -0.199219,0.03516 -0.584466,0.397581 -0.801077,1.266306 -0.65039,1.902344 0.101082,0.426649 0.271543,0.710324 0.498046,1.101562 0.168346,0.290783 0.395381,0.629006 0.619141,0.962891 -0.100068,0.02595 -0.206531,0.05246 -0.207031,0.05273 -6.02e-4,3.35e-4 -0.114888,0.0733 -0.158203,0.109375 -0.04331,0.03608 -0.0786,0.07151 -0.107422,0.103516 -0.115273,0.128044 -0.149281,0.212087 -0.177735,0.275391 -0.05691,0.126607 -0.06751,0.185862 -0.08008,0.242187 -0.02514,0.112651 -0.0344,0.19367 -0.04492,0.291016 -0.02105,0.194691 -0.03556,0.429618 -0.04883,0.71875 -0.02652,0.578263 -0.04288,1.3547 -0.04297,2.208984 -1.52e-4,1.339028 -0.04709,4.026865 -0.09375,6.380859 -0.0292,-0.01334 -0.0123,-0.03045 -0.04492,-0.04297 -0.26174,-0.100439 -0.319674,-0.07675 -0.410157,-0.08203 -0.09048,-0.0053 -0.173301,-0.0055 -0.265625,-0.0039 -0.184647,0.0032 -0.400719,0.01632 -0.65039,0.03516 -0.499343,0.03768 -1.12788,0.103684 -1.78711,0.189454 -6.608475,0.859833 -13.602297,2.66929 -19.927734,5.15625 -0.03733,0.01468 -0.08776,0.02949 -0.208984,0.07617 a 1.0171263,1.0171263 0 0 0 -0.603516,1.259765 c 0.190055,0.592303 0.395508,1.180512 0.617188,1.761719 a 1.0171263,1.0171263 0 0 0 1.304687,0.589844 c 1.676087,-0.62031 4.116427,-1.406551 6.494141,-2.039063 3.830474,-1.018962 8.091698,-1.792318 12.601562,-2.285156 0.709424,-0.07753 1.370708,-0.159144 1.875,-0.228516 0.252146,-0.03469 0.463032,-0.06686 0.63086,-0.0957 0.08391,-0.01442 0.155541,-0.02661 0.228515,-0.04297 0.01689,-0.0038 0.08108,-0.0377 0.0918,-0.03516 -0.0027,0.433585 -0.02804,1.274267 -0.01758,1.556641 0.01421,0.383703 0.03639,0.659238 0.111328,0.943359 0.07494,0.284121 0.270155,0.600234 0.427734,0.757813 0.266627,0.266626 0.634492,0.544551 1.140625,0.585937 0.506134,0.04139 0.939359,-0.189443 1.234375,-0.423828 0.373568,-0.2968 0.458392,-0.663871 0.515625,-0.970703 0.05723,-0.306832 0.08719,-0.665202 0.115235,-1.207031 0.01421,-0.274445 0.02321,-1.143492 0.03516,-1.519532 0.04891,0.0031 0.183234,0.109056 0.21875,0.117188 0.09004,0.02062 0.158583,0.02955 0.234375,0.03906 0.151585,0.01903 0.320658,0.03159 0.519531,0.04297 0.397747,0.02275 0.905887,0.03711 1.451172,0.03711 0.612252,-10e-7 1.089144,-0.01 1.511719,-0.06836 0.211287,-0.02918 0.410705,-0.06534 0.638672,-0.162109 L 47,56.59375 c -0.11767,3.632559 -0.147429,5.812088 0,7.216797 0.07371,0.702354 0.167907,1.225374 0.462891,1.716797 0.294984,0.491422 0.968825,0.83789 1.46875,0.83789 0.700827,0 1.192942,-0.388476 1.583984,-0.808593 0.391042,-0.420118 0.722702,-0.944543 1.042969,-1.572266 0.640533,-1.255447 1.2143,-2.928128 1.652344,-4.855469 0.276059,-1.214616 0.418974,-1.676398 0.480468,-1.876953 1.667686,0.29027 4.544128,0.199562 6.105469,-0.208984 0.01364,-0.0036 0.02158,-0.0043 0.03516,-0.0078 0.0024,0.08522 0.0056,0.126951 0.0078,0.220703 0.01924,0.801454 0.03125,1.903383 0.03125,3.101563 0,1.950864 0.007,3.0587 0.05469,3.796875 0.04772,0.738175 0.189558,1.261405 0.425781,1.623047 0.138834,0.212547 0.291956,0.391263 0.47461,0.550781 0.182654,0.159518 0.301041,0.392578 0.929687,0.392578 1.000088,0 1.567438,-0.6836 2.060547,-1.412109 0.493109,-0.728509 0.931224,-1.671696 1.337891,-2.789063 0.407019,-1.118336 0.776462,-2.410067 1.083984,-3.800781 A 1.0171263,1.0171263 0 0 0 66.625,59.253906 l 2.21875,0.673828 c 3.20483,0.972767 7.231974,2.444986 9.033203,3.251954 a 1.0171263,1.0171263 0 0 0 1.335938,-0.496094 c 0.482676,-1.028968 0.915725,-2.080915 1.294921,-3.152344 a 1.0171263,1.0171263 0 0 0 -0.591796,-1.289062 c -0.303081,-0.1174 -0.535682,-0.202784 -0.94336,-0.367188 -2.074253,-0.836507 -4.597753,-1.736509 -6.740234,-2.433594 -1.071241,-0.348542 -2.044273,-0.645451 -2.828125,-0.859375 -0.783852,-0.213923 -1.248264,-0.365234 -1.828125,-0.365234 -0.222548,0 -0.439826,0.157438 -0.660156,0.28125 0.006,-0.0565 0.02159,-0.107492 0.02734,-0.164063 0.145581,-1.430504 0.09705,-1.306031 0.69336,-2.197265 0.418962,-0.626178 0.821132,-1.303812 1.033203,-1.865235 0.03772,-0.09985 0.04713,-0.114726 0.07422,-0.179687 -0.0084,0.01738 -0.122197,0.02656 0.205078,0.09766 1.404437,0.305101 2.656909,0.466079 3.666015,0.470703 0.504554,0.0023 0.946172,-0.03137 1.359375,-0.134765 0.413204,-0.103401 0.892594,-0.256883 1.197266,-0.826172 0.292581,-0.546689 0.203078,-1.219618 -0.0332,-1.69336 -0.236281,-0.473741 -0.589413,-0.86726 -1.041016,-1.277343 -0.903206,-0.820167 -2.239063,-1.688782 -4.029297,-2.664063 -0.816183,-0.444638 -1.290275,-0.730376 -1.542968,-0.923828 -0.252694,-0.193452 -0.298329,-0.25619 -0.439453,-0.505859 -1.522583,-2.693676 -4.785051,-4.861333 -8.1875,-5.613282 -0.234422,-0.05181 -0.414334,-0.116312 -0.539063,-0.167968 -0.02988,-0.151345 -0.06243,-0.366512 -0.09375,-0.625 -0.06402,-0.528274 -0.122563,-1.228234 -0.164063,-1.980469 -0.083,-1.504471 -0.101746,-3.242202 -0.02344,-4.310547 l 0.09961,-1.355469 0.626954,-0.05664 c 1.793521,-0.162457 3.099911,-0.646081 4.214843,-1.625 0.96637,-0.848483 1.537892,-1.863576 1.675781,-2.902344 0.13789,-1.038768 -0.158291,-2.051891 -0.71289,-2.886719 -1.109199,-1.669656 -3.206018,-2.751383 -5.548828,-2.724609 z m -1.208985,3.90039 c -0.0082,0.453679 0.06817,0.898462 0.238282,1.306641 0.13917,0.333944 0.385686,0.612469 0.644531,0.875 -0.47034,-0.08022 -0.942739,-0.172314 -1.275391,-0.347656 -0.42839,-0.225807 -0.686933,-0.50091 -0.779297,-0.689453 -0.09236,-0.188543 -0.111451,-0.274634 0.0332,-0.544922 -0.103154,0.192743 0.344261,-0.279688 0.863281,-0.515625 0.116794,-0.05309 0.152026,-0.04097 0.27539,-0.08398 z m -15.59375,23.041016 0.472657,0.511719 v 1.044922 c 0,1.880083 0.666471,3.445964 1.667968,4.943359 -0.204246,-0.06959 -0.392711,-0.187969 -0.617187,-0.201172 -0.529313,-0.03112 -1.006135,0.08772 -1.53125,0.25 -0.0535,0.01653 -0.04531,0.04605 -0.08984,0.06641 0.0017,-0.115902 0.0041,-0.11071 0.0059,-0.230468 z m 10.427735,0.398437 c 0.352411,0.05401 0.725902,0.113241 1.310547,0.283204 l 0.501953,0.146484 0.388672,1.023438 c 0.164441,0.432904 0.329303,0.823813 0.474609,1.130859 0.01906,0.04027 0.03831,0.0701 0.05664,0.107422 -0.946202,-0.637761 -1.814536,-1.362344 -2.3125,-2.007813 -0.292325,-0.378903 -0.292655,-0.450626 -0.419922,-0.683594 z m 5.345703,1.347657 c 0.240417,0.0071 0.684109,0.03504 1.707031,0.177734 l 0.869141,0.121094 0.140625,0.421875 c 0.107417,0.322732 0.201258,0.579777 0.3125,0.8125 0.05574,0.116605 0.113432,0.228631 0.208984,0.357422 0.08356,0.112622 0.240199,0.262747 0.501953,0.382812 -0.177563,0.09263 -0.29594,0.27465 -0.472656,0.341797 -0.66537,0.252821 -2.575537,0.304996 -3.314453,0.07031 -0.325342,-0.103328 -0.718727,-0.386428 -1.083984,-0.566407 0.134207,-0.0588 0.314883,-0.08764 0.386718,-0.154297 0.137477,-0.127567 0.199693,-0.232489 0.25,-0.322265 0.100615,-0.179553 0.148844,-0.321919 0.205078,-0.498047 0.08581,-0.268775 0.184751,-0.698696 0.289063,-1.144531 z m 6,0.130859 c 0.06692,0 0.11862,0.0114 0.185547,0.01563 -0.08447,0.181573 -0.172917,0.380083 -0.392578,0.644531 -0.09569,0.1152 -0.299658,0.184046 -0.416016,0.300782 0.017,-0.0876 0.04863,-0.167314 0.06445,-0.265625 0.09307,-0.57826 0.218536,-0.745481 0.166016,-0.69336 -0.05252,0.05212 -0.061,-0.002 0.392578,-0.002 z M 29.167969,61.865234 c -1.634731,-0.05151 -2.9753,0.99885 -3.515625,2.34961 -0.540325,1.35076 -0.249363,3.111431 1.126953,4.269531 0.393306,0.330943 0.793487,0.556564 1.253906,0.667969 0.23021,0.0557 0.48439,0.112655 0.863281,-0.01563 0.378892,-0.128281 0.806641,-0.699884 0.806641,-1.126953 0,-0.658226 -0.549312,-1.195313 -1.197266,-1.195313 0.437424,0 0.501786,0.189765 0.490235,0.175781 -0.01155,-0.01398 -0.08045,-0.116768 -0.140625,-0.251953 -0.12036,-0.270368 -0.214671,-0.683431 -0.214844,-0.888672 -5.92e-4,-0.749201 0.738702,-1.356945 1.458984,-1.21289 0.254136,0.05083 0.468178,0.0897 0.798829,0.02148 0.165325,-0.0341 0.3916,-0.09624 0.61914,-0.333984 0.22754,-0.23774 0.337972,-0.680683 0.283203,-0.964844 -0.109538,-0.568322 -0.368275,-0.678849 -0.5625,-0.822266 -0.194225,-0.143416 -0.401796,-0.251275 -0.646484,-0.353515 -0.473083,-0.197665 -0.955621,-0.303607 -1.423828,-0.31836 z m 12.439453,4.623047 c -2.909659,0.08348 -5.602583,2.449582 -5.597656,5.771485 0.003,2.060207 0.980016,3.811203 2.751953,4.996093 0.412195,0.275632 0.697506,0.464844 1.353515,0.464844 0.116573,0 0.227957,0.04795 0.578125,-0.107422 0.175085,-0.07769 0.453853,-0.285872 0.572266,-0.603515 0.118413,-0.317644 0.05712,-0.594105 0.002,-0.748047 -0.110327,-0.307884 -0.210155,-0.381279 -0.304687,-0.492188 -0.09453,-0.110908 -0.196916,-0.218079 -0.324219,-0.349609 -1.057455,-1.09262 -1.080189,-3.219648 -0.06836,-4.298828 0.983294,-1.048747 2.386575,-1.291139 3.726563,-0.615235 0.304093,0.153387 0.586561,0.283601 0.820313,0.38086 0.116875,0.04863 0.217315,0.08929 0.332031,0.125 0.05736,0.01786 0.112779,0.03616 0.220703,0.05273 0.05396,0.0083 0.120542,0.02013 0.246094,0.01172 0.06278,-0.0042 0.141348,-0.01296 0.251953,-0.04883 0.0553,-0.01793 0.119451,-0.0445 0.189453,-0.08398 0.07,-0.03948 0.220142,-0.167408 0.220703,-0.167968 0.26007,-0.260052 0.330378,-0.618313 0.322266,-0.833985 -0.0081,-0.215672 -0.05821,-0.351169 -0.105469,-0.466797 -0.09451,-0.231255 -0.204748,-0.390521 -0.333984,-0.5625 -0.258474,-0.343957 -0.598618,-0.697729 -1.001954,-1.042968 -1.14538,-0.980399 -2.528445,-1.418822 -3.851562,-1.38086 z m 16.826172,1.777344 c -2.971608,-0.04747 -5.429049,2.954619 -4.429688,5.939453 0.391624,1.169685 1.210803,2.139175 2.298828,2.677734 0.309457,0.153178 0.566822,0.266656 0.808594,0.34961 0.120886,0.04148 0.236103,0.076 0.38086,0.09961 0.144756,0.02361 0.317491,0.07709 0.662109,-0.05859 0.172309,-0.06784 0.397368,-0.222054 0.533203,-0.451172 0.135835,-0.229118 0.160814,-0.482624 0.144531,-0.654297 -0.03257,-0.343347 -0.142548,-0.470278 -0.222656,-0.589844 C 58.449158,75.338994 58.284714,75.180649 58.0625,74.976562 57.158171,74.145998 57.053684,73.240606 57.349609,72.5 c 0.295925,-0.740606 1.014579,-1.34375 2.257813,-1.34375 0.308263,0 0.550466,-0.0085 0.849609,-0.0957 0.149572,-0.04358 0.331485,-0.09325 0.556641,-0.316406 0.225155,-0.223156 0.384559,-0.76141 0.28125,-1.101563 -0.206618,-0.680305 -0.516856,-0.693633 -0.753906,-0.820312 -0.237051,-0.126679 -0.500371,-0.228803 -0.822266,-0.335938 -0.427095,-0.142147 -0.860844,-0.213926 -1.285156,-0.220703 z"
     transform="translate(0,0.7058333)" /><path
     id="path6853"
     style="opacity:0.25;fill:#000000;fill-opacity:1;stroke:none;stroke-width:1.177;stroke-dasharray:none;stroke-opacity:1"
     sodipodi:type="inkscape:offset"
     inkscape:radius="0.60520577"
     inkscape:original="M 59.445312 19.404297 C 58.517023 19.414907 57.541444 19.635404 56.589844 20.126953 C 53.977054 21.476586 53.464961 23.831572 55.337891 25.880859 L 56.25 26.878906 L 55.947266 30.189453 C 55.628666 33.67681 55.079536 37.250548 54.822266 37.507812 C 54.738296 37.591792 54.07332 37.775939 53.34375 37.916016 C 51.06091 38.354322 48.9274 39.347586 46.875 40.929688 C 46.74784 41.027707 46.150456 40.782648 45.253906 40.261719 C 41.915336 38.321869 39.391852 38.00675 39.763672 39.576172 C 39.934242 40.296115 41.660132 42.781264 42.976562 44.203125 L 44.121094 45.441406 L 44.121094 46.884766 C 44.121094 49.385304 44.906264 51.111531 46.933594 53.078125 L 48.09375 54.203125 L 48.015625 56.626953 C 47.780895 63.873222 47.934891 65.347656 48.931641 65.347656 C 49.984851 65.347656 51.37218 62.629107 52.21875 58.904297 C 52.86597 56.056641 52.854553 56.076945 53.658203 56.242188 C 54.841183 56.485428 58.321382 56.377217 59.539062 56.058594 C 60.163502 55.895196 60.72265 55.810121 60.78125 55.869141 C 60.83986 55.928161 60.888672 57.947331 60.888672 60.357422 C 60.888672 64.253094 60.923465 64.792563 61.203125 65.220703 C 61.376135 65.485572 61.624899 65.703125 61.755859 65.703125 C 63.298369 65.703125 65.333161 60.11146 65.931641 54.230469 C 66.080061 52.772068 66.168636 52.500513 66.791016 51.570312 C 67.172406 51.00029 67.58974 50.253642 67.71875 49.912109 C 68.06274 49.001417 68.128566 48.969937 69.166016 49.195312 C 71.870516 49.78284 73.968371 49.792427 74.275391 49.21875 C 74.733471 48.362825 73.083911 46.86478 69.582031 44.957031 C 67.927311 44.055577 67.564352 43.777283 67.201172 43.134766 C 65.885082 40.806407 62.794067 38.701956 59.679688 38.013672 C 59.054257 37.875445 58.585485 37.665481 58.484375 37.476562 C 58.153455 36.858266 57.895003 32.175039 58.064453 29.863281 L 58.226562 27.646484 L 59.712891 27.511719 C 61.393581 27.359483 62.379156 26.98707 63.347656 26.136719 C 66.627866 23.256661 63.467902 19.358326 59.445312 19.404297 z M 59.175781 20.976562 C 59.429561 20.977663 59.56052 21.066353 59.46875 21.275391 C 58.87301 22.632329 59.465049 24.052761 60.724609 24.289062 C 61.830109 24.496454 63.103469 23.563747 63.105469 22.544922 C 63.106299 22.157842 63.561281 22.135802 63.707031 22.515625 C 64.150541 23.671382 63.324828 24.88271 61.773438 25.349609 C 58.555597 26.31804 55.077173 24.484551 56.189453 22.40625 C 56.538733 21.753615 58.414431 20.973115 59.175781 20.976562 z M 41.060547 23.503906 C 40.979967 23.492526 40.887613 23.497666 40.783203 23.509766 L 40.306641 23.564453 L 40.208984 25.912109 C 40.077644 29.030516 39.993638 29.102629 39.423828 26.59375 C 39.032668 24.871579 39.068242 24.896484 36.857422 24.896484 C 34.539682 24.896484 33.587089 25.063687 30.261719 26.052734 C 26.917369 27.047419 25.874354 27.227387 23.521484 27.216797 C 22.458744 27.211997 21.589844 27.25521 21.589844 27.3125 C 21.589844 27.36979 22.071709 28.527209 22.662109 29.884766 C 23.258749 31.256658 23.678822 32.450378 23.607422 32.572266 C 23.536742 32.69288 22.846979 33.611534 22.074219 34.615234 C 21.290729 35.632835 20.711272 36.549009 20.763672 36.685547 C 20.850052 36.910651 21.565221 37.110549 23.707031 37.503906 C 25.467691 37.827262 28.099755 37.578117 30.109375 36.900391 C 32.952425 35.941589 36.053373 35.64602 39.064453 36.044922 C 39.906943 36.156534 39.955013 36.191204 40.007812 36.738281 C 40.065512 37.336492 40.508219 37.59881 41.224609 37.460938 C 41.531149 37.401947 41.551803 37.031812 41.595703 30.785156 C 41.639563 24.549389 41.624667 23.583545 41.060547 23.503906 z M 40.181641 42.816406 C 40.104131 42.816406 40.041196 44.193675 40.041016 45.876953 C 40.040826 47.56023 39.987608 51.13457 39.923828 53.820312 C 39.817408 58.302402 39.834014 58.728547 40.115234 59.009766 C 40.478474 59.373005 40.758712 59.395621 41.138672 59.09375 C 41.381122 58.901123 41.431484 57.928504 41.521484 51.697266 L 41.625 44.523438 L 40.974609 43.669922 C 40.616339 43.200124 40.259141 42.816406 40.181641 42.816406 z M 52.283203 44.628906 C 52.416723 44.615146 52.57206 44.614846 52.75 44.628906 C 53.22449 44.666386 53.857834 44.802231 54.652344 45.033203 L 55.642578 45.320312 L 56.210938 46.818359 C 56.523738 47.64183 56.842922 48.316406 56.919922 48.316406 C 57.047622 48.316406 57.200253 47.835733 57.501953 46.496094 C 57.629983 45.927596 57.846053 45.908516 60.251953 46.244141 L 61.746094 46.453125 L 62.085938 47.472656 C 62.490378 48.68817 62.678397 48.753604 62.841797 47.738281 C 63.047117 46.462562 63.324437 46.1875 64.404297 46.1875 C 64.919227 46.1875 65.437588 46.28329 65.554688 46.400391 C 66.415378 47.261086 64.333633 49.766529 62.033203 50.640625 C 61.006463 51.030756 59.132768 51.07278 58.048828 50.728516 C 56.164788 50.130152 53.819308 48.516039 52.673828 47.03125 C 51.497558 45.506599 51.348543 44.725225 52.283203 44.628906 z M 44.09375 52.642578 C 43.76976 52.623528 43.405568 52.700737 42.923828 52.849609 C 42.688618 52.922289 42.597613 55.07222 42.820312 55.294922 C 42.885362 55.359972 43.804198 55.412109 44.861328 55.412109 C 47.251098 55.412109 47.352375 55.203314 45.734375 53.625 C 45.061845 52.968961 44.63372 52.674338 44.09375 52.642578 z M 38.519531 53.164062 C 38.365651 53.105013 37.187794 53.194083 35.902344 53.361328 C 29.384334 54.209391 22.460887 56.002055 16.216797 58.457031 C 16.135837 58.488861 16.07968 58.504476 16 58.535156 A 33.615185 33.615185 0 0 0 16.599609 60.244141 C 18.314169 59.609593 20.772847 58.8176 23.185547 58.175781 C 27.073277 57.141588 31.38208 56.359144 35.9375 55.861328 C 37.34029 55.708033 38.559231 55.541011 38.644531 55.488281 C 38.937381 55.307289 38.828461 53.28261 38.519531 53.164062 z M 67.576172 55.234375 C 67.156932 55.234375 66.987612 55.81083 66.945312 57.380859 L 66.919922 58.28125 L 69.138672 58.955078 C 72.388262 59.941431 76.400559 61.404136 78.292969 62.251953 A 33.615185 33.615185 0 0 0 79.548828 59.191406 C 79.253798 59.077125 79.010077 58.987039 78.591797 58.818359 C 74.504617 57.170077 68.555562 55.234375 67.576172 55.234375 z M 29.136719 62.880859 C 26.767499 62.806209 25.298374 65.910353 27.433594 67.707031 C 27.999744 68.183411 28.685547 68.349544 28.685547 68.009766 C 28.685547 67.912186 28.604859 67.832031 28.505859 67.832031 C 28.136819 67.832031 27.623747 66.678817 27.623047 65.849609 C 27.621947 64.457547 28.940968 63.367103 30.298828 63.638672 C 31.019428 63.782798 30.952399 63.435803 30.199219 63.121094 C 29.831929 62.967632 29.475169 62.891523 29.136719 62.880859 z M 41.636719 67.505859 C 39.249519 67.574349 37.023224 69.479998 37.027344 72.257812 C 37.029944 74.040306 37.761982 75.364185 39.326172 76.410156 C 39.567442 76.571491 39.922644 76.703125 40.115234 76.703125 C 40.421194 76.703125 40.395833 76.630774 39.908203 76.126953 C 38.442033 74.612026 38.403825 71.944887 39.828125 70.425781 C 41.107185 69.06158 43.047429 68.735905 44.755859 69.597656 C 45.327149 69.885819 45.823475 70.092491 45.859375 70.056641 C 46.003535 69.912491 45.503865 69.247734 44.796875 68.642578 C 43.840615 67.824058 42.721789 67.474727 41.636719 67.505859 z M 58.417969 69.283203 C 56.158039 69.247103 54.20071 71.588874 54.96875 73.882812 C 55.27969 74.811515 55.916056 75.555977 56.753906 75.970703 C 57.895856 76.535955 58.14783 76.436349 57.375 75.726562 C 55.02567 73.568862 56.396612 70.138672 59.607422 70.138672 C 60.640302 70.138672 60.547868 69.833732 59.398438 69.451172 C 59.070287 69.341956 58.740809 69.288359 58.417969 69.283203 z "
     d="m 59.4375,18.798828 c -1.019261,0.01165 -2.089117,0.25593 -3.125,0.791016 -1.419595,0.73329 -2.355703,1.794522 -2.623047,3.023437 -0.267344,1.228915 0.168293,2.545645 1.201172,3.675781 l 0.732422,0.800782 -0.279297,3.044922 c -0.158138,1.730959 -0.373204,3.488036 -0.580078,4.833984 -0.103437,0.672974 -0.204845,1.243473 -0.292969,1.648438 -0.04071,0.187075 -0.0771,0.328311 -0.107422,0.429687 -0.05851,0.01915 -0.113467,0.03685 -0.199219,0.06055 -0.247319,0.06835 -0.583598,0.147645 -0.933593,0.214844 -2.300674,0.44173 -4.453558,1.456019 -6.50586,2.99414 -0.04169,-0.01279 -0.068,-0.01894 -0.140625,-0.04883 -0.233832,-0.09624 -0.591958,-0.277456 -1.02539,-0.529297 -1.643044,-0.954677 -3.071899,-1.517653 -4.203125,-1.691406 0.09732,-0.02065 0.258178,-0.07335 0.384765,-0.191406 0.131733,-0.122858 0.198248,-0.267393 0.240235,-0.396485 0.08397,-0.258182 0.107367,-0.524762 0.132812,-0.982422 0.05089,-0.915318 0.06594,-2.563589 0.08789,-5.6875 0.02193,-3.118585 0.03104,-4.913753 -0.04102,-5.99414 -0.03603,-0.540194 -0.08118,-0.899768 -0.210937,-1.222656 -0.129752,-0.322889 -0.496362,-0.624442 -0.804688,-0.667969 -0.168965,-0.02386 -0.30616,-0.01064 -0.43164,0.0039 l -0.47461,0.05469 a 0.60526629,0.60526629 0 0 0 -0.537109,0.576171 l -0.07031,1.708985 c -0.111071,-0.24442 -0.235299,-0.496162 -0.474609,-0.654297 -0.587116,-0.387963 -1.195691,-0.302734 -2.298828,-0.302734 -2.346847,0 -3.429801,0.188903 -6.767578,1.18164 -3.330513,0.99057 -4.245201,1.14912 -6.566406,1.138672 -0.540318,-0.0024 -1.029938,0.0072 -1.396485,0.02539 -0.183273,0.0091 -0.333646,0.01978 -0.458984,0.03516 -0.06267,0.0077 -0.114775,0.01397 -0.189453,0.0332 -0.03734,0.0096 -0.07732,0.01827 -0.158204,0.06055 -0.04044,0.02114 -0.09458,0.04993 -0.166015,0.125 -0.03572,0.03754 -0.110907,0.159268 -0.111328,0.160156 -4.22e-4,8.88e-4 -0.05859,0.260824 -0.05859,0.261719 0,0.21568 0.02465,0.17335 0.0332,0.201172 0.0085,0.02782 0.01634,0.05104 0.02539,0.07617 0.01811,0.05027 0.03991,0.107633 0.06836,0.179687 0.0569,0.144109 0.136381,0.339047 0.234375,0.574219 0.195989,0.470345 0.465448,1.101961 0.761719,1.783203 0.293433,0.674711 0.543366,1.306254 0.707031,1.771485 0.07743,0.220097 0.131728,0.395997 0.164063,0.517578 -0.01282,0.01813 -0.0077,0.01039 -0.02148,0.0293 -0.08401,0.115106 -0.199981,0.269392 -0.33789,0.453126 -0.275818,0.367467 -0.64036,0.847557 -1.025391,1.347656 -0.401308,0.52122 -0.749393,1.014159 -1,1.410156 -0.125304,0.197998 -0.224851,0.370199 -0.300781,0.525391 -0.03796,0.0776 -0.0699,0.148206 -0.09766,0.238281 -0.02776,0.09007 -0.110047,0.185495 0.0039,0.482422 0.110935,0.289093 0.313903,0.40467 0.488281,0.492187 0.174378,0.08752 0.366667,0.151521 0.615234,0.220703 0.497136,0.138365 1.217874,0.286569 2.294922,0.484375 1.920379,0.35269 4.586394,0.08951 6.705078,-0.625 2.752469,-0.928254 5.762774,-1.216764 8.681641,-0.830078 0.346923,0.04596 0.416888,0.07983 0.410156,0.06055 0.005,0.0344 0.0062,0.03426 0.01172,0.0918 0.04224,0.437926 0.27261,0.873064 0.654297,1.099609 0.237147,0.140756 0.522342,0.09262 0.794922,0.09766 -0.438259,-0.02191 -0.848666,0.01412 -1.201172,0.253906 -0.443548,0.301722 -0.607779,0.929432 -0.480469,1.466797 0.07742,0.326769 0.236732,0.615039 0.455078,0.992187 0.218346,0.377148 0.498593,0.808816 0.814453,1.263672 0.631722,0.909712 1.401787,1.901368 2.089844,2.644531 l 0.982422,1.0625 v 1.207032 c 0,2.627228 0.897774,4.591496 2.996094,6.626953 l 0.96875,0.939453 -0.07031,2.15625 c -0.117546,3.628742 -0.14189,5.808216 0,7.160156 0.07095,0.67597 0.169594,1.154576 0.40625,1.548828 0.236656,0.394252 0.71684,0.636719 1.115235,0.636719 0.523662,0 0.930556,-0.299012 1.28125,-0.675781 0.350693,-0.376769 0.669633,-0.875059 0.978515,-1.480469 0.617765,-1.210821 1.18512,-2.856766 1.617188,-4.757813 0.313044,-1.377338 0.500527,-2.054621 0.583984,-2.232421 0.04218,0.0057 0.03028,0.0058 0.144531,0.0293 1.447026,0.297532 4.695879,0.190209 6.154297,-0.191407 0.204158,-0.05342 0.367763,-0.08302 0.535156,-0.115234 0.0088,0.205994 0.01814,0.414837 0.02539,0.716797 0.01936,0.806304 0.03125,1.910368 0.03125,3.111328 0,1.949638 0.0086,3.058751 0.05469,3.771484 0.04607,0.712733 0.162183,1.119989 0.359375,1.421875 0.117644,0.180108 0.251129,0.336443 0.40039,0.466797 0.149261,0.130355 0.257597,0.291016 0.658203,0.291016 0.751277,0 1.258401,-0.549427 1.720703,-1.232422 0.462303,-0.682996 0.88989,-1.600488 1.289063,-2.697266 0.798346,-2.193555 1.4633,-5.097886 1.767578,-8.08789 0.146731,-1.441801 0.154853,-1.477753 0.761719,-2.384766 0.403748,-0.603439 0.811797,-1.308866 0.990234,-1.78125 0.08415,-0.222782 0.148727,-0.377399 0.1875,-0.447266 0.03877,-0.06987 0.02597,-0.03128 -0.02148,-0.0078 -0.09491,0.04694 0.07552,0.0063 0.585937,0.117187 1.383306,0.300511 2.614786,0.456515 3.580079,0.460938 0.482646,0.0022 0.897693,-0.03098 1.257812,-0.121094 0.360119,-0.09012 0.721211,-0.226203 0.933594,-0.623047 0.220479,-0.411967 0.160234,-0.914864 -0.03906,-1.314453 -0.199297,-0.399589 -0.519955,-0.764499 -0.949219,-1.154297 -0.858526,-0.779595 -2.174895,-1.642762 -3.949218,-2.609375 -0.820709,-0.447103 -1.306452,-0.735591 -1.595703,-0.957031 -0.289252,-0.22144 -0.389365,-0.352202 -0.546875,-0.630859 -1.438969,-2.54575 -4.632167,-4.689847 -7.917969,-5.416016 -0.280777,-0.06206 -0.522388,-0.139243 -0.677735,-0.208984 -0.155346,-0.06974 -0.204276,-0.187855 -0.115234,-0.02148 0.0259,0.04839 -0.02692,-0.07626 -0.06055,-0.24414 -0.03363,-0.167881 -0.06872,-0.396979 -0.101562,-0.667969 -0.06568,-0.54198 -0.122199,-1.248978 -0.164063,-2.007813 -0.08373,-1.517668 -0.104344,-3.259491 -0.02344,-4.363281 l 0.125,-1.705078 0.974609,-0.08789 c 1.747833,-0.158317 2.922878,-0.596578 3.978516,-1.523437 0.907122,-0.796463 1.417586,-1.718598 1.541015,-2.648438 0.12343,-0.929839 -0.139677,-1.839642 -0.648437,-2.605468 -1.01752,-1.531653 -2.992601,-2.564303 -5.201172,-2.539063 z m -0.677734,2.90625 c -0.126158,0.603561 -0.136519,1.20605 0.08203,1.730469 0.295875,0.709963 0.928822,1.268439 1.740234,1.433594 -1.113093,0.115292 -2.200968,0.0055 -2.941406,-0.384766 -0.484274,-0.255264 -0.812998,-0.577078 -0.957031,-0.871094 -0.144034,-0.294016 -0.159616,-0.550644 0.03906,-0.921875 0.0093,-0.01744 0.501691,-0.443042 1.056641,-0.695312 0.390164,-0.177362 0.690355,-0.227778 0.980469,-0.291016 z m -18.578125,20.50586 c -0.0012,0 -0.295672,0.07746 -0.296875,0.07812 -6.02e-4,3.35e-4 -0.06968,0.04278 -0.0957,0.06445 -0.02602,0.02167 -0.04706,0.04318 -0.06445,0.0625 -0.06956,0.07727 -0.09149,0.128172 -0.109375,0.167968 -0.03577,0.07959 -0.0434,0.120302 -0.05273,0.16211 -0.01866,0.08362 -0.02745,0.156699 -0.03711,0.246094 -0.01933,0.178789 -0.03383,0.410945 -0.04687,0.695312 -0.02609,0.568733 -0.04288,1.340289 -0.04297,2.189453 -1.83e-4,1.624118 -0.05199,5.056214 -0.113281,7.708985 -0.01026,-0.05512 -0.01107,-0.119127 -0.02344,-0.171876 -0.03076,-0.131205 -0.06497,-0.254749 -0.126953,-0.384765 -0.06199,-0.130016 -0.133498,-0.31378 -0.435547,-0.429688 -0.163543,-0.06276 -0.211291,-0.05037 -0.285156,-0.05469 -0.07386,-0.0043 -0.148631,-0.0054 -0.234375,-0.0039 -0.171488,0.003 -0.382336,0.01475 -0.626953,0.0332 -0.489235,0.03691 -1.113079,0.102599 -1.765625,0.1875 -6.571844,0.855067 -13.535627,2.658804 -19.828125,5.132812 -0.055,0.02162 -0.108487,0.03597 -0.212891,0.07617 a 0.60526629,0.60526629 0 0 0 -0.359375,0.75 c 0.187795,0.58526 0.390332,1.163986 0.609375,1.738281 a 0.60526629,0.60526629 0 0 0 0.777344,0.353516 c 1.691666,-0.626075 4.139369,-1.416454 6.53125,-2.052734 3.853658,-1.02513 8.133798,-1.802022 12.662109,-2.296875 0.706173,-0.07717 1.364474,-0.157945 1.863282,-0.226563 0.249403,-0.03431 0.457312,-0.06432 0.617187,-0.0918 0.07994,-0.01374 0.147648,-0.02727 0.208984,-0.04102 0.06134,-0.01375 0.04546,0.0389 0.269532,-0.09961 0.249052,-0.153923 0.29227,-0.320603 0.335937,-0.453125 -0.01463,0.872157 -0.04536,2.029149 -0.0293,2.462891 0.01372,0.37045 0.03709,0.62194 0.09766,0.851562 0.06057,0.229622 0.198072,0.450027 0.320312,0.572266 0.232206,0.232205 0.517592,0.436774 0.884766,0.466797 0.367173,0.03002 0.690875,-0.135344 0.943359,-0.335938 0.246844,-0.196118 0.316842,-0.454705 0.367187,-0.724609 0.05035,-0.269904 0.08172,-0.618111 0.109376,-1.152344 0.0553,-1.068465 0.08975,-2.869534 0.134765,-5.986328 l 0.103516,-7.173828 a 0.60526629,0.60526629 0 0 0 -0.125,-0.375 l -0.650391,-0.853516 c -0.189766,-0.24884 -0.376715,-0.4738 -0.539062,-0.648437 -0.08117,-0.08732 -0.15472,-0.161182 -0.232422,-0.228516 -0.03885,-0.03367 -0.07669,-0.06451 -0.134766,-0.101562 -0.05807,-0.03705 -0.107792,-0.113282 -0.367187,-0.113281 z m 12.164062,3.019531 c 0.0868,-0.0089 0.207728,-0.0099 0.357422,0.002 0.402195,0.03177 1.008446,0.15815 1.78125,0.382812 l 0.699219,0.203125 0.460937,1.214844 c 0.161185,0.424333 0.324382,0.808878 0.462891,1.101563 0.06925,0.146342 0.129464,0.268447 0.193359,0.375 0.03195,0.05328 0.06335,0.101786 0.115235,0.164062 0.02594,0.03114 0.05583,0.0658 0.117187,0.113281 0.06136,0.04748 0.160988,0.134766 0.386719,0.134766 0.205799,0 0.372251,-0.103253 0.460937,-0.185547 0.08869,-0.08229 0.132498,-0.153918 0.169922,-0.220703 0.07485,-0.13357 0.119819,-0.260786 0.171875,-0.423828 0.103688,-0.324753 0.215874,-0.78551 0.367188,-1.457031 0.225126,-0.01918 0.885952,0.04268 2.078125,0.208984 L 61.291016,47 l 0.220703,0.664062 c 0.105031,0.315664 0.195432,0.563526 0.292969,0.767579 0.04877,0.102026 0.09944,0.192111 0.169921,0.287109 0.07048,0.095 0.156683,0.216978 0.378907,0.294922 0.222223,0.07794 0.558301,-0.02063 0.697265,-0.150391 0.138964,-0.129761 0.181708,-0.241079 0.222657,-0.34375 0.0819,-0.205341 0.12211,-0.412733 0.166015,-0.685547 0.09695,-0.602393 0.21938,-0.858522 0.28125,-0.919922 0.06187,-0.0614 0.19505,-0.121093 0.683594,-0.121093 0.219937,0 0.450476,0.02226 0.615234,0.05273 0.04837,0.0089 0.07188,0.01653 0.105469,0.02539 0.02152,0.02609 0.04984,0.04651 -0.01367,0.259765 -0.07402,0.248514 -0.283072,0.619322 -0.597656,0.998047 -0.629169,0.757451 -1.66791,1.55493 -2.695313,1.945313 -0.811698,0.308421 -2.707312,0.35718 -3.585937,0.07813 -1.722887,-0.547183 -4.049081,-2.15384 -5.080078,-3.490235 -0.550057,-0.71297 -0.804669,-1.242967 -0.845703,-1.429687 0.02092,-0.0061 -0.01326,0.0034 0.03906,-0.002 z m -8.216797,6.808593 c -0.446172,-0.02623 -0.875261,0.07557 -1.382812,0.232422 -0.213098,0.06585 -0.306755,0.19076 -0.363282,0.273438 -0.05653,0.08268 -0.08421,0.148389 -0.107421,0.210937 -0.04643,0.125098 -0.07095,0.240419 -0.09375,0.369141 -0.0456,0.257443 -0.07292,0.557705 -0.08594,0.865234 -0.01302,0.30753 -0.01237,0.617646 0.0098,0.888672 0.01107,0.135514 0.02797,0.259474 0.05664,0.384766 0.02868,0.125291 0.02321,0.251721 0.230469,0.458984 0.245705,0.245705 0.288358,0.17018 0.355469,0.185547 0.06711,0.01537 0.127574,0.0247 0.195312,0.0332 0.135478,0.01701 0.296983,0.02996 0.490235,0.04102 0.386504,0.02211 0.88922,0.03516 1.427734,0.03516 0.606255,0 1.073927,-0.0099 1.455078,-0.0625 0.190576,-0.02632 0.361363,-0.06099 0.535156,-0.134766 0.173794,-0.07377 0.376193,-0.207697 0.492188,-0.445312 0.115995,-0.237615 0.09167,-0.504522 0.02734,-0.689453 -0.06433,-0.184931 -0.158049,-0.329504 -0.269532,-0.478516 -0.222964,-0.298022 -0.533778,-0.614185 -0.945312,-1.015625 -0.699597,-0.682442 -1.287085,-1.108803 -2.027344,-1.152344 z m 23.447266,2.589844 c -0.243503,0 -0.528626,0.117121 -0.705078,0.300782 -0.176453,0.18366 -0.265901,0.394104 -0.332032,0.61914 -0.13226,0.450072 -0.177536,1.011653 -0.199218,1.816406 l -0.02539,0.898438 a 0.60526629,0.60526629 0 0 0 0.429688,0.595703 l 2.21875,0.673828 a 0.60526629,0.60526629 0 0 0 0,0.002 c 3.222954,0.978268 7.24388,2.446023 9.082031,3.269532 a 0.60526629,0.60526629 0 0 0 0.796875,-0.294922 c 0.476936,-1.016733 0.902656,-2.058499 1.277344,-3.117188 a 0.60526629,0.60526629 0 0 0 -0.351563,-0.765625 c -0.29982,-0.116137 -0.537248,-0.203005 -0.949219,-0.369141 -2.061836,-0.831499 -4.579275,-1.731581 -6.71289,-2.425781 -1.066808,-0.3471 -2.036631,-0.642304 -2.810547,-0.853515 -0.773916,-0.211212 -1.274544,-0.34961 -1.71875,-0.34961 z M 29.15625,62.275391 c -1.452465,-0.04576 -2.640948,0.886595 -3.123047,2.091797 -0.482099,1.205201 -0.241548,2.749818 1.009766,3.802734 0.348671,0.293385 0.713873,0.492005 1.085937,0.582031 0.186033,0.04501 0.379681,0.0805 0.634766,-0.0059 0.255085,-0.08636 0.527344,-0.447794 0.527344,-0.736328 0,-0.431206 -0.359488,-0.783204 -0.785157,-0.783204 0.222942,0 0.221198,0.08469 0.173829,0.02734 -0.04737,-0.05734 -0.130034,-0.187855 -0.201172,-0.347656 -0.142277,-0.319602 -0.249756,-0.766623 -0.25,-1.056641 -7.98e-4,-1.009512 0.972718,-1.812876 1.951172,-1.617187 0.224176,0.04484 0.406233,0.07099 0.636718,0.02344 0.115243,-0.02377 0.261598,-0.0677 0.404297,-0.216797 0.142699,-0.149096 0.210482,-0.421525 0.175781,-0.601562 -0.0694,-0.360074 -0.245892,-0.454788 -0.402343,-0.570312 -0.156452,-0.115525 -0.340647,-0.211989 -0.5625,-0.304688 -0.430245,-0.179766 -0.859726,-0.274012 -1.275391,-0.287109 z m 12.462891,4.625 c -2.698102,0.07741 -5.201866,2.255834 -5.197266,5.357421 0.0028,1.947755 0.880545,3.527612 2.568359,4.65625 0.342984,0.22935 0.656641,0.394532 1.125,0.394532 0.100343,0 0.188406,0.02613 0.410157,-0.07227 0.110875,-0.0492 0.281074,-0.176769 0.353515,-0.371094 0.07244,-0.194324 0.03577,-0.36503 0,-0.464843 -0.07153,-0.199627 -0.145468,-0.265847 -0.228515,-0.363282 -0.08279,-0.09713 -0.182087,-0.201374 -0.306641,-0.330078 v -0.002 c -1.221815,-1.263906 -1.252696,-3.608314 -0.07422,-4.865234 1.103057,-1.176483 2.723711,-1.452331 4.212891,-0.701172 0.296623,0.149619 0.572892,0.277572 0.792969,0.36914 0.110038,0.04578 0.20411,0.08245 0.296875,0.111329 0.04638,0.01444 0.08859,0.02612 0.160156,0.03711 0.03578,0.0055 0.07921,0.01298 0.15625,0.0078 0.03852,-0.0026 0.08571,-0.0077 0.152344,-0.0293 0.03332,-0.0108 0.07131,-0.02515 0.113281,-0.04883 0.04197,-0.02367 0.132251,-0.101003 0.132812,-0.101563 0.162058,-0.162047 0.206505,-0.385578 0.201172,-0.527344 -0.0053,-0.141766 -0.03848,-0.238728 -0.07422,-0.326172 -0.07147,-0.174886 -0.166762,-0.317705 -0.283203,-0.472656 -0.232881,-0.309901 -0.558252,-0.646645 -0.941406,-0.974609 -1.0688,-0.91485 -2.343587,-1.3184 -3.570312,-1.283203 z m 16.808593,1.777343 c -2.683431,-0.04287 -4.938896,2.691412 -4.033203,5.396485 0.358953,1.072105 1.105074,1.951037 2.091797,2.439453 0.299751,0.148373 0.544239,0.2568 0.757813,0.330078 0.106787,0.03664 0.205256,0.06422 0.314453,0.08203 0.109196,0.01781 0.229191,0.04994 0.445312,-0.03516 0.108061,-0.04255 0.244812,-0.138768 0.328125,-0.279297 0.08331,-0.140528 0.100121,-0.295952 0.08984,-0.404297 -0.02055,-0.21669 -0.09302,-0.308929 -0.154297,-0.40039 -0.122557,-0.182923 -0.271953,-0.332091 -0.482422,-0.525391 -1.013795,-0.931102 -1.17489,-2.036422 -0.816406,-2.933594 0.358484,-0.897172 1.248786,-1.603515 2.638672,-1.603515 0.287999,0 0.508328,-0.01226 0.734375,-0.07813 0.113023,-0.03293 0.238781,-0.07209 0.382812,-0.214844 0.144032,-0.142752 0.241072,-0.474479 0.175782,-0.689453 -0.130582,-0.429949 -0.3512,-0.467429 -0.554688,-0.576172 -0.203488,-0.108744 -0.447949,-0.206114 -0.755859,-0.308594 -0.38703,-0.128812 -0.778886,-0.193098 -1.16211,-0.199219 z"
     transform="translate(0,0.46129303)" /><path
     id="path5322"
     style="fill:#fefefe;fill-opacity:1;stroke:none;stroke-width:1.177;stroke-dasharray:none;stroke-opacity:1"
     d="m 59.445064,19.403615 c -0.92829,0.01061 -1.90387,0.231108 -2.85547,0.722657 -2.61279,1.349633 -3.12488,3.70462 -1.25195,5.753907 l 0.91211,0.998047 -0.30274,3.310547 c -0.3186,3.487357 -0.86773,7.061095 -1.125,7.318359 -0.08397,0.08398 -0.74894,0.268126 -1.47851,0.408203 -2.28284,0.438306 -4.41635,1.431571 -6.46875,3.013672 -0.12716,0.09802 -0.72455,-0.14704 -1.6211,-0.667969 -3.33857,-1.93985 -5.86205,-2.254969 -5.49023,-0.685547 0.17057,0.719943 1.89646,3.205092 3.21289,4.626953 l 1.14453,1.238282 v 1.443359 c 0,2.500538 0.78517,4.226765 2.8125,6.193359 l 1.16016,1.125 -0.07813,2.423829 c -0.23473,7.246269 -0.08073,8.720703 0.91602,8.720703 1.05321,0 2.44054,-2.71855 3.28711,-6.44336 0.64722,-2.847656 0.6358,-2.827352 1.43945,-2.662109 1.18298,0.24324 4.66318,0.135029 5.88086,-0.183594 0.62444,-0.163398 1.18359,-0.248473 1.24219,-0.189453 0.05861,0.05902 0.10742,2.07819 0.10742,4.488281 0,3.895672 0.03479,4.435142 0.31445,4.863282 0.17301,0.264869 0.42178,0.482421 0.55274,0.482421 1.54251,0 3.5773,-5.591665 4.17578,-11.472656 0.14842,-1.458401 0.23699,-1.729956 0.85937,-2.660156 0.38139,-0.570023 0.79873,-1.31667 0.92774,-1.658203 0.34399,-0.910692 0.40981,-0.942173 1.44726,-0.716797 2.7045,0.587528 4.80236,0.597117 5.10938,0.02344 0.45808,-0.855925 -1.19148,-2.353969 -4.69336,-4.261718 -1.65472,-0.901454 -2.01768,-1.179749 -2.38086,-1.822266 -1.31609,-2.328359 -4.40711,-4.43281 -7.52149,-5.121094 -0.62543,-0.138227 -1.0942,-0.348191 -1.19531,-0.537109 -0.33092,-0.618297 -0.58937,-5.301523 -0.41992,-7.613281 l 0.16211,-2.216797 1.48633,-0.134766 c 1.68069,-0.152236 2.66626,-0.524649 3.63476,-1.375 3.28021,-2.880058 0.12025,-6.778394 -3.90234,-6.732423 z m -0.26953,1.572267 c 0.25378,0.0011 0.38474,0.08979 0.29297,0.298828 -0.59574,1.356938 -0.0037,2.77737 1.25586,3.013672 1.1055,0.207392 2.37886,-0.725316 2.38086,-1.744141 8.3e-4,-0.38708 0.45581,-0.409123 0.60156,-0.0293 0.44351,1.155757 -0.38221,2.367086 -1.9336,2.833985 -3.21784,0.968431 -6.69626,-0.865059 -5.58398,-2.94336 0.34928,-0.652635 2.22498,-1.433134 2.98633,-1.429687 z m -18.11524,2.527344 c -0.08058,-0.01138 -0.17293,-0.0062 -0.27734,0.0059 l -0.47656,0.05469 -0.09766,2.347656 c -0.13134,3.118407 -0.21534,3.190519 -0.78515,0.68164 -0.39116,-1.722171 -0.35559,-1.697265 -2.56641,-1.697265 -2.31774,0 -3.27033,0.167203 -6.5957,1.15625 -3.34435,0.994685 -4.38737,1.174652 -6.74024,1.164062 -1.06274,-0.0048 -1.93164,0.03841 -1.93164,0.0957 0,0.05729 0.48187,1.214709 1.07227,2.572266 0.59664,1.371892 1.01671,2.565612 0.94531,2.6875 -0.07068,0.120614 -0.76044,1.039269 -1.5332,2.042969 -0.78349,1.017601 -1.36295,1.933774 -1.31055,2.070312 0.08638,0.225104 0.80155,0.425003 2.94336,0.81836 1.76066,0.323356 4.39272,0.07421 6.40234,-0.603516 2.84305,-0.958802 5.944,-1.254371 8.95508,-0.855469 0.84249,0.111612 0.89056,0.146283 0.94336,0.69336 0.0577,0.598211 0.50041,0.860528 1.2168,0.722656 0.30654,-0.05899 0.32719,-0.429125 0.37109,-6.675781 0.04386,-6.235767 0.02896,-7.201611 -0.53516,-7.28125 z m -0.8789,19.3125 c -0.07751,0 -0.14045,1.377269 -0.14063,3.060547 -1.9e-4,1.683277 -0.0534,5.257617 -0.11718,7.943359 -0.10642,4.48209 -0.08982,4.908234 0.1914,5.189453 0.36324,0.363239 0.64348,0.385851 1.02344,0.08398 0.24245,-0.192627 0.29281,-1.165246 0.38281,-7.396484 l 0.10352,-7.173828 -0.65039,-0.853516 c -0.35827,-0.469798 -0.71547,-0.853515 -0.79297,-0.853515 z m 12.10156,1.8125 c 0.13352,-0.01376 0.28886,-0.01406 0.4668,0 0.47449,0.03748 1.10783,0.173325 1.90234,0.404297 l 0.99023,0.287109 0.56836,1.498047 c 0.3128,0.823471 0.63199,1.498047 0.70899,1.498047 0.1277,0 0.28033,-0.480674 0.58203,-1.820313 0.12803,-0.568498 0.3441,-0.587578 2.75,-0.251953 l 1.49414,0.208984 0.33984,1.019532 c 0.40444,1.215514 0.59246,1.280948 0.75586,0.265625 0.20532,-1.275719 0.48264,-1.550782 1.5625,-1.550782 0.51493,0 1.03329,0.09579 1.15039,0.212891 0.86069,0.860695 -1.22105,3.366138 -3.52148,4.240234 -1.02674,0.390131 -2.90043,0.432154 -3.98437,0.08789 -1.88404,-0.598364 -4.22952,-2.212477 -5.375,-3.697266 -1.17627,-1.524651 -1.32529,-2.306023 -0.39063,-2.402342 z m -8.18945,8.013671 c -0.32399,-0.01905 -0.68818,0.05816 -1.16992,0.207032 -0.23521,0.07268 -0.32622,2.22261 -0.10352,2.445312 0.06505,0.06505 0.98389,0.117188 2.04102,0.117188 2.38977,0 2.49104,-0.208796 0.87304,-1.78711 -0.67253,-0.656039 -1.10065,-0.950662 -1.64062,-0.982422 z m -5.57422,0.521485 c -0.15388,-0.05905 -1.33174,0.03002 -2.61719,0.197265 -6.51801,0.848063 -13.44146,2.640728 -19.68555,5.095704 -0.08096,0.03183 -0.13711,0.04745 -0.21679,0.07813 a 33.615185,33.615185 0 0 0 0.59961,1.708984 c 1.71456,-0.634548 4.17323,-1.42654 6.58593,-2.068359 3.88773,-1.034193 8.19654,-1.816638 12.75196,-2.314454 1.40279,-0.153295 2.62173,-0.320316 2.70703,-0.373046 0.29285,-0.180992 0.18393,-2.205671 -0.125,-2.324219 z m 29.05664,2.070312 c -0.41924,0 -0.58856,0.576456 -0.63086,2.146485 l -0.02539,0.90039 2.21875,0.673828 c 3.24959,0.986353 7.26189,2.449059 9.1543,3.296876 a 33.615185,33.615185 0 0 0 1.25586,-3.060547 c -0.29503,-0.114281 -0.53876,-0.204367 -0.95704,-0.373047 -4.08718,-1.648282 -10.03623,-3.583985 -11.01562,-3.583985 z m -38.43945,7.646485 c -2.36922,-0.07465 -3.83835,3.029494 -1.70313,4.826172 0.56615,0.47638 1.25195,0.642512 1.25195,0.302734 0,-0.09758 -0.08068,-0.177734 -0.17968,-0.177734 -0.36904,0 -0.88212,-1.153214 -0.88282,-1.982422 -0.0011,-1.392062 1.31793,-2.482507 2.67579,-2.210938 0.7206,0.144126 0.65357,-0.202869 -0.09961,-0.517578 -0.36729,-0.153462 -0.72405,-0.22957 -1.0625,-0.240234 z m 12.5,4.625 c -2.3872,0.06849 -4.6135,1.974138 -4.60938,4.751953 0.0026,1.782494 0.73464,3.106373 2.29883,4.152344 0.24127,0.161335 0.59647,0.292968 0.78906,0.292968 0.30596,0 0.2806,-0.07235 -0.20703,-0.576171 -1.46617,-1.514927 -1.50438,-4.182066 -0.08008,-5.701172 1.27906,-1.364201 3.21931,-1.689876 4.92774,-0.828125 0.57129,0.288163 1.06761,0.494834 1.10351,0.458984 0.14416,-0.14415 -0.35551,-0.808907 -1.0625,-1.414063 -0.95626,-0.81852 -2.07508,-1.16785 -3.16015,-1.136718 z m 16.78125,1.777344 c -2.25993,-0.0361 -4.21726,2.30567 -3.44922,4.599609 0.31094,0.928702 0.9473,1.673165 1.78515,2.087891 1.14195,0.565252 1.39393,0.465645 0.6211,-0.244141 -2.34933,-2.1577 -0.97839,-5.587891 2.23242,-5.587891 1.03288,0 0.94044,-0.30494 -0.20899,-0.6875 -0.32815,-0.109216 -0.65762,-0.162812 -0.98046,-0.167968 z" /><g
     id="layer5"
     style="display:inline;enable-background:new"
     transform="matrix(-1,0,0,1,95.65625,0.024552)"><path
       d="M 47.65625,16.125 69.6875,79.875 H 79 c 0.538805,0 0.875,-0.336196 0.875,-0.875 V 17 c 0,-0.538805 -0.336194,-0.875 -0.875,-0.875 z"
       inkscape:connector-curvature="0"
       id="path3664"
       style="opacity:0.7;fill:url(#linearGradient700);fill-opacity:1;fill-rule:evenodd;stroke:none" /><path
       d="m 47.65625,16.125 22.03125,63.75 h 1 L 48.65625,16.125 Z"
       inkscape:connector-curvature="0"
       id="path2669"
       style="opacity:0.5;fill:url(#linearGradient62874);fill-opacity:1;fill-rule:evenodd;stroke:none" /></g><g
     id="g62947"><path
       d="M 12,6 C 8.676,6 6,8.676 6,12 v 2 68 2 c 0,0.334721 0.04135,0.6507 0.09375,0.96875 0.0487,0.295596 0.09704,0.596915 0.1875,0.875 0.00988,0.03038 0.020892,0.0636 0.03125,0.09375 0.098865,0.287771 0.2348802,0.547452 0.375,0.8125 0.1445918,0.273507 0.3156161,0.535615 0.5,0.78125 0.1843839,0.245635 0.3737765,0.473472 0.59375,0.6875 0.439947,0.428056 0.94291,0.814526 1.5,1.09375 0.278545,0.139612 0.5734731,0.246947 0.875,0.34375 -0.2562018,-0.100222 -0.4867109,-0.236272 -0.71875,-0.375 -0.00741,-0.0044 -0.023866,0.0045 -0.03125,0 -0.031933,-0.0193 -0.062293,-0.04251 -0.09375,-0.0625 -0.120395,-0.0767 -0.2310226,-0.163513 -0.34375,-0.25 -0.1061728,-0.0808 -0.2132809,-0.161112 -0.3125,-0.25 C 8.4783201,88.557317 8.3087904,88.373362 8.15625,88.1875 8.0486711,88.057245 7.9378561,87.922215 7.84375,87.78125 7.818661,87.74287 7.805304,87.69538 7.78125,87.65625 7.716487,87.553218 7.6510225,87.451733 7.59375,87.34375 7.4927417,87.149044 7.3880752,86.928049 7.3125,86.71875 7.30454,86.69694 7.288911,86.6782 7.28125,86.65625 7.2494249,86.5643 7.2454455,86.469419 7.21875,86.375 7.1884177,86.268382 7.1483606,86.171969 7.125,86.0625 7.0521214,85.720988 7,85.364295 7,85 V 83 15 13 C 7,10.218152 9.2181517,8 12,8 h 2 68 2 c 2.781848,0 5,2.218152 5,5 v 2 68 2 c 0,0.364295 -0.05212,0.720988 -0.125,1.0625 -0.04415,0.206893 -0.08838,0.397658 -0.15625,0.59375 -0.0077,0.02195 -0.0233,0.04069 -0.03125,0.0625 -0.06274,0.173739 -0.138383,0.367449 -0.21875,0.53125 -0.04158,0.0828 -0.07904,0.169954 -0.125,0.25 -0.0546,0.09721 -0.126774,0.18835 -0.1875,0.28125 -0.09411,0.140965 -0.204921,0.275995 -0.3125,0.40625 -0.143174,0.17445 -0.303141,0.346998 -0.46875,0.5 -0.01117,0.0102 -0.01998,0.02115 -0.03125,0.03125 -0.138386,0.125556 -0.285091,0.234436 -0.4375,0.34375 -0.102571,0.07315 -0.204318,0.153364 -0.3125,0.21875 -0.0074,0.0045 -0.02384,-0.0044 -0.03125,0 -0.232039,0.138728 -0.462548,0.274778 -0.71875,0.375 0.301527,-0.0968 0.596455,-0.204138 0.875,-0.34375 0.55709,-0.279224 1.060053,-0.665694 1.5,-1.09375 0.219973,-0.214028 0.409366,-0.441865 0.59375,-0.6875 0.184384,-0.245635 0.355408,-0.507743 0.5,-0.78125 0.14012,-0.265048 0.276135,-0.524729 0.375,-0.8125 0.01041,-0.03078 0.02133,-0.06274 0.03125,-0.09375 0.09046,-0.278085 0.1388,-0.579404 0.1875,-0.875 C 89.95865,84.6507 90,84.334721 90,84 V 82 14 12 C 90,8.676 87.324,6 84,6 Z"
       inkscape:connector-curvature="0"
       id="rect3728-6"
       style="display:inline;opacity:0.7;fill:url(#linearGradient702);fill-opacity:1;fill-rule:nonzero;stroke:none;enable-background:new" /><path
       d="M 12,90 C 8.676,90 6,87.324 6,84 V 82 14 12 c 0,-0.334721 0.04135,-0.6507 0.09375,-0.96875 0.0487,-0.295596 0.09704,-0.596915 0.1875,-0.875 C 6.29115,10.12587 6.30214,10.09265 6.3125,10.0625 6.41136,9.774729 6.54738,9.515048 6.6875,9.25 6.832092,8.976493 7.003116,8.714385 7.1875,8.46875 7.371884,8.223115 7.561276,7.995278 7.78125,7.78125 8.221197,7.353194 8.72416,6.966724 9.28125,6.6875 9.559795,6.547888 9.854723,6.440553 10.15625,6.34375 9.900048,6.443972 9.669539,6.580022 9.4375,6.71875 c -0.0074,0.0044 -0.02387,-0.0045 -0.03125,0 -0.03193,0.0193 -0.06229,0.04251 -0.09375,0.0625 -0.120395,0.0767 -0.231023,0.163513 -0.34375,0.25 -0.106173,0.0808 -0.213281,0.161112 -0.3125,0.25 C 8.47832,7.442683 8.30879,7.626638 8.15625,7.8125 8.048671,7.942755 7.937856,8.077785 7.84375,8.21875 7.81866,8.25713 7.8053,8.30462 7.78125,8.34375 7.71649,8.446782 7.651022,8.548267 7.59375,8.65625 7.492742,8.850956 7.388075,9.071951 7.3125,9.28125 7.3045,9.30306 7.28891,9.3218 7.28125,9.34375 7.24942,9.4357 7.24545,9.530581 7.21875,9.625 7.18842,9.731618 7.14836,9.828031 7.125,9.9375 7.05212,10.279012 7,10.635705 7,11 v 2 68 2 c 0,2.78185 2.218152,5 5,5 h 2 68 2 c 2.781845,0 5.000005,-2.21815 5.000005,-5 V 81 13 11 c 0,-0.364295 -0.0521,-0.720988 -0.125,-1.0625 -0.0441,-0.206893 -0.0884,-0.397658 -0.15625,-0.59375 -0.008,-0.02195 -0.0233,-0.04069 -0.0312,-0.0625 -0.0627,-0.173739 -0.13839,-0.367449 -0.21875,-0.53125 -0.0416,-0.0828 -0.079,-0.169954 -0.125,-0.25 -0.0546,-0.09721 -0.12678,-0.18835 -0.1875,-0.28125 -0.0941,-0.140965 -0.20493,-0.275995 -0.3125,-0.40625 -0.14318,-0.17445 -0.30315,-0.346998 -0.46875,-0.5 -0.0112,-0.0102 -0.02,-0.02115 -0.0312,-0.03125 -0.13839,-0.125556 -0.2851,-0.234436 -0.4375,-0.34375 -0.10258,-0.07315 -0.204323,-0.153364 -0.312505,-0.21875 -0.0074,-0.0045 -0.02384,0.0044 -0.03125,0 -0.232039,-0.138728 -0.462548,-0.274778 -0.71875,-0.375 0.301527,0.0968 0.596455,0.204138 0.875,0.34375 0.557085,0.279224 1.060055,0.665694 1.500005,1.09375 0.21997,0.214028 0.40936,0.441865 0.59375,0.6875 0.18438,0.245635 0.3554,0.507743 0.5,0.78125 0.14012,0.265048 0.27613,0.524729 0.375,0.8125 0.0104,0.03078 0.0213,0.06274 0.0312,0.09375 0.0905,0.278085 0.1388,0.579404 0.1875,0.875 0.0524,0.31805 0.0937,0.634029 0.0937,0.96875 v 2 68 2 c 0,3.324 -2.67601,6 -6.000005,6 z"
       inkscape:connector-curvature="0"
       id="path3615-8"
       style="display:inline;opacity:0.4;fill:url(#radialGradient2893);fill-opacity:1;fill-rule:nonzero;stroke:none;enable-background:new" /></g><rect
     width="71.93441"
     height="72.08902"
     rx="4.8991961"
     ry="4.8991961"
     x="12.031837"
     y="11.976696"
     id="rect3425"
     style="display:inline;fill:none;stroke:url(#linearGradient3436);stroke-width:2.05927;stroke-linecap:square;stroke-linejoin:round;stroke-miterlimit:4;stroke-dasharray:none;stroke-dashoffset:0;stroke-opacity:0.696581;enable-background:new" /></svg>
