<?xml version="1.0" encoding="UTF-8" standalone="no"?>
<!-- Created with Inkscape (http://www.inkscape.org/) -->

<svg
   version="1.0"
   width="96"
   height="96"
   id="svg2408"
   sodipodi:docname="steam_icon_1158310.svg"
   inkscape:version="1.2.2 (b0a8486541, 2022-12-01)"
   xml:space="preserve"
   xmlns:inkscape="http://www.inkscape.org/namespaces/inkscape"
   xmlns:sodipodi="http://sodipodi.sourceforge.net/DTD/sodipodi-0.dtd"
   xmlns:xlink="http://www.w3.org/1999/xlink"
   xmlns="http://www.w3.org/2000/svg"
   xmlns:svg="http://www.w3.org/2000/svg"
   xmlns:rdf="http://www.w3.org/1999/02/22-rdf-syntax-ns#"
   xmlns:cc="http://creativecommons.org/ns#"
   xmlns:dc="http://purl.org/dc/elements/1.1/"><sodipodi:namedview
     id="namedview24059"
     pagecolor="#ffffff"
     bordercolor="#000000"
     borderopacity="0.25"
     inkscape:showpageshadow="2"
     inkscape:pageopacity="0.0"
     inkscape:pagecheckerboard="0"
     inkscape:deskcolor="#d1d1d1"
     showgrid="false"
     inkscape:zoom="5.6568543"
     inkscape:cx="26.339727"
     inkscape:cy="62.490561"
     inkscape:current-layer="svg2408" /><defs
     id="defs2410"><linearGradient
       inkscape:collect="always"
       id="linearGradient44562"><stop
         style="stop-color:#a4b350;stop-opacity:0;"
         offset="0"
         id="stop44558" /><stop
         style="stop-color:#dec70a;stop-opacity:1;"
         offset="1"
         id="stop44560" /></linearGradient><linearGradient
       inkscape:collect="always"
       id="linearGradient29752"><stop
         style="stop-color:#661e19;stop-opacity:0;"
         offset="0.66752124"
         id="stop29750" /><stop
         style="stop-color:#421711;stop-opacity:0.62301189;"
         offset="1"
         id="stop29748" /></linearGradient><linearGradient
       id="linearGradient29708"><stop
         id="stop29704"
         style="stop-color:#46160b;stop-opacity:1;"
         offset="0" /><stop
         id="stop29706"
         style="stop-color:#ac5340;stop-opacity:0;"
         offset="1" /></linearGradient><linearGradient
       inkscape:collect="always"
       id="linearGradient9066"><stop
         style="stop-color:#4c3d1b;stop-opacity:1;"
         offset="0"
         id="stop9062" /><stop
         style="stop-color:#c29752;stop-opacity:1;"
         offset="1"
         id="stop9064" /></linearGradient><linearGradient
       inkscape:collect="always"
       id="linearGradient6784"><stop
         style="stop-color:#d39433;stop-opacity:1;"
         offset="0"
         id="stop6780" /><stop
         style="stop-color:#e0b673;stop-opacity:1;"
         offset="1"
         id="stop6782" /></linearGradient><linearGradient
       inkscape:collect="always"
       id="linearGradient6776"><stop
         style="stop-color:#86662e;stop-opacity:1;"
         offset="0"
         id="stop6772" /><stop
         style="stop-color:#c29752;stop-opacity:1;"
         offset="1"
         id="stop6774" /></linearGradient><linearGradient
       id="linearGradient3729"><stop
         id="stop3731"
         style="stop-color:#1c59ad;stop-opacity:1"
         offset="0" /><stop
         id="stop3733"
         style="stop-color:#377ad6;stop-opacity:1"
         offset="1" /></linearGradient><linearGradient
       x1="45.447727"
       y1="92.539597"
       x2="45.447727"
       y2="7.0165396"
       id="ButtonShadow"
       gradientUnits="userSpaceOnUse"
       gradientTransform="scale(1.0058652,0.994169)"><stop
         id="stop3750"
         style="stop-color:#000000;stop-opacity:1"
         offset="0" /><stop
         id="stop3752"
         style="stop-color:#000000;stop-opacity:0.58823532"
         offset="1" /></linearGradient><linearGradient
       id="linearGradient3737"><stop
         id="stop3739"
         style="stop-color:#ffffff;stop-opacity:1"
         offset="0" /><stop
         id="stop3741"
         style="stop-color:#ffffff;stop-opacity:0"
         offset="1" /></linearGradient><linearGradient
       id="linearGradient3700"><stop
         id="stop3702"
         style="stop-color:#391103;stop-opacity:1;"
         offset="0" /><stop
         id="stop3704"
         style="stop-color:#9c362a;stop-opacity:1;"
         offset="1" /></linearGradient><linearGradient
       x1="48"
       y1="90"
       x2="48"
       y2="5.9877172"
       id="linearGradient3706"
       xlink:href="#linearGradient3700"
       gradientUnits="userSpaceOnUse" /><filter
       color-interpolation-filters="sRGB"
       id="filter3174"
       x="-0.047720931"
       y="-0.048282354"
       width="1.0954419"
       height="1.0965647"><feGaussianBlur
         stdDeviation="1.71"
         id="feGaussianBlur3176" /></filter><linearGradient
       x1="36.357143"
       y1="6"
       x2="36.357143"
       y2="63.893143"
       id="linearGradient3188"
       xlink:href="#linearGradient3737"
       gradientUnits="userSpaceOnUse" /><linearGradient
       x1="45.447727"
       y1="92.539597"
       x2="45.447727"
       y2="7.0165396"
       id="ButtonShadow-0"
       gradientUnits="userSpaceOnUse"
       gradientTransform="matrix(1.0058652,0,0,0.994169,100,0)"><stop
         id="stop3750-8"
         style="stop-color:#000000;stop-opacity:1"
         offset="0" /><stop
         id="stop3752-5"
         style="stop-color:#000000;stop-opacity:0.58823532"
         offset="1" /></linearGradient><linearGradient
       x1="32.251034"
       y1="6.1317081"
       x2="32.251034"
       y2="90.238609"
       id="linearGradient3780"
       xlink:href="#ButtonShadow-0"
       gradientUnits="userSpaceOnUse"
       gradientTransform="matrix(1.0238095,0,0,1.0119048,-1.1428571,-98.071429)" /><linearGradient
       x1="32.251034"
       y1="6.1317081"
       x2="32.251034"
       y2="90.238609"
       id="linearGradient3772"
       xlink:href="#ButtonShadow-0"
       gradientUnits="userSpaceOnUse"
       gradientTransform="matrix(1.0238095,0,0,1.0119048,-1.1428571,-98.071429)" /><linearGradient
       x1="32.251034"
       y1="6.1317081"
       x2="32.251034"
       y2="90.238609"
       id="linearGradient3725"
       xlink:href="#ButtonShadow-0"
       gradientUnits="userSpaceOnUse"
       gradientTransform="matrix(1.0238095,0,0,1.0119048,-1.1428571,-98.071429)" /><linearGradient
       x1="32.251034"
       y1="6.1317081"
       x2="32.251034"
       y2="90.238609"
       id="linearGradient3721"
       xlink:href="#ButtonShadow-0"
       gradientUnits="userSpaceOnUse"
       gradientTransform="translate(0,-97)" /><linearGradient
       x1="32.251034"
       y1="6.1317081"
       x2="32.251034"
       y2="90.238609"
       id="linearGradient3760"
       xlink:href="#ButtonShadow-0"
       gradientUnits="userSpaceOnUse"
       gradientTransform="matrix(1.0238095,0,0,1.0119048,-1.1428571,-98.071429)" /><linearGradient
       id="linearGradient3737-0"><stop
         id="stop3739-6"
         style="stop-color:#ffffff;stop-opacity:1"
         offset="0" /><stop
         id="stop3741-0"
         style="stop-color:#ffffff;stop-opacity:0"
         offset="1" /></linearGradient><radialGradient
       cx="48"
       cy="90.171875"
       r="42"
       fx="48"
       fy="90.171875"
       id="radialGradient2903"
       xlink:href="#linearGradient3737-0"
       gradientUnits="userSpaceOnUse"
       gradientTransform="matrix(1.1573129,0,0,0.99590774,-7.551021,0.1971319)" /><clipPath
       id="clipPath3782"><path
         d="m -98,6 c -3.324,0 -6,2.676 -6,6 l 0,72 c 0,3.324 2.676,6 6,6 l 72,0 c 3.324,0 6,-2.676 6,-6 l 0,-72 c 0,-3.324 -2.676,-6 -6,-6 l -72,0 z m 59.0625,12 C -38.336494,17.9909 -38,18.03125 -38,18.03125 l 0,12.0625 C -50.051065,30.305506 -53,42.0625 -53,42.0625 l 9.0625,0 0,12.0625 -14.09375,0 C -66.507844,80.276885 -86,77.9375 -86,77.9375 l 0,-12.0625 c 0,0 12.376145,2.298313 18.6875,-20.75 6.908061,-25.227422 24.167961,-27.061294 28.375,-27.125 z"
         inkscape:connector-curvature="0"
         id="path3784"
         style="fill:#ff00ff;fill-opacity:1;fill-rule:nonzero;stroke:none" /></clipPath><filter
       x="-0.18283333"
       y="-0.14622227"
       width="1.3656667"
       height="1.2924143"
       color-interpolation-filters="sRGB"
       id="filter3786"><feGaussianBlur
         id="feGaussianBlur3788"
         stdDeviation="3.24" /></filter><linearGradient
       x1="46.906918"
       y1="75.471306"
       x2="46.906918"
       y2="36.246487"
       id="linearGradient3745"
       xlink:href="#linearGradient3729"
       gradientUnits="userSpaceOnUse"
       gradientTransform="translate(-2)" /><linearGradient
       id="linearGradient3737-9"><stop
         id="stop3739-2"
         style="stop-color:#ffffff;stop-opacity:1"
         offset="0" /><stop
         id="stop3741-1"
         style="stop-color:#ffffff;stop-opacity:0"
         offset="1" /></linearGradient><clipPath
       id="clipPath3613"><rect
         width="84"
         height="84"
         rx="6"
         ry="6"
         x="6"
         y="6"
         id="rect3615"
         style="fill:#ffffff;fill-opacity:1;fill-rule:nonzero;stroke:none" /></clipPath><filter
       x="-0.19578789"
       y="-0.19578789"
       width="1.3915758"
       height="1.3915758"
       color-interpolation-filters="sRGB"
       id="filter3794"><feGaussianBlur
         id="feGaussianBlur3796"
         stdDeviation="5.28" /></filter><linearGradient
       x1="48"
       y1="20.220806"
       x2="48"
       y2="138.66119"
       id="linearGradient4186"
       xlink:href="#linearGradient3737-9"
       gradientUnits="userSpaceOnUse" /><linearGradient
       id="linearGradient2660"><stop
         style="stop-color:#edeeec;stop-opacity:1;"
         offset="0"
         id="stop2662" /><stop
         style="stop-color:#babdb6;stop-opacity:1;"
         offset="1"
         id="stop2664" /></linearGradient><linearGradient
       id="linearGradient15653"><stop
         style="stop-color:#f0f1ee;stop-opacity:1;"
         offset="0"
         id="stop15655" /><stop
         style="stop-color:#d5d9d1;stop-opacity:1;"
         offset="1"
         id="stop15657" /></linearGradient><radialGradient
       cx="27.524752"
       cy="67.603958"
       r="3.0495176"
       fx="27.524752"
       fy="67.603958"
       id="radialGradient15798"
       xlink:href="#linearGradient14628"
       gradientUnits="userSpaceOnUse"
       gradientTransform="matrix(-0.21583717,0.67605771,-0.72101558,0.34574411,154.48831,20.942094)" /><linearGradient
       id="linearGradient14628"><stop
         id="stop14630"
         style="stop-color:#f7f5eb;stop-opacity:1"
         offset="0" /><stop
         id="stop14632"
         style="stop-color:#f7f5eb;stop-opacity:0"
         offset="1" /></linearGradient><radialGradient
       cx="11.677764"
       cy="85.330391"
       r="1.3162042"
       fx="11.677764"
       fy="85.330391"
       id="radialGradient15796"
       xlink:href="#linearGradient5594"
       gradientUnits="userSpaceOnUse"
       gradientTransform="matrix(0.34976825,-0.14877179,2.1061584,2.4838232,-80.914385,-143.75683)" /><linearGradient
       id="linearGradient5594"><stop
         id="stop5596"
         style="stop-color:#faf8f1;stop-opacity:1"
         offset="0" /><stop
         id="stop5598"
         style="stop-color:#faf8f1;stop-opacity:0"
         offset="1" /></linearGradient><radialGradient
       cx="11.677764"
       cy="85.330391"
       r="1.3162042"
       fx="11.677764"
       fy="85.330391"
       id="radialGradient15794"
       xlink:href="#linearGradient5594"
       gradientUnits="userSpaceOnUse"
       gradientTransform="matrix(0.30621488,-0.23482712,2.7388538,1.9503712,-142.60236,-104.53494)" /><radialGradient
       cx="21.675274"
       cy="68.807892"
       r="1.456226"
       fx="21.675274"
       fy="68.807892"
       id="radialGradient15792"
       xlink:href="#linearGradient14407"
       gradientUnits="userSpaceOnUse"
       gradientTransform="matrix(0.82268251,0.29025665,-2.1595083,2.464403,276.30366,-162.71349)" /><linearGradient
       id="linearGradient14407"><stop
         id="stop14409"
         style="stop-color:#292000;stop-opacity:1"
         offset="0" /><stop
         id="stop14411"
         style="stop-color:#292000;stop-opacity:0"
         offset="1" /></linearGradient><radialGradient
       cx="21.675274"
       cy="68.807892"
       r="1.456226"
       fx="21.675274"
       fy="68.807892"
       id="radialGradient15790"
       xlink:href="#linearGradient14407"
       gradientUnits="userSpaceOnUse"
       gradientTransform="matrix(0.82268251,0.29025665,-2.1595083,2.464403,279.59834,-166.27543)" /><radialGradient
       cx="21.675274"
       cy="68.807892"
       r="1.456226"
       fx="21.675274"
       fy="68.807892"
       id="radialGradient15788"
       xlink:href="#linearGradient14407"
       gradientUnits="userSpaceOnUse"
       gradientTransform="matrix(0.7720959,0.40271304,-2.4953485,2.1361641,306.21938,-148.28628)" /><radialGradient
       cx="21.675274"
       cy="68.807892"
       r="1.456226"
       fx="21.675274"
       fy="68.807892"
       id="radialGradient15786"
       xlink:href="#linearGradient14407"
       gradientUnits="userSpaceOnUse"
       gradientTransform="matrix(0.82781113,0.44390159,-2.6754153,2.3546459,320.42188,-166.91077)" /><linearGradient
       x1="14.674215"
       y1="78.609375"
       x2="16.282122"
       y2="80.256248"
       id="linearGradient15784"
       xlink:href="#linearGradient5635"
       gradientUnits="userSpaceOnUse"
       gradientTransform="matrix(0.8460026,0,0,0.51442233,82.685855,23.749604)" /><linearGradient
       id="linearGradient5635"><stop
         id="stop5637"
         style="stop-color:#f3f0dd;stop-opacity:1"
         offset="0" /><stop
         id="stop5639"
         style="stop-color:#f3f0dd;stop-opacity:0"
         offset="1" /></linearGradient><linearGradient
       x1="14.674215"
       y1="78.609375"
       x2="16.282122"
       y2="80.256248"
       id="linearGradient15782"
       xlink:href="#linearGradient5635"
       gradientUnits="userSpaceOnUse"
       gradientTransform="matrix(0.8460026,0,0,0.51442233,81.656909,24.951699)" /><radialGradient
       cx="21.675274"
       cy="68.807892"
       r="1.456226"
       fx="21.675274"
       fy="68.807892"
       id="radialGradient15780"
       xlink:href="#linearGradient14407"
       gradientUnits="userSpaceOnUse"
       gradientTransform="matrix(0.40677198,-0.61869606,1.598244,2.5926475,-27.823613,-108.14765)" /><radialGradient
       cx="11.677764"
       cy="85.330391"
       r="1.3162042"
       fx="11.677764"
       fy="85.330391"
       id="radialGradient15778"
       xlink:href="#linearGradient5594"
       gradientUnits="userSpaceOnUse"
       gradientTransform="matrix(0.54235654,0,0,0.61505448,102.53265,19.195125)" /><radialGradient
       cx="12.138433"
       cy="84.727135"
       r="1.3162042"
       fx="12.138433"
       fy="84.727135"
       id="radialGradient15776"
       xlink:href="#linearGradient5594"
       gradientUnits="userSpaceOnUse"
       gradientTransform="matrix(0.83439254,0,0,0.98408484,80.177927,-30.212025)" /><radialGradient
       cx="21.675274"
       cy="68.807892"
       r="1.456226"
       fx="21.675274"
       fy="68.807892"
       id="radialGradient15774"
       xlink:href="#linearGradient14407"
       gradientUnits="userSpaceOnUse"
       gradientTransform="matrix(0.72292349,-0.73910136,2.8404321,3.0972063,-115.92045,-135.61414)" /><radialGradient
       cx="21.675274"
       cy="68.807892"
       r="1.456226"
       fx="21.675274"
       fy="68.807892"
       id="radialGradient15772"
       xlink:href="#linearGradient14618"
       gradientUnits="userSpaceOnUse"
       gradientTransform="matrix(0.6385755,-0.53650783,2.5090211,2.2482375,-84.146132,-76.168839)" /><linearGradient
       id="linearGradient14618"><stop
         id="stop14620"
         style="stop-color:#e3dbb6;stop-opacity:1"
         offset="0" /><stop
         id="stop14622"
         style="stop-color:#e3dbb6;stop-opacity:0"
         offset="1" /></linearGradient><radialGradient
       cx="55.784424"
       cy="45.368355"
       r="8.2892857"
       fx="55.784424"
       fy="45.368355"
       id="radialGradient15770"
       xlink:href="#linearGradient5746"
       gradientUnits="userSpaceOnUse"
       gradientTransform="matrix(1.112898,0,0,1.015669,63.861197,-9.5079712)" /><linearGradient
       id="linearGradient5746"><stop
         id="stop5748"
         style="stop-color:#f1e8da;stop-opacity:1"
         offset="0" /><stop
         id="stop5750"
         style="stop-color:#f1e8da;stop-opacity:0"
         offset="1" /></linearGradient><radialGradient
       cx="66.059402"
       cy="34.059406"
       r="17.742649"
       fx="66.059402"
       fy="34.059406"
       id="radialGradient15768"
       xlink:href="#linearGradient3737"
       gradientUnits="userSpaceOnUse"
       gradientTransform="matrix(0.71708468,-0.7220238,0.07541403,0.07881293,70.63825,86.413019)" /><radialGradient
       cx="66.059402"
       cy="34.059406"
       r="17.742649"
       fx="66.059402"
       fy="34.059406"
       id="radialGradient15766"
       xlink:href="#linearGradient3737"
       gradientUnits="userSpaceOnUse"
       gradientTransform="matrix(0.78237016,-0.81182079,0.08227994,0.08861477,88.689661,68.427172)" /><radialGradient
       cx="66.059402"
       cy="34.059406"
       r="17.742649"
       fx="66.059402"
       fy="34.059406"
       id="radialGradient15764"
       xlink:href="#linearGradient3737"
       gradientUnits="userSpaceOnUse"
       gradientTransform="matrix(0.83895091,-0.80754475,0.0882304,0.08814802,70.538199,81.059255)" /><linearGradient
       x1="14.674215"
       y1="78.609375"
       x2="16.282122"
       y2="80.256248"
       id="linearGradient15762"
       xlink:href="#linearGradient5635"
       gradientUnits="userSpaceOnUse"
       gradientTransform="matrix(0.8460026,0,0,0.51442233,74.697111,32.964672)" /><linearGradient
       x1="14.674215"
       y1="78.609375"
       x2="16.282122"
       y2="80.256248"
       id="linearGradient15760"
       xlink:href="#linearGradient5635"
       gradientUnits="userSpaceOnUse"
       gradientTransform="matrix(0.8460026,0,0,0.51442233,80.550307,26.249197)" /><linearGradient
       x1="14.674215"
       y1="78.609375"
       x2="16.282122"
       y2="80.256248"
       id="linearGradient15758"
       xlink:href="#linearGradient5635"
       gradientUnits="userSpaceOnUse"
       gradientTransform="matrix(0.8460026,0,0,0.51442233,79.482533,27.470372)" /><linearGradient
       x1="14.674215"
       y1="78.609375"
       x2="16.282122"
       y2="80.256248"
       id="linearGradient15756"
       xlink:href="#linearGradient5635"
       gradientUnits="userSpaceOnUse"
       gradientTransform="matrix(0.8460026,0,0,0.51442233,78.511829,28.577062)" /><linearGradient
       x1="14.674215"
       y1="78.609375"
       x2="16.282122"
       y2="80.256248"
       id="linearGradient15754"
       xlink:href="#linearGradient5635"
       gradientUnits="userSpaceOnUse"
       gradientTransform="matrix(0.8460026,0,0,0.51442233,77.523426,29.710407)" /><linearGradient
       x1="14.949592"
       y1="78.831924"
       x2="16.282122"
       y2="80.256248"
       id="linearGradient15752"
       xlink:href="#linearGradient5635"
       gradientUnits="userSpaceOnUse"
       gradientTransform="matrix(0.8460026,0,0,0.51442233,76.562479,30.816768)" /><linearGradient
       x1="14.674215"
       y1="78.609375"
       x2="16.282122"
       y2="80.256248"
       id="linearGradient15750"
       xlink:href="#linearGradient14576"
       gradientUnits="userSpaceOnUse"
       gradientTransform="matrix(0.8460026,0,0,0.51442233,75.628987,31.896144)" /><linearGradient
       id="linearGradient14576"><stop
         id="stop14578"
         style="stop-color:#ffffff;stop-opacity:1"
         offset="0" /><stop
         id="stop14580"
         style="stop-color:#f3f0dd;stop-opacity:0"
         offset="1" /></linearGradient><linearGradient
       x1="15.274659"
       y1="79.162712"
       x2="16.970562"
       y2="80.849716"
       id="linearGradient15748"
       xlink:href="#linearGradient5635"
       gradientUnits="userSpaceOnUse"
       gradientTransform="matrix(0.96998575,0,0,0.89656461,71.220293,3.0671441)" /><radialGradient
       cx="11.677764"
       cy="85.330391"
       r="1.3162042"
       fx="11.677764"
       fy="85.330391"
       id="radialGradient15746"
       xlink:href="#linearGradient5594"
       gradientUnits="userSpaceOnUse"
       gradientTransform="matrix(1.1870234,-1.1333164,0.56915424,0.40043871,21.233948,57.556544)" /><linearGradient
       x1="10.343069"
       y1="86.514854"
       x2="10.805447"
       y2="86"
       id="linearGradient15744"
       xlink:href="#linearGradient5584"
       gradientUnits="userSpaceOnUse"
       gradientTransform="matrix(0.98041064,0,0,0.96358326,71.032283,-2.1797958)" /><linearGradient
       id="linearGradient5584"><stop
         id="stop5586"
         style="stop-color:#000000;stop-opacity:1"
         offset="0" /><stop
         id="stop5588"
         style="stop-color:#453f1a;stop-opacity:1"
         offset="1" /></linearGradient><radialGradient
       cx="11.677764"
       cy="85.330391"
       r="1.3162042"
       fx="11.677764"
       fy="85.330391"
       id="radialGradient15742"
       xlink:href="#linearGradient5594"
       gradientUnits="userSpaceOnUse"
       gradientTransform="matrix(1.7730797,0,0,1.6606405,61.171656,-61.147268)" /><radialGradient
       cx="11.677764"
       cy="85.330391"
       r="1.3162042"
       fx="11.677764"
       fy="85.330391"
       id="radialGradient15740"
       xlink:href="#linearGradient5610"
       gradientUnits="userSpaceOnUse"
       gradientTransform="matrix(1.8460887,0,0,1.5478814,59.371854,-50.918326)" /><linearGradient
       id="linearGradient5610"><stop
         id="stop5612"
         style="stop-color:#362f14;stop-opacity:1"
         offset="0" /><stop
         id="stop5614"
         style="stop-color:#362f14;stop-opacity:0"
         offset="1" /></linearGradient><linearGradient
       x1="30.927635"
       y1="63.138847"
       x2="80.5"
       y2="15.128712"
       id="linearGradient15738"
       xlink:href="#linearGradient14518"
       gradientUnits="userSpaceOnUse"
       gradientTransform="matrix(1.0503571,-0.08778768,0.08740343,0.92525749,62.505194,4.4910374)" /><linearGradient
       id="linearGradient14518"><stop
         id="stop14520"
         style="stop-color:#3c3824;stop-opacity:1"
         offset="0" /><stop
         id="stop14522"
         style="stop-color:#867c4f;stop-opacity:0"
         offset="1" /></linearGradient><radialGradient
       cx="11.677764"
       cy="85.330391"
       r="1.3162042"
       fx="11.677764"
       fy="85.330391"
       id="radialGradient15736"
       xlink:href="#linearGradient5594"
       gradientUnits="userSpaceOnUse"
       gradientTransform="matrix(3.0879798,-3.2576243,0.80836798,0.73715888,-1.4718339,34.70168)" /><radialGradient
       cx="21.675274"
       cy="68.807892"
       r="1.456226"
       fx="21.675274"
       fy="68.807892"
       id="radialGradient15734"
       xlink:href="#linearGradient14407"
       gradientUnits="userSpaceOnUse"
       gradientTransform="matrix(0.9949568,0.67043858,-3.215616,3.5562962,304.30433,-202.93632)" /><radialGradient
       cx="11.677764"
       cy="85.330391"
       r="1.3162042"
       fx="11.677764"
       fy="85.330391"
       id="radialGradient15732"
       xlink:href="#linearGradient5594"
       gradientUnits="userSpaceOnUse"
       gradientTransform="matrix(3.5519966,-3.9173684,0.92983778,0.88645058,-11.956638,23.325562)" /><radialGradient
       cx="21.675274"
       cy="68.807892"
       r="1.456226"
       fx="21.675274"
       fy="68.807892"
       id="radialGradient15730"
       xlink:href="#linearGradient14407"
       gradientUnits="userSpaceOnUse"
       gradientTransform="matrix(0.91695544,0.63268241,-2.9635224,3.3560211,283.65207,-183.83104)" /><radialGradient
       cx="21.675274"
       cy="68.807892"
       r="1.456226"
       fx="21.675274"
       fy="68.807892"
       id="radialGradient15728"
       xlink:href="#linearGradient14560"
       gradientUnits="userSpaceOnUse"
       gradientTransform="matrix(0.73099952,0.52238801,-2.3625284,2.770972,237.75609,-131.78084)" /><linearGradient
       id="linearGradient14560"><stop
         id="stop14562"
         style="stop-color:#7d754a;stop-opacity:1"
         offset="0" /><stop
         id="stop14564"
         style="stop-color:#7d754a;stop-opacity:0"
         offset="1" /></linearGradient><radialGradient
       cx="11.677764"
       cy="85.330391"
       r="1.3162042"
       fx="11.677764"
       fy="85.330391"
       id="radialGradient15726"
       xlink:href="#linearGradient5594"
       gradientUnits="userSpaceOnUse"
       gradientTransform="matrix(-0.18692879,-0.62605626,3.7732361,-4.2150436,-228.30208,436.44752)" /><linearGradient
       x1="29.101606"
       y1="66.094131"
       x2="25.650665"
       y2="68.99028"
       id="linearGradient15724"
       xlink:href="#linearGradient5516"
       gradientUnits="userSpaceOnUse"
       gradientTransform="matrix(1.0364491,-0.08580347,0.08624612,0.90434453,64.03211,4.6870734)" /><linearGradient
       id="linearGradient5516"><stop
         id="stop5518"
         style="stop-color:#ddd6b9;stop-opacity:1"
         offset="0" /><stop
         id="stop5520"
         style="stop-color:#332e14;stop-opacity:1"
         offset="1" /></linearGradient><linearGradient
       x1="60.831684"
       y1="42.613865"
       x2="65.58416"
       y2="81.58416"
       id="linearGradient15722"
       xlink:href="#linearGradient5718"
       gradientUnits="userSpaceOnUse"
       gradientTransform="matrix(-0.81072871,0.15453469,-0.10394011,-0.72584806,177.33793,60.241324)" /><linearGradient
       id="linearGradient5718"><stop
         id="stop5720"
         style="stop-color:#f5eddc;stop-opacity:1"
         offset="0" /><stop
         id="stop5722"
         style="stop-color:#f5eddc;stop-opacity:0"
         offset="1" /></linearGradient><linearGradient
       x1="60.831684"
       y1="42.613865"
       x2="65.58416"
       y2="81.58416"
       id="linearGradient15720"
       xlink:href="#linearGradient5718"
       gradientUnits="userSpaceOnUse"
       gradientTransform="matrix(0.07509292,-0.65911274,0.71598493,0.06912813,90.871803,73.673134)" /><radialGradient
       cx="48"
       cy="90.171875"
       r="42"
       fx="48"
       fy="90.171875"
       id="radialGradient15718"
       xlink:href="#linearGradient3737"
       gradientUnits="userSpaceOnUse"
       gradientTransform="matrix(0.87238925,0,0,0.96656921,76.207536,-2.4085151)" /><linearGradient
       x1="60.831684"
       y1="42.613865"
       x2="65.58416"
       y2="81.58416"
       id="linearGradient15716"
       xlink:href="#linearGradient5718"
       gradientUnits="userSpaceOnUse"
       gradientTransform="matrix(0.32386721,0.31255067,-0.63337451,0.63397127,136.75297,-9.9560822)" /><linearGradient
       x1="36.357143"
       y1="6"
       x2="36.357143"
       y2="63.893143"
       id="linearGradient15714"
       xlink:href="#linearGradient3737"
       gradientUnits="userSpaceOnUse"
       gradientTransform="matrix(0.97974506,0,0,0.99326471,71.05446,-4.6371727)" /><linearGradient
       x1="60.831684"
       y1="42.613865"
       x2="65.58416"
       y2="81.58416"
       id="linearGradient15712"
       xlink:href="#linearGradient5718"
       gradientUnits="userSpaceOnUse"
       gradientTransform="matrix(-0.48576807,0.69759734,-0.60103398,-0.4744983,177.90289,15.726933)" /><linearGradient
       x1="60.831684"
       y1="42.613865"
       x2="65.58416"
       y2="81.58416"
       id="linearGradient15710"
       xlink:href="#linearGradient5718"
       gradientUnits="userSpaceOnUse"
       gradientTransform="matrix(0.98041064,0,0,0.96358326,71.032283,-2.1797958)" /><linearGradient
       inkscape:collect="always"
       xlink:href="#linearGradient6776"
       id="linearGradient6778"
       x1="45.591091"
       y1="59.324589"
       x2="45.591091"
       y2="35.087521"
       gradientUnits="userSpaceOnUse" /><linearGradient
       inkscape:collect="always"
       xlink:href="#linearGradient6784"
       id="linearGradient6786"
       x1="47.224964"
       y1="62.307426"
       x2="47.224964"
       y2="39.641071"
       gradientUnits="userSpaceOnUse" /><linearGradient
       inkscape:collect="always"
       xlink:href="#linearGradient9066"
       id="linearGradient7553"
       gradientUnits="userSpaceOnUse"
       x1="45.591091"
       y1="59.324589"
       x2="45.591091"
       y2="35.087521"
       gradientTransform="translate(-72.554711,-4.4485686)" /><filter
       inkscape:label="Chalk and Sponge"
       inkscape:menu="Distort"
       inkscape:menu-tooltip="Low turbulence gives sponge look and high turbulence chalk"
       width="1"
       height="1"
       y="0"
       x="0"
       style="color-interpolation-filters:sRGB;"
       id="filter7560"><feTurbulence
         baseFrequency="1.1522967998798077"
         type="fractalNoise"
         seed="0"
         numOctaves="3"
         result="result1"
         id="feTurbulence7556" /><feDisplacementMap
         xChannelSelector="R"
         yChannelSelector="G"
         scale="12.730378768631438"
         in="SourceGraphic"
         in2="result1"
         id="feDisplacementMap7558" /></filter><clipPath
       clipPathUnits="userSpaceOnUse"
       id="clipPath8695"><path
         style="fill:#ffffff;fill-opacity:1;stroke-width:0.212792"
         d="m -41.019217,54.876406 c -3.629195,-1.199054 -5.733458,-4.514273 -6.095151,-9.602771 -0.228764,-3.218461 0.797432,-7.544478 2.146316,-9.047947 0.357813,-0.398822 1.554643,-1.209512 2.65963,-1.801536 1.104978,-0.592022 2.814837,-1.661838 3.799669,-2.377371 l 1.79061,-1.300967 1.520118,0.123207 c 1.853233,0.150207 4.639812,0.871917 5.729474,1.483908 1.318336,0.740425 1.260159,1.17735 -0.401011,3.011482 -0.795903,0.878773 -1.567315,1.643905 -1.714262,1.700292 -0.146945,0.05638 -0.73016,-0.215957 -1.296036,-0.60521 -2.265715,-1.55854 -4.041007,-2.082766 -5.883034,-1.7372 -1.164009,0.218369 -2.174931,1.396955 -2.740618,3.195163 -0.383176,1.21805 -0.471233,1.990476 -0.46258,4.057913 0.01668,3.981475 0.760352,6.516406 2.389816,8.145867 2.245333,2.245332 6.70788,1.973774 9.474663,-0.576556 1.005486,-0.926826 1.50726,-0.972282 1.765106,-0.1599 0.296196,0.933247 -3.6151,3.853679 -6.680695,4.988241 -1.522973,0.563643 -4.949745,0.851046 -6.002015,0.503385 z m 30.020909,-0.184169 c -0.576934,-0.297388 -1.158768,-1.095395 -2.812171,-3.857007 -2.854364,-4.767524 -4.600129,-7.076901 -5.663606,-7.492067 -0.345121,-0.13473 -0.478782,-0.361046 -0.478782,-0.810692 0,-0.577379 0.122679,-0.674644 1.649133,-1.307477 3.806515,-1.578091 4.863195,-2.659818 5.255296,-5.379814 l 0.147491,-1.023198 -0.741346,0.139079 c -0.622666,0.116812 -0.780978,0.06504 -0.988852,-0.323378 -0.136124,-0.254352 -0.201301,-0.582844 -0.144839,-0.729983 0.111661,-0.290983 6.0839721,-3.10388 6.5901271,-3.10388 0.170489,0 0.427526,0.141629 0.571186,0.314728 0.345512,0.416311 -0.03133,4.469639 -0.49975,5.375476 -0.64034,1.238283 -2.2557991,2.453709 -6.3422871,4.771756 -0.160593,0.0911 0.237661,0.671433 1.116967,1.627639 0.751603,0.817334 2.409604,3.131872 3.6844431,5.143419 1.636483,2.582167 2.480998,3.721183 2.872687,3.874469 0.305134,0.119412 0.69842,0.28836 0.873975,0.375438 0.412629,0.204678 0.546262,1.260205 0.173845,1.373214 -0.154134,0.04677 -1.142044,0.354997 -2.195361,0.684947 -1.053317,0.329951 -2.010881,0.627445 -2.1279161,0.661103 -0.117033,0.03366 -0.540142,-0.107541 -0.94024,-0.313772 z"
         id="path8697"
         sodipodi:nodetypes="ssssscssssssssssssssssssscsssssssssssssss" /></clipPath><filter
       inkscape:label="Chalk and Sponge"
       inkscape:menu="Distort"
       inkscape:menu-tooltip="Low turbulence gives sponge look and high turbulence chalk"
       width="1.2063688"
       height="1.2437446"
       y="-0.12187229"
       x="-0.10318441"
       style="color-interpolation-filters:sRGB;"
       id="filter23738"
       inkscape:auto-region="true"><feGaussianBlur
         stdDeviation="3.4691678560697117"
         id="feGaussianBlur24829" /><feTurbulence
         baseFrequency="0"
         type="fractalNoise"
         seed="0"
         numOctaves="2"
         result="result1"
         id="feTurbulence23734" /><feDisplacementMap
         xChannelSelector="R"
         yChannelSelector="G"
         scale="2.550949744523487"
         in="SourceGraphic"
         in2="result1"
         id="feDisplacementMap23736" /></filter><filter
       inkscape:label="Torn Edges"
       inkscape:menu="Distort"
       inkscape:menu-tooltip="Displace the outside of shapes and pictures without altering their content"
       height="1"
       y="0"
       width="1"
       x="0"
       style="color-interpolation-filters:sRGB;"
       id="filter25218"><feTurbulence
         baseFrequency="0.074486365685096159"
         numOctaves="5"
         type="fractalNoise"
         result="result91"
         id="feTurbulence25212" /><feDisplacementMap
         scale="3.8617445093721772"
         result="result5"
         xChannelSelector="R"
         in="SourceGraphic"
         in2="result91"
         id="feDisplacementMap25214" /><feComposite
         in="SourceGraphic"
         operator="atop"
         in2="result5"
         id="feComposite25216" /></filter><filter
       inkscape:label="Leaves"
       inkscape:menu="Scatter"
       inkscape:menu-tooltip="Leaves on the ground in Fall, or living foliage"
       style="color-interpolation-filters:sRGB;"
       id="filter26004"
       x="-0.0012393031"
       y="-0.0014637551"
       width="1.0024786"
       height="1.0029275"><feTurbulence
         baseFrequency="0.10000000000000003"
         numOctaves="1"
         type="fractalNoise"
         result="result6"
         id="feTurbulence25988"
         seed="0" /><feColorMatrix
         result="result5"
         in="result6"
         id="feColorMatrix25990"
         type="matrix"
         values="1 0 0 0 0 0 1 0 0 0 0 0 1 0 0 0 0 0 1 0" /><feComposite
         in2="result5"
         operator="arithmetic"
         in="SourceGraphic"
         id="feComposite25992"
         baseFrequency="14.789999999999999"
         k1="-2.3103671450022665"
         k2="2.9803527666024472"
         k3="-0.24021401150271871"
         k4="-1.2102336312896647" /><feMorphology
         result="result3"
         radius="0.10000000000000001"
         operator="dilate"
         id="feMorphology25994" /><feTurbulence
         baseFrequency="0"
         numOctaves="1"
         type="fractalNoise"
         result="result91"
         id="feTurbulence25996" /><feDisplacementMap
         result="result4"
         scale="5.609676702235773"
         yChannelSelector="G"
         xChannelSelector="R"
         in="result3"
         in2="result91"
         id="feDisplacementMap25998"
         baseFrequency="0.16" /><feComposite
         in2="result4"
         operator="arithmetic"
         result="result2"
         k1="-4.1205182598594732"
         k3="-1.26691055643699"
         id="feComposite26000"
         k2="3.8494314157411598"
         k4="0" /></filter><filter
       inkscape:label="Chalk and Sponge"
       inkscape:menu="Distort"
       inkscape:menu-tooltip="Low turbulence gives sponge look and high turbulence chalk"
       width="1"
       height="1"
       y="0"
       x="0"
       style="color-interpolation-filters:sRGB"
       id="filter29700"><feTurbulence
         baseFrequency="0.67129281850961542"
         type="fractalNoise"
         seed="0"
         numOctaves="5"
         result="result1"
         id="feTurbulence29696" /><feDisplacementMap
         xChannelSelector="G"
         yChannelSelector="B"
         scale="43.603206865401987"
         in="SourceGraphic"
         in2="result1"
         id="feDisplacementMap29698" /></filter><filter
       inkscape:label="Chalk and Sponge"
       inkscape:menu="Distort"
       inkscape:menu-tooltip="Low turbulence gives sponge look and high turbulence chalk"
       width="1.0000073"
       height="1.0000074"
       y="-3.6761946e-06"
       x="-3.6324304e-06"
       style="color-interpolation-filters:sRGB"
       id="filter29700-7"><feTurbulence
         baseFrequency="0.16162578876201922"
         type="fractalNoise"
         seed="0"
         numOctaves="4"
         result="result1"
         id="feTurbulence29696-5" /><feDisplacementMap
         xChannelSelector="G"
         yChannelSelector="B"
         scale="100"
         in="SourceGraphic"
         in2="result1"
         id="feDisplacementMap29698-9" /><feGaussianBlur
         stdDeviation="0.00012713507"
         id="feGaussianBlur54416" /></filter><linearGradient
       inkscape:collect="always"
       xlink:href="#linearGradient44562"
       id="linearGradient44180"
       gradientUnits="userSpaceOnUse"
       x1="53.503418"
       y1="90"
       x2="53.503418"
       y2="6"
       gradientTransform="translate(-13.32529,115.77187)" /><clipPath
       clipPathUnits="userSpaceOnUse"
       id="clipPath44554"><path
         fill="#222226"
         d="m 3.0658201,147.26145 c 0.29585,2.74296 20.8983499,10.34231 23.0452299,11.24783 0.96403,0.40676 3.67471,1.43879 4.70126,1.77185 l -0.61626,-29.84116 c 0,0 -0.11835,-3.63698 -4.90892,-4.83809 8.55516,-0.2087 25.50918,-2.52318 27.69291,5.9144 0.77703,3.00192 0.83732,6.30028 -1.71706,8.87884 -2.98811,3.01597 -8.70867,3.51899 -13.32118,3.52282 0.007,4.50416 -0.11052,9.01812 -0.10606,13.49758 5.6e-4,0.66741 0.0363,1.97458 -0.005,2.64158 4.86873,-2.24932 9.73187,-5.36239 14.49621,-7.73907 3.85781,-1.92517 8.85325,-4.11357 11.30492,-7.2454 1.74329,1.34038 3.17232,3.2464 4.07216,5.00079 0.5063,0.98729 0.77312,1.4639 1.14265,2.47121 -1.16666,-0.10857 -1.9409,0.13885 -3.06625,0.33947 -1.80415,0.32199 -4.56562,1.74629 -6.23189,2.3396 -2.97694,1.06013 -18.10394,9.1182 -18.10394,9.1182 7.46944,2.69441 14.34215,5.46761 22.2576,8.35496 2.06817,0.75432 3.40231,1.41621 7.07255,0.90551 -2.10949,3.12672 -3.38165,5.66864 -6.23188,8.41586 -0.21156,-2.65947 -1.98221,-3.63399 -3.21475,-4.22688 -1.7913,-0.86079 -3.68587,-1.59509 -5.5397,-2.37751 -4.20333,-1.77355 -9.65595,-3.5241 -13.89725,-5.24527 -0.98915,-0.40165 -3.06905,-1.15 -4.06043,-1.5491 0,0 0.30143,27.52245 0.50016,28.88668 0.17304,1.1764 1.16778,2.13304 1.94537,3.0394 -4.46738,0.92639 -8.06338,0.0736 -12.60499,0.25301 4.02527,-0.1593 3.23874,-7.46647 3.28173,-9.38314 0.0882,-3.92661 -0.0999,-15.43681 -0.005,-19.36342 0.006,-0.23467 -0.15351,-1.99418 -0.0966,-2.57045 -6.66506,3.89552 -17.6596,8.40137 -23.5398099,13.01159 -2.03971,1.59934 -1.52336,2.63562 -3.759,0.18869 -1.69585,-1.85533 -2.15805,-3.01939 -3.85780995,-4.86833 3.14217995,-0.0448 5.13164995,-1.40811 7.71560995,-2.67949 2.56945,-1.26415 5.3381899,-2.4955 7.8635399,-3.81161 3.38779,-1.76546 9.56384,-4.55655 12.91591,-6.36205 -7.13886,-2.63136 -14.89466,-5.56044 -22.0587599,-8.15093 -1.67128,-0.60397 -4.27702,-1.54781 -6.33067995,-0.90551 0.65701,-2.8256 1.48204995,-5.27551 3.26442995,-8.64246 z M 47.04624,135.52594 c 0.38796,-2.86647 -1.0165,-4.63278 -4.56729,-5.27849 -2.49242,-0.45276 -4.84026,-0.36162 -4.71578,1.14787 0.14515,1.75821 -0.15406,4.25116 -0.0134,7.91369 2.26914,4.2e-4 8.72933,0.40122 9.29647,-3.78307 z m -19.706,20.52065"
         id="path44556"
         style="fill:#f1ee43;fill-opacity:1;stroke-width:0.487603" /></clipPath><radialGradient
       inkscape:collect="always"
       xlink:href="#linearGradient29752"
       id="radialGradient49316"
       cx="48"
       cy="48.5"
       fx="48"
       fy="48.5"
       r="42"
       gradientTransform="matrix(1.1331384,0,0,1.1895123,-6.3906452,-9.1913456)"
       gradientUnits="userSpaceOnUse" /></defs><metadata
     id="metadata2413"><rdf:RDF><cc:Work
         rdf:about=""><dc:format>image/svg+xml</dc:format><dc:type
           rdf:resource="http://purl.org/dc/dcmitype/StillImage" /></cc:Work></rdf:RDF></metadata><g
     id="layer7"
     style="display:inline"><path
       d="m 12,-95.03125 c -5.5110903,0 -10.03125,4.52016 -10.03125,10.03125 l 0,71 c 0,5.5110902 4.5201598,10.03125 10.03125,10.03125 l 72,0 c 5.51109,0 10.03125,-4.5201597 10.03125,-10.03125 l 0,-71 c 0,-5.51109 -4.52016,-10.03125 -10.03125,-10.03125 l -72,0 z"
       transform="scale(1,-1)"
       id="path3786"
       style="opacity:0.07999998;fill:url(#linearGradient3760);fill-opacity:1;fill-rule:nonzero;stroke:none;display:inline" /><path
       d="m 12,-94.03125 c -4.971633,0 -9.03125,4.059617 -9.03125,9.03125 l 0,71 c 0,4.9716329 4.0596171,9.03125 9.03125,9.03125 l 72,0 c 4.971633,0 9.03125,-4.059617 9.03125,-9.03125 l 0,-71 c 0,-4.971633 -4.059617,-9.03125 -9.03125,-9.03125 l -72,0 z"
       transform="scale(1,-1)"
       id="path3778"
       style="opacity:0.1;fill:url(#linearGradient3780);fill-opacity:1;fill-rule:nonzero;stroke:none;display:inline" /><path
       d="m 12,-93 c -4.4091333,0 -8,3.590867 -8,8 l 0,71 c 0,4.4091333 3.5908667,8 8,8 l 72,0 c 4.409133,0 8,-3.5908667 8,-8 l 0,-71 c 0,-4.409133 -3.590867,-8 -8,-8 l -72,0 z"
       transform="scale(1,-1)"
       id="path3770"
       style="opacity:0.2;fill:url(#linearGradient3772);fill-opacity:1;fill-rule:nonzero;stroke:none;display:inline" /><rect
       width="86"
       height="85"
       rx="7"
       ry="7"
       x="5"
       y="-92"
       transform="scale(1,-1)"
       id="rect3723"
       style="opacity:0.3;fill:url(#linearGradient3725);fill-opacity:1;fill-rule:nonzero;stroke:none;display:inline" /><rect
       width="84"
       height="84"
       rx="6"
       ry="6"
       x="6"
       y="-91"
       transform="scale(1,-1)"
       id="rect3716"
       style="opacity:0.45;fill:url(#linearGradient3721);fill-opacity:1;fill-rule:nonzero;stroke:none;display:inline" /></g><g
     id="layer1"><rect
       width="84"
       height="84"
       rx="6"
       ry="6"
       x="6"
       y="6"
       id="rect2419"
       style="fill:url(#linearGradient3706);fill-opacity:1;fill-rule:nonzero;stroke:none" /><rect
       width="84"
       height="83"
       rx="6"
       ry="6"
       x="6"
       y="7"
       id="rect2419-0"
       style="display:inline;opacity:0.81309537;fill:url(#radialGradient49316);fill-opacity:1;fill-rule:nonzero;stroke:none;filter:url(#filter29700)" /><path
       d="M 12,6 C 8.676,6 6,8.676 6,12 l 0,2 0,68 0,2 c 0,0.334721 0.04135,0.6507 0.09375,0.96875 0.0487,0.295596 0.09704,0.596915 0.1875,0.875 0.00988,0.03038 0.020892,0.0636 0.03125,0.09375 0.098865,0.287771 0.2348802,0.547452 0.375,0.8125 0.1445918,0.273507 0.3156161,0.535615 0.5,0.78125 0.1843839,0.245635 0.3737765,0.473472 0.59375,0.6875 0.439947,0.428056 0.94291,0.814526 1.5,1.09375 0.278545,0.139612 0.5734731,0.246947 0.875,0.34375 -0.2562018,-0.100222 -0.4867109,-0.236272 -0.71875,-0.375 -0.00741,-0.0044 -0.023866,0.0045 -0.03125,0 -0.031933,-0.0193 -0.062293,-0.04251 -0.09375,-0.0625 -0.120395,-0.0767 -0.2310226,-0.163513 -0.34375,-0.25 -0.1061728,-0.0808 -0.2132809,-0.161112 -0.3125,-0.25 C 8.4783201,88.557317 8.3087904,88.373362 8.15625,88.1875 8.0486711,88.057245 7.9378561,87.922215 7.84375,87.78125 7.818661,87.74287 7.805304,87.69538 7.78125,87.65625 7.716487,87.553218 7.6510225,87.451733 7.59375,87.34375 7.4927417,87.149044 7.3880752,86.928049 7.3125,86.71875 7.30454,86.69694 7.288911,86.6782 7.28125,86.65625 7.2494249,86.5643 7.2454455,86.469419 7.21875,86.375 7.1884177,86.268382 7.1483606,86.171969 7.125,86.0625 7.0521214,85.720988 7,85.364295 7,85 L 7,83 7,15 7,13 C 7,10.218152 9.2181517,8 12,8 l 2,0 68,0 2,0 c 2.781848,0 5,2.218152 5,5 l 0,2 0,68 0,2 c 0,0.364295 -0.05212,0.720988 -0.125,1.0625 -0.04415,0.206893 -0.08838,0.397658 -0.15625,0.59375 -0.0077,0.02195 -0.0233,0.04069 -0.03125,0.0625 -0.06274,0.173739 -0.138383,0.367449 -0.21875,0.53125 -0.04158,0.0828 -0.07904,0.169954 -0.125,0.25 -0.0546,0.09721 -0.126774,0.18835 -0.1875,0.28125 -0.09411,0.140965 -0.204921,0.275995 -0.3125,0.40625 -0.143174,0.17445 -0.303141,0.346998 -0.46875,0.5 -0.01117,0.0102 -0.01998,0.02115 -0.03125,0.03125 -0.138386,0.125556 -0.285091,0.234436 -0.4375,0.34375 -0.102571,0.07315 -0.204318,0.153364 -0.3125,0.21875 -0.0074,0.0045 -0.02384,-0.0044 -0.03125,0 -0.232039,0.138728 -0.462548,0.274778 -0.71875,0.375 0.301527,-0.0968 0.596455,-0.204138 0.875,-0.34375 0.55709,-0.279224 1.060053,-0.665694 1.5,-1.09375 0.219973,-0.214028 0.409366,-0.441865 0.59375,-0.6875 0.184384,-0.245635 0.355408,-0.507743 0.5,-0.78125 0.14012,-0.265048 0.276135,-0.524729 0.375,-0.8125 0.01041,-0.03078 0.02133,-0.06274 0.03125,-0.09375 0.09046,-0.278085 0.1388,-0.579404 0.1875,-0.875 C 89.95865,84.6507 90,84.334721 90,84 l 0,-2 0,-68 0,-2 C 90,8.676 87.324,6 84,6 L 12,6 z"
       inkscape:connector-curvature="0"
       id="rect3728"
       style="opacity:0.5;fill:url(#linearGradient3188);fill-opacity:1;fill-rule:nonzero;stroke:none" /><path
       d="M 12,90 C 8.676,90 6,87.324 6,84 V 82 14 12 c 0,-0.334721 0.04135,-0.6507 0.09375,-0.96875 0.0487,-0.295596 0.09704,-0.596915 0.1875,-0.875 C 6.29113,10.12587 6.302142,10.09265 6.3125,10.0625 6.411365,9.774729 6.5473802,9.515048 6.6875,9.25 6.8320918,8.976493 7.0031161,8.714385 7.1875,8.46875 7.3718839,8.223115 7.5612765,7.995278 7.78125,7.78125 8.221197,7.353194 8.72416,6.966724 9.28125,6.6875 9.559795,6.547888 9.8547231,6.440553 10.15625,6.34375 9.9000482,6.443972 9.6695391,6.580022 9.4375,6.71875 c -0.00741,0.0044 -0.023866,-0.0045 -0.03125,0 -0.031933,0.0193 -0.062293,0.04251 -0.09375,0.0625 -0.120395,0.0767 -0.2310226,0.163513 -0.34375,0.25 -0.1061728,0.0808 -0.2132809,0.161112 -0.3125,0.25 C 8.4783201,7.442683 8.3087904,7.626638 8.15625,7.8125 8.0486711,7.942755 7.9378561,8.077785 7.84375,8.21875 7.818661,8.25713 7.805304,8.30462 7.78125,8.34375 7.716487,8.446782 7.6510225,8.548267 7.59375,8.65625 7.4927417,8.850956 7.3880752,9.071951 7.3125,9.28125 7.30454,9.30306 7.288911,9.3218 7.28125,9.34375 7.2494249,9.4357 7.2454455,9.530581 7.21875,9.625 7.1884177,9.731618 7.1483606,9.828031 7.125,9.9375 7.0521214,10.279012 7,10.635705 7,11 v 2 68 2 c 0,2.781848 2.2181517,5 5,5 h 2 68 2 c 2.781848,0 5,-2.218152 5,-5 V 81 13 11 C 89,10.635705 88.94788,10.279012 88.875,9.9375 88.83085,9.730607 88.78662,9.539842 88.71875,9.34375 88.71105,9.3218 88.69545,9.30306 88.6875,9.28125 88.62476,9.107511 88.549117,8.913801 88.46875,8.75 88.42717,8.6672 88.38971,8.580046 88.34375,8.5 88.28915,8.40279 88.216976,8.31165 88.15625,8.21875 88.06214,8.077785 87.951329,7.942755 87.84375,7.8125 87.700576,7.63805 87.540609,7.465502 87.375,7.3125 87.36383,7.3023 87.35502,7.29135 87.34375,7.28125 87.205364,7.155694 87.058659,7.046814 86.90625,6.9375 86.803679,6.86435 86.701932,6.784136 86.59375,6.71875 c -0.0074,-0.0045 -0.02384,0.0044 -0.03125,0 -0.232039,-0.138728 -0.462548,-0.274778 -0.71875,-0.375 0.301527,0.0968 0.596455,0.204138 0.875,0.34375 0.55709,0.279224 1.060053,0.665694 1.5,1.09375 0.219973,0.214028 0.409366,0.441865 0.59375,0.6875 0.184384,0.245635 0.355408,0.507743 0.5,0.78125 0.14012,0.265048 0.276135,0.524729 0.375,0.8125 0.01041,0.03078 0.02133,0.06274 0.03125,0.09375 0.09046,0.278085 0.1388,0.579404 0.1875,0.875 C 89.95865,11.3493 90,11.665279 90,12 v 2 68 2 c 0,3.324 -2.676,6 -6,6 z"
       inkscape:connector-curvature="0"
       id="path3615"
       style="display:inline;opacity:0.3;fill:url(#radialGradient2903);fill-opacity:1;fill-rule:nonzero;stroke:none" /><rect
       width="84"
       height="83"
       rx="6"
       ry="6"
       x="-7.3252897"
       y="122.77187"
       id="rect2419-0-2"
       style="display:inline;opacity:0.24026663;fill:url(#linearGradient44180);fill-opacity:1;fill-rule:nonzero;stroke:none;filter:url(#filter29700-7)"
       clip-path="url(#clipPath44554)"
       transform="translate(13.428524,-115.86591)" /></g><g
     id="g46749"
     transform="matrix(1.1438135,0,0,1.1438135,-7.712571,-4.7300297)"><path
       id="path18287"
       style="opacity:0.15;stroke-width:0.212792"
       transform="matrix(1,0,0,1.0047522,62.354349,-1.1141472)"
       d="m -26.097656,35.359375 a 1.9147645,1.9147645 0 0 0 -1.279297,0.359375 l -1.791016,1.300781 c -0.866961,0.629894 -2.597445,1.713763 -3.580078,2.240235 -0.619526,0.331926 -1.23877,0.709979 -1.779297,1.076172 -0.540527,0.366192 -0.943959,0.624069 -1.40039,1.132812 -1.122928,1.251618 -1.663578,2.872345 -2.101563,4.71875 -0.437985,1.846405 -0.662337,3.874353 -0.529297,5.746094 0.39477,5.553843 2.986697,9.823668 7.404297,11.283203 1.263437,0.417427 2.290578,0.288473 3.585938,0.179687 1.295359,-0.108786 2.581321,-0.299809 3.68164,-0.707031 1.785787,-0.660911 3.615122,-1.734568 5.082031,-2.830078 0.733455,-0.547755 1.367946,-1.09002 1.882813,-1.673828 0.257434,-0.291904 0.489771,-0.58743 0.691406,-0.996094 0.201635,-0.408663 0.447892,-1.030539 0.183594,-1.863281 -0.120252,-0.378871 -0.289982,-0.814024 -0.738281,-1.246094 -0.448299,-0.43207 -1.255022,-0.70738 -1.861328,-0.652344 -1.212612,0.110074 -1.679081,0.670007 -2.28711,1.230469 -2.062529,1.901171 -5.530655,1.926375 -6.824218,0.632813 -1.132898,-1.132896 -1.812428,-3.053935 -1.828126,-6.800782 -0.0084,-2.010884 0.03613,-2.399349 0.375,-3.476562 0.441694,-1.404059 1.133379,-1.863496 1.267579,-1.888672 1.277354,-0.239633 2.396838,0.02779 4.443359,1.435547 0.363557,0.250083 0.719285,0.456222 1.080078,0.625 0.180397,0.08439 0.355124,0.160673 0.595703,0.228515 0.24058,0.06784 0.477438,0.31131 1.390625,-0.03906 0.433456,-0.166327 0.465264,-0.245566 0.560547,-0.318359 0.09528,-0.07279 0.16731,-0.134815 0.242188,-0.201172 0.149754,-0.132715 0.302787,-0.280709 0.474609,-0.451172 0.343643,-0.340927 0.752974,-0.769905 1.171875,-1.232422 0.874006,-0.965008 1.602004,-1.496322 1.794922,-2.949219 0.09646,-0.726448 -0.237506,-1.621634 -0.654297,-2.091797 -0.416791,-0.470162 -0.817751,-0.698372 -1.222656,-0.925781 -1.74364,-0.979286 -4.319943,-1.545009 -6.511719,-1.722656 z m 28.3769529,0.05273 c -0.4749113,0 -0.5476677,0.06508 -0.6875,0.105469 -0.1398323,0.04039 -0.2626164,0.08264 -0.3945313,0.13086 -0.26382965,0.09643 -0.55834834,0.217706 -0.8925781,0.359374 -0.66845951,0.283337 -1.4801509,0.651098 -2.2832031,1.029297 -0.8030523,0.3782 -1.5919638,0.763753 -2.2128906,1.087891 C -4.5018697,38.287069 -4.7669946,38.430816 -5,38.570312 c -0.1165027,0.06975 -0.2205997,0.135167 -0.3535156,0.232422 -0.066458,0.04863 -0.1398285,0.102308 -0.2480469,0.205078 -0.1082184,0.102771 -0.2831637,0.181444 -0.4960937,0.736329 -0.2870784,0.748121 -0.1565053,1.053473 -0.091797,1.380859 0.064708,0.327386 0.165542,0.621064 0.3359375,0.939453 0.1312417,0.245229 0.5937681,0.600222 1.0253906,0.908203 -0.1325666,0.384041 -0.2021517,0.900827 -0.4707031,1.175782 -0.4692728,0.480462 -1.4533999,1.076343 -3.2714844,1.830078 -0.7783398,0.322682 -1.2316194,0.450503 -1.8535155,0.943359 -0.310948,0.246428 -0.667801,0.687359 -0.826172,1.136719 -0.158371,0.44936 -0.150391,0.784333 -0.150391,0.996094 0,0.414152 0.05207,0.948968 0.375,1.496093 0.322935,0.547125 0.889471,0.928701 1.322266,1.097657 -0.2582509,-0.100818 0.4771799,0.358224 1.328125,1.484374 0.8509451,1.126151 1.9778377,2.85579 3.3867188,5.208985 1.6716036,2.792012 2.2269396,3.877733 3.578125,4.574219 0.2860924,0.147466 0.56107833,0.265569 0.8476562,0.361328 0.14328893,0.04788 0.2844362,0.09107 0.47460938,0.126953 0.19017317,0.03588 0.35744091,0.156953 1.02539062,-0.03516 0.3434805,-0.09878 1.1153888,-0.34545 2.1699219,-0.675782 C 4.1600848,62.363613 5.1988026,62.040467 5.2871094,62.013672 6.2029911,61.73575 6.6260014,60.941489 6.7597656,60.46875 6.8935299,59.996011 6.882233,59.639309 6.8378906,59.289062 6.7492059,58.588569 6.7143338,57.741635 5.4082031,57.09375 5.179859,56.980488 4.9150251,56.874971 4.65625,56.769531 4.5766467,56.682459 4.4415991,56.523363 4.2519531,56.267578 3.8416067,55.714123 3.2343968,54.806016 2.4277344,53.533203 1.1663424,51.542874 -0.26887665,49.517893 -1.2871094,48.365234 1.4575926,46.73135 3.2317241,45.482193 4.0527344,43.894531 4.3892613,43.243751 4.4484724,42.793628 4.5585938,42.203125 4.6687151,41.612622 4.7529049,40.962852 4.8125,40.322266 4.8720951,39.681679 4.9076658,39.060538 4.9003906,38.503906 4.896753,38.22559 4.8845604,37.966468 4.84375,37.681641 4.8029396,37.396813 4.9095407,37.123229 4.3242188,36.417969 3.7879341,35.771788 3.508046,35.412109 2.2792969,35.412109 Z" /><path
       id="path16832"
       style="opacity:0.35;stroke-width:0.212792"
       transform="matrix(1,0,0,0.99272167,62.354349,-0.69408378)"
       d="m -26.162109,36.160156 a 1.1115468,1.1115468 0 0 0 -0.742188,0.208985 l -1.791015,1.300781 c -0.916407,0.665818 -2.639874,1.742905 -3.673829,2.296875 -0.591407,0.316861 -1.191181,0.683728 -1.707031,1.033203 -0.51585,0.349475 -0.913893,0.626877 -1.253906,1.005859 -0.934794,1.041924 -1.497342,2.593958 -1.917969,4.367188 -0.420627,1.77323 -0.634979,3.740331 -0.509765,5.501953 0.380894,5.358637 2.768593,9.227859 6.855468,10.578125 0.954149,0.315242 2.021205,0.24725 3.267578,0.142578 1.246374,-0.104672 2.51252,-0.303585 3.470704,-0.658203 1.67966,-0.621634 3.472051,-1.671996 4.878906,-2.722656 0.703427,-0.52533 1.304478,-1.044297 1.759765,-1.560547 0.227644,-0.258125 0.421695,-0.511183 0.574219,-0.820313 0.152525,-0.309129 0.307632,-0.731318 0.138672,-1.263672 -0.09685,-0.305135 -0.229452,-0.621236 -0.53125,-0.912109 -0.301798,-0.290872 -0.81904,-0.468988 -1.230469,-0.431641 -0.822857,0.07469 -1.252543,0.503686 -1.816406,1.023438 -2.357954,2.173484 -6.242729,2.302192 -7.935547,0.609375 -1.3412,-1.341198 -2.04639,-3.519964 -2.0625,-7.365234 -0.0085,-2.034608 0.05465,-2.584411 0.41211,-3.720703 0.493707,-1.569399 1.318575,-2.331283 1.884765,-2.4375 1.514227,-0.284071 2.908405,0.09149 5.046875,1.5625 0.329739,0.226819 0.656975,0.416526 0.964844,0.560546 0.153934,0.07201 0.29968,0.132312 0.474609,0.181641 0.17493,0.04933 0.339238,0.193684 0.884766,-0.01563 0.259332,-0.09951 0.288655,-0.153004 0.359375,-0.207031 0.07072,-0.05403 0.131676,-0.105936 0.197266,-0.164063 0.131179,-0.116254 0.276461,-0.256281 0.441406,-0.419922 0.329889,-0.327281 0.732465,-0.748357 1.142578,-1.201172 0.855791,-0.944896 1.459699,-1.491354 1.595703,-2.515624 0.068,-0.512136 -0.154367,-1.109251 -0.460937,-1.455079 -0.306571,-0.345827 -0.640364,-0.546195 -1.013672,-0.755859 -1.469306,-0.82521 -4.133832,-1.45691 -6.183594,-1.623047 z m 28.4414059,0.05469 c -0.2889628,0 -0.3536459,0.0421 -0.4648438,0.07422 -0.1111978,0.03212 -0.218809,0.07099 -0.3398437,0.115235 -0.2420695,0.08848 -0.53067141,0.203299 -0.8574219,0.341797 -0.65350098,0.276996 -1.45837761,0.642921 -2.2539063,1.017578 -0.7955286,0.374656 -1.5764185,0.756326 -2.1816406,1.072266 -0.302611,0.157969 -0.5608698,0.298905 -0.7695312,0.423828 -0.1043307,0.06246 -0.1948359,0.117648 -0.2929688,0.189453 -0.049066,0.0359 -0.099026,0.07515 -0.1679687,0.140625 -0.068943,0.06547 -0.1737556,0.115473 -0.2988281,0.441406 -0.1784955,0.465156 -0.1012786,0.693848 -0.052734,0.939453 0.048544,0.245605 0.1264383,0.476666 0.2539062,0.714844 0.1499561,0.280197 0.476351,0.719533 0.9746094,0.882812 0.14097,0.0462 0.2195912,-0.01026 0.3398438,0.002 -0.1778298,0.923834 -0.3763139,1.610098 -0.8925782,2.138672 -0.6034518,0.617841 -1.6852491,1.243172 -3.5390625,2.011719 -0.7720002,0.320054 -1.2082567,0.470397 -1.6621093,0.830078 -0.2269268,0.179841 -0.4596678,0.472531 -0.5664068,0.775391 -0.106738,0.302859 -0.105468,0.545035 -0.105468,0.728516 0,0.334731 0.04412,0.715915 0.263672,1.08789 0.219553,0.371975 0.5982445,0.631473 0.9218746,0.757813 0.073139,0.02855 0.7953899,0.580342 1.6777344,1.748047 0.8823445,1.167704 2.0189888,2.913279 3.4355469,5.279296 1.6639687,2.77926 2.2294619,3.746321 3.2558593,4.275391 0.24999844,0.128862 0.4964021,0.232983 0.73437505,0.3125 0.11898647,0.03976 0.23448399,0.07383 0.37109375,0.09961 0.13660976,0.02578 0.25231644,0.09747 0.65234375,-0.01758 C 0.96333345,62.526193 1.8131646,62.257907 2.8671875,61.927734 3.9201248,61.597902 4.936814,61.281268 5.0527344,61.246094 5.6234721,61.072905 5.8966196,60.573943 5.9882812,60.25 6.0799429,59.926057 6.0748175,59.657616 6.0410156,59.390625 5.9734118,58.856644 5.895554,58.231536 5.0507812,57.8125 4.796009,57.686129 4.4223677,57.529333 4.0878906,57.398438 c 0.2110086,0.08258 0.1272347,0.07864 0.017578,-0.03711 C 3.9958122,57.245583 3.8240038,57.036256 3.6074219,56.744141 3.174258,56.159911 2.5615197,55.243368 1.75,53.962891 0.44804168,51.908553 -1.1492629,49.650794 -2.0566406,48.664062 c -0.2096905,-0.228029 -0.2807095,-0.333709 -0.4238282,-0.505859 3.27429749,-1.904785 5.0531741,-3.153105 5.8183594,-4.632812 0.2444824,-0.472784 0.3255632,-0.910405 0.4296875,-1.46875 0.1041244,-0.558345 0.1885025,-1.189546 0.2460938,-1.808594 0.057591,-0.619048 0.088736,-1.221361 0.082031,-1.734375 -0.00335,-0.256507 -0.014022,-0.487508 -0.046875,-0.716797 -0.032853,-0.229289 0.016108,-0.433991 -0.3417969,-0.865234 -0.3715839,-0.44773 -0.642911,-0.716797 -1.4277343,-0.716797 z" /><path
       id="path368-6"
       style="opacity:0.5;stroke-width:0.212792"
       transform="matrix(1,0,0,0.99940973,62.354349,-0.94463431)"
       d="m -26.214844,36.818359 a 0.45121371,0.45121371 0 0 0 -0.302734,0.08398 l -1.791016,1.300781 c -0.957056,0.695352 -2.671899,1.769128 -3.748047,2.345703 -0.568289,0.304475 -1.154827,0.662316 -1.65039,0.998047 -0.495563,0.335731 -0.886554,0.628086 -1.13086,0.900391 -0.780127,0.869532 -1.361221,2.365052 -1.767578,4.078125 -0.406357,1.713072 -0.610966,3.631643 -0.492187,5.302734 0.369487,5.198156 2.589314,8.737611 6.404297,9.998047 0.69988,0.231234 1.795852,0.212618 3.001953,0.111328 1.206101,-0.10129 2.455542,-0.307769 3.296875,-0.619141 1.592414,-0.589344 3.35736,-1.619023 4.714843,-2.632812 0.678742,-0.506895 1.253851,-1.006086 1.660157,-1.466797 0.203153,-0.230355 0.364412,-0.450433 0.476562,-0.677734 0.112151,-0.227302 0.192144,-0.486083 0.101563,-0.771485 -0.07761,-0.244517 -0.178017,-0.461926 -0.359375,-0.636719 -0.181359,-0.174792 -0.461672,-0.27085 -0.712891,-0.248046 -0.502437,0.04561 -0.902134,0.363326 -1.429687,0.849609 -2.600826,2.397355 -6.828561,2.612845 -8.84961,0.591797 -1.512448,-1.512446 -2.239411,-3.903893 -2.255859,-7.830078 -0.0086,-2.054111 0.06867,-2.737013 0.441406,-3.921875 0.536468,-1.705327 1.473197,-2.713876 2.394531,-2.886719 1.708962,-0.320603 3.328906,0.143007 5.542969,1.666016 0.301936,0.207694 0.604782,0.384146 0.869141,0.507812 0.132179,0.06183 0.254042,0.110422 0.375,0.144531 0.120957,0.03411 0.225478,0.09725 0.46875,0.0039 0.116183,-0.04458 0.144787,-0.07859 0.195312,-0.117188 0.05053,-0.0386 0.102202,-0.08145 0.160157,-0.132812 0.115909,-0.102721 0.254771,-0.2365 0.414062,-0.394532 0.318581,-0.316063 0.714299,-0.730943 1.117188,-1.175781 0.840817,-0.928363 1.342425,-1.488262 1.43164,-2.160156 0.04461,-0.335947 -0.08482,-0.684124 -0.300781,-0.927735 -0.215957,-0.24361 -0.496417,-0.424065 -0.84375,-0.61914 -1.243772,-0.698543 -3.979099,-1.384342 -5.912109,-1.541016 z M 2.2792969,36.875 c -0.1360927,0 -0.1935928,0.02351 -0.28125,0.04883 -0.087657,0.02532 -0.1847849,0.05864 -0.296875,0.09961 -0.2241803,0.08194 -0.5055702,0.196139 -0.8261719,0.332031 -0.64120343,0.271783 -1.44112533,0.634116 -2.2304688,1.005859 -0.7893434,0.371744 -1.5658922,0.751347 -2.1582031,1.060547 -0.2961554,0.1546 -0.545727,0.291356 -0.734375,0.404297 -0.094324,0.05647 -0.1726501,0.105369 -0.2421875,0.15625 -0.034769,0.02544 -0.066862,0.05113 -0.1035156,0.08594 -0.036653,0.03481 -0.085828,0.06151 -0.1386719,0.199219 -0.089228,0.232528 -0.05674,0.395847 -0.021484,0.574219 0.035255,0.178372 0.097276,0.359015 0.1894531,0.53125 0.1226177,0.229114 0.3100048,0.474096 0.5976562,0.568359 0.2876515,0.09426 0.5447322,0.04829 0.875,-0.01367 l 0.1191407,-0.02344 -0.056641,0.398437 c -0.1890861,1.311686 -0.5088945,2.136407 -1.2226562,2.867188 -0.7137618,0.730781 -1.874626,1.381385 -3.7578125,2.162109 -0.7667884,0.317893 -1.190157,0.486132 -1.5058594,0.736328 -0.1578512,0.125098 -0.289224,0.296096 -0.3535156,0.478516 -0.064292,0.18242 -0.068359,0.347581 -0.068359,0.507813 0,0.269438 0.037311,0.523971 0.171875,0.751953 0.1345636,0.227981 0.3598653,0.387211 0.59375,0.478515 0.3455777,0.134909 1.0547323,0.76493 1.9628906,1.966797 0.9081584,1.201867 2.0536931,2.961332 3.4765625,5.337891 1.657692,2.768775 2.2328014,3.633955 2.99218752,4.02539 0.22032512,0.113567 0.44261063,0.209226 0.64062501,0.275391 0.0990071812,0.03308 0.19062836,0.0587 0.28320312,0.07617 0.0925748,0.01747 0.16984367,0.0478 0.34960937,-0.0039 0.17039684,-0.04901 1.08311518,-0.335975 2.13671878,-0.666016 1.0531628,-0.329903 2.0527844,-0.641531 2.1914062,-0.683594 0.2869916,-0.08709 0.4351388,-0.341352 0.4921875,-0.542969 0.057049,-0.201616 0.056387,-0.399111 0.03125,-0.597656 C 5.3344927,59.075566 5.2232984,58.635194 4.7578125,58.404297 4.5501006,58.301269 4.1647015,58.137745 3.8476562,58.013672 3.8751393,58.024427 3.7664329,57.963631 3.6269531,57.816406 3.4874734,57.669182 3.302133,57.443437 3.0761719,57.138672 2.6242496,56.529142 2.0069191,55.603184 1.1914062,54.316406 c -1.28584759,-2.028917 -2.9195378,-4.31898 -3.734375,-5.205078 -0.4317788,-0.46954 -0.7426811,-0.84629 -0.9082031,-1.08789 -0.010989,-0.01604 -0.00794,-0.01435 -0.017578,-0.0293 3.81292011,-2.180401 5.5176434,-3.411915 6.2207031,-4.771485 0.1688117,-0.32645 0.2679934,-0.755201 0.3671875,-1.287109 0.099194,-0.531908 0.1803842,-1.14866 0.2363282,-1.75 0.055944,-0.601341 0.086314,-1.184955 0.080078,-1.662109 C 3.4324287,38.28486 3.4208421,38.074256 3.3945312,37.890625 3.3682204,37.706994 3.3701612,37.557533 3.1992188,37.351562 2.9630369,37.066982 2.6991646,36.875 2.2792969,36.875 Z" /><path
       style="fill:url(#linearGradient6778);fill-opacity:1;stroke-width:0.212792"
       d="m 31.535494,59.324975 c -3.629195,-1.199054 -5.733458,-4.514273 -6.095151,-9.602771 -0.228764,-3.218461 0.797432,-7.544478 2.146316,-9.047947 0.357813,-0.398822 1.554643,-1.209512 2.65963,-1.801536 1.104978,-0.592022 2.814837,-1.661838 3.799669,-2.377371 l 1.79061,-1.300967 1.520118,0.123207 c 1.853233,0.150207 4.639812,0.871917 5.729474,1.483908 1.318336,0.740425 1.260159,1.17735 -0.401011,3.011482 -0.795903,0.878773 -1.567315,1.643905 -1.714262,1.700292 -0.146945,0.05638 -0.73016,-0.215957 -1.296036,-0.60521 -2.265715,-1.55854 -4.041007,-2.082766 -5.883034,-1.7372 -1.164009,0.218369 -2.174931,1.396955 -2.740618,3.195163 -0.383176,1.21805 -0.471233,1.990476 -0.46258,4.057913 0.01668,3.981475 0.760352,6.516406 2.389816,8.145867 2.245333,2.245332 6.70788,1.973774 9.474663,-0.576556 1.005486,-0.926826 1.50726,-0.972282 1.765106,-0.1599 0.296196,0.933247 -3.6151,3.853679 -6.680695,4.988241 -1.522973,0.563643 -4.949745,0.851046 -6.002015,0.503385 z m 30.020909,-0.184169 c -0.576934,-0.297388 -1.158768,-1.095395 -2.812171,-3.857007 -2.854364,-4.767524 -4.600129,-7.076901 -5.663606,-7.492067 -0.345121,-0.13473 -0.478782,-0.361046 -0.478782,-0.810692 0,-0.577379 0.122679,-0.674644 1.649133,-1.307477 3.806515,-1.578091 4.863195,-2.659818 5.255296,-5.379814 l 0.147491,-1.023198 -0.741346,0.139079 c -0.622666,0.116812 -0.780978,0.06504 -0.988852,-0.323378 -0.136124,-0.254352 -0.201301,-0.582844 -0.144839,-0.729983 0.111661,-0.290983 6.083972,-3.10388 6.590127,-3.10388 0.170489,0 0.427526,0.141629 0.571186,0.314728 0.345512,0.416311 -0.03133,4.469639 -0.49975,5.375476 -0.64034,1.238283 -2.255799,2.453709 -6.342287,4.771756 -0.160593,0.0911 0.237661,0.671433 1.116967,1.627639 0.751603,0.817334 2.409604,3.131872 3.684443,5.143419 1.636483,2.582167 2.480998,3.721183 2.872687,3.874469 0.305134,0.119412 0.69842,0.28836 0.873975,0.375438 0.412629,0.204678 0.546262,1.260205 0.173845,1.373214 -0.154134,0.04677 -1.142044,0.354997 -2.195361,0.684947 -1.053317,0.329951 -2.010881,0.627445 -2.127916,0.661103 -0.117033,0.03366 -0.540142,-0.107541 -0.94024,-0.313772 z"
       id="path368"
       sodipodi:nodetypes="ssssscssssssssssssssssssscsssssssssssssss" /><path
       id="path368-3"
       style="fill:url(#linearGradient6786);stroke-width:0.212792"
       transform="translate(0.01287123,-4.2720378)"
       d="m 36.076172,39.673828 -1.578125,1.146484 c -1.029028,0.747644 -2.73305,1.811719 -3.882813,2.427735 -0.527642,0.282697 -1.086983,0.623982 -1.546875,0.935547 -0.459892,0.311564 -0.841949,0.630112 -0.917968,0.714844 -0.508175,0.566412 -1.122641,1.963016 -1.503907,3.570312 -0.381266,1.607296 -0.572308,3.441216 -0.464843,4.953125 0.34943,4.91598 2.27442,7.87603 5.611328,8.978516 0.253169,0.08365 1.407692,0.151512 2.542969,0.05664 1.135276,-0.09487 2.354614,-0.315542 2.990234,-0.550781 1.439006,-0.532569 3.151203,-1.523699 4.421875,-2.472656 0.635336,-0.474479 1.164193,-0.941634 1.484375,-1.304688 0.04662,-0.05287 0.05266,-0.0755 0.08984,-0.123047 -0.135601,0.08505 -0.134772,0.05633 -0.355469,0.259766 -3.028005,2.791116 -7.858993,3.154678 -10.457031,0.556641 -1.813557,-1.813554 -2.578659,-4.576073 -2.595704,-8.644532 -0.0087,-2.088402 0.09454,-3.005128 0.494141,-4.27539 0.611698,-1.944473 1.742072,-3.387884 3.287109,-3.677735 2.050893,-0.384749 4.06881,0.235014 6.416016,1.84961 0.25305,0.174067 0.515271,0.322278 0.703125,0.410156 0.0074,0.0034 0.0085,0.0026 0.01563,0.0059 0.08251,-0.07579 0.16999,-0.157243 0.28711,-0.273437 0.298699,-0.296339 0.685986,-0.700048 1.076171,-1.130859 0.814488,-0.899293 1.131727,-1.480902 1.138672,-1.533204 0.0035,-0.02615 0.03905,0.05802 -0.01758,-0.0059 -0.05663,-0.06388 -0.241308,-0.20753 -0.542969,-0.376953 -0.846649,-0.475507 -3.709282,-1.254457 -5.4375,-1.394531 z m 28.332031,0.05273 c -0.0074,0.0023 -0.02084,0.0071 -0.0293,0.0098 -0.02426,-0.0676 -0.08355,-0.126302 0.04883,0.0332 0.0014,0.0017 -0.03795,-0.02591 -0.01953,-0.04297 z m -0.03906,0.01367 c -0.04396,0.01422 -0.08258,0.02547 -0.146485,0.04883 -0.192725,0.07044 -0.461694,0.179238 -0.771484,0.310547 -0.619581,0.262618 -1.410985,0.619707 -2.189453,0.986329 -0.778468,0.366621 -1.545626,0.743666 -2.115235,1.041015 -0.246051,0.128444 -0.432389,0.232285 -0.583984,0.320313 0.0078,0.01845 0.01162,0.03991 0.01953,0.05469 -0.003,-0.0072 0.01367,0.0023 0.234375,-0.03906 l 0.740235,-0.138672 a 0.709863,0.709863 0 0 1 0.833984,0.798828 l -0.146484,1.021484 c -0.207007,1.436003 -0.635247,2.584307 -1.542969,3.513672 -0.907722,0.929365 -2.209698,1.619739 -4.144531,2.421875 -0.746977,0.30968 -1.129335,0.505015 -1.210938,0.566406 -3.27e-4,0.0074 -0.002,0.0015 -0.002,0.08398 0,0.153605 0.02644,0.184939 0.01172,0.160156 -0.01472,-0.02478 -0.05893,-0.04159 0.01758,-0.01172 0.824612,0.321917 1.515202,1.085721 2.46875,2.347656 0.953547,1.261936 2.110955,3.046312 3.544922,5.441407 1.646655,2.750342 2.239402,3.442367 2.529297,3.591797 0.16815,0.08667 0.348808,0.162389 0.476562,0.205078 0.03339,0.01116 0.04503,0.01323 0.06836,0.01953 0.138545,-0.04237 0.993909,-0.308878 1.984374,-0.619141 0.916744,-0.287168 1.592396,-0.496535 1.914063,-0.595703 -0.04657,-0.117757 -0.163841,-0.230661 0.0059,-0.146484 -0.128753,-0.06386 -0.532458,-0.242395 -0.816406,-0.353516 -0.294737,-0.115344 -0.448673,-0.276125 -0.640625,-0.478515 -0.191952,-0.202391 -0.398139,-0.458359 -0.640625,-0.785157 -0.484971,-0.653595 -1.111016,-1.590746 -1.933594,-2.888671 -1.257631,-1.984395 -2.957635,-4.336185 -3.609375,-5.044922 -0.45204,-0.491575 -0.783908,-0.887129 -1.009765,-1.216797 -0.112929,-0.164834 -0.201338,-0.302391 -0.269532,-0.5 -0.0341,-0.0988 -0.07303,-0.217241 -0.05273,-0.408203 0.02029,-0.190963 0.175545,-0.4776 0.390625,-0.59961 4.0637,-2.30512 5.556844,-3.506414 6.060547,-4.480468 0.03571,-0.06906 0.167284,-0.481187 0.257812,-0.966797 0.09053,-0.485611 0.167655,-1.074075 0.220704,-1.644532 0.05305,-0.570456 0.08158,-1.126713 0.07617,-1.541015 -0.0027,-0.20299 -0.0149,-0.370545 -0.0293,-0.47461 z" /><path
       style="display:inline;opacity:0.232598;fill:url(#linearGradient7553);fill-opacity:1;stroke-width:0.212792;filter:url(#filter7560)"
       d="m -41.019217,54.876406 c -3.629195,-1.199054 -5.733458,-4.514273 -6.095151,-9.602771 -0.228764,-3.218461 0.797432,-7.544478 2.146316,-9.047947 0.357813,-0.398822 1.554643,-1.209512 2.65963,-1.801536 1.104978,-0.592022 2.814837,-1.661838 3.799669,-2.377371 l 1.79061,-1.300967 1.520118,0.123207 c 1.853233,0.150207 4.639812,0.871917 5.729474,1.483908 1.318336,0.740425 1.260159,1.17735 -0.401011,3.011482 -0.795903,0.878773 -1.567315,1.643905 -1.714262,1.700292 -0.146945,0.05638 -0.73016,-0.215957 -1.296036,-0.60521 -2.265715,-1.55854 -4.041007,-2.082766 -5.883034,-1.7372 -1.164009,0.218369 -2.174931,1.396955 -2.740618,3.195163 -0.383176,1.21805 -0.471233,1.990476 -0.46258,4.057913 0.01668,3.981475 0.760352,6.516406 2.389816,8.145867 2.245333,2.245332 6.70788,1.973774 9.474663,-0.576556 1.005486,-0.926826 1.50726,-0.972282 1.765106,-0.1599 0.296196,0.933247 -3.6151,3.853679 -6.680695,4.988241 -1.522973,0.563643 -4.949745,0.851046 -6.002015,0.503385 z m 30.020909,-0.184169 c -0.576934,-0.297388 -1.158768,-1.095395 -2.812171,-3.857007 -2.854364,-4.767524 -4.600129,-7.076901 -5.663606,-7.492067 -0.345121,-0.13473 -0.478782,-0.361046 -0.478782,-0.810692 0,-0.577379 0.122679,-0.674644 1.649133,-1.307477 3.806515,-1.578091 4.863195,-2.659818 5.255296,-5.379814 l 0.147491,-1.023198 -0.741346,0.139079 c -0.622666,0.116812 -0.780978,0.06504 -0.988852,-0.323378 -0.136124,-0.254352 -0.201301,-0.582844 -0.144839,-0.729983 0.111661,-0.290983 6.0839718,-3.10388 6.5901268,-3.10388 0.170489,0 0.427526,0.141629 0.571186,0.314728 0.345512,0.416311 -0.03133,4.469639 -0.49975,5.375476 -0.64034,1.238283 -2.2557988,2.453709 -6.3422868,4.771756 -0.160593,0.0911 0.237661,0.671433 1.116967,1.627639 0.751603,0.817334 2.409604,3.131872 3.6844428,5.143419 1.636483,2.582167 2.480998,3.721183 2.872687,3.874469 0.305134,0.119412 0.69842,0.28836 0.873975,0.375438 0.412629,0.204678 0.546262,1.260205 0.173845,1.373214 -0.154134,0.04677 -1.142044,0.354997 -2.195361,0.684947 -1.053317,0.329951 -2.010881,0.627445 -2.1279158,0.661103 -0.117033,0.03366 -0.540142,-0.107541 -0.94024,-0.313772 z"
       id="path368-5"
       sodipodi:nodetypes="ssssscssssssssssssssssssscsssssssssssssss"
       clip-path="url(#clipPath8695)"
       transform="translate(72.554711,4.448569)" /><path
       id="path368-3-6"
       style="fill:#ffffff;fill-opacity:1;stroke-width:0.212792"
       d="m 36.084424,35.404379 -1.578125,1.146484 c -1.029027,0.747644 -2.733051,1.811719 -3.882813,2.427735 -0.527641,0.282696 -1.086983,0.623982 -1.546875,0.935546 -0.459891,0.311564 -0.841949,0.630112 -0.917968,0.714844 -0.508175,0.566412 -1.122641,1.963018 -1.503907,3.570313 -0.381265,1.607294 -0.572308,3.441217 -0.464843,4.953125 0.271621,3.82132 1.500826,6.455152 3.599609,7.958984 -1.942294,-1.527376 -3.079507,-4.094605 -3.339844,-7.748047 -0.10743,-1.507649 0.0837,-3.336685 0.464844,-4.939453 0.381141,-1.602768 0.995898,-2.99573 1.503906,-3.560547 0.07599,-0.08449 0.456274,-0.402204 0.916016,-0.71289 0.459741,-0.310688 1.019406,-0.651694 1.546875,-0.933594 1.149386,-0.614281 2.852168,-1.674384 3.880859,-2.419922 l 1.578125,-1.142578 1.257813,0.09961 c 1.727652,0.13968 4.589175,0.916458 5.435547,1.390625 0.118994,0.06667 0.205211,0.124334 0.287109,0.179688 -0.0023,-0.172491 -0.446386,-0.349695 -0.541016,-0.423828 -0.846648,-0.475507 -3.709283,-1.254458 -5.4375,-1.394532 z m 28.146484,0.115234 c -0.192725,0.07044 -0.461694,0.179238 -0.771484,0.310547 -0.619581,0.262618 -1.410986,0.619707 -2.189453,0.986328 -0.778467,0.366621 -1.545626,0.743667 -2.115235,1.041016 -0.24605,0.128444 -0.432389,0.232284 -0.583984,0.320312 0.0078,0.01845 0.01162,0.03991 0.01953,0.05469 -0.003,-0.0072 0.01367,0.0023 0.234375,-0.03906 l 0.626953,-0.117187 c 0.565107,-0.293218 1.306085,-0.656489 2.066407,-1.013672 0.778213,-0.365589 1.570075,-0.722497 2.189453,-0.984375 0.276734,-0.117006 0.503156,-0.20746 0.689453,-0.277344 -0.119874,-0.204442 -0.190673,-0.226804 -0.166016,-0.28125 z m -3.935547,2.865235 c 0.08789,0.139488 0.124493,0.30522 0.103516,0.46875 l -0.146484,1.021484 c -0.207007,1.436002 -0.635248,2.584308 -1.542969,3.513672 -0.907721,0.929364 -2.2097,1.61974 -4.144531,2.421875 -0.746977,0.30968 -1.129335,0.505015 -1.210938,0.566406 -3.27e-4,0.0074 -0.002,0.0015 -0.002,0.08398 0,0.1367 0.01553,0.152928 0.0098,0.142579 0.0067,0.0024 0.0022,-8.93e-4 0.01953,0.0059 0.07524,0.02937 0.149349,0.06674 0.222656,0.103516 -0.0017,-0.022 -0.002,-0.0011 -0.002,-0.0332 0,-0.08224 0.0016,-0.07656 0.002,-0.08398 0.08158,-0.06122 0.464205,-0.255645 1.210938,-0.564453 1.934199,-0.799876 3.235153,-1.489269 4.142578,-2.416016 0.907424,-0.926746 1.336029,-2.071948 1.542968,-3.503906 l 0.146485,-1.017578 c 0.03846,-0.285687 -0.100592,-0.566101 -0.351563,-0.708984 z m -6.933593,8.21875 c -0.02291,-0.0083 -0.0094,-0.0016 0.002,0.01758 0.0016,0.0027 -0.0027,-0.01886 -0.002,-0.01758 z m 1.064453,0.699218 c 0.438875,0.40416 0.889712,0.947443 1.423828,1.654297 0.953546,1.261935 2.110956,3.046314 3.544922,5.441406 1.646653,2.75034 2.239402,3.442368 2.529297,3.591797 0.01047,0.0054 0.01874,0.0084 0.0293,0.01367 -0.352083,-0.33856 -0.989817,-1.209689 -2.310546,-3.410156 -1.433498,-2.388347 -2.589734,-4.1674 -3.542969,-5.425781 -0.635234,-0.838582 -1.154627,-1.451235 -1.673828,-1.865235 z M 43.330518,53.73641 c -0.135601,0.08505 -0.134772,0.05634 -0.355469,0.259766 -2.783034,2.56531 -7.083657,3.073686 -9.779297,1.123047 2.072361,1.684586 5.236758,1.782673 7.894531,0.509765 0.22718,-0.154561 0.459155,-0.310357 0.666016,-0.464844 0.635335,-0.474478 1.164193,-0.941633 1.484375,-1.304687 0.04662,-0.05287 0.05266,-0.07549 0.08984,-0.123047 z"
       sodipodi:nodetypes="ccssssscssssscccscccccsssccccsscccccsscscscscssccccsccssscssccsccssc" /></g><g
     id="g931"
     transform="matrix(-0.67090036,0.44141271,-0.6490929,-0.45624278,155.10448,14.524615)"><g
       id="g51866"
       style="display:inline"><path
         d="M 162.78768,-3.4923999 151.71506,5.0586908 101.51793,56.496594 c 0,0 -2.07707,0.687715 -2.815927,2.993562 0,0 -7.005444,-4.653313 -7.543558,-6.172492 -0.538109,-1.519184 0.409269,0.100539 0.409269,0.100539 0,0 0.937335,-0.08427 0.249948,-1.151115 -0.687384,-1.066846 -1.673325,-1.229017 -1.673325,-1.229017 l -1.086606,0.536605 c 0,0 -0.861428,2.349428 5.581052,8.714525 1.763,1.74186 2.16456,1.905933 2.16456,1.905933 l -9.378458,11.094986 -1.069696,-1.040312 -1.026717,1.142577 1.131312,1.050453 -3.50138,3.565472 c 0,0 -2.233608,-0.528237 -3.465962,0.413484 -1.365632,1.043573 -0.671946,3.292601 0.210055,4.088123 0.881969,0.795566 3.329767,1.16549 4.38808,0.209509 1.425689,-1.287815 0.232606,-3.383837 0.232606,-3.383837 l 3.55037,-3.468029 1.119171,0.988837 1.063596,-1.106693 -1.057539,-0.978708 10.415367,-10.145519 c 0,0 4.972212,5.781031 8.027212,6.760422 3.05503,0.979391 3.89428,0.700157 2.81373,-0.848636 -0.69408,-0.994861 -2.12028,-0.169929 -2.12028,-0.169929 0,0 -6.09202,-7.631394 -5.86983,-7.71682 3.19486,-1.228237 2.94053,-2.312927 3.20266,-2.75784 0.39718,-0.674214 0.8177,-1.152537 1.85459,-2.405424 1.01971,-1.232127 47.83663,-49.477703 47.83663,-49.477703 z"
         id="path5514"
         style="display:inline;opacity:0.1;fill:#000000;fill-opacity:1;stroke:none;stroke-width:1.08783"
         sodipodi:nodetypes="ccccscscccccccccsccccccccsscccscc" /><path
         d="M 162.11237,-2.9386432 150.83643,5.3882232 100.76624,56.820947 c 0,0 -2.191012,0.572528 -2.799843,3.001896 0,0 -5.270855,-4.483783 -5.978962,-6.168267 -0.708099,-1.684491 0.409964,-0.407483 0.409964,-0.407483 0,0 1.007477,-0.01424 0.175252,-1.222516 -0.832225,-1.208276 -1.912701,-1.464121 -1.912701,-1.464121 l -1.131595,0.490454 c 0,0 -2.646428,1.130183 4.852833,8.530805 2.052192,2.025232 1.754198,3.006517 1.754198,3.006517 l -9.23187,11.212512 -1.243793,-1.210929 -1.016631,1.149692 1.311317,1.226926 -2.999755,3.050097 c 0,0 -2.461082,-0.753295 -3.716889,0.162672 -1.391625,1.015033 -0.454749,3.500355 0.565657,4.431589 1.020367,0.931275 3.700157,1.531167 4.766434,0.585547 1.436405,-1.27385 -0.02829,-3.634845 -0.02829,-3.634845 l 3.060836,-2.940865 1.293078,1.159396 1.059514,-1.107926 -1.225538,-1.143412 10.432666,-10.102363 c 0,0 4.484958,4.60222 7.872388,5.909931 3.38741,1.307713 4.27261,1.074914 2.97499,-0.685964 -0.83353,-1.131093 -2.3088,-0.3571 -2.3088,-0.3571 0,0 -5.85005,-6.691953 -5.61663,-6.765998 3.35604,-1.064657 2.99104,-2.256737 3.23789,-2.715697 0.37415,-0.69545 0.78967,-1.177513 1.80819,-2.445487 1.00163,-1.246969 47.67767,-49.509377 47.67767,-49.509377 z"
         id="path5512"
         style="display:inline;opacity:0.2;fill:#000000;fill-opacity:1;stroke:none;stroke-width:1.17413"
         sodipodi:nodetypes="ccccscscccccccccsccccccccsscccccc" /><path
         d="M 161.81665,-2.3656353 150.65473,6.0133968 100.62592,57.163551 c 0,0 -2.135261,0.619846 -2.801593,2.981619 0,0 -5.423171,-4.667534 -6.053147,-6.270233 -0.629973,-1.602704 0.411077,-0.399575 0.411077,-0.399575 0,0 0.973829,-0.04486 0.208624,-1.18445 -0.765204,-1.139594 -1.800877,-1.352964 -1.800877,-1.352964 l -1.109058,0.507967 c 0,0 -2.095956,1.642773 4.911497,8.548528 1.917607,1.889812 1.573949,2.874323 1.573949,2.874323 l -9.279844,11.0989 -1.162756,-1.129438 -1.01918,1.140205 1.22748,1.142781 -2.996269,3.034281 c 0,0 -2.353553,-0.650472 -3.596296,0.271707 -1.377148,1.021921 -0.551894,3.38991 0.404034,4.256504 0.955882,0.866633 3.525675,1.362402 4.586252,0.41749 1.428738,-1.272917 0.08953,-3.504697 0.08953,-3.504697 l 3.051772,-2.93082 1.212029,1.078218 1.059268,-1.101247 -1.147289,-1.06489 10.404296,-10.065333 c 0,0 4.866781,4.948312 8.097481,6.104873 3.23068,1.156565 4.09342,0.904703 2.89631,-0.753464 -0.76891,-1.065118 -2.21913,-0.273083 -2.21913,-0.273083 0,0 -6.11847,-6.921554 -5.89057,-7.000175 3.27667,-1.130459 2.96234,-2.26887 3.21559,-2.71913 0.38379,-0.682316 0.80074,-1.160068 1.82555,-2.414409 1.00782,-1.233558 47.65545,-49.2213098 47.65545,-49.2213098 z"
         id="path5510"
         style="display:inline;opacity:0.3;fill:#000000;fill-opacity:1;stroke:none;stroke-width:1.13637"
         sodipodi:nodetypes="ccccscscccccccccscsccccccsccccscc" /><path
         d="M 161.34605,-1.8454498 150.4359,6.699765 100.56606,57.584767 c 0,0 -2.016974,0.724671 -2.801054,2.958059 0,0 -4.569166,-3.842045 -5.036886,-5.281159 -0.467712,-1.439118 -0.977244,-1.735962 -0.977244,-1.735962 0,0 0.902916,-0.110334 0.277228,-1.111194 -0.625686,-1.000856 -1.567323,-1.125193 -1.567323,-1.125193 l -1.060888,0.548593 c 0,0 -0.77137,2.902272 5.210228,8.799817 1.636876,1.613911 1.244077,2.557629 1.244077,2.557629 l -9.365269,10.930027 -0.993708,-0.963371 -1.022945,1.12751 1.052552,0.971146 -2.984668,3.020567 c 0,0 -2.128043,-0.43585 -3.341986,0.505632 -1.345233,1.043308 -0.751685,3.177052 0.06968,3.911717 0.821321,0.734704 3.160178,1.012065 4.207447,0.06241 1.410801,-1.2793 0.332695,-3.250639 0.332695,-3.250639 l 3.028571,-2.928716 1.042882,0.912471 1.057205,-1.094279 -0.984022,-0.904706 10.330429,-10.052699 c 0,0 5.603409,5.641657 8.505739,6.484008 2.90232,0.842358 3.71736,0.548247 2.72967,-0.902141 -0.63446,-0.931652 -2.0308,-0.09599 -2.0308,-0.09599 0,0 -6.61909,-7.379852 -6.40293,-7.468736 3.10793,-1.278003 2.89872,-2.309624 3.16483,-2.744327 0.40324,-0.658741 0.82254,-1.130462 1.85882,-2.364023 1.01911,-1.213122 47.53956,-48.9317545 47.53956,-48.9317545 z"
         id="path5508"
         style="display:inline;opacity:0.4;fill:#000000;fill-opacity:1;stroke:none;stroke-width:1.05221"
         sodipodi:nodetypes="ccccscscccccccccscsccccccsccccscc" /></g><path
       d="M 160.58747,-1.2374319 149.98426,7.4516133 100.65899,58.092527 c 0,0 -1.89816,0.816452 -2.777717,2.936727 0,0 -5.982096,-3.698878 -6.30561,-4.994181 -0.323508,-1.295307 -0.768192,-1.532377 -0.768192,-1.532377 0,0 0.834193,-0.167742 0.334326,-1.046686 -0.499867,-0.878944 -1.352456,-0.92516 -1.352456,-0.92516 l -1.01055,0.584104 c 0,0 0.398171,4.014613 5.443369,9.026503 1.380626,1.371545 1.718157,1.47739 1.718157,1.47739 l -9.362741,10.779426 -0.839335,-0.817485 -1.017852,1.116121 0.892615,0.820378 -2.950275,3.007855 c 0,0 -1.915558,-0.247497 -3.09468,0.710705 -1.306634,1.061822 -0.918404,2.989628 -0.220166,3.608407 0.698198,0.618821 2.818159,0.704543 3.845359,-0.249058 1.383758,-1.284604 0.540368,-3.027068 0.540368,-3.027068 l 2.983775,-2.926203 0.888025,0.766882 1.046789,-1.087919 -0.83473,-0.764002 10.182197,-10.039341 c 0,0 6.053724,6.101209 8.648274,6.667774 2.59455,0.566569 3.36166,0.235467 2.56317,-1.032345 -0.51291,-0.814375 -1.85124,0.05937 -1.85124,0.05937 0,0 -6.85693,-7.632846 -6.65269,-7.730712 2.93658,-1.407125 2.82003,-2.344846 3.09507,-2.765805 0.41683,-0.637886 0.83474,-1.104209 1.87249,-2.319266 1.02056,-1.194926 47.05122,-48.6667133 47.05122,-48.6667133 z"
       id="path5506"
       style="display:inline;fill:url(#linearGradient15724);fill-opacity:1;stroke:none;stroke-width:0.971961" /><path
       d="m 91.140176,68.753754 a 0.73156897,7.4597071 41.491593 1 1 -0.0014,0.0016"
       id="path14606"
       style="display:inline;opacity:0.985714;fill:url(#radialGradient15726);fill-opacity:1;stroke:none;stroke-width:1.77487" /><path
       d="m 92.174047,70.885654 a 1.3032802,5.3039391 40.7667 1 1 9.84e-4,-0.0012"
       id="path14540"
       style="display:inline;opacity:0.652381;fill:url(#radialGradient15728);fill-opacity:1;stroke:none;stroke-width:0.896296" /><path
       d="m 101.03601,61.625433 a 1.6099903,6.5228404 41.89236 1 1 10e-4,-0.0014"
       id="path14524"
       style="display:inline;opacity:0.566667;fill:url(#radialGradient15730);fill-opacity:1;stroke:none;stroke-width:1.10475" /><path
       d="m 113.51556,48.042029 a 1.6903279,6.9601342 42.109771 1 1 -3.9e-4,-3.09e-4"
       id="path14536"
       style="display:inline;opacity:0.871429;fill:url(#radialGradient15732);fill-opacity:1;stroke:none;stroke-width:2.60599" /><path
       d="m 106.15393,57.168103 a 1.728329,6.9865509 42.65539 1 1 10e-4,-0.0015"
       id="path14528"
       style="display:inline;opacity:0.566667;fill:url(#radialGradient15734);fill-opacity:1;stroke:none;stroke-width:1.18462" /><path
       d="m 107.60924,55.255519 a 1.4396515,5.9079892 43.538477 1 1 -3.4e-4,-2.57e-4"
       id="path14532"
       style="display:inline;opacity:0.871429;fill:url(#radialGradient15736);fill-opacity:1;stroke:none;stroke-width:2.21578" /><path
       d="M 99.935498,61.637591 151.26055,8.4483811"
       id="path5545"
       style="display:inline;fill:none;stroke:url(#linearGradient15738);stroke-width:0.797084;stroke-linecap:butt;stroke-linejoin:miter;stroke-miterlimit:4;stroke-dasharray:none;stroke-opacity:1" /><path
       d="m 83.359364,81.121746 a 2.4298195,2.0373195 0 1 1 -1.5e-5,-5.94e-4"
       id="path5606"
       style="display:inline;opacity:0.890476;fill:url(#radialGradient15740);fill-opacity:1;stroke:none;stroke-width:1.69042" /><path
       d="m 84.210509,80.511577 a 2.3337252,2.1857329 0 1 1 -1.4e-5,-6.37e-4"
       id="path5592"
       style="display:inline;opacity:0.871429;fill:url(#radialGradient15742);fill-opacity:1;stroke:none;stroke-width:1.71594" /><path
       d="m 79.697448,79.454486 3.287415,2.925698"
       id="path5582"
       style="display:inline;fill:none;stroke:url(#linearGradient15744);stroke-width:0.616252;stroke-linecap:round;stroke-linejoin:miter;stroke-miterlimit:4;stroke-dasharray:none;stroke-opacity:1" /><path
       d="m 85.208751,76.989498 a 0.89486378,2.168924 48.674329 1 1 -2.28e-4,-1.44e-4"
       id="path5602"
       style="display:inline;opacity:0.409524;fill:url(#radialGradient15746);fill-opacity:1;stroke:none;stroke-width:1.05847" /><path
       d="m 85.741501,73.578058 -1.04492,1.106068 2.589701,2.320951 1.11681,-0.923682 z"
       id="path5633"
       style="display:inline;fill:url(#linearGradient15748);fill-opacity:1;stroke:none;stroke-width:0.971961" /><path
       d="m 88.338794,72.37269 -0.400231,0.449278 1.663126,1.480107 0.492141,-0.539492 z"
       id="path5643"
       style="display:inline;fill:url(#linearGradient15750);fill-opacity:1;stroke:none;stroke-width:0.971961" /><path
       d="m 89.272286,71.293314 -0.400231,0.449278 1.663126,1.480107 0.492141,-0.539492 z"
       id="path5647"
       style="display:inline;fill:url(#linearGradient15752);fill-opacity:1;stroke:none;stroke-width:0.971961" /><path
       d="m 90.233233,70.186954 -0.400231,0.449277 1.663127,1.480107 0.49214,-0.539491 z"
       id="path5651"
       style="display:inline;fill:url(#linearGradient15754);fill-opacity:1;stroke:none;stroke-width:0.971961" /><path
       d="m 91.221636,69.053608 -0.400231,0.449278 1.663127,1.480107 0.49214,-0.539492 z"
       id="path5655"
       style="display:inline;fill:url(#linearGradient15756);fill-opacity:1;stroke:none;stroke-width:0.971961" /><path
       d="m 92.19234,67.946919 -0.400231,0.449277 1.663126,1.480107 0.492141,-0.539492 z"
       id="path5659"
       style="display:inline;fill:url(#linearGradient15758);fill-opacity:1;stroke:none;stroke-width:0.971961" /><path
       d="m 93.260114,66.725743 -0.400231,0.449278 1.663126,1.480107 0.492141,-0.539492 z"
       id="path5663"
       style="display:inline;fill:url(#linearGradient15760);fill-opacity:1;stroke:none;stroke-width:0.971961" /><path
       d="m 87.406918,73.441218 -0.400231,0.449278 1.663127,1.480107 0.49214,-0.539492 z"
       id="path5667"
       style="display:inline;fill:url(#linearGradient15762);fill-opacity:1;stroke:none;stroke-width:0.971961" /><path
       d="m 143.81427,16.358948 a 2.2123979,20.660565 46.105746 1 1 -5.5e-4,-3.72e-4"
       id="path5679"
       style="display:inline;opacity:0.9;fill:url(#radialGradient15764);fill-opacity:1;stroke:none;stroke-width:1.00817" /><path
       d="m 157.02383,3.3842684 a 2.1421549,20.004323 43.904712 1 1 -5.1e-4,-3.731e-4"
       id="path5689"
       style="display:inline;opacity:0.9;fill:url(#radialGradient15766);fill-opacity:1;stroke:none;stroke-width:0.976157" /><path
       d="m 133.27022,28.56463 a 1.9347501,18.055078 44.786404 1 1 -4.7e-4,-3.31e-4"
       id="path5693"
       style="display:inline;opacity:0.9;fill:url(#radialGradient15768);fill-opacity:1;stroke:none;stroke-width:0.881342" /><path
       d="m 103.19135,66.051283 a 4.9090937,1.2016423 41.341745 1 1 -0.001,-9.38e-4"
       id="path14405"
       style="display:inline;opacity:0.314286;fill:url(#radialGradient15772);fill-opacity:1;stroke:none;stroke-width:0.827984" /><path
       d="m 96.162016,60.310465 a 6.1202984,1.5031834 47.676117 1 1 -0.0012,-0.0013"
       id="path14415"
       style="display:inline;opacity:0.566667;fill:url(#radialGradient15774);fill-opacity:1;stroke:none;stroke-width:1.03401" /><path
       d="m 91.019768,53.734092 a 1.0982264,1.2952512 0 1 1 -7e-6,-3.78e-4"
       id="path14506"
       style="display:inline;opacity:0.871429;fill:url(#radialGradient15776);fill-opacity:1;stroke:none;stroke-width:0.906153" /><path
       d="m 109.57986,71.661572 a 0.71384897,0.80953391 0 1 1 0,-2.36e-4"
       id="path14510"
       style="display:inline;opacity:0.704762;fill:url(#radialGradient15778);fill-opacity:1;stroke:none;stroke-width:0.577563" /><path
       d="m 91.510184,55.859326 a 4.4597556,0.97164035 59.69632 1 1 -6.73e-4,-0.0011"
       id="path14514"
       style="display:inline;opacity:0.542857;fill:url(#radialGradient15780);fill-opacity:1;stroke:none;stroke-width:0.709646" /><path
       d="m 94.366716,65.428245 -0.400231,0.449277 1.663126,1.480108 0.492141,-0.539492 z"
       id="path14568"
       style="display:inline;fill:url(#linearGradient15782);fill-opacity:1;stroke:none;stroke-width:0.971961" /><path
       d="m 95.395662,64.226151 -0.400231,0.449277 1.663126,1.480107 0.492141,-0.539492 z"
       id="path14572"
       style="display:inline;fill:url(#linearGradient15784);fill-opacity:1;stroke:none;stroke-width:0.971961" /><path
       d="m 155.55934,5.3059929 a 1.2759306,5.2133505 50.022718 1 1 0.001,-9.901e-4"
       id="path14582"
       style="display:inline;opacity:0.319048;fill:url(#radialGradient15786);fill-opacity:1;stroke:none;stroke-width:0.879236" /><path
       d="m 152.4528,7.9509076 a 1.1706082,4.8081875 50.900678 1 1 0.001,-8.982e-4"
       id="path14586"
       style="display:inline;opacity:0.209524;fill:url(#radialGradient15788);fill-opacity:1;stroke:none;stroke-width:0.808779" /><path
       d="m 150.10044,9.9362537 a 1.1734994,4.7963415 42.701976 1 1 9e-4,-0.00103"
       id="path14590"
       style="display:inline;opacity:0.180952;fill:url(#radialGradient15790);fill-opacity:1;stroke:none;stroke-width:0.808779" /><path
       d="m 146.80576,13.498195 a 1.1734994,4.7963415 42.701976 1 1 9e-4,-0.001"
       id="path14594"
       style="display:inline;opacity:0.214286;fill:url(#radialGradient15792);fill-opacity:1;stroke:none;stroke-width:0.808779" /><path
       d="m 95.010975,58.787746 a 4.4280341,0.48527751 35.241124 1 1 -0.0011,-7.47e-4"
       id="path14598"
       style="display:inline;fill:url(#radialGradient15794);fill-opacity:1;stroke:none;stroke-width:1.11373" /><path
       d="m 103.29358,66.189483 a 4.2888998,0.47747543 49.480119 1 1 -8.1e-4,-9.52e-4"
       id="path14602"
       style="display:inline;fill:url(#radialGradient15796);fill-opacity:1;stroke:none;stroke-width:1.08724" /><path
       d="m 99.1904,64.963954 a 1.2803683,2.9983922 44.632363 1 1 6.45e-4,-3.19e-4"
       id="path14626"
       style="display:inline;opacity:0.566667;fill:url(#radialGradient15798);fill-opacity:1;stroke:none;stroke-width:0.634328" /></g><rect
     style="opacity:0.813095;fill:#000000;stroke-width:0.677;stroke-linejoin:round;stop-color:#000000"
     id="rect478"
     width="3.2703688"
     height="3.9675708"
     x="-88.506256"
     y="1.5066156"
     rx="6"
     ry="3.9675708" /></svg>
